/* XPM */
static char *e841eacf95f84831d4433493bc502ab14GRI36EjO0xyONsO[] = {
/* columns rows colors chars-per-pixel */
"64 64 6 1 ",
"  c #002922",
". c #003422",
"X c #316A1F",
"o c #094227",
"O c #16582E",
"+ c #4C7C11",
/* pixels */
" OOOoo... oXX.   ..   ..OOO   ooo   ...ooOOOooXX oOOO   ooo  XX ",
"XXXooOOO   oo.OOOooOOOoXXX...  ooOOO ..oo XXXo   XXXo.   ooo. oo",
"XXoo .XXX    XXXooXXX.XXX...    XXX   ..   XX.   XXoo  OOOoo.ooo",
" ...   XXX  XXX.ooXX..+Xoo.    .XXoooOOO   ooo   ...    XXX OOO ",
"ooOOO ooX+  +X.      .. oo  OOO..  oXXX...  ooo OOOo   ooXXXoXXX",
"XooXXXoo.X. ..   OOOooo    ooXXX ..XXXo .OOO ooXXXooo   ooX+  XX",
"+ ooXXX  .. OOO  .XXXo .OOOoo XXXoo+Xoo ooXXX oXX  OOO   oo. ooX",
"     X+  oooOOoo..oXXo XXXoo   X+o ..    ooXX...  ..XXX   .OOOo.",
"OO    X ooo...ooo.oo ..XX...   ooOOO      oo  .OOO.. XXoooXXXo.O",
"XXXo   ooo.OOO oo OOO..   .OOO  XXX  ooo   OOO .OOo   ooo XX    ",
" XXoo..oo XXXo     XXXoo  XXXoooXX  oOOO    XXX  oOOOooOOO..    ",
".. oOOO.  XXo .ooo  XXX   XX  ooo  oooXXX  ooXX .XXX oo XXX ooo.",
"O..XXX.. ooo  OOOoo oX+.  ooo OOOo oo  XXXooo    XX.   ..XXXooOO",
" .XXX    oo  XXX.oo ..X o oo.XXXoo .OOOoX+oo     ooOOO .. X+oXXX",
"oo+X   OOO  XXXoo OOO.  oo  XXX    XXXo .X.   OOO ooXXX   oo XX ",
".oXo    XXX +Xoo   XXX  OOO +X.    XXo. ..  .XXX   ooXXX      ..",
"  oo...  XX.ooo.. ooXX XXX  Xoo          oooXXXoOOO.ooX+  OOOoo.",
"   ... ooo..oo ..  ooo XX    oooOOO ooo ooo.+X o XXX.. X.. XXXoo",
" OOO.   ooo OOO     oo        oo.XXXoo..OOO X   ooXX..  ... XXoo",
"XXXoooOOOooo.XXX   ..OOO ooo  ... XXo .XXX    ..ooo   oOOOooo   ",
"XXoooXXX .OOO XXX ..XXX oooOOO..  oo  XXX ooo  .OOO  oXXX .ooo..",
" oooXXX ...XXX X+.oXXX ooo..XXX  .OOO +Xo OOOo  .XXXooXX    ooo.",
"Ooo.+Xooo.  XXooo..+Xo.oo  ..XXX XXX.oXo XXXoo   .XXXo  .OOO oOO",
"  .. ooOOO  .ooo    ooo..OOO..X+oXX..oo .XX  OOOoo X+   XXX. XXX",
".OOO oo.XXX ooo    OOOo.. XXXooo    .. ...   .XXX   XooXXX..XXX.",
"ooXXX... XXXooOOOoXXX      XXoo oOOO OOO.    ooXX  ooo.+Xooo+X o",
"oooXX..  .X+ XXXooXX    ... oo oXXX ooXXX ...oo..  oo. Xooo     ",
" ooo      ooXXXoo ..oooOOO     oXX.ooo.XXX ...    OOO  ooo.OOO  ",
" OOO   OOO o+X  OOOoooXXX ooo.    .oo...X+o OOO  ooXXX oo ..XXX ",
"  XXX.ooXXX ooo .XXXoXXX   oOO. oo  OOO  ooXXXoo  ooXXX    ooXXX",
"   XXXoo XX  OOO .XX +X    .....o  XXX ...XXX ooOOOooX+.OOOoo.X+",
"  ..X+o ... XXX   ..   ooo  .XXX  XXXo  ..+X   XXX  ooXooXXX   X",
"OO..oo OOOooXX.ooo    ooOOO. .XXX +Xooo  .Xoo  XX   ..  ooXX ooo",
"XXX   XXXoo  .oooOOO ooXXX.   .X+ X..oo  ooo  ..ooo  OOO.oo ooo ",
" XX  XXXoo    oo  XXXooXX. OOO  Xooo OOOooo  OOOoo  XXX .. oOOO ",
".ooo +Xoo   OOO    XXX    XXX..OOOo XXX oo  .oXXX .XXXoo   XXX .",
"..oooX.    XXX  ooo X+   XXX ..oXXX XX    OOOooXXX +Xoo   XXX   ",
" OOOoo oooXXXo ..ooo X   +X   .ooXX...oooXXX    X+ ooOOO .+X ooo",
"o XXXo Oo +Xooo OOOoo    X  ooOOO ...  oXXXooo ... oXXX  ooo  oo",
"o  XXX... X  oo  XXXo  .ooo  XXX ..ooo  +X. ooo ... XX    oooOOO",
" ...X+ .ooo OOO   XX    .oooXXXo .OOO    ...OOO  ooo     OOOo XX",
"o .ooX ooo.  XXX.ooo ..OOOoo+X   ooXXX..  .. XXXooo OOOoXXX ..oX",
"OOooo ooo..   XXooo.  ..XXXoo   ooo XX.ooo    XXoo XXXooXX   ooo",
"XXXo  OOO OOO ..oo.OOOoo.XXX     ...   .oOOOooo   XXX..ooo  ooo.",
".XX .XXX   XXXo.  XXXoo   X+..  ooo..   XXXo.ooo  +Xo.  ooOOOo .",
" oooXXX ... XXXo +XXoo   ooo.  oooOOO. XXXoo  ooo.XoooOOO .XXX  ",
"  oo+X .ooo .X+ooXXoo OOO.ooo OOO  XXX +X..    oo.. oXXX   .XXo ",
"OO.ooo ooo    Xoo ...XXX ..ooXXX.   XXX    oooOOO... XX    ooo.O",
"X   OOO    ...   ooo XX     XXXooo   X+.. oooXXXoo..    ...  .XX",
"  oXXX.. OOOoo.OOOo        o+X  OOO   X...ooXXX.OOO  OOO ..ooXXX",
"   XXo..XXXoo...XXX .ooo  ..oooXXXooo  ooo  +X.XXXo XXX   ooo+X ",
"... oooXXXoo  .. XXX .ooo OOOooXXoooOOO ooo    XX  XXXoOOOoo.   ",
"oOOO ooXX.. OOOoo X+  .ooo XXX   ooXXX.. oOOO ooo  +Xo  XXX   oo",
"  XXX      XXXoo..  ooOOOo  XXX   XXXo.   oXXXoo  oXo   .XXX OOO",
"X oXXX    .XXoo..  ooXXX ... X+oo +Xooo  ...XXX   oo   oooX+ooXX",
"X  oX+ OOOo.oo..  .oXXX ...  ooo   ..ooOOO.  X+    OOO .ooo.oo X",
"    oo.oXXX  OOO   .+X  .OOOoooOOOo   XXX ooo.X.    XXX  oOOO   ",
"OOO  ..ooXX XXX ooo X.. XXX.ooXXXooo.XXX   ooo... ...XX..XXX    ",
"XX    ..   XXX...ooo ..XXXo.. XX  oo +X.   OOO ..OOO..  XXX ooOO",
"X    OOO ..+X... OOO   XXo      ...   .oooXXX   XXX ..oo+X.. XXX",
"o  .XXX ...Xoo.   XXX.ooo       OOO.  ooo.XX   XXX   ooo  oooXXo",
"o .XXX ...  oOOO  oXXXoo. oOOO.  XXX. oo...    +X   ooOOO  ooo o",
" ..+X  ..OOO oXXXoooX+ ..oooXXX   XXX  ..oooOOOoo  .oo XXX.OOO  ",
" ..X     oXXX oXXoo.     oo..XXo   X+  .OOO  XXX. .OOO oXX..XXX "
};
