/* XPM */
static char *Regular_and_powder_snow__1__resized[] = {
/* columns rows colors chars-per-pixel */
"64 64 14 1 ",
"  c #E7F7F6",
". c #EBF6F6",
"X c #E5F8F6",
"o c #ECF8F7",
"O c #E7F7F8",
"+ c #ECF7F9",
"@ c #E6F8F8",
"# c #EDF8F9",
"$ c #F1F6F7",
"% c #F2F8F7",
"& c #F2F7F9",
"* c #FDF7FC",
"= c #F4FAFA",
"- c #FAFAFB",
/* pixels */
"-----=#.....=***---%----------%------%-----=---**-*-*-====%##&#.",
"---==&# .  .$==*%%-----%-%-------%------==%===-*------==&####.#&",
"=-=#$#. .  ..$=*--%%----%-%-%-----%-----==#&%=-------=%%#%####&=",
"==&#        .$=-%--%-%-----------------%=&#.#%=-----=%#%##.####=",
"OO.. OOX   .$$$&%-%%---%----%-%--*---%%%$####$$---==&&&#o$##$&=-",
"oo  OOOO  ...$&&---------------------%$$#&##..%===&#&#&#oo#o&==-",
"XXXXO@@O .++$$&&-%%-%---%----------=$$..$.%##%%===#=####$o#=#---",
"XXXXXOOO..+++&&&--%%-------%-%-----=$$.....####--==##=&#$$#=-=--",
"    .++#++&+..$$%%-%---------------=##=#O.&&#===--==####%%-%----",
"  . .+#&++++$$$$%%---------*-------=&###.$#==-=----&====--------",
"....++##&&++&&$&%----------%-------=&&&#%%=------**===----------",
".+.+.+##++&&&&&&----------------*--=&&&&=-----*-----==---*------",
".+&+#&&&%%%%%*-=------------------*=&&=*-----**---===------%----",
"+.&+&$&#%%%-*%----%-%-------------=&&+==-------=-=$$%%----------",
"$$&+&.#&%=-%%-%*%-%%-------------*$++&&*-------==%$.o%%---------",
"&+&&&#&&==%-----%%%-%-----------==$+OO+=-------=&...o%%---------",
"&+&++++&---%-----%---%%--------$.++OOO+&=--===%$##o#.$$--**---*-",
"++++&+$&%---------------*-----%o OOOOO+.====%#%o##o#$$$%--*-----",
"+&+&##.$-------%--------****=#o   @@OO..##=&##$o$oo$$$$---------",
"++++&#$$%----------------*%$#o    @OOOO. o%#.%oooo#$$$%*--------",
"++++#&#&%%--------------&&&.. Xo    OOO ooo.###o.$%==---%-------",
"$+&&#++&%-%-----------%%$..   X     OOO   ..###o$$=-*------%----",
"#++++&.&%------------%%%      X O.   OOO@OO#ooo$$==---------%---",
"#&+&$&$=%-----------%%.     . XXOOO+OO OOOo oo%%----*-----------",
"+#+&$&*=----------==        @@@@OOOO+OOOXX .$$--%-------%----%--",
"&++&==*=-------=-&&O X      #@#@@OOO+OOO.  .$-%---%-------%-----",
"$.&&-=---------=+++OXX     o#@@@OOOOOOO+ .$------%%------------%",
"==$=----------=&.  OXXX    %#=-#O+OOO+OO$$%--------------%------",
"-=---=-----*=-=#..XXXX  oo%==--=++++O+O+------------------%-%---",
"--------------=#+.o XX  o%-%----++O#++&&---------%%--%----------",
"-%----------**-&.OO X .$%-------&&+#&&*&----------------------%-",
"----------------.. .o$$%--------*&&&==**-------%%%%------%-%----",
"----%---------=--###==--------**&=$=*--**-----$$$$$-------*-----",
"-----------------===---*-----==%&.$=-*-------%$$$$$%------*-----",
"---------=------=&&=---**-----=$$..=-------%%$$$$$$$=-----------",
"------%-------*=$$&&--**-*--==$$.$$$===*--%%%%oo$$$$===---*-----",
"-----=-------===$$$&=------=&$$$$#.$=&*=$%$%%%$o$$$&&*----*-*---",
"--------=---===.$$$$===---==$&$..###&=*&$$$%#ooo.$$%=%---*------",
"--------=-==&.$.=...==-==&##$..###.&$==$$$.$.ooo$%$%*----*------",
"%---=-=-===#&&#&.#.=o##=&&&.#$.&#%&&===$$.$..o%%$%%-*=-------%-%",
"-----%%-$&#%#$&#####.o$o&&&$.&##&=======####o%%%%------------=&#",
"------%-%#%#&.#&&#### oo.$##.#&&&=-===--==#%%%%%%-%-%-------=&##",
"----%%%-&%&&#&###.#.. o..$.#&#&=-=-------=%%%%%=-%----=---*=%$oo",
"----%-%-%%#.####O.OO .....&.=$&=---------=====--------------%#oo",
"------%-=$.$#..       .. .$=#=----------==&====-------------%###",
"-%--%%%--%$...        ..  .&=-----------=$&&=--*-------------=#o",
"---%%%%-%=$..           Xo@==---------==&$$&=----------------=%$",
"-%-------==$  XX      . oo#@=-------=####..&==-*-------------=%%",
"--%-----%%%%  .XOOOOOOO..  .&=----==#&#&&.##$=**-------------===",
"-----%-----%. XX OOO OOO.. .#=--==#&&&#+##&&.$$=--*%--------==#.",
"--------%-%%+.XXOOOOOO+.. ...&====##.#$#.=#..&.**--*-*------&#O.",
"---%---%----=. XOOOOOOO. . .OO&&o#O.&#++##&.#O.&%--**-----=###OO",
"%---------=-=#OOOOOOO O . ....++ooo####&#&#.+O..%--------&##oO#@",
"--%-%-------*&.+OOO OO++ .+O+O&+=##########+OOO o%-----=#.o#OO@@",
"----------=-=+. OOOOO+OO..O+++&&######=#.O+O+OO o%=----#OOO#OOO@",
"-%--------*&+..     ..+...O++++&#######.OO+OOOO ..%=&.OO  OOO@@#",
"---**--*-=&#        . + +++#####&#&#+++  o@OOO+  o#&o o@ O@OOOOO",
"=----*-=###..        ...++#####&&.#.+.   @@@XO+.o#&=.XX@XOOOO#O#",
"------*=#OO.        ...+O.###+###.##...  @OOOO+.$$==$ @#X@@O. #o",
"----==++++OO      +..+++&.+#+&#+.=#.  .    OO .=*%--=$@@@@@O. o#",
"-==-=++O+O.O#   .  .++O&##+++&+&+&++..O X   #&%------=#@OO++#.##",
"-==###O++.OO OO   O.++&&&&&&#&#++#++....Xo .&---%*%--=-@O+++####",
"-%#oOOOOO+O...OO  .+++&&&&+&+++##&+++++  OO=------*---=+++++###.",
"%%$oO@OOX  OOOOOOOOO..O&&&&+#&+&+++++++ O#------*--*--=+O++&####"
};
