/* XPM */
static char *IceBox_resized[] = {
/* columns rows colors chars-per-pixel */
"64 64 59 1 ",
"  c None",
". c #3B9CFB",
"X c #409FFB",
"o c #46A7F7",
"O c #4DAEF7",
"+ c #41A1F9",
"@ c #4DA6FB",
"# c #47A8F9",
"$ c #4AACF8",
"% c #4FB0F7",
"& c #51B2F5",
"* c #5CBDF4",
"= c #54B2F9",
"- c #59B3F9",
"; c #60BFF5",
": c #66B2FC",
"> c #7EBEFD",
", c #64C1F5",
"< c #6CC4F5",
"1 c #6AC5F8",
"2 c #73C6F6",
"3 c #76C8F6",
"4 c #7BCAF6",
"5 c #75CBFA",
"6 c #7DCDFA",
"7 c #7ED0FE",
"8 c #85CEF7",
"9 c #83C5FB",
"0 c #84CFF9",
"q c #9ACCFE",
"w c #8ED1F7",
"e c #82D2FF",
"r c #8AD6FF",
"t c #8ED8FF",
"y c #94D5FA",
"u c #9ED7F9",
"i c #94DBFF",
"p c #9ADEFF",
"a c #ABD7FD",
"s c #A3DDFE",
"d c #ACDEFB",
"f c #B0DFFA",
"g c #9FE1FF",
"h c #A2E2FF",
"j c #ACE2FE",
"k c #B3E2FC",
"l c #BCE5FC",
"z c #BCE9FE",
"x c #C2E5FC",
"c c #C4E9FE",
"v c #CCEBFD",
"b c #D3EEFD",
"n c #D7F0FE",
"m c #DCF2FE",
"M c #E5F5FE",
"N c #EAF7FE",
"B c #EDF8FF",
"V c #F4FBFE",
"C c #FBFEFF",
/* pixels */
"                                                                ",
"     i5*************************************************,t      ",
"    ig4*******************************************;*****1ig     ",
"   iggu,************************************************1ggt    ",
"  igggc<*****************************;******************<gggg   ",
" iggghm4************************************************1ggggi  ",
"rphjjzBj443335522<2<<<<21<<<<,<<,<,,,;,,;****;**;;;*;;*;<ggipit ",
"*<wkvBCCVVVVBNNMMmmnbbvvcczxczzkkjjsppitte557rree55555555<<<11, ",
"****,yNcjssspppppiiiiirrtttghhgghggggggggt7rggggteeeeeee5****** ",
"*****2ms7e77ee0077ee06e677tgggggggggggggie7tgggieeeeeeee5****** ",
"*****2bseeeeeeeeeeeeeeee7tggggggggggggggr7rggggteeeeeeee5****** ",
"*****<bseeeeeeeeeeeeeeeeeigggggggggggggte7tgggteeeeeeee77;***** ",
"*****<bu7eeeeeee7eee7ee7tgggggggggggggir7tggggr7eeeeeee7r;***** ",
"*****<vpeeee7eeeeeeeeeerggggggggggggggteeigggreeeeeeeeegt,***** ",
"*****;cpee07eeeeeeeeee7tgggggghghggggie7tgggie7eeeee7etgt;***** ",
"*****;xieeeeeeeeeeeeeergggggggggggggprerggggr7eee7ee77ggt;***** ",
"******lyeeeeeeeeee7eeeihgghgggggggggi77tggggeeeeeeee7tggt,***** ",
"******ly7eeeeeeeeeeeetgggggggggggggge7rgggge7eeeeeeeegggt;***** ",
"******kieeeeeeeeeeeerpggggggggggggge7eggggteeeeeeeeeigggt;***** ",
"******dreeeeee7eeeeeihgggggggggggggeeigggteeeeeeee7tggggt;***** ",
"******sreee7eeeeee7tgggggggggggggg77eggggeeeeeeeeeegggggt;***** ",
"******ureeeeeeeeeeeigggggggggggggr77igggr7eee7eeeetgggggt,***** ",
"******yree7eeeeeeetggggggggggggggeetggggreeeeeeeeeggggggt****** ",
"******wreeeeeee7erggggggggggggggr7eggggt7ee7eeeeeggggggg7****** ",
"******0reeeeeeeeeigggggggggggggt77rgggt7ee7eeeeerggggggg5****** ",
"******6eeeeeeeeetggggghgggggggge7rggggr7eeeeee7egggggggr5;***** ",
"******2eeeeeeeeeigggggggggggggterggggt7eeeeeeeeiggggggte5****** ",
"******1eeeeeeeeigggggggggggggie7tggggreeeeeeeerggggggtee5;***** ",
"******1ee0eeeerghgggggggggggge7rggggr77ee7ee77igggggge7e5;***** ",
"******1eeeeeeeiggggggggghgggt77tgggt77r7eeeeetggggggge7e5**;*** ",
"******;0eeeeetggggggghggggggeetggggree77eee7rgggggggr7ee5;***** ",
"******,eeee7epgggggggggggggteeggggtee77reee7iggggggreeee5****** ",
"******1eeee7ggggggggggggggge7rgggir777r7r77rggggggi7r7775;***** ",
"******17eeeeggghggggggggggeeeggggr77r7r777rgggggggt77er75*****; ",
"******17e77ggggggggggggggt7eggggtr7ree777rtggggggt77ee775;;**** ",
"******17eergggggggggggggg77egggg77777eee77gggggggr7r77rr5;***;* ",
"******17eeggggggggggggggeerggggre77ereee7iggggggr7777r775****** ",
"******;7eggggggggggggggie7tgggg7e7re77eerggggggi77r777r75;***** ",
"******17rggggggggggggggr7eggggreeeeeeeergggggggrrr77rr775;***** ",
"******17ggggggggggggggteetgggt7eeeeeee7tggggggie777r777r5*****; ",
"******1tgggggggggggggg77rgggi7eeeeeeeerggggggg77eeeeeeee5;***** ",
"******1ggggggggggggggeeeggggteeeee7ee7gggggggr77eeeeeeee7;***** ",
"******5gggggggggggggg7eggggi7ee7eeee7rggggggg7e7eeeee7eer,***** ",
"******5ggggggggggggg777ggggreeeeeeee7gggggggree77eeeeeeei,***** ",
"******5ggggggggggggt7eggggreeeeeee7egggggggr777reeeeeeees<***** ",
"******5gggggggggggge7tgggg77eeeeee7eggggggge7reeeeeeeee7k1***** ",
"******5gggggggggggr77ggggreeeeeeeergggggggr77eeeeeeeeeeez5***** ",
"******5ggggggggggre7igggieeee7eee7tggggggt77eeeeeeeeeeeex8***** ",
"******5gggggggggge7rggggeeeeee7e7rpgggggpe7eeee7eeeeeeeev0***** ",
"******5gggggggggteeggggt7eeeeeeeeiggggggteeeeeee7eeeeeerbw***** ",
"******3gggggggggeetgggteeee7eee7tggggggieeeeeeeeeeeeee0rby***** ",
"******5gggggggg77eggggr7eeeeeeeriggggggreeeeeeeeeeeeeeermu***** ",
"******5gggggggr77igggteeeeeeee7tggggggieeeeeeeeeeeeeee7iMs***** ",
"******5ggggggge7rggggreeeeeeeeeggggghir7eeeeeeee6eeeeeeyMd***** ",
"******2ggggggt7eggggt7eeeeeeeeiggggggreeeeeeeeeeeeeeee7pBk***** ",
"******5gggggie7igggie7eeeee7etggggggieee7eeee70eeee77e7pVx***** ",
"******5ggggg77rgggir77eeereewphhhhhhpiiyppuspssdsddjjkfcCmw2;;; ",
"&$$$$#&15151,,112<1<1111246ewyyyussjdddkfklllxxcvvvbbbbmCMxa9-% ",
" .....#*************************************;*;;;,;,,<;4bqXX..X ",
"  ....$*************************************************f>X..+  ",
"   X..$*************************************************y:..+   ",
"    ..O*************************************************3@.+    ",
"     +&**************************************************X+     ",
"      &**************************************************o      "
};
