/* XPM */
static char *IceBox_removebg_preview_resized[] = {
/* columns rows colors chars-per-pixel */
"64 64 86 1 ",
"  c #3297FB",
". c #3599FC",
"X c #3B9CFB",
"o c #47ABF7",
"O c #4BADF7",
"+ c #45A7F8",
"@ c #4CA5FB",
"# c #49ABF8",
"$ c #51A7F9",
"% c #54A9F9",
"& c #58ACF9",
"* c #4AB5F3",
"= c #55BAF3",
"- c #5CBDF4",
"; c #52B2F9",
": c #58B3F8",
"> c #62BEF4",
", c #6FBEF7",
"< c #6BB4FB",
"1 c #66C1F4",
"2 c #6BC4F6",
"3 c #6FC8F7",
"4 c #67C4F8",
"5 c #6DC6F9",
"6 c #6FC8F9",
"7 c #73C6F5",
"8 c #74C8F6",
"9 c #7BCAF7",
"0 c #75CBFB",
"q c #7CCEFB",
"w c #7DD1FE",
"e c #82BFFB",
"r c #8DC7F7",
"t c #87CDF5",
"y c #8FC8F7",
"u c #8DC6F8",
"i c #81CEF9",
"p c #8CC8F9",
"a c #9BCCFB",
"s c #8ED1F6",
"d c #81D2FF",
"f c #8AD6FD",
"g c #8ED8FE",
"h c #97D4F7",
"j c #9CD6F7",
"k c #93D6FB",
"l c #94DBFE",
"z c #9ADEFE",
"x c #ACDEF5",
"c c #A2DEFC",
"v c #AADEFA",
"b c #B4DFF6",
"n c #B1DCF9",
"m c #9EE0FE",
"M c #A0E1FF",
"N c #AAE3FD",
"B c #B5E0F6",
"V c #BBE3F7",
"C c #B3E3FB",
"Z c #BBE5F9",
"A c #B3E8FE",
"S c #BEE9FD",
"D c #C3E5F7",
"F c #C8E7F7",
"G c #CFE8F7",
"H c #C3E6F9",
"J c #C9E4FA",
"K c #C5EAFB",
"L c #CBECFB",
"P c #D2EAF7",
"I c #D3EDFB",
"U c #DBF1F7",
"Y c #D7F0FC",
"T c #DBF1FB",
"R c #E6F4F7",
"E c #EBF6F7",
"W c #EBF8F7",
"Q c #E3F4FB",
"! c #EDF7FA",
"~ c #EDF8FA",
"^ c #F0F7F7",
"/ c #F2FAF6",
"( c #F9FBF7",
") c #F1F7F9",
"_ c #F4FAFB",
"` c #FCFDFC",
/* pixels */
"```_`/DxxxxxBbbbbbbbbbbbBbBBBBVbBbBBBBBBBVVBBBBBBbbBbBVVVQ/~~~~E",
"`___WLq===========-==========-=========================-1NU/~~~~",
"`__)VMq------>-->----->-->--1----->-->--1------1>-------1zMU)!)~",
"))!ZmMc-------------------------------------------------1mmMU_!_",
"EECmMML2------->---------------->-->--------------------4mMmMU__",
"RZmmmMQ9=--=-==----==-=---=-=-=--=-=--------------------5mMMMNR`",
"CmNAAA~C788877732222222722222222122>>>>-----------------3mmmzmNR",
"12sCY~```````_~!~QQQTTILLKKKKKSZCNNcczllgd000ffff0000000032211-D",
">-==1y~LNcMcczzzlzklkggfgdfmMmmmMMMMMMMMMgwdmMMMmdddddwf0=-----V",
"1->>=5Qc0qwwwqqqwwqwwqwddwgMMMMMMMMMMMMMzdwgMmMmwddddddd0-----=B",
"1----3TcwddddddddddddddddfmMMMMMMmMMMmMzfwdmMMMfwwwddddd0-----=B",
"1---=2TcwddddddddddddddddlMMMMMmMMMMMMMlwwzMMMldddddddddw-----=B",
">----1IcqddddddddwddddddfMMMMMMMMMMMMMzdwfmMMmddddddddwdf1----=B",
"1----1LzwddwddddddddddddzMmMMmMMMMmMMMfddmMMmgddddwddddmg-----=B",
"1---->JzwddddddddddddddlMmMMMMMMMMMMMzwdgMmMzddddddddwfmg-----=B",
"1-----KzwddddddddddddwfmMMMMMMMmmMMMzfwdmmMmdddwdddddwmNg-----=B",
"1=----DlwdddddddddddddzMMMMMmMMMMMmmgwwzMmMlwdddddddwlmMl-----=B",
"1----=VlwddwddddddddwgMMmMMMMMMMMmMmddfmmmmddddwdddwdmMMg>--->=B",
"1----=VlwdddddddddwddmMMMMmMMMmMMMMfddmmMmgwddddddddmmMMg-----=B",
"1----=CgwddddddwddddzMMMMMMMMMMMMMlddgMmmmddddddddwgMMMMg>----=B",
">----=xgwddddddddddfmMMMmMMMmMMMMmdddmmMmfwddddddddmMmmMm-----=V",
"1--->=cgdddddddddddzmmmMMMMMMMMMMgddmMmmfwdddddddwgMmMmNg-----=Z",
"1----=hfwddddddddwgMmMMMMMmMMMmMmdwfMMmmdddddwddddmmMMmMf------V",
">-----sfwdddwdddddmMMMMMMMMMMMMmfwdmMmmfwddddddddmmmMMMMq=-----D",
"1-----tfdddddddddzmmmMMMMMMMMMMlwwlMmMldwdddddddgMMMmmmm0------V",
"1----=qddddddddwgMMMMMMMmMMMMMmdwfMMMmfdddddddwdmMMmmmmf0-----=Z",
">-----0ddwddddddmMmMMMMmMMMmMMgddlMMmlwddddddddlmmmmmmgd0-----=B",
"1-----3dddddddwzmMMMMMMMmMMMMlddgmMMzdwddddddwfmmmmmmmwf0-----=B",
"1-----4ddddddwdMMMMMMmMMMMmMmdwdmMmmfwdddwdddwmMMMMMmwwd0-----=B",
">-----2dddddddzMMmMMMMMMMMMMlddlmMMlwdddddddwgmMMmMMmdwd01----=B",
"1-----1ddddddgMMMMMMMMMMMmMzddfmMMmdddddddddfmMMMmMmdddd0-----=B",
"1-----2wdddwdmMMMMmMMMmMMMmfwdzMMMgwdddddddwlmMMMmmgdddd0-----=B",
"1-----4dddddlMmMMMMMMMMMMMldwgMMMzdddddwdddfmmMMmMmwdddd0>----=C",
"1-----4dddddmMMMMmMMMmMMMmdwfmMMmddddddddddmMmMMMmfwdddd0-----=B",
"1-----4ddddzMmMMMMMMMMMMMlddlmmMldddddddddgMmMMMmzwddddd0-->->=B",
"1-----4dddgmMMmMMMMmMMMMmdwfmMmmddddddddddmMMMmMmddddddd0-----=B",
"1-----1dddmmmMMMmMMMMMMMfddmMMMgwddddddddzmMMMmmfwdddddd0-----=B",
"1=----4wdlMmMMMMMMMMMMMlwwlmmMlddddddwddfmMmMMMzdddwdddd0-----=B",
"1-----5dfMMMMMmMMMmMmMmfwfmmMmddddddddddmmmMMMmdddddddwd0-----=B",
"1-----4dzMMMMMMMMMMMMmfwdlMmMlddddddwddlMMMMMMlwdddddddd0-----=B",
"1-----1gMMMMMMMMmMMmMmwwfMmMzddddddddwfmMMMmMmdddddddddd0-----=b",
"1=----5mMMMMMmMMMMMMmfddmMMmfwdwddddddzmmMMMmfwddddwddddw>----=x",
"1-----0mMMMMMMMMMMMmlddlMMMlddddddddwgmMmMMMzwddddddddddf>----=x",
"1-----0MmMMMMMMmMmMmdddmMMzddddddddwdmMMMMMmdddddddddddwz>=>--=x",
"1-----8MMMMMMMMMMMmfddzmmMgdddddddddlmMMMMmgwddddddddddwv2=>--=x",
"1-----0MMMMmMmMMMMlddfmMMzddwdddddwdmMmMMMzdddwdwddddddwZ2--->=b",
"1----=0MMmMMMMMMMmfwdmMMMfwddddddddmMMMMMmfdddddwddddddqK8=-->=x",
"1-----qMMMMmMMMmMlddlMMMlddddddddwgmMMMMMlwdddddddddddddL9=---=x",
"1-----0MMmmMMMmMzdddMMMmfwdddwddddmMMMMMmdwdddddddddddddIt=>->=x",
"1----=qmMMMMMMMMfddzMMMgwddddddddlMMMMMmgwdddwddddddddddTy=---=B",
"1-----9MMMMMmmMmddgMMMmwddddddddfmMmMmMzddddddddddddddddTh=---=x",
"1-----0MMmMMmmmdddmMMmfwddddddddmmMMMMMdddddddddddwddddfQc=---=x",
"1=----0MMMMMMmgwdzmmMlwddwdddddlmMMMmMlwddwddwddddddddwgRc=---=N",
"1-----9MMmMMMmdwfmmMmddddddddwdmmmMmmmdddddddddddddwddqg_B=---=x",
"1=----8MMmmMmfddmmmmfwddddddddzmmMMMMgwdddddwddddwddddwl`V=---=x",
"1-----8MMMMmlddlMmMzddddddwdwfmmmmmmlwwwwwwwqwwqwwwwww0l`Z*-=-=x",
"1>-->=0mMmmmddfmmmzdddddddfdfMNNNNNNlllzzzccccvNNNNCCCCK`Qs821=x",
"5#O##+;5333344236654455799qtfkhzccxBNCBbZZHHHKHLLLIIYITQ`QJnp:Ox",
"J$ XXX+---=---=--------=--=-=========-=======---->>>11>3TaXX.XrR",
"`P$ XX#>------------------->------>------->---------=--=He XXyW~",
"(`P&.XO------------------------------------------------=j<.XrW~~",
"()(P& O---->--------------------------------------------9@XyR)~R",
"()E^F$o>-=-=-----=---------------------------->----------Xy!)W~E",
"))^E/Z>1141111111111111111111111111111111111>2>>2>2>1111>rE~~~~E"
};
