/* XPM */
static char *Design_sem_nome_resized[] = {
/* columns rows colors chars-per-pixel */
"64 64 188 2 ",
"   c #511F06",
".  c #501F0A",
"X  c #4F210B",
"o  c #54230C",
"O  c #5D2C16",
"+  c #5F311A",
"@  c #602E17",
"#  c #622F1A",
"$  c #683015",
"%  c #62321C",
"&  c #703411",
"*  c #7A3B17",
"=  c #743B1A",
"-  c #6B3A23",
";  c #723E27",
":  c #7C4124",
">  c #7A432B",
",  c #7D4631",
"<  c #7C4933",
"1  c #834522",
"2  c #81452E",
"3  c #844D2C",
"4  c #884C2C",
"5  c #89512E",
"6  c #97542B",
"7  c #9B582B",
"8  c #804630",
"9  c #844A35",
"0  c #8B4D37",
"q  c #844D39",
"w  c #8A4E39",
"e  c #87523A",
"r  c #8C523C",
"t  c #955634",
"y  c #965B34",
"u  c #92533C",
"i  c #98553E",
"p  c #96593D",
"a  c #9D5D3B",
"s  c #A45E37",
"d  c #9F613C",
"f  c #A4643A",
"g  c #AA663A",
"h  c #AD683D",
"j  c #B46B36",
"k  c #B96C3A",
"l  c #C5733E",
"z  c #8F5642",
"x  c #8D5A43",
"c  c #8F5D4B",
"v  c #935641",
"b  c #9A5644",
"n  c #965A45",
"m  c #995945",
"M  c #945B4A",
"N  c #995B49",
"B  c #936342",
"V  c #91604B",
"C  c #926552",
"Z  c #976955",
"A  c #9B6A5B",
"S  c #A66642",
"D  c #A66841",
"F  c #AD6C44",
"G  c #A46F49",
"H  c #AE6F4F",
"J  c #B06F44",
"K  c #AF7045",
"L  c #AF774D",
"P  c #B27144",
"I  c #BC7342",
"U  c #B5744D",
"Y  c #B9764C",
"T  c #A97658",
"R  c #AC7F5C",
"E  c #B67E57",
"W  c #907266",
"Q  c #9A7062",
"!  c #9C7869",
"~  c #9E7B70",
"^  c #A37C6C",
"/  c #C17342",
"(  c #D07941",
")  c #BD825A",
"_  c #AF8B6E",
"`  c #BB8F6E",
"'  c #A58173",
"]  c #AD8777",
"[  c #A78578",
"{  c #A88A7B",
"}  c #BB9070",
"|  c #C0804C",
" . c #CB854B",
".. c #D38649",
"X. c #C28154",
"o. c #C88457",
"O. c #CD8853",
"+. c #CB8359",
"@. c #C4885D",
"#. c #CC8B5D",
"$. c #D18A54",
"%. c #D28E5B",
"&. c #DB9257",
"*. c #D5935F",
"=. c #DC945D",
"-. c #DE995D",
";. c #E08E53",
":. c #E39457",
">. c #E2965C",
",. c #E2995E",
"<. c #C48B64",
"1. c #D18B61",
"2. c #C89060",
"3. c #C9946D",
"4. c #D49264",
"5. c #DC9662",
"6. c #D79867",
"7. c #DE9A64",
"8. c #D8996A",
"9. c #C59773",
"0. c #D39F78",
"q. c #E19661",
"w. c #E49B64",
"e. c #E49E69",
"r. c #CCA07F",
"t. c #AA8E84",
"y. c #AA948C",
"u. c #B49185",
"i. c #B69881",
"p. c #B2978B",
"a. c #B79A8F",
"s. c #B49B91",
"d. c #BFA18B",
"f. c #BEA297",
"g. c #BFA99C",
"h. c #BFB6A9",
"j. c #CBA281",
"k. c #C6AC97",
"l. c #CDAD94",
"z. c #C0A79E",
"x. c #CCAC99",
"c. c #CCB49E",
"v. c #C1ABA3",
"b. c #C3B4A5",
"n. c #C8B2A0",
"m. c #C6B3AC",
"M. c #CCB8AD",
"N. c #D4BCA9",
"B. c #C1B6B1",
"V. c #D1BDB3",
"C. c #CEC4BB",
"Z. c #D6C5B7",
"A. c #D2C3BB",
"S. c #EACDB6",
"D. c #D4CCC4",
"F. c #D6CEC8",
"G. c #DCCFC9",
"H. c #DDD3CD",
"J. c #D4D6D0",
"K. c #D9D9D7",
"L. c #EADBCE",
"P. c #F0DCCE",
"I. c #E3DAD4",
"U. c #E6E2DE",
"Y. c #E8E1DC",
"T. c #DFE2E4",
"R. c #E3E5E4",
"E. c #EBE5E2",
"W. c #EFE9E7",
"Q. c #EDECEA",
"!. c #F1EEEC",
"~. c #F2F0EF",
"^. c #E7F7F7",
"/. c #EAF7F7",
"(. c #E6F8F7",
"). c #EDF8F7",
"_. c #E7F7F8",
"`. c #EDF7F8",
"'. c #E6F8F8",
"]. c #EDF8F9",
"[. c #F3F5F4",
"{. c #F8F5F6",
"}. c #F2F8F7",
"|. c #F8F9F7",
" X c #F1F7F9",
".X c #F8F7F9",
"XX c #F4F9FA",
"oX c #F9FAFA",
/* pixels */
"oX X].oXoXXXXXXXXXXX].].oXoXXXXXoXXX).^. XXXXXoX}.^.].oXoX/.].oX XoXoXoXXX].]. XXX}.}.].].].XXXX}.).XXXXoXoX X X].oXXX XXXoXoX X",
" X].].oXXX].].oXoXXXXX].XXXX].XXXXXX}.]. XoXXXXX].].^.}.oX^.`.`. X XoXXX X X].oXoXXXXXXX].oXoXoXXX).}.oXoX XoXoXoX X X].).XXoX}.",
"XXXXXXoX].].XXoXXXoXXXoXoXoXXXoX XXX X].XXoXXX).].]. XoXoX X]. XoXoXoXXXXX XXXXX X]. XoX X X XXX].].XX].).}.oXoX XoXoX X].XXoXXX",
"XX].oX].].XX].].XXXX].XX].].XX].].]. XXXoXXXXXXXoX X XoXoX X]. X XXX XoXoXoXXXXX X).XXoX}.].XXoXoXXXXX].].).oX).). XoX]. XoXoXoX",
"oXoXXXXXoXXXXXXXXX].].].].XXXXXXoX X X X X]. XoXoX). XoX X). X X].].}.oXXXXXXXoX].).oXXXXX).XXoXoXoX].^.).XXoX].).oXXXXXXXoXoXXX",
"XXoXoXoXoXXXoXoX].XXoXoXoX].].oXoXoXXXoX X]. XoXoX].].oXoX XXX`.]. XXXXX XXXoXXX XoXoXoXoXXXoXoXoX X X].]. XoX).^.].XXXXoXoXoXoX",
"XXoXXXXX].XXoXXXXXXX].XX].].XXoX}. XoXoX].`. XoX X].oXoXoXoX)./.]. XoXXX).XXXXXXXXoXoXXXXX X XXX}.}.].].].].oX]. X].XX].oXoX X X",
"oXoXoX].XXXXXX].oXXXXX'.XXXXoX].].].oX XoXoXoXoXoX XoXoXoXoX).`.]. XXX X).].XX XoXoXoX X].XX XoXXX XXX X]. XoXoX X]. XXXoXoXXXXX",
"XXoXXX].].].].XXoX'.`._. XoXXX]. XoXoX XoXoXoX X X).}. X X). X).].].oX X].]. XXXXXoXXX X^.].oXoXoX].oXoXXXXXXXoXoX]. X XoX]. XoX",
"XXoXXXoXXXXXoXoXXXXX`._. XoX].`.]. X).oXoXoXoX`.}.).oXoX X}. X).). XoX X].).XXoXoXXXXXoXoXoX X X`.].XXoXXX).}.XX].].].oX].`.`.oX",
"oXoXoXXXXXXXoX X].].].`. X X]. X`.]. XoXoX X].`.].oXoXoX XoXoXoXXXXXoXoX].XX XoX XXXXXoXXXoX].oX].]. XoXXX}. XoXoXoX X X].]. XoX",
"XXXXXX].XXoX X XoX].`.XXoXoX X].`.oXoXoX XoXoXoX X X X].]. XoX}. X XXX X). X X X^.].oXoX X}.oXoX]._.oXoXXX].].oXoXoX X].`._.oXoX",
"].].].XXoX X X XoXoX XoXoXoX].]./.`.`.]. XXXXX.XXXXXXXXX{.oXoX|.XXoXXX`. X X X].XXXXXX].].].oXXXXXoXoXoXoX XXXoXoXoXoX X/.`.]. X",
"XXoXXXoXoX].].oXoX X`.).oX X(.(.^.`.`.`.`.`.}.XXXXoXoXoXoXoXoXoXoXoXXX`.`.`.).}.XXXXXX].]. XXXXXoXoXoXoXoXoX}. XoXoX X X].].]. X",
"oXoX]. X).]. XoXXX`.].oXoX}.].^.^.^.`.`.`.`.).}.|.oXoXoXoXoXoXoXoXoX].'.`.). XXXoXoXXX]. XoXoXXXoXoXoXoX X).^.XXoX X X].].].]. X",
"oXXXXXXX(.].oXoX X`.].oXoXoX X/.`.`.`.`. X`.}.|.oXoXoXoXoXoXoXoXoXXXXXXX X|.oXXXoXoXoXXXoXoXoXoXoXoXoX].).].XXXXoX X X].oX X].oX",
" XoXoX].]. XoXoXXX].oXoXoXoX].`.`.`.`.`. X X.X.XoXoXoX|.oXoXoXoXoXoX X X.XoXoXoXoXoXXXoXoXoXoXoXoXoXoX].]. X].XXXXXX]. XoXoX X X",
"oXoX XXXoXoXoXoXXXoXoXoXoXoX X].`.`. X`. X.X.X.XoXoXoXoXoXoXoXoXoX.X X XoXoXoXW.G.R. XoXoXoXoXoXoXoX XoXXXoXoXoXoX].].].oXoX].].",
"oXoXXXoXoXoXoX X].`.oXoX XXX X]. X X X X XoXoXoXoXoXoXoXoXoXoXoX.X X]..X[.H.g.^ C [ R.XXoXoXoXoXoX X XoXoXoXoX X X].].].oXXX XXX",
"XX].oXoXoXoX).].`.].oX X X].XX]. X`. X.XoXoXoXoXoXoXoXoXoXoXoXoX.X`.K.m.] Z b b M M B. X.XoXoXoXoX].`.oXoXXXXX XoX X].].oXoXoX).",
").|.oXoXoX X`. X].oXoXXX].].XXXX].].}.XXoXXXoXoXoX|.|.oXoXoXoXQ.D.s.Q M n m b b N b y.[.XXoXoXoXoX X].oXoX].].oXoX X]. XoXoXoXoX",
"XXoXoXXX).).`. XoXoXXX XXXoXoX].].).}.oXoXoXoXoXoXoXoXoX{.I.m.[ C n v M N m m N N v ~ /..XoXoXoXoXXX XoX X]. XXXXXoX XoXXXoXoXXX",
"oXoX X X XoXoX XoX X].].XXoXoX'.].].).XXoXoXoXoXoX|.W.D.{ A N n v N N b m v n v z 0 ^ Q.oXoXoXoXoX XoXoX X]. XoXoXXX}.oXoXoXXXXX",
"oXoXoXoXoXoXoX X X].].].oXoXXX]. X].}.XXXXoXoXoXE.k.` <.p b m N v n N b M n z w 9 z M s.!.oXoXoXoXoXoXoX X]. X XXX XoXoXoXoXXX X",
").).oXoXoX X XoXXX^.^.oXoXoXXX].].`. XoXoXoXoX|.N.*...q.H w w w b v M v z 9 8 w z n n c s.[.oXoXoX).].oXoX^.].].XX].|.oXoXoX^.).",
").}.oXoX].oXXXoXXX).^. XoXoX X].]. X).oXoXoXoXoXL.8. .5.S 2 u v n v w , , 0 v n n n p u V H.oXoXoX].]. X].]. X^. X].oXoXoXoX). X",
"].oX X].]. XoXoX X}.oXXXoXXXoX X XXXXX.XoXoXQ.Z.x.G | %.f u n r e 9 0 z n n n n n m b b v m.oXoXoX]. XoXoX X X].XXXXoXoXXXoX X X",
"oXoX X]. X XoX}. XoXoXoXoXoX X). X.XoXoXoXXXn.6.=./ &.w.U u w 0 r n M n m n n b m n n b n v.oXoXoXoXoXoXoX X].(.^.XXoXoXXXXXoXoX",
"oX X].oX XoXoX}.XXoXoXoX}. X}. X X.XoXoXoX!.} O.;.( :.%.S u v n n n m m n n n m m N M v , y.oXoXoXoX XoXoXoX XXX].oXoXoXoX XoXoX",
"oX).^.oX`.oX XoXoXoXoXoX).].).XXoXoXoXoXoXE.0.q...l I s b n n n b b m m m m n n n v , @ . W {.oXoX}.].).oXoX].XX X}.).).^.oXoXoX",
" X^./.`.].].).oXoXoXoX X]. XoXoXoXoXoXoXoXI.0.,...k g a u n r 0 w b m m N M m v , + o % 9 C H.oXoX X].}.oX].].]. XoX].^.^.oXoXoX",
"].].].`. X].XXoXoXoX X]. X].).oXoXoXoXoXoX!.0.q.l j $.7.U : , r v m m n n v , # o @ < v M z b.oXoX X X XXX XoX X X X].].]. XoXoX",
"XXXXXX].`.oXoXoXoXXX).)././.oXoXoXoXoXoX~.A.T +.k O.w.,.#.5 z n m m n x < + o O > z M m m b p.oXoX X`. XoXoXXXXXXX].]._.`.XXoXoX",
"].].]. X XoXoXoX X XoXoXoXoXoXoXoXoXoXoXN.E y 1 * D 5.-.-.D r M n x < + X o ; e n b m v n u ^ [.oX X]. XoXoXoXoX X].(.'.`. XoXoX",
"`.`.].].oXoXoXoXoXoXoXoXoX). XoXoXoXoXoXS.e.5.f $ & g *.5.J r x < + X o - e n n n n v v 0 9 ^ [.oXXX XXXoXXXXXoX X].].].^.}.oXoX",
"]. X X XoXoX X`.oXoXoX XoX XoXoXoXoXoXoXP.w.-.%.6 P f f 4.F > # o o % q n n n m b v z z u x t.{.oXoX XoXXX].XXXX X].oX].].oXoXoX",
"]. X].].].`.^.`.oXoXoXoX XoXoXoXXXoX!.F.x.6.,.$.I q.4.: a 5   . % < n m B n n n v i v x A u.G.oXoXoXXXXXoXXXXXoXoX].oXXX}.oXoXoX",
"`.XXoX`.`.].`.oXoX X]. XoXoXoXoXoXU.i.B p o.=./ I -.7.3 o o @ , x n n m m N m n v x Z u.V.I.[.oXoXXXXXXXoXoXXXoXoXoXXX].^.oXoXoX",
"oXoXXX`.XX X].oX].`._. XoXoXoXoXXXc.2. .P F P 7 g 7.%.= $ : r n m b m m v b n M C { V.E.!.|.oXoX X].XXoXoXoXoXoXoXoX X(.).oXoXoX",
"`.`.`.`.XX XoXoX].XX XoXoXoX XoX~.j.7.-.) y f h 6 K 3 d 2.1.d r e e v m m x C ' M.Y.XXoXoX.XoX X).XXXXoXoXXXoXoXoXoXoX XoXoXoXoX",
"`.`.`._.`.oXoX X X XoX].oXoX XoX~.r.,.w.o.a &.e.o.* = 4.w.5.D 8 r p n v V ^ n.I.[.|.oXoXoXoXoX].).].oXoXoXoXoXoXoXoXoXoXoXXXoXoX",
"`.`.`.`.oXoXoX`.]. XoXoXoX`.oXoXoXl.-.,.h h ,.>.*.t 4 7.,...I t m b V ! z.H.Q.oXoXoXoXoXoXoXoXXX).].XXoXoXoXoXoXoXoXoXoX]. X XoX",
"`.`._.]. XoXoX]._.`.`.oX XoXoXoXoXH.9.r.C L &.&.&.U d w.,.,.-.d c Q f.H.Q.). XoXoXoXoXoXoXoXoX X).].XXXXoXoXoXoX]. XoX].XXXX X].",
"`._._.`. XoX X`.`.`.`.`.`.].oXoXoX|.H.H.K._ X.w.-.Y t 7.w.e.#.A a.F.~. X]. X XoXoXoXoXoXoXoXoXoXXX].XXoXoXoXoXoXoX XoXoXXXoXoXXX",
" X X^.`.oXoX(.(.].].].oX].XXoXoXoXoXoXoX}.b.R @.) p x @.6.3.d.H.Q.}. X].].].].XXoXoXoXoXoXoXoXoXXXXXXXXXoXoXoXoXoXXXoXoXoXoXoXoX",
"XX`./.). X X]. X X].].].XXoXoXoXoXoXoXoX|.^.J.h.h.C.D.h.b.D.^.oXXX}.].].].].`. XoXoXoXoXoXoXoXXX).XXXXoXoXoXoXoX].].oXXXoXXXoXoX",
"(._.].oXoXoXoXXX].].XXoXoXoXoXoXoXoXoXoXoX].^.(.^.^.^./.(.^.`. X].).].].XX].].`..X.XoXoXoXoX.X].].XXXXoXoXoXoXXX].'.].XXoXoXoXoX",
"`.XXoXoXoX X].].].]. XXXoXoXoXoXoXoXoXoXoX X/.^.(./.^.^./././.`.].].].].].].`._.}..XoXoXoX.X].`.'.].XXXXoXoX].].].'.].].oXoXoXoX",
"].XX XoXoXXX`.`._.`.oXoXoXoXXXoXoXoXoXoXoXXX/.^.^._.^././.`.].`.].].].].].].'.'.].XXoXoXXX].].'.'.].XXoXoXXX].'.].].].XXoXoXoXoX",
" XoXXXoXoXoX].].].XXoXoXXXoXXXoXoXoXoXoXoXXX/._.^./.^.^.].].].`.`.].].].`.].'.'.^.].oX X].(.].'.(.].oXoXoXXX].].'.].XXoXoXoXoXoX",
"oX XoXoXoXoXXX.X X.X X X].`.'.oXoXoXoXoX].`._.^.^./.^./.).^.].].].].].^._.(.'.'.^./.]./._._.'.'.).XXoXoXoXoXXX].].].oXoXoXXXoXoX",
"`.`.].oXoX`._.].].].].`._.`.XXoXoXoXoXoXXX].`.`.^.^./. X X X].].]. X X X X].XX'.`.]. X`.(.].'.'.].oXoXoXoXoXXX].].].].oXXX].oXoX",
"].`.oXXX`._.`.].].oX].(.`. XoXoXoX X X XoXoXoX)./.`.)..XoXoX`. X`.oXoXoXoXoXXXXX XXXXX].].].].].XXoXoXoXoXXXXX].].XX].oXXXXXoXoX",
"].oXoX XXX X XoXoX X^.oX].`.oXoX].^.].].oXoXoX].`. XXXoXoXoXoXoX XoXoXoXoXoX].XXXXXXXX].'.].XXXXXXoXoXoXoXXXXXXX].].oXoXoXoXoXoX",
"`.XXoXoXoXXXXX].XX].].XX X XoX`.^.`.`.oXoXoXoX).XXoXoXoXoXoXoX}.oXoXoXoXoXoXXXXXXXXX].'.'.].].XXXXoXoXoXoXoXXX].'.XXoXoXoXXXoXoX",
".XoXoXoX].XXXX].`._.]. X XoXoX XoX XoX}.oXoX X`.XXoXoXoXoXoXoX{.oXoXoXoXoXoXoX].XXXXXX].].].'.oXoXoXoXoXoXoXXX).].'.].oXXXXXXX].",
"oXoXoXoXoXoX X`.`.`._. XoXoXoX XoX`. X).oXoX X XoXoXoXoXoXXXXXoXoXoXoXoXoXoX X XXX].XX].].'.'.oXoXoXXXXXoXoXoXXX].'.].XXXXXX].'.",
"oXoXoXoXoX X X`.]._.`.].oXoX X^.].XXoXoXoX`.`.oXoXoXoXoXXXXXoXoXoXoXoXoXoXoXXXXXXXXX].].].].].].XXXXXXXXoXoXoXXX].].].].XX].'.].",
"oXoXoXoXoX`.`.`.(._.`.oXoXoXoX(.`. X XoXoXoXoXoXoXoXoXoXXXXXoXoXoX|.oXoXoXXX].XXXX].].'.'.'.].].'.XX].oXoXoXoX'.].].XXXXXX].].'.",
"oXoXoXoX.X].`.`.^._. XoX XoXoX(.`.].`.]. X].oXoXoXoXoXXXXXXXoXoXoXoXoXoXoXXXXXXXXXXX].].].].].'.'.].XXoXoXoX].].'.].XXXXXXXX].].",
"oXoXoX.X].oX].`.`._.]. XoXoX].^.`.`.`.`.`./. XoXoX|.T.^.].XXoXoXoXoXoXoXoXXXXXXXXX].'.].'.].].].].].oXoXoXXX].].].'.].].XXXX].'.",
"oXoXoXoXoXoX`.].XX`._. XoX].(.^.`.].`.oX].`.oXoXXX}.^.^.'.].oXoXoXXXXXoXXX].XX].XXXXXX'.].].'.'.].XX].oXXXXXXX'.].].].XXXX].].].",
".XXXoX`.].].`.oX]._.`. X X].].]. X`.]. X/.oXoXoX}.^.).).].oXoXoXXXXXXXXXXXXX].XXXX].XX].].'.].].].XXXXoXXXXXXXXX].].oXoXoX].].'.",
" X`.`.`.`.].`.`._.`.].oX XoX XoX X`.].`.].oXXX).).].].].oXoXoXoXXXXXXXXXXXXX'.].XX].XXXX].].].'.].].XXoXXXXXoXoXoXoXoXoXoX].].]."
};
