/* XPM */
static char *Design_sem_nome__1__resized[] = {
/* columns rows colors chars-per-pixel */
"65 65 178 2 ",
"   c #150D05",
".  c #16130E",
"X  c #1B130A",
"o  c #0A0F12",
"O  c #0E1519",
"+  c #171816",
"@  c #14191A",
"#  c #241404",
"$  c #291603",
"%  c #2D1904",
"&  c #251708",
"*  c #26190B",
"=  c #291B0B",
"-  c #341D03",
";  c #351E05",
":  c #221A13",
">  c #251E17",
",  c #3B2103",
"<  c #31200D",
"1  c #3C270F",
"2  c #2C241C",
"3  c #0C1D25",
"4  c #161E21",
"5  c #172429",
"6  c #142B36",
"7  c #272625",
"8  c #312D29",
"9  c #363635",
"0  c #393736",
"q  c #442503",
"w  c #492701",
"e  c #4A2904",
"r  c #4D2F08",
"t  c #542E02",
"y  c #592F02",
"u  c #573005",
"i  c #5C3204",
"p  c #442E13",
"a  c #503512",
"s  c #633603",
"d  c #653804",
"f  c #723F04",
"g  c #754105",
"h  c #7B4405",
"j  c #1B3A49",
"k  c #3F3F40",
"l  c #1E4352",
"z  c #244D5F",
"x  c #2C5F73",
"c  c #30647A",
"v  c #434343",
"b  c #46494A",
"n  c #4A4B4B",
"m  c #4F4F50",
"M  c #4F5253",
"N  c #565B5C",
"B  c #5D5F61",
"V  c #636465",
"C  c #676B6C",
"Z  c #696E71",
"A  c #6C7274",
"S  c #737475",
"D  c #717679",
"F  c #844805",
"G  c #8C4D05",
"H  c #8A4F0A",
"J  c #8F5107",
"K  c #965306",
"L  c #9D5706",
"P  c #975508",
"I  c #915816",
"U  c #A35A05",
"Y  c #AA5E06",
"T  c #A55D0A",
"R  c #A05F11",
"E  c #AE6107",
"W  c #AE620B",
"Q  c #B46407",
"!  c #B86607",
"~  c #BD6907",
"^  c #BD6B0A",
"/  c #B06610",
"(  c #B2752D",
")  c #C46D07",
"_  c #C86F07",
"`  c #C36D0A",
"'  c #CD7107",
"]  c #C77009",
"[  c #CC7208",
"{  c #D47507",
"}  c #D57608",
"|  c #D4780C",
" . c #DC7B08",
".. c #D07A16",
"X. c #E17E09",
"o. c #E58009",
"O. c #EB8409",
"+. c #F0870A",
"@. c #F5890B",
"#. c #F98C0B",
"$. c #E08417",
"%. c #FA9215",
"&. c #FA941A",
"*. c #DA8723",
"=. c #FD9B26",
"-. c #FB9D2C",
";. c #FA9E31",
":. c #FBA43B",
">. c #F8A644",
",. c #FEAA44",
"<. c #336B81",
"1. c #37738B",
"2. c #3B7B95",
"3. c #3D7E9A",
"4. c #7C7F80",
"5. c #7D8487",
"6. c #4087A3",
"7. c #448EAC",
"8. c #4895B5",
"9. c #4A9BBC",
"0. c #4FA5C8",
"q. c #55A8C6",
"w. c #50A7CC",
"e. c #51A9CE",
"r. c #52ACD2",
"t. c #55B2D9",
"y. c #5AB5D9",
"u. c #59B7DD",
"i. c #63BBDB",
"p. c #5CBBE1",
"a. c #5FC0E4",
"s. c #68CCEF",
"d. c #6BCEF1",
"f. c #6DD3F5",
"g. c #72D9FA",
"h. c #848788",
"j. c #84898A",
"k. c #888F90",
"l. c #8E9394",
"z. c #90979A",
"x. c #969C9D",
"c. c #9A9FA1",
"v. c #9FA7AA",
"b. c #A1A3A5",
"n. c #ABADAD",
"m. c #ADB6B6",
"M. c #B2B4B5",
"N. c #B9BABB",
"B. c #BCC3C4",
"V. c #BEC7C9",
"C. c #91DEF6",
"Z. c #A8E9FB",
"A. c #B3ECFA",
"S. c #BAF0FE",
"D. c #C4C4C5",
"F. c #C5CBCC",
"G. c #CBCCCD",
"H. c #CBD2D4",
"J. c #D5D5D6",
"K. c #D6DADC",
"L. c #E1DFE2",
"P. c #DBE8E8",
"I. c #C8F3FC",
"U. c #E1E4E5",
"Y. c #EAEBEC",
"T. c #ECEFF0",
"R. c #E7F6F6",
"E. c #EBF7F7",
"W. c #E7F8F7",
"Q. c #EDF8F7",
"!. c #E7F7F8",
"~. c #EDF7F8",
"^. c #EDF8F9",
"/. c #F2F6F6",
"(. c #F1F8F7",
"). c #F1F7F9",
"_. c #F4F9FA",
"`. c #F9FAFA",
/* pixels */
"_.^.^._.`.`._._._.`._._._.E.E._._._._.`._.Q.~.E.E._._._.E.~._._._._._.`.`.`._._.^.E.~.`._.(._.Q.~.^.~.~.`._._._._.E._._._.`.`._._.",
"_._._._._._.^.^._._._._._.~.~.~.`._.`._._.).^.E.E._._._.Q.~.~.).~._.`.`.`.`.).~.).^._.`.`.(._._._._.)._._.`.`.(.Q.Q.Q._.`.`._._.`.",
"`.`._._.`._._._.`._.)._._.^.E._.`.(._.Q.).).~.E.)._.`._.).^.E._._.`.`._._._._._.)._._._.(.).~._.`.`._.^.(.(.`._.~._.^._.(.Q.Q.).`.",
"^.^._._._.^._._.^.^.^.)._._._.`.`._.(._._.`._.)._.`.`.`.).^.~._._.`._._._.`.`.`.`._._._.Q.^._._.`._.(.^.(.`._.`._._._._.E._.)._.`.",
"^.^.^.^._.^._._.(.(.`._._._._._.).Q.)._.`.`.(.~.)._._._.~.).).)._.~.~.~.`.`._.)._._.`.`.^.E.Q.`.`.`._.E._._.`.`.`._.~.^.E.E.^.`.`.",
"_.`.`.`.`._.^._.`.`.`._._.)._._.E.~.).`.`._.Q.)._.`.`.`.)._.).).E.^._._.`.).).~._.`.`._._._.`.`.`.`.`._._.`.`.`.`._._.^.E.E.^._._.",
"_._._.^.^.E.^._.`._.(._._.`.`.~.Q.~._.`.`._.).~._.`.`.`.`.).(.Q.R.^._.`.`.^.)._._._.`.)._.`.`.`.`._._.~.)._.`.(._.)._.^.~.~.E.^.`.",
"^.^.^.^._._._.`._._.Q._.`.`._.)._.`.`.`.`.`._._.`.`.`.`._._.~.~.E.E._.`._.E.E.).~._.).~.`.`.`.`.(.(.Q.).~._.`._._.~.)._.~.~.)._._.",
"^.^.E.~._.`._._.Q._._._.`._._.`.`.`.`.`.).).~.(.(._._._.(.^.).).E.E.^._._.~.^.).~._.~._.`.`.`.(.).)._.).).`.`._._.~._.`.`._._._._.",
"^.!.E.~._.`._.E.E.^.~._._.Q.`.`.`.`.`.).~.).~.~.`.`._._.Q._._.~.E._._.`.`._._.~.E._._.`.`.`._._._._._._._._._.).~.).).`.`._.~.).^.",
"^.).~.~._._._.E.).^.^._.(._.`.`.`._.~.(.~.).).`.`.`._.~._._._._._._._.`.`.`.~.^.~._._.`._._._.`.`.`.`._._._._.).~.^._.`.`._.~.).^.",
"^.!.^._.`.`._.).^.E._.).`.`.`._._._._._._._._.`._.Q.).~._.`.`._.~.).~.`._._.E.~._._.).^.E.Q.Q._.`._.)._._.`.`.~.E.E.).`.`._.).E.^.",
")._._._.`.`._.~.).^._._.`.`._.).`.`.`.`.`._._._.(.~.~.).`.`._.)._.~._.`._._._._.)._.~.~._.~._.`._.~.~.).`.`.`.~.)._.`.`.`.`._._._.",
").).)._.`._._.^.).)._.^.~.~.Q.).`.`._._._._.`.`.).E.E._.`.`.`.).E.~.`.`.`.`.`._.).~.E.E.Q._.`.`._._._._._.`._.)._.`.`.`.`.`.`._._.",
").^.).`._._._.).)._._.E.~._.).).).(.E.Q.)._.`._.^._._._.`.`.(.Y.~.`.`.`.`.`._.).)._._.)._._.`._.^.E._._.).`._._.`.`.`.`.`.).^.~.E.",
"!._._.`.`._._.).).).E.E._._.~.E.R.R.E.E.(._._.`._.`.`.U.n.Z n v n A n.Y.`._.^.~._._.`.`.`.).Q.Q.~.^.~._.~._.Q.(.`.`.`._._.).~._._.",
").`.`.`.`.`.`._.^.~.!.~.~.~.R.!.!.R.~.E.~././.`.`._.M.k % s H L G i * v M.Q.^.^._._._._.).).~.~.^.)._._.^._.~.`.`.`.`._.).).~.~.^.",
"`.`.`.`.`._._.^.^.E.!.~.E.R.R.!.!.E.~.~.~.).`._.(.k.: f ..;.,.-.#.@.| f > l.Q.^.^._._._.^.).~.).^._.`._.^.)._.`.`.`._.)._._.`._._.",
"^.`.`._._._._._.^.).E.E.E.E.R.E.E.~.~.^.~.).)._.x.= W =.,.,.=.%.#.#.#.#.P : c._._._.`._.^._.)._._.`.`._.^.).`.`.`.`.)._.`.`.`.`.`.",
"_.`._._.).E._.^.^.E.!.).~.E.E.E.~.^.^.^.).).`.D.@ q R ( ( ` [  .@.#.#.#.#.h 7 G.`.`.`._._._._.`.`.`.`.`.).).).).).~.E.).`.`.`._._.",
"`.`._._.)._._._.~.~.)._.).~.~.~.~.).).)._./.n.0 o 5 3 5 @ + + & s [ #.#.#. ., S `.`.`.`._.`.`.`.`.`.`.`.)._._.~.E.).)._.`.`.).~._.",
"`._._.)._._._.`._.)._.`._.~.).~.).).)._./.h.@ x q.i.i.y.e.q.8.2.j & ^ #.#.@.J 8 G.Y._.`.)._.`.`.`.`.`.`./.).~.E._._.)._.`.Q.~.^.^.",
"_.~.^.~._.`.`._.).).).)._.).).~.~.).`.`.M.4 3.C.S.I.I.A.g.g.f.p.e.j , o.#.#.~ # 7 9 B V.~.).`.`.`.`.`.`.).).~.E.!._._.`.`.)._._._.",
"E._._._.`.`.`._.~._.~._._.~.).^.)._.`.T.v z d.S.I.A.A.Z.g.g.g.a.t.6.O T #.@.' - q F q 7 M._.`.`.`.`.`.`.).~.~.R.E.).`.`.`.).E.Q.`.",
"!.!.^._.`.`._.).).~.).`._.).^.^.~.).`.J.5 7.d.g.g.g.g.g.g.g.f.u.t.8.6 f #.#. .e i X. .i k U.`.`.`.`.`._._.).E.E.!.^._._.`._.^.E.^.",
"!.E._.`.`.`.`.Q.E.E.`.`._.^.^.).).).`.D.5 9.p.d.g.f.f.d.d.s.a.t.r.7.6 f #.#. .i w } @.Y & M.`.`.`.`.`.`._.^.~.).^.!.~._._.).E.E.^.",
"_.~.).`.`.`._._.)._.`.`._.).~.~.).).`.J.7 3.t.t.u.u.t.t.t.t.t.r.9.2.3 P #.#.X.f - ) +._ # l.`.`.`.`.`.`.^.^.~.Q.E.!.^._._._._._.`.",
"`.`.`.`.`.`.`.)._.`.`.`._.~.).).)._.`./.C 6 7.0.0.e.e.r.e.r.w.9.6.l & [ #.#.O.G $ ) X.X.- S `.`.`.`.`._._._.Q.Q.E.^._.`.`.`._.^.^.",
"`.`.`.`._.`._._.).).`.`._.~.).)._.`.`.`.K.0 3 z x c <.1.1.2.2.<.j X J O.#.#.+.U # Y X.X.w B /.`.`.`.`.`._._._.`.)._._._.`.`.`._.^.",
"`.`.`._.Q.(.~.R.~._._._.).~._._.`.`.`.`.`.V & 1 * X X . . @ @ . - P X.#.#.#.+.Y # U X.X.y m /.`./.`.`./.`.`.`.`._._._._.`.`.`.`.^.",
"`.`._.).Q.~.~.E._.`.`._._._._.`.`.`.`.`./.v P ;.*.[ ` ! E T U Y { X.@.#.#.#.+.! $ G { _ y n /.`./.`.`.`./.`.`.`.(.Q.^.E.^.`.`.~.!.",
"_.).).~.)._._._.`.`.`._._.`.`.`.`.`.`.`.L.8 / ,.&.#.#.#.#.#.#.#.#.#.#.#.#.#.@.) $ F ' ) t n /.`.`.`.`._._.`.`._.(.~._.(._.`._.~._.",
").).~.~.~.~.~._.`.`._._.(.`.`.`.`.`.`.`.J.2 ..,.&.#.#.#.#.#.#.#.#.#.#.#.#.#.+.) - h ' ! w N `.`.`.`.`.`.`.`.`._.).).~.E._.`.`.`.`.",
"_.).).).~.).`.`.`._.~.~.(.`.`.`.`.`.`.`.D.< ..,.&.#.#.#.#.#.#.@.#.#.#.#.#.#.@._ - g { E - C `.`.`.`.`.`.`.`.`.`._.E.E.E._.`.`.`.`.",
"`.`.`.`.`._.)._.~.~.E.).`.`.`.`.`.`.`.`.N.= $.,.%.@.#.#.#.#.#.#.#.#.#.#.#.#.@._ - f { U - 4.`.`.`.`.`._./.`.`.`.).)._.~.`.`.`._.`.",
"`.`.`.`.`.).)._.).~.Q._.(.`.`.`.`.`.`.`.N.< $.,.&.#.@.#.#.#.#.#.#.#.#.#.#.#.@._ - f ~ G # b.`.`.`.`.`.`.`.`.`.`.`.`._._._._._._._.",
"`._._._._._.`.`._.E.!.E./.`.`.`.`.`.`.`.F.2 ..:.=.#.#.#.#.#.#.#.#.#.#.#.#.#.+.) - i L h : D.`.`.`.`.`.`.`.`.`.`.`.`._._._._._._._.",
"_._.`._._.`.`._.~.E.!.E.(.`.`.`.`.`._._.K.8 Q :.:.#.#.#.@.#.#.#.#.#.#.#.#.#.O.) - u h - m T.`.`.`.`._._.`.`.`./._._._._._._._._._.",
"E.E.)._.`.`.`.).^.^.^.~./.`.`.`._._.^.^.T.b G =.:.#.@.#.#.#.#.#.#.#.#.#.#.#.O.~ $   : n G.`.`.`.`._._.).`.`.`.`.^._._._.`.`.`.`.`.",
"E.~._.`.`.`.`.^.)._.`.`.`.`.`.`._._._.^.^.D t @.%.#.#.#.#.#.#.#.#.#.#.#.#.#.O.Q = D D.T.`.`.`.`.`._./.).`.`.`._._._._._.`.`.`.`.`.",
")._._.`.`.`._.~._.`.`.`.`.`.`.(._.`.(.Q._.v.= o.#.#.#.#.#.#.#.#.#.%.#.#.#.#.X.E = G.`.`.`.`.`.`.`._.^._.`.`.`.`._._.`.`.`.`.`.`.`.",
"_._.).`.`._.)._.`.`.`.`.`.`.`./.(._.).Q.^.F.2 [ #.#.o.] | o.o.+.#.>.&.#.#.#.X.U 2 J.`.`.`.`.`.`.`.`._.^._.`.`.`._.^.`.`.`.`.`.`.`.",
"`.).`.`.`.).`.`.`.`.`.`.`.`./.`.`.`._.(.R.P.9 Y #.#.E & - e u d I >.&.#.#.#.X.K 8 U.`.`.`.`.`.`.`.`.`._._.^._.^.^.^.^._.`.`.`.`.`.",
"^.^.).).~.).`.`.`.`.`.`.`.`.`.`.`.`._./.E.R.b G #.#.@.` h & o o p >.%.#.#.#.X.F 0 T.`.`.`.`.`.`.`.`.^.^._.^.^.^.^.^.^._.`.`.`.`.`.",
"~.~.).).E.~.`.`.`.`.`._._.`.`._.`.`._._.E.R.N g #.#.#.#. .t B 4.a >.%.#.#.@. .f b T._.`.`.`.`.`._.^.E.^.^.^.^.^.^.^._.^._.`.`.`.`.",
"E.)._.~.~.`.`.`.`.`._.).).`.`.`.`.`.`.`.(.E.Z d #.#.#.#.| t A 5.a >.&.#.#.@.} s N ~._.`.`.`._.).^.^.^.!.!.^.^.^._._._.`.`.`.`.`.`.",
"~._.~.).`.`.`.`.`.`._.~.).`.`.`.`.`.`.`._.^.5.e +.#.#.O.' e A 5.r ;.%.#.#.+.' e Z E.^._.`.`.).E.^.!.!.!.!.^.^._._._._.`.`.`.`.`.`.",
"`._._.`.`.`.`.`._.).).).).`.`.`.`.`._.^.E.E.m.* U  . .} ^ - z.z.; o.#.@.@. .) - 5.^.^._._.~.E.R.!.!.!.!.^.^.^._._.^.`._.`.`.`.`.`.",
")._._.`.`.`.`._.)._.`.`.`.`.`.`.`.).~.E.E.!.R.C # t s s , 8 H.H.7 h { } { ] g 2 V.^.^.^.^.!.^.!.!.!.^.^.!.^.^.^._._.^.`.`.`.`.`.^.",
"^.`.`.`.`.`.`._.`.`.`.`.`.`.`.`._.^.~.E.E.R.E.P.x.B M M C F._.^.x.> , t t , > l.!._._._._.^.!.!.!.!.W.^.^.^.^.^.^._.`.`.`.`.`.^.!.",
"`._.`._._._.~.).`.`.`.`.`._.`._.~.^.)._.E.!.!.!.^.).(.(._._.~.^.Q.B.l.k.j.l.D._._._.`._._._.^.^.^.^.^.^.^.^.^._._._.`.`.`.`.`._.^.",
").^._.).E.E.E.~._.`.`.`.).)._.)._.`.`.`._.E.!.!._.`.`.`.`.`._.E.E.^.`.`.`.`.`.`.`.`.`._.^._.^._.^.^.!.^.^.^._._.`.`.`.`.`.`.`.`._.",
"^.^.^.E.E.E.^.).`.`.`.`.).`.`._.`.`.`.`.~.!.!.E.~.`.`.`.`.`.).E.!.E._.`.`.`.`.`.`.`._._._._.^._.^.^.!.^.^.^.^.`.`.`.`.`.`.`.`.`._.",
").E.!.^.^.^.).`.`.`._.^.^._.).).`.`.`._.E.E.E.~.Q._.`.`.`./.(.(.^.^.`.`.`.`.`.`.`._.^._._.^._._._.^.^.!.^.^.^._.`.`.`.`.`.`.`.^._.",
"^.E._._.).^.).`.`._.E.E.E.~.).`.`.`.`._.~.).`._._.`.`.`.`.`.`.`._.`.`.`.`.`.`.`.`.^._._._._._._.^.^.^.^.^._._._._.`.`.`.`.`._._._.",
"E.)._._.).).`.`.~.E.^.^.!._.`.`.`.`.).).^._.`.`.`.`.`.`.`.`.`.(.(.`.`.`.`.`.`.`.`.`.^._._._.^.^.^.^.!.^.^.^._._.`.`.`.`.`.`.`.`.^.",
"!.E._._._.`.`.`._._.`._._.`._._.`.`._.~.~.`.`.`.`.`.`.`.`.`.`.(._.`.`.`.`.`.`.`.`._.^._.^._._.^.^.^.^.!.^.^.`.`.`.`.`.`.`.`.`.`._.",
"!.E.Q._.`.`.`._.)._._._._.(.(.`.`.`.).)._.`.`.`.`.`.`._.(._.`.`.`.`.`.`.`.`.`.`._._._._._._._._.^.^.!.^.^.^._.`.`.`._.^.`.`.`.`.`.",
"W.E._.`.`.`._._.~.E.~._.`.).`.`.`.~._.`.`.`.`.`.`.`._._.(.`.`.`.`.`.`.`.`.`.`.`._._._._.^._.^.^.^.^.!.^.!.^.^.^.`.^._._._.`.`.`.`.",
"E._._.`.`.`.`.).!.E.^._.).).`.`._._.`.`.`.`.`.`.`.`.`._._.`.`.`.`.`.`.`.`.`.`._._.^._.^._._.^.^.^.!.^.^.!.^.^.^.^._._._.`.`.`.`.`.",
"!._._._._.`.`.).!.~.^.).~.E.^._.E.E._.`.`.`.`./.`.`.(._.`.`.`.`.`.`.`.`.`.`.`.`._.^._._._._.^.^.^.^.!.^.^.^.!.!.^.^._.`.`.`.`._.^.",
"!.E.^._._.`._.E.!.~.^.^.E.E._.^.E.E._.`.`.`.`.E.K.E.E.E.^.`.`.`.`.`.`.`.`.`.`.`._._._._._.^.^.^.!.^.^.!.!.^.^.^.^.^._.`.`.`.`.^.^.",
"!.~.^.`.`.).~.!.!.~.^.^.E._.`._.Q.)._.`.`.(.Q.Q.R.E.^.Q._.`.`.`.`.`._._.`.`.(.(._.^.^._.^._._.^.^.!.^.!.^.!.^.^.^.^._._.`.`._._.^.",
"!.^.)._.~.).~.!.^.).^.E.E._.~.!.Q.`.`.`.(.(.E.E.E.^.^._.`.`.`.`._._._._._._._._._.^._._.^._._.^.^.^.^.^.^.^.^.^.^._._._._._._.^._.",
"E.^._.`.)._.`.).`.`.).!.!._.~.).`.`._.).~.~.^.^.!.^._.`.`.`.`.`._._.).)._._._._.^.^.^.^._.^._._.^.^.^.^.^.^.!.^.^._.`.`.`._.^.`.`."
};
