/* XPM */
static char *Crystal_resized[] = {
/* columns rows colors chars-per-pixel */
"64 51 37 1 ",
"  c None",
". c #27BEFF",
"X c #2ABFFF",
"o c #2EC0FF",
"O c #36C3FF",
"+ c #3BC4FF",
"@ c #43C7FF",
"# c #46C8FF",
"$ c #4BC9FF",
"% c #54CCFF",
"& c #5ACDFF",
"* c #5FD0FF",
"= c #60CFFF",
"- c #64D1FF",
"; c #6CD3FF",
": c #75D6FF",
"> c #78D7FF",
", c #7CD8FF",
"< c #83DBFF",
"1 c #8BDDFF",
"2 c #92DFFF",
"3 c #95E0FF",
"4 c #9BE1FF",
"5 c #A4E4FF",
"6 c #ADE7FF",
"7 c #B3E9FF",
"8 c #BCEBFF",
"9 c #C4EDFF",
"0 c #C8EFFF",
"q c #CEF1FF",
"w c #D5F1FF",
"e c #DAF2FF",
"r c #E4F6FF",
"t c #E9F7FF",
"y c #ECF9FF",
"u c #F5FAFF",
"i c #FCFEFF",
/* pixels */
"                                 &                              ",
"                               ::&++                            ",
"                              :>;&$O+                           ",
"                            ::>:-&%+O++                         ",
"                           :>>>:=&&#OOO++                       ",
"                         ::>>>,>&%&$+OOOO+                      ",
"                       ::>>>>>,,&&&&+O+OO+++                    ",
"                      :>>>>>>>1:&&&&$+OOOOOO+                   ",
"                     ;>>>>>>>,5=&&&&%++OOOOOOO                  ",
"                     %;,>>>>>12&&&&%&$OO+O+OOO                  ",
"                     &&<<>>>>51%%&&&&%+OO+OOXX                  ",
"                     &&-42>:<7;%&&&&&%#+OOOXXX                  ",
"                      &&:84:47&&&&&&&&$+OOo..X                  ",
"                      &&;2q582&&&&&&&&%@OO...X                  ",
"                      &*:,4ey4,;=&&&%&%#O...XX                  ",
"                      &;::,6t852<;&##@#@X...X                   ",
"                      &:>>:48#OOO+OOOO@#o...o                   ",
"            %++++++++@->>>:48@OOOOOOO+%$X....                   ",
"           :-$+OOOO+O@;>>>:37@OOOO+O+$&#....o      :&           ",
"           :;&&#+OOOO@;>>>>37#OO+OOO$&&#X....   ::>;&@          ",
"          :>:&&%$+OOO+-,>>:26@OOOOO@&&&#...o#;>>:>:-&@O         ",
"          >>,-&&&&@OO+->>>:16#O+OO+&&&&+..o$;>,>>,>&&#O+        ",
"         :,:<:&&&&&@Oo&,>>:<5#OOO+$&&&*$$&-%;,>>>1;&&$OO+       ",
"         ::>,1&&&&&&#o&:>,::5#OOO$&*-;;:>>-$#,>>1<&&&$+OO+      ",
"     =::;:::,4*&&&&$@O%>>>;;4#O+#&&-:>:,,:*$O*,<4-&&&&+OO++     ",
"    +&;:>>>::1;&-*@O@$&>>>--4#O+%&&&,>:,<-&$OO*5<%&&&&+OOOO     ",
"    +$&:,>>>,:1<>#OO#&*:,;*-4#+$&&&&<<,1:&&%+O+>,-&&&&++OOX     ",
"   ++$&&<<:<<&4:+OOO#&-:>;&-3#$&&&&&<531&&&%++O@:;*&&%+OoXX     ",
"   +O$&%=2114-:&OOOO$&*::*&-4&&&&&*;,70;&&&%+OOOO+@+@$+X.X      ",
"  +OO$&&&=492::<@OO+$&*:;&&;4-&&&&;>>54,;*&&+OOoOOOO+$O..X      ",
" ++OO#&&&-183::<;OO+%&&:-&-:4-&&&*:><4#@@#$$+O.oOO++$$X..X      ",
" OOOO@&&&-&&5,,,3$O+%&&;&&;>3-&&&->,<<OOO+++oooOOO@&&@XXX       ",
"  ooO+$$++OO<1::<,++%&&*&&:,1-&&&;>>1*OOO+%@..oOO#&&&O...       ",
"  X..O@++OOO$1,,,1*+&&%&&;::1-&&&;,;1@O+#&&O..O+$&&&$o..X       ",
"   o..O%$@+++;,;>><$%&&&&:>><&&&&:;;;++%&&$..o+%&&&&@..X        ",
"    ..X#&&$@O#,-;;,:&&&&-,>,,&&$&;*>*@&&&&+..O%&&&&$O..X        ",
"    oX.o$&&&%@-:*-:<-&&%:,:;;*$+&--,*&&&&$o.X$&&&&$+oo.X        ",
"     X..+&&&&&-345674-&*:>,--&++%*>,&&&%#Oo.O&&&%@+O..o         ",
"      ..o+$&&10uiiiiiw3-:>:;<,;&*;,;&&$++O..$&&%++$O...         ",
"      oooo+$6iiiiiiiiii0139eyuyrq4>*&$+##..O&&$++%%o..o         ",
"       X..#7iiiuiuuuuuiiryiiiiiiiu6*++%&+..#&$+@%&#..X          ",
"        XX1iiiuuuuuuuuuiiiiiuuuiiii4$%&#o.o%#+#&&$O..o          ",
"        X%riuuuuuuuuuuuuuiuuuuuuuuiy<%@Oo.O#+$&&+OX..X          ",
"         6iuuuuuiiiiiuuuuuuuuuuuuuii9@Oo.o##$&*-:<;&+           ",
"         iuuuuyiyttruiuuuuuuuuuuuuuuy:*#oO%&&19yiiiuw           ",
"         iuutetrewwwwryruttrreeetyuuuyyr91--6uiiiiiiiii         ",
"        iiuewerwwwwwwweetuuteewwweruuiiiiiq8iiiuuuiuiiii        ",
"      iiiiewwwwwwwwwwwetteeerewwwwweuuiuiiiiiuuuuuuuuuii        ",
"     iiiirwwwwwwwwwwwwweewwweeewwwwweuuuuuuiuuuytrtyyuuiiiiiii  ",
" iiiiiiuuewwwwwwwwwwwwwwwwwwwwewwwwwertttuuuyrewweweeryuiiiiiii ",
" iiiiuuureeeewweweeeweweeweewwweeweweeeeeetteeeeeeewewetuuiuiiii"
};
