/* XPM */
static char *Design_sem_nome__1__resized[] = {
/* columns rows colors chars-per-pixel */
"64 64 96 2 ",
"   c #010101",
".  c #070808",
"X  c #0B0B0C",
"o  c #0F1011",
"O  c #151616",
"+  c #161818",
"@  c #1C1D1D",
"#  c #1F2121",
"$  c #212222",
"%  c #272929",
"&  c #2A2D2D",
"*  c #2E3233",
"=  c #323435",
"-  c #333738",
";  c #363A3B",
":  c #3A3C3C",
">  c #414647",
",  c #494E4F",
"<  c #494E50",
"1  c #4D5254",
"2  c #515252",
"3  c #505A69",
"4  c #56606F",
"5  c #576170",
"6  c #596472",
"7  c #5E6876",
"8  c #656767",
"9  c #656A6B",
"0  c #6A6C6C",
"q  c #616C79",
"w  c #6D7272",
"e  c #65707D",
"r  c #68727F",
"t  c #737373",
"y  c #727A7C",
"u  c #787E7E",
"i  c #6B7582",
"p  c #6E7985",
"a  c #747F8A",
"s  c #7A8283",
"d  c #76818C",
"f  c #79848F",
"g  c #7B8691",
"h  c #7D8892",
"j  c #818485",
"k  c #848D92",
"l  c #848F99",
"z  c #8B9495",
"x  c #86919A",
"c  c #89959E",
"v  c #929C9F",
"b  c #8B97A0",
"n  c #8D99A2",
"m  c #919DA4",
"M  c #96A0A4",
"N  c #95A1A9",
"B  c #9AA7AE",
"V  c #9CA9AF",
"C  c #9EAAB1",
"Z  c #A2A2A3",
"A  c #A3ACAC",
"S  c #A2AEB4",
"D  c #A5B1B7",
"F  c #A6B2B8",
"G  c #AAB6BB",
"H  c #ACB9BE",
"J  c #BBBCBD",
"K  c #AFBBC0",
"L  c #B1BEC2",
"P  c #B5C2C6",
"I  c #B7C4C8",
"U  c #B8C6C9",
"Y  c #BEC9C8",
"T  c #C3C9C9",
"R  c #CACBCB",
"E  c #CFD2D3",
"W  c #CFDBDB",
"Q  c #D4DBDC",
"!  c #DCDDDE",
"~  c #D5E0E1",
"^  c #DBE1E2",
"/  c #DEE9E9",
"(  c #E2E2E2",
")  c #E4EDEE",
"_  c #E6F6F6",
"`  c #EBF7F7",
"'  c #E7F8F7",
"]  c #EDF8F7",
"[  c #E7F7F8",
"{  c #EDF7F8",
"}  c #EEF8F9",
"|  c #F0F7F7",
" . c #F1F8F7",
".. c #F1F7F9",
"X. c #F4F9FA",
"o. c #F9FAFA",
/* pixels */
"X.} } X.X.o.X.X.X.o.X.X.X.{ ` } X.X.X.o...] { ` { X.X.X.` { X.X.X.X.o.o.o.o.X. .{ { X.o. . .{ X.{ { { X.o.X. . .]  .X.X.o.o.o...",
"X.X.X.X.X.X.} } X.o.} X.X.{ { ..o.X.o.X.....{ { { ..X.X.{ ] { ....X.o.o.o.X. .{ { ..o.o.X.X.X.X.X.X.{ X.o.o.X. .] ] X.o.o.X...o.",
"o.o.X.o.o.o.X.X.X.X.} X.X.} { X.o... . .X...{ { ..X.o.X...{ { ..X.o.o.X.X.X.X.X...X.X.X.] { ..o.o.X.X.{ X.o.X.] ..{ X.} ] ] ..X.",
"} } X.} X.} } X.X.{ } X.X.X.X.o.o... .X.o.X...X.o.o.o.X.....{ X.X.X.X.X.o.o.o.o.o...X...] ] X.o.o.X.} { X.o.X.X.X.X.X.] { X...o.",
"} } } } X.} X.X.X.X.X.X.X.X.X.X. .{ ..X.o.o.] ..{ X.X. .] ..X...{ { ] { o.o.....X.o.o...` ` X.o.o.X.X.] X.o.o.o.o.} { { ` { o.o.",
"X.o.o.o.o.X.X.} o.o.o.o.X...X...{ { X.o.o.X.] ..X.o.o.o.X.X...{ { ..X.o.X.......X.o.o. ...o.o.o.o.o.X.X.o.o.o.o.X.X.{ { { { X.X.",
"} X.X.} } { { X.o.X.] X.X.o.o...] { X.o.o.X...{ o.o.o.o.X.| | ` { } X.o.X.{ { X.X.o.X.X.o.o.o.o.X. ...{ ..o.X.X.X.{ ....{ { { X.",
"X.} } ' X.X.X.o. . . .X.o.o..... .o.o.o.o.o.X.X.o.o.o.o. .X...{ { { X.o.X.{ { ..{ X.] X.o.o.o.X. .] ......o.o. .X.} X.{ { { X.o.",
"{ { [ { X.o.o.X.] X.X.X.o.X.X.o.o.o.o.X.X...{  .X.o.X.........{ [ { X.X.X.{ X.{ { X.X.X.o.o.o. .....{  .X.o.X.X.{ ..o.o.X.X.X...",
"{ { { { X.o.X.{ ` ] } { X.] o.o.o.o.X... .....X.o.X.X.X. .....] { X.X.o.o...{ { } X.o.o.o.X.X.o.X.X.o.X.X.X...{ { X.o.o.X.{ X...",
"{ } { { X.X...{ X.} } X. .X.o.o.o...{  .] { X.o.o. ...{ X.X.o.....X.X.o.o.X.......X.o.X.X.] X.o.o.o.o.X.X.X...{ } { o.o.X.{ { { ",
"{ { { X.o.o.X...{ ` X.X.o.o.o.X.X.o.X.X.X.X.X.X... ...{ o.o.o.| .. .X.o...{ `  ...X.{ { ] { X.o.o. .X.X.o.o.X.{ { { o.o.o.X.{ { ",
"X.X.X.X.o.o.X.....{ X.X.o.X.....X.o.o.o.X.X.X.X...{ { ..o.o.X. .} } o.o.X.X...X.X...{ } X...o.X.{ { ..X.o.o...{ X.o.o.o.o.o.o.X.",
"} { { X.o.X.{ { ..X.X.{ { { ] X.o.o.X.X.X.X.o.o.] ` ` X.o.o.X. .` X.o.o.o.o.o. .{ { _ ` X.o.o.X...X.X.X.o.o.....o.o.o.o.X.X. .X.",
"..} X.o.o.....X...X...{ .... .o.X. .` X.o.o.o.X. .X.X.X.o.o.o.X...o.o.o.o.o. . ...{ [ { X.X.o.X.{ } X...X.X. .o.o.o.o.o.....{ ] ",
"{ X.X.o.o.o.X.X.{ ..` ` ..o.o.X.} X.X.X.X.o.X. . .o.o.o.o.X.o.X.X.X.X.o.o.o. .X.} { } { ] ..o...[ { { { .. .] o.o.o.X.X. .{ ..X.",
"{ o.o.o.o.o.X.X.{ { _ { X.X.o.X.] ] X.X.X.o.X.X.o.o.o.o.o.| ..{ { ..o.X.....{ { ..{ ` { ] o.X.X.} X.X.` X...X.o.o.o.X... .] { ] ",
"X.o.o.o.o.o.X...` { [ { X.X.X.X.` ] { { X.} { o.o.o.o.o...| ..X.{ X.o.o.X.X.} X.X.{ ` ..X.X.o.o.X.{ { ` } X.o.o.o.o.X.X.o.o.o.o.",
"} o.o.X.X.{ X.X.{ X.` ` } X.X.{ ] ..{ { X.{ X.o.o.o.o.| ......{ ..o.o.o.X.X...o.X.o.X.X.X.X.o.o.X.} } ..} X.X.X.X.....o.o.o.X.X.",
"X.o.X...X.} X.{ { { ` X.X.o.o.X...{ ] X.X.X.o.o.o.X.|  .........X.o.X.{ { { ..o.o.o. .]  . .o.o.X.{ } ..X...X.{ ] ] ..X.o.o...o.",
"o.o.X.X.{ X.X.X.X.] X.X.o.o.X...{ { { ..X.o.o.o. .o.o.o.o.o.o.X.......{ { ....o.o.X...X. .] o.X.} X.} X.X.X.{ { X.....o.o...{ { ",
"o.X.X...X.o.o.o.X.X.X.X.o.o.o.X.} X...X.X.X.X.X.] X.o.o.o.X.o.X.X.o.X.{ { { X.o.o.X.{ { ] X.o.o.X.X.X.X.....{ { X.X.X.o.X.{ ..X.",
"} { { ..X.o.o.X.{ { ] X.o.X. .` { } ....{ { { {  .X.o.o...X.X.X.o.o.X.[ ` ] X.o.o.o.{ ] ] o.o.o.o.o.o.X.{ { { _ { X.o.o.X.{ { X.",
"{ { X.X.o.o.X...{ X.} X.o.X.X...X.X.X.X.{ } } { X.o.X.] ` { ..o.o.o...{ X.X.o.o.o.o.X.X.X.o.o.o.o.o.X.X...{ [ ` ..X.o.o.X.` ` X.",
"[ [ { X.o.o.o...] { ..o.o.o.o. .X...{ { [ { X.X.o.o.} X.X.X.X.X.o.X.] X.o.o.o.o.o.o.o.X.X.X.o.o.o.o.X.X.X.{ { { { { ..o.X.{ [ { ",
"{ [  .o.o.o. ...` { o.o.o.o.o.o.} { { { { { X.o.o.X.{ ..X.X.X.o.o.X. .o.o.o.o.o.X.X.....{ { o.X.X.X...{ } { X.{ ' { ..o.X.{ } X.",
"X.X.X.o.o.o.X.o.X.o.o.o.o.o.o.X.} { { { ' } X.o.o.X.{ ' X...} o.....o.o.o.o.o.o...{ { { { } o.o.X. .X.{ X.} ` ` ' } o.o.o.X.X.X.",
"o.o.o.o.o.o.o.X.X.X.o.o.o.o.X.X.X.{ { { { ' X.X.o.} ` ` { } [ X.] ] X.o.o.o.o.X.{ { X.X.{ X.o.o.X.X.X. .X.} .. .{ X.X.X.o.X.X.{ ",
"o.o.o.o. .....] ] ..o.X.X.X...{ X.{ } } { [ } o.X.] ' X.} { } X.{ o.o.o.o.o. .{ ..{ ..} { o.o.o.X.X...X.o.o.o.X...o.X.X.o.o.o...",
"o.o.o.X.]  .{ ` { o.o.X. ...{ X.X.{ { { { X.o.o.o.o.X.o.} } o.X.o.o.o.o.o.o.X.X.X.X.} X.o.o.o.X. .{ `  .X.o.o. ..... .X.o.o.o.} ",
"o.X. .{ { ..X.{ X.o.o.X.....] o.X./ Q W Q ! ! ! ! Q Q W W W Q Q ! ! ! ! Q Q ! ! ! ! ! ! ! ! ) ..} { ..X.o.o.o.X.` { } ] o.X.{ { ",
"o. .{ ..{ ..] ..o.o.o.X.X.X. .J 8 * # @ @ @ @ @ @ @ @ @ # @ @ @ @ # # @ @ @ @ @ @ @ @ @ @ # ; w Y ......o.o.o. .{ X.} X.o.o.X.X.",
" .X.....` { X.o.o.o.X...} ^ t X . # ; ; ; ; ; ; ; ; ; ; ; : : - : ; : ; ; ; ; : ; ; ; ; ; ; @   + s ) o.o.o.o.X. .' ` X.o.o.o.o.",
"X. .X.o.X.o.X.X...{ { } ^ 1   * h F P P P P P P P P P P P P P P L P L L I L P P P L I L I L F d $   9 _ o.o.o.o. .] ` X.o.o.X.o.",
"o.o.o.o.o.......{ { } ] 9   , G U U I I I I I I I I I I P I I I U I I I I I I I I I I I I I U U S ;   j o.o.o.X.X.X.X.o.o.X.X.X.",
"o.o.X.o.X...X.o.X.{ } A X = x H U U I U I I P P I P I P I P P P I I I I I P I I P P I I U I I I S k $ + R o.o.o.o.X. .X.X.X.X.X.",
"o.X.X.o.X.o.o.o.X.' _ 1 . z N F U U H V x d d a d d a a d d d a a a a a a a a a a a f b C K I P C B y   t o.o.o.X.X.X.X.X.X.X.X.",
"X.] X...X.o.o.X.{ { W # * L I I F x e 4 3 3 3 3 3 3 3 3 3 3 3 3 3 3 3 3 3 3 3 3 3 3 3 3 6 i b K I U F @ ; | X. .X.X.X.X.X.o.o.X.",
"{ ` ..X.o.o.o.X.{ X.R o < U U F x f f g g g g g g g f g g g g h g g h h h h g g h h h f f f g b H I L = $ ( o.X.X.X.X.o.o.o.o.o.",
"{ ..o.o.o.o.X.{ ..o.R o 1 U I P I I U P H D C S C C C C C S C C C C C C C C C C C C C K I U I I I I P - # ( o.o.X.X.o.o.o.o.o.o.",
"..X...X.o.o.....o.o.R X 1 U I I I G m d 7 4 4 4 4 4 4 4 4 6 4 4 6 4 6 4 4 6 4 4 4 4 6 q f m K I I I P - $ ^ o.o.X.X.o.o.o.o.o.o.",
"o.X.X.o.o...X.o.o.o.R O 1 U U H c r 6 4 4 6 6 6 6 6 6 6 6 6 6 6 6 6 6 6 6 6 6 6 6 6 6 6 4 6 p m L I P - $ / o.} { } X.o.o.o.o.o.",
"..{ ..o.X...o.o.o.o.R X 1 U I H D D D D D D D C S C S S S C D C S S C S S S C S C S C D D D C D L I P - # ~ } } } } X.X.o.o.o.o.",
"{ { { ..{ { o.o.o.o.R o 1 U I U U U H B l f d d d d d d d d d d a d d a d d d a d a f b S P U U U P P - # ~ } } } } X.X.o.o.o.o.",
"{ ..X...{ X.o.o.o.o.R X 1 U I P F x e 4 3 3 3 3 3 3 3 3 3 3 3 3 3 3 3 3 3 3 3 3 3 3 3 3 4 i b G P U P - # ~ } } X.X.X.o.o.o.o.o.",
"` ....{ ..o.o.o.o.o.R o 1 U I F x f f f g g g g g h g g g g g h g h g g g g g g h h g g f f g b H U P - # ~ X.X.X.X.o.o.o.o.o.o.",
"..o. .o.o.o.o.o.o.o.T X 1 U I P P I I P G C B V C C C C V V V V C C C C V C C C V C C K P U U I P I P - # ~ X.} X.X.X.o.o.o.o.o.",
".... .o.o.o.o.o.} X.R o 1 U I I I H v d 7 6 4 4 4 4 4 4 4 4 4 4 4 4 4 4 4 4 4 4 4 4 6 q a m K I I I P - # ~ } X.X.} X.o.o.o.o.o.",
"{ X.o.o.o.o.o...X.o.R o 1 I I H c e 6 4 6 6 6 6 6 4 6 6 6 6 6 6 6 5 6 6 6 6 6 5 6 5 6 5 4 6 p m L I P - # ~ X.X.X.X.o.o.o.o.} } ",
"X.o.o.o.X.X.X.X.o.o.R o 1 I I H D D F F D D S S S D S D S S D C D S D C D S D S D D D D F D D F L I P - # ~ X.} X.o.o.o.o.o.X.} ",
"X.{ X.X.{ { _ ` o.o.R X 2 I I U U U H B l d d a a a a a a a d d a a a a a a d d a a f c C P U U I I P - # ^ X.X.o.o.o.o.o.o.o.X.",
"{ } { { ` ` { X.o.o.R O 1 I I I F x e 4 3 3 3 3 3 3 3 3 3 3 3 3 3 3 3 3 3 3 3 3 3 3 3 3 4 r c G P I P - # ~ X.o.o.o.o.o.o.o.o.X.",
"..{ { ' { { ..o.o.o.R X 1 U I F c f f g h h h h g g h h h h h h g h h h h h h h g h h h f f h c H U P - $ ~ X.o.o.o.o.o.o.o.X.} ",
"} { X.X...{ ..o.o.o.T X 1 U I I I I U P G V V V V B V B V V V V B V V V V B V V B B C H I U U I I I P - # ^ o.X.o.o.o.o.o.o.X.X.",
"{ } X.X.} X.X.o.o.} T X 1 U I I I G c a 7 4 4 4 4 4 4 4 4 4 4 4 4 4 4 4 4 4 4 4 4 4 4 q d m H I I I P - # ! X.o.o.o.o.o.o.o.o.} ",
"{ [ X.{ X.o.o.o.X.X.R o < U I H c r 6 6 6 6 6 6 6 6 6 7 6 6 6 6 6 6 6 6 6 7 6 6 6 6 6 6 6 6 p n L I L = $ ^ o.o.o.o.o.o.o.o.o.o.",
"[ [ { o.o.o.o.X.X.o.E O > I I H F F D F F D F F F F F F F F F F F F F F F F F D F F F F F F F F P I K & % / o.o.o.o.X.X.o.o.o.o.",
"_ ` } o.o.o.o.} ' } ^ $ & G c H U U I I I I U U I U U U P U I U U I U U I I I I U U I I I I U U S n S + : _ } o.X.X.X.} o.o.o.o.",
"{ } X.o.o.o.o.X.' ' { 2 . k B P U U U U U U U U U U U U U U U U U U U U U U U U U U U U U U U U H C y   w } } } } X.X.o.o.o.o.o.",
"[ } o.X.X.o.X.X.' ' } S X + 9 k m M M N M M M M M M M M M M M M N M M M M M M M M M N N M M M v s 4 o # Y } ' } } } o.o.o.o.X.} ",
"[ { { { X.o.X.{ [ { { { z #     . X X X X X X X X X X X X X X X X X X X X X X X X X X X X X X X     & A } } ' ' } X.o.o.o.o.} } ",
"{ [ { o.o.X.{ [ [ { ..} } Q Z u w 9 0 0 0 0 9 9 9 9 9 9 0 w 0 0 0 9 9 w 0 0 0 0 9 w 9 9 9 9 9 w s A ~ } ' } } } } } X.o.o.X.X.X.",
"{ { ..X.....} { { X.X.[ [ X.o.} } o.o.o.} } } } } } X.o.o.o.o.o.o.X.o.X.o.o.X.X.X.} X.X.X.X.X.X.} } } } ' } } } X.X.X.X.X.} X.X.",
"{ ..X.X.X.X.o...X.o.} ' } X.} [ o.o.o.X.} } } ' } { X.o.o.o.o.X.X.X.} X.} } X.X.} } } } } X.X.X.} } ' } } } } } X.X.o.o.o.X.X.o."
};
