/* XPM */
static char *Design_sem_nome__1__resized[] = {
/* columns rows colors chars-per-pixel */
"64 64 188 2 ",
"   c #010101",
".  c #0C0402",
"X  c #0F0802",
"o  c #0B0B0B",
"O  c #120602",
"+  c #1C0102",
"@  c #150903",
"#  c #1D0B02",
"$  c #18110E",
"%  c #111212",
"&  c #171819",
"*  c #1C1C1C",
"=  c #220203",
"-  c #2B0102",
";  c #240E03",
":  c #290F02",
">  c #350102",
",  c #241404",
"<  c #2D1103",
"1  c #2D1804",
"2  c #341303",
"3  c #3B1603",
"4  c #341C04",
"5  c #3C1B04",
"6  c #391B1C",
"7  c #3D2104",
"8  c #1F2021",
"9  c #242424",
"0  c #272728",
"q  c #2B2B2C",
"w  c #333434",
"e  c #393A3A",
"r  c #420303",
"t  c #560202",
"y  c #451700",
"u  c #441903",
"i  c #4A1B03",
"p  c #521E03",
"a  c #561D1E",
"s  c #660505",
"d  c #640B0B",
"f  c #750304",
"g  c #7C0405",
"h  c #611313",
"j  c #691919",
"k  c #741213",
"l  c #791617",
"z  c #442404",
"x  c #4B2404",
"c  c #572003",
"v  c #5D2202",
"b  c #552E05",
"n  c #652503",
"m  c #6A2702",
"M  c #6D2904",
"N  c #742B03",
"B  c #7B2E03",
"V  c #4D2626",
"C  c #5A2828",
"Z  c #592F30",
"A  c #473738",
"S  c #593434",
"D  c #53393A",
"F  c #742929",
"G  c #723435",
"H  c #7B4305",
"J  c #3F4141",
"K  c #444545",
"L  c #464849",
"P  c #4B4B4C",
"I  c #554242",
"U  c #5B4546",
"Y  c #545556",
"T  c #545658",
"R  c #5E5E5E",
"E  c #664445",
"W  c #66494A",
"Q  c #635454",
"!  c #6C5B5C",
"~  c #5D5F60",
"^  c #715F60",
"/  c #636463",
"(  c #6B6263",
")  c #6B6C6D",
"_  c #756262",
"`  c #776D6E",
"'  c #766F70",
"]  c #747373",
"[  c #777979",
"{  c #7A797A",
"}  c #830101",
"|  c #8B0001",
" . c #920101",
".. c #9B0101",
"X. c #801314",
"o. c #A30000",
"O. c #AD0000",
"+. c #B40001",
"@. c #BB0101",
"#. c #802F03",
"$. c #853103",
"%. c #8A3303",
"&. c #923603",
"*. c #973803",
"=. c #9C3A03",
"-. c #A43C03",
";. c #AA3F03",
":. c #C30101",
">. c #CB0101",
",. c #D60000",
"<. c #D80000",
"1. c #8A4B05",
"2. c #AE4002",
"3. c #B24201",
"4. c #B54B03",
"5. c #BA4B02",
"6. c #B46205",
"7. c #C15302",
"8. c #CA5C03",
"9. c #CE6102",
"0. c #C36A05",
"q. c #D16403",
"w. c #D56804",
"e. c #D96D02",
"r. c #CE7004",
"t. c #D57304",
"y. c #DB7503",
"u. c #DE7803",
"i. c #E27602",
"p. c #E47A02",
"a. c #EA7E00",
"s. c #857576",
"d. c #837B7B",
"f. c #ED8001",
"g. c #828384",
"h. c #888686",
"j. c #8A8B8B",
"k. c #928484",
"l. c #8B9293",
"z. c #949494",
"x. c #959999",
"c. c #999B9C",
"v. c #9EA2A3",
"b. c #A2A4A4",
"n. c #A8A6A6",
"m. c #A5A9A9",
"M. c #AAABAB",
"N. c #AAB3B4",
"B. c #B0B1B1",
"V. c #B5BABA",
"C. c #BCBDBD",
"Z. c #BDBFC0",
"A. c #B5C4C4",
"S. c #BDC3C3",
"D. c #C5C6C6",
"F. c #C8C6C8",
"G. c #C6CBCC",
"H. c #CFCFD0",
"J. c #C5D4D3",
"K. c #CCD3D3",
"L. c #CCD8D8",
"P. c #D4D5D5",
"I. c #D6D8D7",
"U. c #D5DADB",
"Y. c #DADDDD",
"T. c #D3DFE0",
"R. c #D2E2E2",
"E. c #DCE2E2",
"W. c #DDE7E8",
"Q. c #DBE9EA",
"!. c #E3E4E4",
"~. c #E0E6E8",
"^. c #E3EAEC",
"/. c #EBECEC",
"(. c #E6EEF0",
"). c #E6F5F5",
"_. c #EAF6F7",
"`. c #E6F8F6",
"'. c #ECF8F7",
"]. c #E7F7F8",
"[. c #EDF7F8",
"{. c #EDF8F9",
"}. c #F3F6F6",
"|. c #F1F8F7",
" X c #F0F7F9",
".X c #FAF7FA",
"XX c #F4F9FA",
"oX c #FAFAFA",
/* pixels */
"oX X XoXoX{.XXXXXXoX{.XXoXoX{.oX.XXX'._.XXXXoX X{._._.oXoX`._.oXoXXXoXoXoX_.{.oXoX'.'._._. XoX X X{. XoXoXoX X X XoXoX X{.oXoX|.",
" X{.{.oXXX{.{.oXXXXX{.XXXXXX{.XXXXXX|._. X.XoX X X{.{. XoX]._. X_.oXoXoX_. X].oXoXoX XoX{.oX XoX X{.{.oXXXoXXXoXoX X|.{.{.oXoX'.",
"XXXX{.oXXX{.{.oXoXoXoXoXoXXXXXXX XXXXX'.oXoX X|.{.{._.oXoX X{. XoXoXoXoXoXoXoX X_._.oXoXoX_.oXoX X{. X X'.|.oXoX|.|.oX X_. XoXoX",
"XX{.oXXX{.{.XX{.{.XX{.{.XXXXoX{.[.'. X|..XXXoX X XoX.XoX}.U.S.V.m.m.N.Z.D.Y.(.oXoXXX.XoX XXX XoXXX{.XX X'.{.oX X{.oXoX X XoXoXoX",
"oXoXXX{.oXXXXXoXXX{.XX XoXoXXX{._._._.|.XXXXoX XoXoXI.h.K 9 % o o   . o % 8 K j.E.oX.XoXoXoXXXXX{.{.{.{.{.oXoX_. X XoXoXoXoXoXoX",
"XXoXoXoXoXXXXXoXXX{.oXoXoXXX{.{._._.`._.|.oXoXoX!.h.0                           e D.oXoXoXoX X{.{.{.{. X'.'.oX|._.{.{. XoXoX.X_.",
"XXXXXXXX{.XXoXoXXXXX X X X{.{.`.)._._._.|..XoXD.K         X , 4 5 7 7 1 , @       w U.oXoX{.XX{.{.{.{. X].].XX X X{. X XoXoXoX{.",
"oXoXoXXXXXXXXX{.XXXX{.{.{._.`.`.`._._._.|.XXB.0       4 H 6.r.y.u.u.u.t.r.6.1.7     [ .X X{.{.{.{.{.|. X XoXoXoX X{.].oXoXoX XoX",
"XXoXXX{.{.{.{.oXoX{.{.`._.`.`.`.].].[.[.XXV.*     1 1.y.a.a.a.a.f.p.f.f.a.a.a.y.b   q E.XX{.{.{.{._._.oXXXXX|.oXoX{. XoXoX X{.oX",
"{.oXoXoXXX XoXoXoX{.{._.`.`.`.].]._.[. XI.w     x 0.f.a.a.a.a.a.f.f.p.f.a.a.a.a.0.; o V.XX{.{.{. X{.oXoX|.{.|.oX X{. X X].{._.oX",
"oXoXoX X{.oXoX X{.{.{._.`.`._.{.[.]._.).~     b t.f.a.a.a.a.a.a.f.p.f.f.a.a.a.a.p.z   c.XX{._.'. XoXoXoXXX|.{.oXoX XoX X_._.oXoX",
"oXXXXX{. XoX X X X{.{. X_._._.].{.{.XXv.o   z t.f.a.a.a.a.a.a.a.f.f.f.p.a.a.a.a.w.x   h.oX X XoXoXoXoXoXoX|.{.oXoXoX X{.{.].XXoX",
"{.{.{.oX.XoX{. XoXoX X.X_._._._.{. X^.J   , 0.f.a.a.a.a.a.a.a.a.p.f.a.a.a.f.i.9.3.i   ) oX XoXoXoXoXoXoXoXoXoXoX.X.XXXXX_.].XXoX",
" XoX XXXXX{.{.oX.X X{._._._._. X{.XXN.o   1.a.a.a.a.p.a.a.a.a.a.f.f.a.a.i.q.7.3.3.u   g..X_.XXoXXXoXoXoX XoX{.|.oXXXXXXX X{.].{.",
"oXoX X X{.{.XX.XoX{.{. X[.{.{. X X{./   1 t.f.a.a.a.f.f.a.a.a.p.u.e.9.7.5.3.;.3.-.;   [ g.K ~ I.oXoXoX.X X{._.{.oX X X{. X]._.oX",
" XXXoXXX`.{.oX.XXX]. X.X X{. X X XU.0   H a.a.f.a.a.p.u.e.w.8.7.4.3.3.;.;.3.3.3.$.X   o       K !.oXoXoX X{.XXXXoXoX X X.X X{.oX",
"oXoXoX{.{.|.oXoXXX{..XoX_.XX X[..XV.o X 6.p.i.e.q.8.5.5.3.;.3.;.3.3.3.3.3.3.3.-.3       ; p 3   { oXoXoX{.{.{.oXoX X{. XoXoX X X",
" XoXoX XoXoXoXoXXX.X.XoX{.{. X[.oXc.  ; 4.5.4.3.3.3.3.3.3.;.;.;.;.-.-.-.-.2.-.p       2 *.3.-.2 & D.oXoXoXoX.X XoX{.{. XoXoX X{.",
"oXoX XoXoXoX|. X{.{.oXXX{.{.[.[.XXx.  < ;.;.3.3.;.&.N n i 3 2 2 < : ; ; < u 3       u -.3.;.3.&.O ) oXoX.XoXoX_.XX{.{.{.oXoX X X",
" XXXoXoXoXoX X X[.{.oX X{. X X[.XXc.  : ;.3.=.m 3 @                               u -.3.3.3.3.3.i 8 I.oX.XXXXX.XoX X].{.oXoXoX{.",
"_.|.oXoXoX|. X X{..XoXXX{. X[.[.oXb.  # $.p #           . # 2 3 u c c c p 2 o   . M 3.3.3.3.3.3.%.O z.oXoX|.].oXoX X{.|. XoXoXoX",
"oXoXoXoX'.'._. XoX.XXXXX[.[.[. X XV.o   .           ; v $.=.-.;.2.3.3.3.3.;.B :   . N 3.;.3.3.;.;.< Y .X X XXXoXoXoX XoXoXoXoXoX",
"oXoXoX X XoXoX X.X X{. X[. X{.{.XXP.*           ; M -.3.3.3.3.3.3.3.3.3.3.3.3.=.u   @ %.3.3.3.3.;.v q !.oX_.oXXXoX XXXoXoXoX|. X",
"oXoXoXoXoXoXoX X X[.{. X[.[. X_. X^.w         u *.3.3.;.-.&.$.B $.&.-.3.3.3.3.3.-.u   2 ;.3.;.3.3.#.* H.oX]._.XXoX XXXoXoXoXoX{.",
"_.{.XXoXoX XoX XoX{.`.{. X_. X X XoXR     o p ;.;.-.M u ; X       X ; p $.2.3.3.3.-.:   B 3.;.3.3.&.$ S.oX_.].{.{.{.XXoXoXoX}.'.",
"_.{.oXoX{.oXoXoX|._._. X{. XoXXXoXoXj.    c ;.;.N :           .         X p -.3.3.3.N . i 3.3.3.3.=.; M.XX{. X{.|.{.oXoXoXXX|.'.",
"'.oX|.{._. XoXoX X XoX X{._.|.oXoX/.L   i ;.;.p .     # 2 3 i i i 3 : @     i -.3.3.-.; ; ;.;.3.3.-.# v.oXXX X{. X|.oXoXoXoX|. X",
"oXoX|. X XoXoX X XoXoXoX|.|.oXoXoXz.  < -.3.p     ; i c v v v v n v v p 2   o n 3.;.;.3 O *.3.3.3.=., m.oXXX{.{.{.XXoXoXoX XoXoX",
"oX X_.oX XoXoX XoXoXoXoXoXoXoXoXI.0 O %.3.M .   2 c v v n v v v n p n p v 3 . # =.;.3.p . %.3.3.3.&.$ C.oXoXXX X XoXoXoX_. XoXoX",
"oX'.].oX{.oX_.oXoXoXoXoXoXoXoXoX{   v ;.*.#   2 v v v c u : u c v n p n n p :   M 3.3.m   #.3.3.3.M 0 Y.oXoX{.XX X X{._._.oXoXoX",
"oX_._. X{. X_.oXoXoXoX X XoXoXE.0 # =.4.m   ; c n v c 2       : p n v v c n i   3 ;.3.M   N 3.3.;.3 Y }.oX{.{.{. XoX{._.{.oXoXoX",
"]._.{._. X{.oXoXoXoX_. XoXoXoXM.. c 3.2.u   i v c v 2   % e o   : p v v v v c @ # -.3.B   m 3.;.$.@ b.oXoX XoX X X X_.{._. XoXoX",
"XXoXXX{._.oXoXoXoXXX}.XXoXoXoX) X &.3.-.; O v v p 3 . % c._.m.8 . u v v v v v ; O &.3.B   n 3.;.3 e !.oXoXoXoX XoX_.{.`.].oXoXoX",
"{._.].XXoXoXoXoXXXXXXX}.oXoX}.L : ;.3.=.# @ 3 3 < . o j.oXoXoXv.o ; v v v v n : . $.3.B   m 3.M @ b.oXoXoXoXoXoX X{.{.`.].oXoXoX",
"[.].{. XoXoXoXoXoXoXoXoXoXoX/.w u ;.3.B X           ' }.oXoXoX^.w O p v v v v : . $.3.m   N =.; Y }.oXoXoX XoXoX X{.{.`.).XXXXoX",
"{.oX X XoX X X{.oXoXoXoXoXoX/.w p 3.%.#     % 8 A g./.oXoXoXXXS.* O p n v v n : . &.4.n   B i * F.oXoXoX X X X X X{.oX X|.oXoXoX",
"_.XX{.{.{._._._.oXoXXXXXoXoX/.w p ;.y   e l.S.U.). XoXoXoXXXV.0   < v v v v v ; @ *.3.p . p O g..X.XoXoXXXXXXXoXoX|.oX X{.oXoXoX",
" X X X{._.{.{.oXoX|.|.oXoXoX/.e i %.. q D. X X X{.oXXXoXXXQ.J   # p v n v v v O # =.2.3   . P /.oX.XoXoXoX.XXXoXoXoX X{._.XXoXoX",
"oX.XoX{.oX{.{.oX X{._.|.oXoXXXT 3 p   [ /._.{.{.XXXX X XXXG.% @ p v v v v v p X < 2.=.#   * D.oX.XoXoXoXoXoXoXXXoXoX|._.|.oXoXoX",
"{. X].[. X XoXoX{. X XoXoXoXoXg.+ : % M._. X{.{.J.R.XX XXXL.8 . p v v v v v y   i 3.B   . z.oXoXoXoX.X XoXoXoXoXoXoXoX|.oXoXoXoX",
"{.{.[.]. XoXoXXXXX XoX X.X.XoXZ.%   * B.^._.XXK.L S.XX{.{._.)   2 v v v v v <   M 3.p   T _.oXoXoXoX|.{.oXoXoXoXoXoXoXoXoXoXoXoX",
"[.[.].[..XoXoX_.].oXXXoXoX.XXX^.e   . j.U._.T.K q Y.{._.{. XG.* O v v v v i . # =.-.; 9 P.oXoXoXoXXX|.'.oXoXoXoX XoXoXoX{.|. X X",
"[.].]. XoXoXoX_.]. X{.oXoXoXoXoXz.    0 g.g.J   Y W.'.'.|. X_.L . p v v u @   p 3.B . 6 d.F..XoXoXoX{.{.XXoXoXoX X{.oX{. XoX X|.",
"[.].].[. XXXoX].{._.]. XoXoXoXoX/.J             ] Y._.).'. XoX!   # ; # .   < =.2.2 > +...j ` P.oXoXXX_.oXoXoXoXoXoXoXoXoXoXoX X",
" X X_.].XX X]._.{.{. XoXoXoX'.C.] A             ( K.)._._.oX_.P           < &.3.B o } <.<.>.| V n.oXXX|.oXoXoXoXXXoXoXoXoXoXoXoX",
"XX{._.{. XoXXX X X{.{. XoX/.d.h } ..s .         e Z.Y.).).^.D.w . 2 3 3 n -.3.*.; > :.<.<.<.<.+.h z.XX|.oXoXoXoX{.{.XXoX XoXoXoX",
"].].{.oXoX.X XoX X XoXoXE.! g >.,.<.>.t         . ~ M.D.F.V.~   3 ;.;.3.3.3.&.2 O ..<.<.<.,.,.<.:.k n.XXoXoXoX{.{.{.{.{.oXoXoXoX",
"[.XXoXoXoX.X_.].].{.{./.^ } ,.,.,.,.<.>.g +         * w K q .   M ;.;.=.%.c # . } <.<.<.,.,.,.,.<.>.G E.oXoXXX].{.{.{.{.oXoXoXoX",
"{.XX XoX.XoX].].].].oXK.l ,.<.,.,.,.,.,.,.+.f r +               ; : , # o   - | ,.,.,.,.,.,.,.,.,.,.F U.oXXX{.{.{.].{.XXoXoXoXoX",
" XoXXXoXoXoX{.XXXXXXoXG.X.<.,.,.,.,.,.,.,.<.<.>.+...f t > > - = + + = > t } :.<.,.,.,.,.,.,.,.,.<..._ ).oXXX{.].{.{.XXoXoXoXoXoX",
".X XoXoX.XoX XoX X.X X^.E o.,.<.,.<.<.,.<.<.<.,.,.,.,.,.,.>.:.@.@.@.:.>.>.<.,.,.,.,.,.<.,.<.,.@.f Q J.{.XXoXXX{.].{.oXoXoXXXoXoX",
"{.].{.oXoX{.]._.{.{.{.{.Z.U h } o.+.O.O. .} | :.,.,.,.,.,.<.<.<.<.<.<.,.,.,.,.>.:.:.@.+.O.| s A l.Q.].].oXoXXX{.{.{.{.oXXX{.oXoX",
" X_.oXXX].].].{. XXX].].oX/.C.g.Q U W ` { L + O.<.,.,.,.,.,.,.,.,.,.,.,.,.<.@.r V E E U Q [ m.R.{.].].].oX XXX{.{.XX{.oXoXXXoXoX",
"XXoX.X_.{.oXoXoXoXoX_.oXoXoXoXoX}.'.[.{.L.S o.,.,.,.,.,.,.,.,.,.,.,.,.,.,.,.>.s l.(.Q.)._.{.{.{.{.].`.`. XoX{.{.{.{.oXoXoXXXoX.X",
"].oXoXoXoXXXXX X{._. X.XoXoXoXoX.X X X_.h...<.,.,.,.,.,.,.,.,.,.,.,.,.,.,.,.<.O.s.{.{.{.{.`.R.J.A.R.{.{.oXoX{.{.{.{.oXoXoXXXoXoX",
"oX.XoXoXXXXX X_.{.[._.XXoXoXoX.X X{.].'.^ @.<.,.,.,.,.,.,.,.,.,.,.,.,.,.,.,.<...d.{.{.oXU.( Z j h S j.Q.oXoXoX{.{.{.{.oXXXXXXX{.",
"oXoXoXoX.X.X X X{.].].XXoXoXoX_.[.[.].[.x.g :.,.<.<.<.<.,.,.<.,.<.<.<.<.,.:. .S A.XXoXoXj.| :.,.,.:.g _ _.oXoXXX{.].{.XXXXXX{.{.",
"oXoXoXoX.X X X{.].].]. XoXoXXX_.{.{.].[.Q.' a d f | o.+.@.@.+.+.O.O.o.| f C d.J.XXoXoXoXk.o.<.<.,.,.,.l K.oXoXXX{.{.{.{.{.{.{.{.",
"oXoX.X.XoX{.{.{.].]. XoXoX X{.]._._._.].[.).J.N.l.' ( I D D D A I Q ( ] x.L.{.{.oXoXoXoXF.D g +.,.,.@.F Y.oXXX{.].{.{.XXXX{.].{.",
"oXoX.XoXoX{. X_.].].XX.X X X].].]._.].].].[.].[.{._._.(.^.^.).Q.^._._.XX{.{.{.oXoXoXoXoX.X!.c.W j d C b.oXoX{.].{.{.XXXX{.{.{.{.",
"oXoXoXoX{.oX{.]._.].].{.oX X{.`._._.].{._.].{. XoX X~._.{.{.oXoXoXXXXXXX{.{.XXXXXXXXXX{.{.{.{.Q.A.N.L.oXoXXX{.{.].{.{.{.XXXX{.{.",
"oXoXoXoXoX.X{.{.oX].].oXoX{.`.]. X{. X.X X_.oXoXXX_._.].{.{.oXoXoXXXoXoXXXXXXXXXXX{.{.{.{.{.{.{.XXXXXXoXXXXXXX{.{.{.XXXXXX{.{.{.",
"oXXX X X X XXX.X X].{. X X_.].{.{.].].XX{.oXoXoX_.{.]._.{.oXoXoXXX{.XXXXXXXX{.{.XXXXXX{.{.{.].{.{.XXXXXXXXXXXXXX{.{.oXoXXX{.{.{.",
"|.{.{.{.].{.{._.].].{..X XoXoX.XoX].XX_.{.oXoX X_.{.{. XoXoXoXoXXXXXXXXX{.XX{.{.{.XXXX{.].{.{.{.{.XXXXoXXXXXoXoXoXXXoXoXoX{.].{."
};
