/* XPM */
static char *Design_sem_nome__2___1__resized[] = {
/* columns rows colors chars-per-pixel */
"64 64 172 2 ",
"   c #020101",
".  c #0A0402",
"X  c #060808",
"o  c #0A0909",
"O  c #130601",
"+  c #150802",
"@  c #1B0B02",
"#  c #130D0A",
"$  c #141414",
"%  c #1A1917",
"&  c #151618",
"*  c #18191A",
"=  c #230201",
"-  c #2C0303",
";  c #230D02",
":  c #290F02",
">  c #3B0804",
",  c #201000",
"<  c #2B1102",
"1  c #231209",
"2  c #341302",
"3  c #3B1502",
"4  c #3D1B02",
"5  c #201C1B",
"6  c #311C12",
"7  c #2A221E",
"8  c #1C1E20",
"9  c #242526",
"0  c #2B2827",
"q  c #2A2A2A",
"w  c #333536",
"e  c #3D3D3C",
"r  c #490000",
"t  c #430C02",
"y  c #550403",
"u  c #5D0303",
"i  c #441700",
"p  c #441902",
"a  c #4C1C03",
"s  c #541F02",
"d  c #6C0102",
"f  c #562003",
"g  c #5C2202",
"h  c #552D01",
"j  c #632402",
"k  c #6C2701",
"l  c #6E2903",
"z  c #742A02",
"x  c #7B2C01",
"c  c #673701",
"v  c #7A3702",
"b  c #601F20",
"n  c #402E26",
"m  c #433A36",
"M  c #3D3F40",
"N  c #3F4040",
"B  c #494746",
"V  c #444748",
"C  c #5A534F",
"Z  c #575A5A",
"A  c #704E4F",
"S  c #7D5F5F",
"D  c #5D6161",
"F  c #626464",
"G  c #6B6C6C",
"H  c #727575",
"J  c #777979",
"K  c #7A7D7E",
"L  c #8C0102",
"P  c #930202",
"I  c #9A1818",
"U  c #AB0202",
"Y  c #A90B0B",
"T  c #B30203",
"R  c #BB0102",
"E  c #B40909",
"W  c #A41313",
"Q  c #822E01",
"!  c #853102",
"~  c #8C3302",
"^  c #933603",
"/  c #9C3A02",
"(  c #A53D02",
")  c #AB3F02",
"_  c #931F20",
"`  c #9D2021",
"'  c #972D2D",
"]  c #953536",
"[  c #9A3334",
"{  c #C50001",
"}  c #CC0000",
"|  c #D60000",
" . c #D80000",
".. c #844702",
"X. c #8C4B02",
"o. c #AE4102",
"O. c #B34201",
"+. c #BB4B02",
"@. c #C35302",
"#. c #C55C02",
"$. c #C56B03",
"%. c #D16302",
"&. c #DA6C01",
"*. c #CF7002",
"=. c #DA7302",
"-. c #E27501",
";. c #E47901",
":. c #EA7E00",
">. c #8A4444",
",. c #884D4D",
"<. c #994545",
"1. c #99595A",
"2. c #9B6767",
"3. c #A07171",
"4. c #ED8000",
"5. c #7E8383",
"6. c #828484",
"7. c #868788",
"8. c #85898B",
"9. c #898D8E",
"0. c #9F8283",
"q. c #8D8F91",
"w. c #939596",
"e. c #929798",
"r. c #999A9B",
"t. c #AA8383",
"y. c #A58B8B",
"u. c #A79596",
"i. c #B29B9B",
"p. c #9DA2A3",
"a. c #A6A9AA",
"s. c #ABABAC",
"d. c #B3A3A4",
"f. c #B6A7A8",
"g. c #ADB0B0",
"h. c #B3B2B3",
"j. c #BCB4B4",
"k. c #BAB7B9",
"l. c #B4BABB",
"z. c #BAB9BA",
"x. c #BFBFC0",
"c. c #BCC3C4",
"v. c #C2C3C4",
"b. c #CBC3C4",
"n. c #C4CCCC",
"m. c #CBCCCD",
"M. c #CDD5D6",
"N. c #CDD9D9",
"B. c #D0D4D4",
"V. c #D5DBDB",
"C. c #D9DCDD",
"Z. c #D5E0E1",
"A. c #DDE2E3",
"S. c #D6EBEB",
"D. c #DCEBEB",
"F. c #E2E4E5",
"G. c #E3E6E8",
"H. c #E1EDEE",
"J. c #E9EBEC",
"K. c #E8EFF0",
"L. c #E7F7F7",
"P. c #EBF7F7",
"I. c #E6F8F7",
"U. c #EDF8F7",
"Y. c #E7F7F8",
"T. c #EDF7F8",
"R. c #EDF8F9",
"E. c #F2F6F7",
"W. c #F1F8F7",
"Q. c #F1F7F9",
"!. c #F3F9FA",
"~. c #F9FAFA",
/* pixels */
"!.R.R.!.~.!.~.!.!.~.!.!.!.P.P.!.~.!.~.~.R.R.T.L.R.!.~.!.T.!.Q.!.!.!.~.~.~.~.W.T.P.P.!.~.E.!.R.!.P.P.P.!.!.!.!.!.R.!.!.~.~.~.~.R.",
"!.!.!.!.!.!.!.R.!.!.!.Q.!.P.T.!.~.E.!.!.!.R.R.P.T.!.!.P.T.P.T.!.R.!.~.~.~.W.T.Q.R.!.~.~.!.!.!.~.!.!.!.!.~.~.E.R.U.R.E.~.~.E.!.~.",
"~.~.!.~.!.!.!.!.!.!.T.!.!.R.T.!.~.E.!.!.!.!.P.R.Q.~.~.!.!.T.T.!.!.~.~.!.!.!.!.!.!.!.!.Q.R.R.E.~.~.!.!.R.E.~.!.R.!.!.!.R.R.P.!.!.",
"R.R.!.R.!.R.!.!.!.T.Q.!.T.!.!.~.E.!.R.!.!.!.!.E.!.~.~.!.P.R.!.!.~.!.!.!.~.~.~.~.!.!.!.Q.P.R.!.~.~.Q.R.P.~.~.!.!.!.R.!.P.R.!.!.~.",
"R.R.R.R.!.R.!.!.E.E.~.!.!.!.!.!.P.!.!.!.~.E.R.Q.Q.~.!.W.P.!.Q.Q.Q.T.P.Q.~.!.Q.Q.!.~.~.Q.P.R.E.~.~.!.R.!.~.~.~.~.!.T.T.Y.P.!.~.~.",
"!.~.~.~.!.!.!.!.~.~.~.!.!.!.!.Q.T.P.!.~.~.!.P.!.!.~.~.!.!.!.Q.T.R.!.!.!.~.Q.Q.Q.~.~.!.W.!.~.~.~.~.!.!.!.~.~.~.~.!.!.T.T.P.P.!.!.",
"!.!.!.R.R.R.R.!.~.!.W.!.!.~.~.T.R.R.!.~.~.E.P.!.~.~.~.~.!.Q.P.P.T.!.~.~.!.R.Q.!.!.~.!.!.!.~.~.~.E.!.!.T.W.~.!.!.!.!.T.!.T.T.!.!.",
"R.R.R.R.!.!.~.!.!.R.W.!.~.~.Q.!.~.~.~.~.~.~.!.!.~.~.~.~.E.Q.Q.T.Y.T.!.~.R.T.T.Q.R.!.T.~.~.~.~.!.!.P.!.P.Q.~.!.E.Q.R.!.T.P.Q.!.~.",
"T.T.Y.T.!.~.~.R.R.!.!.!.~.!.!.~.~.~.~.!.Q.Q.P.!.~.!.!.Q.Q.Q.T.Q.T.T.!.!.!.T.!.T.T.!.!.~.~.~.E.!.Q.Q.T.!.~.~.!.!.P.!.~.~.!.!.!.Q.",
"T.T.T.T.!.!.!.T.P.R.R.!.!.R.~.~.~.!.!.Q.!.Q.W.!.~.!.!.!.!.Q.Q.P.T.!.!.~.!.!.R.T.R.!.~.~.~.!.!.~.!.~.!.!.!.!.T.T.!.Q.~.~.!.T.!.T.",
"T.R.T.T.!.~.!.T.!.R.R.!.W.~.~.~.~.Q.P.!.P.!.!.~.E.!.!.T.!.~.~.Q.!.Q.~.~.~.Q.R.!.!.~.!.!.!.R.!.~.~.~.~.Q.!.!.Q.T.T.!.~.~.!.W.T.T.",
"T.T.!.!.~.~.!.Q.R.P.!.E.~.~.~.!.!.~.!.~.!.!.!.!.W.!.T.T.~.~.~.P.Q.W.!.~.Q.R.P.!.Q.Q.T.T.T.T.~.~.!.W.!.!.~.~.T.T.T.T.~.~.~.Q.T.R.",
"!.!.!.!.~.~.!.T.Q.T.!.!.!.~.W.!.~.~.~.E.~.R.~.!.P.T.R.!.~.~.W.W.R.!.~.~.!.Q.!.E.Q.Q.P.!.T.!.~.!.Q.T.T.~.~.~.T.Q.~.!.~.~.~.~.!.!.",
"T.R.Q.!.~.Q.T.T.Q.!.!.Q.T.P.P.!.~.~.!.!.!.~.~.E.T.P.P.!.~.~.!.P.P.!.~.~.~.~.!.W.T.T.P.P.!.~.~.!.!.!.!.!.~.~.Q.!.~.~.~.~.!.!.W.!.",
"R.T.!.~.!.Q.Q.!.Q.!.T.T.Q.W.Q.~.!.R.P.R.!.~.~.!.R.!.!.~.~.~.!.!.Q.~.~.~.~.~.E.W.T.T.Y.T.!.~.~.Q.T.R.!.Q.!.!.W.~.~.~.~.~.Q.P.Q.P.",
"T.!.~.~.~.~.~.Q.T.Q.P.T.!.!.~.~.R.!.!.!.~.~.!.!.E.~.~.~.~.~.~.!.!.!.~.~.~.!.!.!.R.T.R.P.T.!.~.T.Y.T.T.T.!.P.W.~.~.~.~.!.P.T.!.!.",
"!.~.~.~.~.~.!.Q.R.T.Y.T.!.~.~.!.P.R.!.!.!.~.!.!.~.~.~.~.~.W.T.T.T.Q.~.!.Q.Q.T.Q.T.!.P.I.P.~.~.E.R.!.T.R.!.T.~.~.~.~.!.!.P.W.P.T.",
"!.~.~.~.~.!.!.!.P.P.Y.T.!.!.!.!.P.P.T.T.!.T.Q.~.~.~.~.~.Q.P.W.!.T.~.~.~.!.!.R.!.Q.P.P.!.~.~.~.~.!.T.P.P.!.!.~.~.~.!.!.!.~.~.~.~.",
"!.~.!.!.!.R.!.T.R.!.P.P.!.!.!.T.P.!.T.!.!.R.!.~.~.~.!.Q.Q.T.T.T.Q.~.~.!.!.Q.!.~.!.~.!.!.!.!.~.~.!.P.!.T.!.!.~.!.!.Q.!.~.~.~.!.!.",
"!.~.!.!.Q.!.!.T.P.P.R.!.!.~.!.!.!.P.P.!.!.~.~.~.~.!.E.E.!.!.!.!.~.~.!.T.T.T.!.~.~.~.R.!.R.R.~.E.!.T.!.Q.Q.Q.T.T.T.P.Q.~.~.!.!.~.",
"~.~.!.!.Q.!.!.!.R.P.!.E.~.~.!.T.P.P.P.!.!.~.~.~.!.~.~.~.~.~.~.!.Q.!.!.T.!.R.!.~.~.!.T.!.!.!.!.!.R.R.!.!.!.!.T.R.!.Q.!.~.~.T.T.R.",
"~.!.!.Q.!.~.~.~.!.!.!.~.~.~.~.!.R.!.!.Q.!.!.!.R.P.!.~.~.~.!.~.~.!.~.!.R.R.R.!.~.~.!.R.P.P.~.~.~.~.!.!.!.Q.Q.P.T.!.!.!.~.Q.!.T.!.",
"T.T.Q.T.!.~.~.!.P.!.P.!.~.!.R.P.R.W.Q.!.T.P.T.T.!.~.~.~.!.H.V.B.m.M.N.Z.K.!.~.~.~.!.T.P.P.~.~.~.~.!.~.!.T.T.T.L.T.~.~.~.!.T.Q.!.",
"T.R.!.!.~.~.!.T.R.!.R.~.~.!.!.!.!.!.~.!.T.P.P.T.~.~.J.s.D w 8 & $ & * 9 V w.J.~.~.!.R.R.P.~.~.~.~.~.!.R.T.T.Y.P.Q.~.~.!.!.P.T.!.",
"Y.Y.T.!.~.~.!.Q.P.T.!.~.~.~.!.!.!.Q.!.P.P.L.P.P.E.h.M o , h v ..X.....c 4 . F P.!.R.R.T.!.!.~.~.~.~.!.!.!.T.R.P.T.T.!.~.!.P.P.T.",
"T.T.!.~.~.!.!.W.P.Q.~.~.~.~.~.!.P.T.L.L.L.L.P.L.7.o < X.*.:.4.4.4.:.:.:.;...# l.!.R.R.!.!.!.~.~.!.!.T.!.T.T.!.R.I.T.!.!.Q.Q.R.!.",
"E.!.!.~.~.~.~.!.!.~.~.~.~.~.~.!.T.T.P.L.T.R.R.8.o h *.4.:.:.:.:.:.:.:.:.;.$.@ 8.~.!.E.~.~.~.~.!.Q.!.Q.T.!.R.P.P.Y.!.~.~.~.!.!.!.",
"~.~.~.~.~.~.~.!.!.~.~.~.~.~.E.!.!.T.P.P.R.!.c.& h =.4.4.:.:.:.:.:.;.-.%.@.( O K C.C.~.~.~.~.~.~.!.!.W.!.!.R.Q.P.R.!.!.!.~.!.T.T.",
"~.~.~.!.E.!.Q.P.T.!.~.!.!.!.!.R.!.T.T.Q.Q.P.D @ $.4.;.=.&.&.%.#.@.+.+.O.) z   9 7 0 r.~.~.~.~.!.!.!.Q.!.~.~.~.W.!.~.E.!.~.~.~.Q.",
"~.~.~.!.R.!.P.L.Q.~.~.Q.!.Q.P.!.Q.T.T.Q.T.F.q a #.@.+.o.( ^ ~ ! ! Q Q ~ k O . p ^ Q 6 s.~.~.~.!.W.P.P.!.~.~.~.!.Q.R.!.!.~.~.!.T.",
"~.!.!.P.P.Q.!.R.!.~.~.!.!.!.W.~.Q.R.T.Q.Q.A.q a ^ l p ; + O + @ ; ; ; @   . z ) O.O.Q m F.~.Q.T.T.Q.Q.!.~.~.~.!.P.R.R.!.~.!.T.T.",
"!.!.P.Q.W.!.P.!.~.~.~.Q.!.P.!.E.!.~.R.T.T.K.M . O   . 2 j ! ^ / ( ( ( ^ j @ p / O.) ) p a.~.!.R.P.Q.Q.Q.~.~.!.P.Q.!.R.!.~.~.!.!.",
"W.W.W.P.P.T.!.~.~.!.Q.!.T.T.~.~.~.~.Q.T.Q.!.H     3 Q / ! k f s g l ^ ) ) / 2 3 ) ) +.x G ~.~.Q.T.Y.T.!.~.~.~.!.P.P.T.!.~.~.~.~.",
"!.~.!.~.!.~.!.!.!.T.T.T.P.W.~.~.~.Q.T.Q.!.~.7.. j ^ f ; + @ ; ; ; + # p / O./ ; Q ) ) ^ C E.~.T.T.Y.T.Q.~.~.~.E.R.T.P.!.~.~.!.~.",
"~.~.~.~.~.Q.Q.Q.T.T.R.!.!.~.~.~.!.Q.!.!.~.z.6 l ~ < @ 3 s f g j g s a ; : ( ) p s ) ) ! A ~.~.Q.T.Q.T.!.~.~.~.~.~.!.!.~.~.!.!.!.",
"~.~.!.~.!.Q.!.~.R.T.T.P.R.~.~.~.!.Q.~.~.F.e g ( 2 ; s j p @ @ 4 g g g s @ g ) j i ) ) s w.~.!.Q.Q.~.~.~.~.~.~.~.~.!.W.!.!.!.!.!.",
"~.!.!.!.!.~.~.~.!.Y.Y.T.~.~.~.~.!.Q.~.~.r.2 ) ~ # a s 3 % J 6.9 2 g g j 3 : ) j 2 ) Q B F.~.!.!.!.~.~.~.~.~.~.!.~.!.!.!.!.!.!.!.",
"Q.T.!.!.~.~.~.Q.P.T.Y.T.!.~.~.~.Q.!.~.~.G j ) s   @ @ 0 s.~.~.p.# s g g p ; ) j 3 ! n v.~.~.W.!.~.~.~.~.~.~.E.Q.!.!.!.!.!.~.~.!.",
"Y.T.Q.~.~.~.~.Q.Q.!.!.!.~.~.~.~.~.~.~.~.F l j 5 G e.g.V.~.~.m.V ; s g j 3 : ) a : n h.~.~.~.!.!.~.~.~.~.~.~.~.E.!.R.!.~.~.~.~.~.",
"T.Q.~.~.~.~.Q.T.Q.~.~.~.~.~.~.~.~.!.~.~.6.p 1 q.T.!.T.T.!.!.D O s g g g : p ( : * s.~.~.!.R.P.!.~.~.~.~.~.~.~.!.!.!.~.~.~.~.~.~.",
"Q.!.Q.!.~.!.Q.Q.~.~.~.~.~.~.!.~.~.!.~.~.v.% & h.R.Z.K N.R.R.p.# a j s s # z x % a.~.~.~.!.P.R.!.~.~.~.~.!.~.~.!.!.~.~.~.~.~.~.~.",
"~.!.~.~.~.Q.~.~.~.~.~.~.~.~.W.P.T.R.~.~.!.H   N G w m A.P.!.J.V : p 3 @ 3 / 3 b t.b.E.~.R.R.!.~.~.~.~.~.!.~.~.R.P.R.!.~.~.~.~.~.",
"Q.T.Q.~.Q.!.~.~.~.~.~.~.~.W.T.T.R.P.~.A.u.,.>       e M.P.T.G.V O @ : s ( g u } { W 1.b.!.!.~.~.~.~.!.R.R.R.R.R.R.R.!.~.~.~.~.~.",
"T.R.Q.T.T.T.~.~.~.~.~.!.W.W.Q.Q.!.R.k.] R } { d =   X V 5.9.Z # z ^ ^ Q p y { |  . .} ` z.!.~.~.~.!.!.R.R.R.R.R.R.!.!.!.~.~.~.~.",
"T.!.!.Q.T.!.~.~.~.~.!.R.T.T.R.!.!.H.>.}  . . . .R P d r > - = = t t t y L }  . . . .| U u.!.~.!.!.!.!.R.R.R.R.R.!.!.!.~.~.~.~.~.",
"P.Q.T.T.!.~.~.~.~.~.Q.Q.P.R.R.P.T.P.i.' Y T R E Y U  .| } { { R R R { | } R R T E I <.u.H.R.!.!.R.R.R.R.R.R.R.!.!.!.~.~.~.~.~.~.",
"!.~.!.~.~.~.~.~.!.!.Q.Q.Q.!.R.P.!.~.~.D.b.f.f.h.A L | | | | |  .| | |  .P S d.d.j.n.S.R.I.R.!.R.R.R.I.R.R.R.R.!.!.!.!.~.~.~.~.~.",
"!.Q.E.~.~.~.~.~.Q.!.~.~.!.~.~.~.~.E.~.~.~.~.!.N._ | |  . . . .|  . . .| U u.R.!.h.3.1.3.x.Y.!.!.!.R.R.I.R.R.R.!.!.R.!.~.~.~.~.~.",
"T.!.~.~.~.~.~.Q.!.~.~.~.~.~.~.~.W.Q.!.!.Q.T.T.H.0.] ` W Y Y Y Y Y W I <.y.A.~.L.>.T } } I c.!.!.!.R.R.R.R.R.!.!.!.!.~.~.~.~.R.R.",
"~.~.~.~.!.!.!.!.~.~.~.~.~.~.~.!.Q.W.!.W.T.P.Y.P.Y.S.N.m.v.z.k.k.v.n.B.H.!.~.~.~.B.t.<.[ 2.D.!.!.R.R.R.R.R.R.R.!.!.~.~.~.~.~.R.R.",
"!.T.!.Q.P.P.P.P.~.~.~.~.Q.Q.~.W.W.!.~.~.P.Y.Y.P.~.~.~.~.~.~.!.R.R.~.~.~.~.~.~.~.~.~.L.H.P.!.!.R.R.R.I.R.R.R.R.!.~.~.~.~.~.~.~.!.",
"T.T.T.T.P.P.T.!.~.~.~.~.!.!.~.!.~.~.~.~.R.Y.Y.Y.~.~.~.~.~.~.R.I.Y.R.~.~.~.~.~.~.~.~.!.!.!.T.!.!.R.R.I.R.R.R.~.~.~.~.~.~.~.~.~.!.",
"Q.T.T.Y.T.T.Q.~.~.~.!.T.Q.!.T.!.~.~.~.P.P.P.P.R.R.~.~.~.!.!.W.!.P.!.~.~.~.~.~.~.~.!.!.!.!.!.R.!.R.I.R.I.R.R.!.~.~.~.~.~.~.!.!.R.",
"T.T.!.!.T.T.!.~.~.!.P.L.T.T.!.~.~.~.~.!.T.!.!.E.!.~.~.~.~.!.~.!.!.~.~.~.~.~.~.~.!.R.!.R.!.R.!.R.R.R.R.R.R.!.!.!.~.~.~.~.~.~.!.!.",
"T.R.~.!.Q.!.~.~.!.P.R.T.T.E.~.~.~.~.Q.!.Q.~.~.~.~.~.~.~.~.~.E.!.!.~.~.~.~.~.~.~.~.!.!.!.!.!.R.R.R.R.R.R.!.!.!.~.~.~.~.~.~.~.~.R.",
"Y.Y.R.!.!.~.~.~.R.!.~.!.~.~.!.~.~.!.!.T.Q.!.~.~.~.~.~.~.~.~.~.E.~.~.~.~.~.~.~.~.!.!.!.R.!.!.R.R.R.I.I.R.R.~.~.~.~.~.~.~.~.~.~.!.",
"Y.T.R.~.~.~.~.!.W.!.!.P.!.W.W.~.~.!.!.!.!.~.~.~.~.~.~.!.!.~.~.~.~.~.~.~.~.~.~.~.R.!.!.!.!.!.!.R.R.I.R.I.R.!.~.~.~.~.!.~.~.~.~.~.",
"L.P.!.!.~.~.!.R.P.P.!.~.~.!.!.~.E.!.E.~.~.~.~.~.~.~.!.R.!.~.~.~.~.~.~.~.~.~.~.!.!.!.!.R.R.!.R.R.R.R.R.R.R.R.R.~.!.!.R.!.~.~.~.~.",
"P.T.~.~.~.~.~.T.P.P.R.!.!.Q.~.~.!.!.~.~.~.~.~.~.~.~.!.!.E.~.~.~.~.~.~.~.~.~.~.!.!.!.!.R.!.R.R.R.R.I.I.R.I.R.R.R.R.R.~.~.~.~.~.!.",
"T.!.!.!.~.~.~.R.L.P.P.R.T.T.!.!.P.!.~.~.~.~.~.E.~.~.!.!.~.~.~.~.~.~.~.~.~.~.~.!.R.!.!.!.!.R.R.R.R.R.R.R.I.R.R.I.R.!.~.~.~.~.!.R.",
"Y.T.T.!.~.~.!.T.Y.T.T.T.P.T.!.P.T.T.!.~.~.~.!.H.A.U.U.R.!.~.~.~.~.~.~.~.~.~.~.E.!.!.!.!.!.R.R.R.I.I.R.R.R.I.R.R.R.!.~.~.~.~.R.R.",
"Y.P.Q.!.!.!.Y.Y.Y.T.T.T.T.!.~.R.P.W.!.~.E.!.R.P.L.P.U.R.!.~.~.~.~.!.!.!.~.!.!.!.!.!.R.!.R.!.R.R.R.R.R.I.R.I.R.R.R.R.!.~.~.R.!.!.",
"T.T.Q.!.Q.Q.R.T.T.!.T.T.T.!.R.T.!.!.~.E.!.!.R.I.R.R.R.!.~.~.~.~.!.!.!.!.!.!.!.!.R.R.!.R.!.!.!.R.R.I.R.I.R.R.R.R.!.!.!.~.!.!.!.!.",
"T.Q.~.!.!.!.!.Q.~.~.T.Y.R.!.T.R.~.~.~.W.P.P.R.I.R.R.~.~.~.~.~.!.!.!.!.!.!.!.!.R.R.R.R.!.R.!.!.R.R.R.R.R.R.R.R.!.R.~.~.~.!.!.!.~."
};
