/* XPM */
static char *_239519e113d805bbf5a03300e592f7e_removebg_preview__1__resized[] = {
/* columns rows colors chars-per-pixel */
"64 64 229 2 ",
"   c #3D321A",
".  c #312914",
"X  c #3A2F22",
"o  c #3B3724",
"O  c #2D3238",
"+  c #36363A",
"@  c #42341B",
"#  c #4B3B1C",
"$  c #473819",
"%  c #513B1C",
"&  c #563F14",
"*  c #4C3112",
"=  c #443A24",
"-  c #4C3C22",
";  c #4B3C29",
":  c #453827",
">  c #533D23",
",  c #573D29",
"<  c #3D4335",
"1  c #3F4027",
"2  c #54421C",
"3  c #5B451C",
"4  c #4F411C",
"5  c #68491E",
"6  c #4E4427",
"7  c #544324",
"8  c #5A4424",
"9  c #5C4924",
"0  c #55452A",
"q  c #5B452A",
"w  c #5D4A2B",
"e  c #544B2A",
"r  c #484736",
"t  c #5C4B31",
"y  c #584B37",
"u  c #585539",
"i  c #5B5029",
"p  c #634523",
"a  c #634A24",
"s  c #6A4C25",
"d  c #644B2B",
"f  c #6A4D2B",
"g  c #634629",
"h  c #6D5326",
"j  c #6C522C",
"k  c #6D592B",
"l  c #645229",
"z  c #715425",
"x  c #71542C",
"c  c #735B2C",
"v  c #7B5B2B",
"b  c #624D33",
"n  c #664B35",
"m  c #645333",
"M  c #6C5433",
"N  c #6A5D3A",
"B  c #695636",
"V  c #735432",
"C  c #735B33",
"Z  c #735C39",
"A  c #7A5B38",
"S  c #704724",
"D  c #756539",
"F  c #6F602F",
"G  c #3B434B",
"H  c #454A48",
"J  c #4C544A",
"K  c #4A5548",
"L  c #555346",
"P  c #4D5955",
"I  c #545659",
"U  c #554E44",
"Y  c #665B46",
"T  c #605B53",
"R  c #58645B",
"E  c #6C6349",
"W  c #7D6C45",
"Q  c #73664B",
"!  c #66675C",
"~  c #565D63",
"^  c #5D646A",
"/  c #5A6868",
"(  c #597372",
")  c #5C6D6C",
"_  c #696E6D",
"`  c #626568",
"'  c #65726D",
"]  c #7A796A",
"[  c #626E75",
"{  c #6A7477",
"}  c #767977",
"|  c #835F38",
" . c #82633A",
".. c #87724B",
"X. c #857755",
"o. c #8B7046",
"O. c #837868",
"+. c #788178",
"@. c #6E847E",
"#. c #9C8459",
"$. c #8C846B",
"%. c #968766",
"&. c #8D897B",
"*. c #999378",
"=. c #938C7E",
"-. c #A99869",
";. c #A19470",
":. c #A9A474",
">. c #687D84",
",. c #787D81",
"<. c #6B8B83",
"1. c #7A8588",
"2. c #6D9796",
"3. c #718F96",
"4. c #7899A3",
"5. c #7EB3B4",
"6. c #9B9689",
"7. c #808B95",
"8. c #88989B",
"9. c #969997",
"0. c #918B85",
"q. c #A29B8C",
"w. c #A29B91",
"e. c #A6A194",
"r. c #ABA499",
"t. c #B2A999",
"y. c #BCA88B",
"u. c #8893A3",
"i. c #959DA4",
"p. c #87ADAD",
"a. c #98A3A6",
"s. c #9BA6B7",
"d. c #93BABC",
"f. c #A2A8A7",
"g. c #B8B4A9",
"h. c #A5ACBC",
"j. c #ABB3BE",
"k. c #A7B0BC",
"l. c #BDBAB5",
"z. c #C4BCB5",
"x. c #CDC6BD",
"c. c #9DA6C3",
"v. c #8FBAC4",
"b. c #A4AEC3",
"n. c #ABB5C1",
"m. c #A4B4CB",
"M. c #AAB8CA",
"N. c #B3BBC4",
"B. c #B4BDCB",
"V. c #B9BECA",
"C. c #A8B8D1",
"Z. c #BAC4CC",
"A. c #B7C1CB",
"S. c #BCC5D4",
"D. c #B7C5D7",
"F. c #BECDE5",
"G. c #BCCEEB",
"H. c #B7C6E0",
"J. c #BDD2E6",
"K. c #BDD2EA",
"L. c #BED2F1",
"P. c #CBC7C4",
"I. c #C1C9CD",
"U. c #C5C7C6",
"Y. c #D1CCC5",
"T. c #C4CCD3",
"R. c #C6CCD8",
"E. c #CBD2D5",
"W. c #C5D2DD",
"Q. c #CDD4DA",
"!. c #CED8DC",
"~. c #CFDAD7",
"^. c #D1D6DA",
"/. c #D3DADD",
"(. c #DDD8D2",
"). c #DBDBCE",
"_. c #E6E2DD",
"`. c #C2CEE4",
"'. c #C0CFEB",
"]. c #C3D2E5",
"[. c #CBD5E4",
"{. c #CDD8E3",
"}. c #C2D2EB",
"|. c #CAD5EC",
" X c #C5D8ED",
".X c #CBDAEC",
"XX c #C7D9E7",
"oX c #D4DBE3",
"OX c #DADEE3",
"+X c #D3DCEA",
"@X c #DADEEA",
"#X c #D0D7E6",
"$X c #C1CFF3",
"%X c #C4D4F1",
"&X c #CBDBF3",
"*X c #C9D8F5",
"=X c #D3DEF1",
"-X c #DDE2E5",
";X c #DCE4EA",
":X c #D8E3E9",
">X c #DBE4F2",
",X c #DFEAF6",
"<X c #D6E2F6",
"1X c #CFE1F1",
"2X c #E1E3E6",
"3X c #E7EAE7",
"4X c #EAEBE6",
"5X c #E2E7EB",
"6X c #E6EBEC",
"7X c #E9EBEB",
"8X c #EBF4EF",
"9X c #E5ECF2",
"0X c #E9EDF1",
"qX c #E5EBF9",
"wX c #E6F6F5",
"eX c #EBF6F6",
"rX c #EEF8F7",
"tX c #E7F7F9",
"yX c #EDF7F8",
"uX c #E7F8F9",
"iX c #EEF8F9",
"pX c #F3F6F5",
"aX c #F2F9F7",
"sX c #F9F9F6",
"dX c #F2F6F9",
"fX c #F4FAFA",
"gX c #FAFBFA",
"hX c #F9F7F8",
"jX c #F1F0EF",
/* pixels */
"yXyXiXiXiXiXiXyXyXyXpXyXdXdXdXdXdXgXgXgXhXgXfXfXfXdXdXdXdXdXdXdXdXdXdXdXiXdXiXiXyXyXyXyXyXyXyXyXrXyXeXwXiXrXiXiXiXdXiXfXfXfXfXfX",
"yXiXiXiXiXiXiXyXiXyXyXyXeXdX0XdXdXfXhXhXfXfXdXhXhXdXdXdXdXdXdXdXdXdXiXiXdXiXiXiXyXrXyXrXyXyXyXyXyXeXyXyXrXrXrXiXiXfXdXfXfXfXfXgX",
"yXyXiXiXiXiXdXyXyXyXyXyXdXyXdXdXdXhXfXdXfXdXhXdXaXaXdXiXdXiXdXiXiXyXdXdXrXrXrXiXyXyXrXyXrXyXyXyXyXyXeXeXrXrXiXaXfXfXfXfXfXfXgXgX",
"yXyXyXyXiXiXiXyXiXyXyXdXyXyXdXdXdXdXdXfXdXdXdXdXyXdXdXiXiXiXiXiXiXiXiXdXrXrXiXyXyXyXyXyXyXyXyXrXyXyXyXaXrXdXaXfXfXfXfXfXgXgXfXgX",
"yXyXyXyXiXiXiXyXyXyXyXyXyXyXdXdXdXfXfXfXdXdXdXfXpXpXyXpXyXiXdXdXfXiXiXrXrXrXrXrXyXrXyXrXyXyXyXyXyXrXiXiXdXfXfXfXfXfXgXfXgXgXgXfX",
"iXyXyXyXiXiXiXyXyXpXyXyXdXyXdXdXfXfXfXfXfXfXdXdXaXrXyXhXfXwXOXOX-XwXfXfXaXrXrXrXyXyXyXeXyXpXyXyXyXpXdXdXaXaXaXfXfXgXfXfXgXgXgXgX",
"yXyXyXyXiXiXiXiXyXrXpXyXyXyXdXdXfXfXfXfXfXfXfXhXaXdXdXwX^.E.OX7X/.I./.wXfXiXrXeXrXyXyXpXyXyXyXyXrXiXdXaXaXaXfXsXgXgXgXgXgXgXgXgX",
"yXyXyXiXiXiXyXyXrXrXeXeXeXeXeXeXfXfXfXgXfXfXfXfXfXwXoXQ.OX0X0X0XeX7X!.~.!.6XfXrXeXyXyXyXyXaXaXyXaXrXaXaXaXfXgXfXgXfXfXgXgXgXgXgX",
"rXiXiXrXrXrXrXaXrXrXrXrXrXrXrXaXfXfXfXgXgXgXsX7X/.!.;X9X8X6X6X7X6X6XwX6XOXI.E.6XdXdXiXiXaXpXpXaXaXaXaXaXfXgXfXfXgXfXfXgXgXgXgXgX",
"iXiXrXrXrXiXiXiXrXaXrXrXrXaXaXaXhXgXgXgXfX5X^.^.5X0X7X7X6X4X4X4X7X3X6X5X9XqXOXR.Q.5XdXfXaXaXaXaXaXfXfXfXfXfXgXgXgXfXgXfXgXgXgXgX",
"iXiXiXiXiXaXrXiXiXiXfXfXfXfXaXgXfXgXdXOXT.oX;XwX6X6X7X7X4X4X4X4X4X4X7X7X7X0X0X9X;XT.I.-XyXgXgXhXgXfXfXgXgXfXfXgXgXgXgXgXgXfXgXgX",
"iXiXiXrXrXaXiXfXdXfXfXfXaXfXgXgX9XQ.I.^.6X0X6X6X6X7X7X7X7X7X4X4X4X7X7X7X7X7X7X7X0X6X-XZ.A.Q.eXgXgXsXfXgXgXgXgXgXgXgXfXgXgXgXgXgX",
"eXrXaXrXrXrXfXiXfXfXaXaXgXfX6X!.I.#XqX0X0X7X6X6X7X7X7X6X7X4X7X7X7X7X7X7X7X7X7X7X4X7X0X9X:XS.N.I.6XgXgXgXgXgXgXgXgXgXgXgXgXfXgXgX",
"rXrXaXaXaXfXfXfXfXgXgXdX5XE.T.-X0XqX5X5XOX5X0X6X7X7X6X6X6X6X6X6X7X7X7X4X7X7X7X7X4X7X5X6X9X9X@XS.j.Z.3XgXgXfXsXsXgXfXgXgXgXgXgXgX",
"iXfXaXaXfXfXhXgXgXyX!.R.W.@X9X0X7X7XOXQ.#X/.7X7X6X6X7X7X4X7X7X7X7X7X7X7X7X4X7X7X7X6X8XeX8XjXeXqX&XD.A.I.-XdXgXfXsXgXfXgXgXgXgXgX",
"aXfXgXfXhXhXgXdXQ.A.S.W.>XwX9X6X4X4X7X5X5X0X6X6X6X6X7X4X6X4X7X7X7X7X7X7X7X7X7X7X7X6XU.l.P.U.U.V.b.D.XXF.A.Z.;XgXgXgXgXgXgXgXgXgX",
"aXsXgXgXgXgXgXI.S.]..X:X,X6X7X7X4X4X4X7X5X6X6X6X6X7X7X3X6X7X7X7X7X7X7X7X7X7X7X7X4XjX9.` I I I ~ ^ 4.*XF.XX].Z.~.gXgXgXgXgXsXgXgX",
"aXgXgXgXaXgX5XB.[..XqX6X4X4X7X7X4X4X7X7X7X7X6X6X7X7X5X7X4X6X7X3X7X7X7X7X7X7X7X4X4X7Xi.~ O O O + I u.&X&X XXX].A.gXgXgXgXgXgXgXgX",
"fXgXgXgXgXgX2XM.XX>X6X6X4X4X7X6X7X7X7X7X4X7X7X6X7X7X4X7X7X7X7X7X4X7X7X4X7X7X7X4X7X2Xi.{ + G H G ~ u.*XXXJ.K.J.A.sXgXgXgXgXgXgXhX",
"gXgXsXsXgXgX2XC.&X6X4X6X7X7X7X6X7X6X7X7X7X7X7X7X7X7X7X7X7X7X7X7X7X7X7X7X7X7X7X7X7XjX7.^ ~ ^ ` ~ ~ u.*X`.J.J.J.j.sXgXgXgXgXgXgXgX",
"gXgXgXgXgXgX5XC.&X6X4X4X7X4X4X7X7X7X7X7X7X7X7X7X7X7X7X7X7X7X7X7X7X7X7X7X4X7X7X7X7XjXf.~ [ ^ ^ [ P m.%X`.}.K.J.j.hXgXgXgXhXgXgXgX",
"gXgXgXgXgXgX2Xm.=X0X7X7X7X4X7X7X7X7X7X7X7X7X7X7X7X7X7X7X7X4X7X7X4X7X7X4X7X7X7X7X4XdXk.^ { >.{ ,.[ B.%X`.K.K.}.j.hXgXgXgXgXgXhXgX",
"gXgXgXgXgXgX-Xm.|.qX0X6X7X7X7X7X7X7X7X7X7X7X7X7X7X7X7X7X7X7X7X7X7X7X7X7X7X7X7X7X7X0XE.Z.N.1.,.3.[ C.*X'.K.K.K.j.hXhXgXgXgXgXgXgX",
"gXgXgXgXgXgX2Xm.%X@X0X9X6X7X7X7X7X7X4X7X7X7X7X7X7X7X7X7X7X7X7X7X7X6X7X7X7X7X7X7X7X6X5XOXqX{.s.n.4.C.*X$XJ.K.K.n.hXgXgXgXhXgXgXgX",
"gXgXgXgXgXgX5XC.%XR.@X0X5X7X7X6X7X7X7X4X7X7X7X6X6X6X6X6X7X7X7X7X7X7X7X7X6X7X7X7X9X7X7X5X7X0X;X@X&X}.'.%XJ.K.`.n.pXgXgXgXgXgXgXgX",
"gXgXgXgXgXgXOXC.|.@X0X0X7X7X7X6X7X7X7X7X7X7X7X7X6X7X6X6X7X4X3X3X4X4X4X3X7X7X7X7X7X0X7X5X4X5X0X@X[.`.'.$XK.J.}.j.pXgXhXgXgXgXgXgX",
"sXgXgXgXgXgXOXm.|.9X7X0X7X7X7X7X7X7X7X7X6X7X4X7X4X4X7X7X7X4X3X3X4X4X4X6X7X7X7X4X7X7X0X7X4X7X6X9X9X[.`.$XK.J.|.b.pXgXgXgXgXgXhXgX",
"gXgXgXgXgXgXOXm.=X9X7X7X3X7X7X7X7X4X7X7X6X7X7X4X4X4X4X7X0X6X0XqXwX6X5X6X0X7X7X4X7X7X0X7X7X7X7X0X6X].}.$XJ.}.'.j.pXgXgXgXgXgXgXgX",
"gXgXgXgXhXgXOXb.=X0X7X6X3X7X7X7X7X4X4X7X7X7X6X7X7X6X9XqX@X<X+X[.<X@X{.[.oX9X6X7X7X6X7X0X7X7X7X7X6XW.J.%XG.J.%Xb.aXgXgXgXgXgXgXgX",
"gXgXgXgXgXgXoXm.|.5X7X6X3X7X6X7X4X4X7X7X7X7X7X6X0X9X#X|.'.`.%X|.|.J.%X}.XX>X0X7X7X7X7X7X7X7X7X0X6XXXJ.L.}.J.$Xk.pXgXgXfXhXgXgXgX",
"hXhXgXgXgXgXoXc.|.2X6X0XwX7X0X6X4X7X7X7X7X0X7X9X;X[.F.}.%X XM.s.D.K.%XK.J.}.;X0X0X7X7X7X7X7X7X6X6X,X&XG.K.K.}.k.pXgXhXgXhXgXgXgX",
"gXfXfXfXfXgX/.c.|.5X0X@XoX[.@X0X4X4X4X4X5X5X@X#XW.F.}.&XM.} r o ! a.D..XJ.L.`.{.@X@X7X9X7X7X4X4X9X[.}.}.J.K.}.k.sXgXgXgXgXgXgXgX",
"fXgXfXgXfXgX^.c.|.5X6X-X#XOX;X7X4X7X7X0X#X}.`.J.K.&X[.8.r X.#.& W O.I h.|.].].G.F.].#X;X0X7X4X4X6X[.`.}.K.K.K.k.aXgXgXgXgXhXgXgX",
"fXfXfXfXfXgX!.c.=X6X4X8X7X7X7X6X7X;XqX.XG.$X*X&XD.k.` T $.N c X.W 6 t *.0.j.F.&X%X%X}.].#X9X6X6XqX|.G.}.K.K.K.k.sXgXgXhXgXgXgXgX",
"fXfXfXfXfXgX/.s.<X9X7X4X4X7X0X:X{.XX}.]..XA.7._ 9.] . E #.  @ %.Q @ f -.3 *.+._ 8.T. XJ.}.].[..X|.'.}.}.J.K.J.j.hXgXhXgXgXgXgXgX",
"iXiXfXfXfXgX/.b.&X9X6X6X7X6X+X`.G.K.|.W.1.L L @ N D 3 2 2 a 8 # 8 g 3 X.#.F #.E r } i.1X%XJ.J.J.K.L.J.}.J.K.J.j.hXgXgXgXgXhXgXgX",
"iXiXfXfXfXfX:Xm.%XXX:X,X@X#X`.$X*X XB.} : Q y.d 2 7 q q 8 a a 5 a q p c h 4 ....D t.u 0.A.|.*XL.L.K.%XJ.K.K.].j.hXgXgXgXgXgXgXgX",
"iXiXiXiXfXfX~.s. XK.].F.`.|.*XH.s.} o X.%.$ e - # - - = = = # - = - : =   4   $ % 9 -.N 0.9.s.F.&X}.K.J.G.L.}.h.hXgXhXgXgXgXgXgX",
"iXiXrXiXiXfXB.S.K.L.L. X Xh.' u + L W B M 8 q 8 3 8 8 7 7 q 8 7 8 7 7 7 9 3 7 e 3 3 c D %.B Q T ,.M..X}.%XL.}.B.^.gXhXgXgXgXgXgX",
"iXiXrXiXuXfXA.S. XF.`.f._ L :.F , W ;.$ % 6 ; ; a p p a a a p 8 p a 8 p a s q 6 # > # =   C -.2 ] q.' B.H.F.XXN./.gXgXgXhXgXgXgX",
"wXeXeXeXiXiX6XS.B.M.{ U t 4 N e @ r @.' K / ) r o 2 # - - # # - - - - - 6 #   P @.R K ( / 1 4 $ u i = ! f.Q.T./.gXgXgXgXgXgXgXgX",
"wXwXwXiXiXiXrXfXwXfXt.%.#.$ - 6 @ K d.8.R p.p.H $ 2 2 > > , 2 % 7 7 7 > 7 2 @ ' v.7.' v.4.+ & > 4 9 o.q._.gXhXgXgXgXgXgXgXgXgXgX",
"wXwXiXwXwXiXiXiXuXfXl.m o.d V C g U 2.@./ <.<.H f v x V j V x j V V V V C v 8 ~ 2.@.R 2.<.r V A u D x Y (.gXhXsXgXgXgXgXhXgXhXgX",
"iXwXwXiXiXuXrXrXtXfXe.@ a q q l 3 P 5.5./ p.5.H 8 s w - ; > > > ; > # ; w z # ( d.8.' d.4.< 8 l e j n q Y.gXhXgXgXgXgXgXgXgXgXgX",
"wXiXuXuXwXwXiXwXiX/.E # A 8 e e 6 = K K r U K 1 3 9 e X X : : : : :   o y a - r G u r L J - 8 9 2 Z M % &.hXgXgXhXgXgXhXgXhXgXgX",
"wXiXuXuXiXwXiXeXiXU.E f | f C c z s d q s a d d z c Z q 6 m B n Y b 0 g A V f s a i 5 w g S c F f  . .f O.pXgXgXgXgXgXgXgXgXgXgX",
"uXuXuXuXwXiXwXiXiXQ.E 8 A p j j s x Z l h j x f f V f 0 t n M M b b 0 w M V f M B k M C M f j j g A x 8 O.gXgXhXgXgXgXgXgXgXgXhX",
"tXtXuXwXuXwXwXiXtXiX6.* j 8 7 2 8 8 q 0 9 8 q q 8 0 0 , y B Z n X : r ; q 8 8 8 7 7 7 2 2 8 3 8 8 M d : z.gXhXgXgXgXgXgXhXgXgXgX",
"tXuXwXuXwXwXyXeXwXfXg.0 ..d M k z x C M h x V M x V M q n M Z Y b y 0 w C x z x C h h c c h z c f o.Z y (.gXgXgXgXgXgXgXgXgXgXhX",
"tXwXwXuXyXwXeXyXwXdXl.6 B 7 g h s h f j s s x x x f M 0 0 t d t b u - e M x s x f j s j j j s x 9 Z f Y (.gXgXgXgXgXgXgXgXgXgXgX",
"wXtXwXwXwXwXeX0XeXyX7Xr.0.q.9.6.w.w.w.e.q.e.r.r.r.g.l.Y.Y.Y.x.Y.P.P.Y.Y.z.g.t.f.w.w.w.w.6.w.w.r.q.q.0.z.hXgXgXhXgXgXgXgXgXgXgXgX",
"wXwXwXwX0XeXeXdXyXpXhXgXgXgXgXgXgXgXgXgXgXgXgXgXgXgXgXgXgXgXgXgXgXgXgXgXgXgXgXgXgXgXgXgXgXgXgXgXgXgXgXgXgXhXgXgXgXgXgXgXgXgXhXgX",
"wXwXwXwXwXwXeXeXiXdXdXdXgXhXdXhXaXsXsXgXsXsXsXsXgXgXsXsXsXsXsXgXgXgXgXhXhXhXhXhXgXgXgXsXhXhXhXhXhXhXhXhXgXgXgXgXgXgXgXgXgXgXgXgX",
"wXwXwX6X8XwXeXpXdXdXdXhXgXgXgXfXgXgXgXgXgXgXgXsXsXgXsXsXgXsXsXgXgXgXgXgXgXsXgXgXgXgXgXgXgXgXgXgXgXgXgXgXgXgXgXgXgXhXgXgXhXgXgXhX",
"wXwXwXwXwXeXpXpXdXhXfXgXhXhXgXgXgXgXgXsXsXgXsXgXgXsXgXgXsXsXgXgXhXgXgXgXgXgXgXgXgXgXgXgXgXgXgXgXgXgXgXgXgXgXgXhXgXgXhXgXgXgXgXgX",
"iXwXeXeXeXdXpXhXfXfXfXgXfXgXgXfXsXgXgXsXgXsXgXsXsXgXsXsXgXsXsXgXgXgXgXgXgXgXgXgXgXgXgXgXhXgXgXgXgXgXgXgXhXgXgXgXgXhXgXgXgXhXgXgX",
"yXyXrXiXyXhXhXhXgXfXfXgXsXgXgXsXgXgXfXgXgXgXgXsXgXgXsXgXgXsXgXgXgXgXgXgXgXgXgXgXgXgXgXgXgXgXgXhXgXgXhXgXhXgXgXhXgXgXgXhXgXgXgXhX",
"yXrXrXdXdXhXgXgXgXsXsXgXgXfXgXgXgXgXgXgXgXfXgXgXgXgXgXgXgXgXgXgXgXgXgXgXgXhXgXgXgXgXhXgXhXgXgXgXgXgXgXgXgXgXgXgXhXgXgXgXgXgXgXgX",
"pXpXdXfXfXfXgXgXgXgXgXgXgXgXgXfXfXgXgXgXgXgXgXgXsXgXaXgXgXgXgXgXhXgXgXgXhXgXgXgXhXgXgXgXgXgXgXgXhXgXgXgXgXgXgXgXgXgXgXgXgXgXgXgX",
"dXdXfXhXgXgXgXgXgXgXgXfXfXgXgXgXgXgXgXfXgXgXfXgXgXgXgXgXgXgXgXgXgXgXgXgXhXgXgXgXgXgXgXhXgXgXhXgXgXgXgXhXgXgXgXgXgXgXhXgXgXgXhXgX",
"hXfXgXgXgXgXgXgXgXgXsXgXgXgXgXgXgXgXfXgXgXgXgXgXgXgXgXgXgXgXgXgXgXgXgXgXgXgXgXgXhXgXgXgXgXhXgXgXgXgXgXgXgXgXgXhXgXgXgXgXhXgXgXgX",
"gXgXgXgXgXgXgXgXgXgXgXgXgXgXgXfXgXgXgXgXgXfXgXgXgXfXfXgXgXfXgXfXgXfXgXgXgXgXgXgXgXgXgXgXgXgXgXgXgXhXhXgXhXgXgXgXgXhXgXgXgXgXgXhX",
"gXgXgXgXgXgXgXgXgXgXgXgXgXgXgXsXgXgXgXfXfXfXgXfXgXfXgXfXgXgXgXgXgXgXgXgXgXgXgXgXgXgXgXgXgXgXgXhXgXhXgXgXgXgXgXgXgXhXhXgXgXgXgXgX",
"gXgXsXgXgXgXgXgXgXgXgXgXgXgXgXgXfXgXgXgXfXgXfXfXgXgXgXfXgXfXgXgXgXfXfXgXgXgXfXhXgXhXgXgXhXgXgXgXgXgXgXgXgXgXhXgXgXgXgXgXgXhXgXgX"
};
