/* XPM */
static char *p__1__resized[] = {
/* columns rows colors chars-per-pixel */
"65 65 230 2 ",
"   c #010000",
".  c #0D0203",
"X  c #080A09",
"o  c #040409",
"O  c #140102",
"+  c #1E0103",
"@  c #1C030A",
"#  c #17080B",
"$  c #1C0C12",
"%  c #191513",
"&  c #1B1C1B",
"*  c #171515",
"=  c #220002",
"-  c #2B0102",
";  c #23040D",
":  c #2A020A",
">  c #27090C",
",  c #310205",
"<  c #3C0103",
"1  c #34030B",
"2  c #39040A",
"3  c #31100F",
"4  c #250512",
"5  c #2C0A12",
"6  c #280812",
"7  c #340313",
"8  c #3B0114",
"9  c #340B14",
"0  c #3B0C1C",
"q  c #380919",
"w  c #231D1D",
"e  c #211217",
"r  c #35151A",
"t  c #25221F",
"y  c #3F0B20",
"u  c #2E1D25",
"i  c #1E2D28",
"p  c #2B2827",
"a  c #322C2C",
"s  c #362526",
"d  c #2A322D",
"f  c #323131",
"g  c #38393A",
"h  c #450006",
"j  c #4A0002",
"k  c #42030A",
"l  c #4D0009",
"z  c #530202",
"x  c #5B0000",
"c  c #5B0009",
"v  c #420014",
"b  c #4C041B",
"n  c #46091B",
"m  c #550918",
"M  c #4E1112",
"N  c #541819",
"B  c #660000",
"V  c #6C0102",
"C  c #62090E",
"Z  c #750001",
"A  c #7B0001",
"S  c #7A0609",
"D  c #7B090A",
"F  c #780A19",
"G  c #61101F",
"H  c #6A0712",
"J  c #4B0D23",
"K  c #490C26",
"L  c #5D0A25",
"P  c #5B0926",
"I  c #471324",
"U  c #581227",
"Y  c #580D32",
"T  c #660D2C",
"R  c #6B0C2D",
"E  c #670B25",
"W  c #7C0723",
"Q  c #740925",
"!  c #7B0B24",
"~  c #720B2D",
"^  c #760726",
"/  c #64122D",
"(  c #6A112D",
")  c #6C0D32",
"_  c #690C34",
"`  c #710C32",
"'  c #7C0F36",
"]  c #6C1232",
"[  c #671535",
"{  c #721234",
"}  c #711836",
"|  c #781327",
" . c #433B3C",
".. c #52333D",
"X. c #5C3436",
"o. c #422D27",
"O. c #3E423C",
"+. c #424239",
"@. c #5F3B47",
"#. c #434241",
"$. c #4A4C4A",
"%. c #474948",
"&. c #54494C",
"*. c #4C504A",
"=. c #57564B",
"-. c #555453",
";. c #5B5353",
":. c #5B5B59",
">. c #4E5252",
",. c #64575A",
"<. c #676959",
"1. c #706D58",
"2. c #5D5F60",
"3. c #5D6061",
"4. c #636463",
"5. c #6B6C6A",
"6. c #676866",
"7. c #756D6E",
"8. c #78776A",
"9. c #787879",
"0. c #6C7468",
"q. c #830203",
"w. c #8E0203",
"e. c #8B0609",
"r. c #8A090B",
"t. c #84090C",
"y. c #93040B",
"u. c #99080E",
"i. c #83061B",
"p. c #8C091D",
"a. c #890818",
"s. c #9B0A14",
"d. c #91071E",
"f. c #9B041A",
"g. c #950A17",
"h. c #AC0A0D",
"j. c #AB0409",
"k. c #BC0606",
"l. c #B4050C",
"z. c #BB040A",
"x. c #B1080C",
"c. c #A30513",
"v. c #A1071C",
"b. c #AC0818",
"n. c #BA0A15",
"m. c #A11113",
"M. c #850524",
"N. c #950C21",
"B. c #9C0820",
"V. c #851420",
"C. c #AC0F2C",
"Z. c #C60303",
"A. c #CB0102",
"S. c #C4050A",
"D. c #C80609",
"F. c #C5090B",
"G. c #D20304",
"H. c #D30609",
"J. c #D3090B",
"K. c #DD0508",
"L. c #E00506",
"P. c #7F807F",
"I. c #878673",
"U. c #969B7F",
"Y. c #827C80",
"T. c #7C8381",
"R. c #898C8C",
"E. c #868686",
"W. c #959587",
"Q. c #8D9593",
"!. c #8E9997",
"~. c #909292",
"^. c #949A9B",
"/. c #999A9B",
"(. c #939799",
"). c #AEB197",
"_. c #989FA1",
"`. c #9DA4A3",
"'. c #9FA5A8",
"]. c #A5ABAB",
"[. c #A7A8A8",
"{. c #ABB3B3",
"}. c #ACB7BA",
"|. c #B2BCBA",
" X c #B9BDBC",
".X c #B2B3B5",
"XX c #C2CBB2",
"oX c #D7D9B6",
"OX c #E4E5BF",
"+X c #C3BFC0",
"@X c #B7C3C3",
"#X c #BBC3C3",
"$X c #BFC7C9",
"%X c #C2C6C5",
"&X c #CBCBCB",
"*X c #C2C7C8",
"=X c #CCD4D2",
"-X c #CAD7D7",
";X c #D3D6D6",
":X c #D3DBDB",
">X c #D7DADA",
",X c #DCE0C2",
"<X c #FFFFC9",
"1X c #FFFFD8",
"2X c #F1EDC4",
"3X c #DCE4E4",
"4X c #DAE7E8",
"5X c #E4EBEB",
"6X c #ECEDEE",
"7X c #E3E5E6",
"8X c #F0EEEE",
"9X c #FFFFE3",
"0X c #FFFFED",
"qX c #E7F6F6",
"wX c #EAF6F6",
"eX c #E6F8F7",
"rX c #ECF8F7",
"tX c #E7F7F8",
"yX c #EDF7F9",
"uX c #E7F8F8",
"iX c #ECF8F9",
"pX c #F3F6F7",
"aX c #F8F7F7",
"sX c #F3F8F7",
"dX c #F8F8F7",
"fX c #F1F7F9",
"gX c #FAF7FB",
"hX c #F4F9FA",
"jX c #FAFBFB",
"kX c #E9EFF1",
/* pixels */
"rXyXfXyXiXsXfXhXhXhXjXjXjXjXjXgXgXjXjXjXhXhXjXjXhXjXhXhXjXjXdXjXjXsXsXjXjXjXdXjXdXjXjXjXjXsXjXdXjXgXgXjXpXwXwXwXwXwXiXfXjXjXjXjXjX",
"yXyXrXiXiXfXiXfXhXhXhXjXjXjXjXjXgXjXgXhXhXfXhXhXjXjXjXjXjXjXhXaXjXjXdXjXjXjXjXaXjXsXjXdXdXjXhXpXaXgXhXpXpXwXqXwXwXwXiXfXhXhXhXjXjX",
"fXfXyXiXiXiXiXiXiXsXhXjXjXjXjXjXjXjXhXpXpXrXfXhXhXjXjXjXjXaXhXdXdXjXjXhXaXhXpXhXsXjXjXjXhXpXhXjXgXjXhXpXwXwXwXwXwXwXwXrXrXfXhXjXfX",
"hXfXiXiXyXrXfXfXhXrXiXhXhXjXjXjXjXhXfXrXrXyXfXfXpXpXjXjXdXjXjXjXjXjXjXdXjXjXgXjXdXjXdXdXjXpXjXhXfXhXfXfXwXqXqXwXwXqXwXwXrXiXfXfXfX",
"hXhXyXyXyXiXyXrXiXyXfXfXfXhXjXjXjXfXpXrXyXyXyXyXfXfXfXpXjXjXjXgXjXfXjXhXaXjXjXjXhXsXjXdXhXpXjXhXfXfXfXrXrXwXwXqXqXqXiXqXrXwXrXyXyX",
"jXhXhXfXhXyXiXiXiXhXiXiXyXfXhXhXhXsXrXrXrXyXyXpXrXsXpXaXjXjXjXgXjXjXjXjXjXjXaXaXjXjXjXjXjXpXjXjXjXfXfXpXyXyXwXwXeXeXtXiXeXeXqXyXiX",
"jXjXhXfXyXyXyXyXyXyXiXiXhXiXfXhXhXfXpXiXyXfXyXyXrXyXpXpXpXhXjXjXdXaXjXjX8X&XjXjXjXjXjXjXaXaXfXhXhXfXfXpXyXyXyXwXwXuXqXeXeXqXeXeXqX",
"jXjXhXhXhXyXhXyXyXhXhXiXiXhXhXhXjXfXiXiXyXrXrXrXrXrXyXrXfXjXjXaXjXjXjXpX:.  Y.{.&X8XaXjXjXjXpXjXjXfXfXyXyXyXyXwXwXeXeXeXqXeXeXeXqX",
"jXjXhXjXpXpXfXfXyXiXiXiXhXhXjXjXhXfXhXiXiXfXiXrXiXhXfXiXfXhXjXjX6X/.0.0.5 -     . w p -.^.:XjXjXpXpXpXyXyXhXyXyXyXiXyXyXiXtXqXtXqX",
"dXjXdXjXjXjXjXjXhXhXiXhXfXhXjXjXjXhXhXhXhXfXrXiXiXyXiXiXjXjX;X7. .1.oX).V h.D t.r.q.Z B j 3 4.*XjXhXrXfXyXyXyXiXyXyXyXyXyXtXwXwXqX",
"jXjXjXjXjXjXjXgXhXhXhXhXhXgXjXjXjXjXjXjXhXhXfXfXiXiXhXhX%X:.+.I.OX1X9X1.A L.G.G.G.K.H.J.K.l.V 1 4.3XjXfXyXyXiXfXfXyXyXyXyXwXwXwXwX",
"gXjXgXjXjXjXgXjXjXjXhXhXhXjXjXjXjXjXjXgXjXjXhXhXiXhX3X5.* <.,X0X1X<X2Xo.y.H.k.A.A.A.A.Z.Z.G.J.z.V r .XjXrXyXfXiXyXyXyXyXrXwXwXyXyX",
"gXdXjXjXsXjXjXjXdXjXhXhXhXhXhXjXjXjXgXjXjXgXjXhXjXjX3X:X>X[.1.=.8.oXXX2 k.D.Z.A.A.A.Z.A.A.A.Z.A.J.y.= R.jXsXfXrXfXyXfXfXyXyXyXyXyX",
"jXjXjXjXdXjXjXjXjXjXhXsXfXfXhXjXhXjXgXgXjXjXjXjXgXhXhXhXjXjXhX&X7.t d z Z.A.G.A.A.A.A.A.A.A.A.A.Z.D.u.= R.jXpXsXfXyXfXfXyXyXfXrXyX",
"gXjXjXdXdXjXjXjXjXsXpXrXrXpXfXhXfXhXjXjXjXjXjXjXjXfXfXyXyXrXhXjXjX7.  D D.A.A.A.A.A.A.A.A.A.A.A.Z.G.H.s., [.jXpXfXyXyXyXfXyXfXyXfX",
"jXjXjXjXjXjXjXjXjXsXpXrXrXrXrXfXhXdXjXgXjXjXjXjXgXfXiXiXiXyXjXjX6.& % q.G.Z.Z.A.A.A.A.A.A.A.A.A.G.A.Z.D.y.r >XjXpXfXyXyXfXyXfXfXfX",
"jXdXjXjXgXgXgXjXjXsXrXrXrXrXrXyXfXsXhXhXjXjXjXhXfXyXyXeXeXhX4Xd a 7X;.q.K.Z.Z.A.A.A.A.A.A.A.A.A.Z.Z.G.A.n.c ,.jXjXfXyXyXyXyXfXyXfX",
"jXjXjXdXjXgXgXjXfXfXpXrXyXpXiXiXyXpXfXfXfXhXhXhXyXyXyXeXiX4Xg P.hXjX;.q.G.A.A.A.A.A.A.A.A.A.A.A.Z.A.A.A.D.d.0 +XjXpXfXyXfXyXyXyXyX",
"gXjXjXjXjXgXjXjXhXpXrXpXyXrXyXfXyXfXyXyXfXhXhXiXyXyXyXuXqXg X $XiXjX-.A H.Z.A.A.A.A.A.A.A.A.A.A.A.A.A.A.A.B.b 7.jXpXrXyXyXfXyXfXyX",
"jXjXjXjXjXjXjXjXjXfXpXpXpXyXyXrXrXrXrXyXiXfXiXiXyXtXtXiX4X-X@X>.+.-X:.A G.A.A.A.A.A.A.A.A.A.A.A.A.A.A.A.S.f.L ..sXfXrXyXfXyXyXyXyX",
"jXdXjXdXdXjXdXsXgXhXhXsXfXfXpXrXiXiXiXiXrXrXrXrXwXqXuXuXiXiXiXhX`.$.& D G.Z.A.A.A.A.A.A.A.A.A.A.A.A.Z.A.k.p.) r ;XjXyXfXyXyXyXiXyX",
"jXjXjXjXjXjXjXdXgXjXjXgXhXfXpXyXrXiXhXiXrXwXwXrXqXtXiXuXuXqXuXqXjX].  D G.Z.A.A.A.A.A.A.A.A.A.A.G.Z.A.A.x.M.) 5 @XjXyXyXyXhXyXyXyX",
"jXjXjXdXdXdXjXjXjXjXjXjXjXhXpXrXfXrXiXiXwXuXqXqXqXqXuXqXuXiXeXhX`.4.$.B H.A.A.A.A.A.A.A.A.A.A.A.Z.A.G.G.c.W ] = {.jXwXyXyXyXyXyXyX",
"gXjXjXsXjXjXjXjXjXjXgXjXjXjXjXjXfXsXiXjXjXhXhXiXeXqXeXeXqXqXhX{.$.jXQ.x G.A.A.A.A.A.A.A.A.A.A.A.A.Z.A.S.y.~ ] = {.jXyXfXfXyXyXfXyX",
"jXjXdXdXjXjXjXjXjXjXjXgXjXjXjXpXhXjX6X].'.{.@X4XiXhXhXhXiXeXiX}.d }.!.z J.Z.Z.A.A.A.A.A.A.A.A.A.A.A.A.h.F ) ( + {.jXaXyXpXfXyXyXyX",
"jXjXsXjXjXdXdXsXdXjXjXjXjXhXpXjXdXjX5X-.& X   X g 3.5.!.-XhXhXhX|.& w 2 S.Z.A.A.Z.A.A.A.Z.A.A.A.G.A.z.p.T R U .  XjXgXfXfXfXyXyXyX",
"dXjXjXjXjXsXjXdXdXjXdXjXjXjXjXjXjXgXjXjXaX>X'.$.      . % 4.@XqXjX@X  + h.A.A.A.Z.A.A.A.A.Z.G.A.A.x.M.^ R ~ n X >XjXjXhXjXfXyXyXpX",
"dXdXjXjXdXjXjXjXjXjXjXaXjX;X|.jXaXjXjXwXwXjXjXjX$X3.e = k < + a ~.9.<.p S H.A.A.A.A.A.A.A.A.A.S.l.M.` ) ( ] + f jXjXjXjXhXfXyXfXpX",
"jXjXjXhXjXsXsXjXjXjXjXjXjX&.% >XjXaXjX{.f jXhXpXhXhX:XT.s < M = O   6.i < F.A.A.A.A.A.Z.G.G.S.c.M.R R ) / J   ~.jXaXjXsXjXgXfXhXjX",
"jXjXdXdXhXjXjXjXjXdXjXjX<.W.).g aXjXjXR.& E.jXpXhXiXjXjX4XR.# . m F =   O r.G.A.D.A.A.G.G.z.d.^ T T R ] J   >.jXjXdXjXjXjXjXjXhXjX",
"dXhXjXjXjXjXdXjXjXdXjX~.:.9X9XU.5.jXjX&.7XW.E.jXwX#.$.:XjX4X* E.u Z n.D O 2 D.G.A.Z.k.l.f.F R / R ~ U : O 6.dXjXjXjXjXdXjXjXjXhXjX",
"hXdXjXjXdXjXhXjXaXjX|.o =.I.W.XX*.[.[.+.jXjX7.E.%./.9.X ].>.5.jX3Xp D m.+ . t.l.j.c.N.M.' ` { ) U : @ #. XjXjXdXjXjXjXjXjXjXjXhXdX",
"gXjXjXjXjXgXpXhXjXjX&.l j , = = > # . w -.-.@.    ,.,.       .%.=.p . + = b G ( R L U I I n q ; O 5.$XjXjXdXjXjXjXdXgXdXdXjXjXjXjX",
"jXjXjXgXjXgXjXjXjX5Xr F N.N.d.f.u.u.e.q.Z Z V r.e.Z Z e.e.e.q.A A w.t.q.N.| 5 6 O . . . . # 6 9 e 7XjXdXdXjXjXjXjXjXjXjXsXjXdXjXjX",
"dXjXjXjXjXgXgXaXjX#X, s.l.l.z.k.k.Z.A.G.H.H.G.G.H.H.H.G.G.A.H.H.H.S.b.g.C , . > 1 9 n J Y Q ! [ 4 %XjXjXjXjXhXjXjXjXjXjXjXjXjXjXdX",
"jXjXjXjXjXjXjXaXjX[.j J.G.A.G.A.A.A.A.Z.Z.Z.Z.A.A.A.A.A.A.A.A.A.Z.g.W q . 5 I / ] ` ~ ] ~ a.g.L 4 >XjXjXjXjXjXhXgXjXsXjXjXjXdXjXjX",
"jXjXjXjXgXgXjXgXjX/.x J.A.A.A.G.A.A.D.Z.Z.Z.A.Z.Z.Z.A.A.A.A.A.A.u.E _ r ; ] ) R R Q M.p.b.b.V.: t pXjXhXjXjXjXjXdXjXsXjXdXjXdXjXjX",
"dXjXjXgXjXgXjXpXjX~.V H.A.A.A.A.A.A.A.A.A.G.A.G.G.A.G.Z.A.A.z.c.Q _ ` 0 ; R R R n m C.v.H k 5 & (.jXfXhXjXjXjXjXjXjXjXjXjXjXjXjXjX",
"jXjXjXjXjXjXgXgXjXI.V H.A.A.A.A.A.Z.Z.A.A.A.A.Z.Z.Z.Z.G.G.k.d.^ ) ` ` 0 ; R Q ~ m = h = w ;./.5XhXyXfXfXfXhXjXjXdXjXdXjXjXjXjXdXjX",
"gXjXpXjXjXjXjXjXjXQ.B G.Z.A.A.Z.Z.A.Z.A.A.A.A.A.A.G.A.A.l.F ) _ ) R ) 0 ; / R ~ Y w 6.{.4XjXjXfXiXiXyXfXfXfXhXhXhXdXjXjXjXdXjXjXjX",
"pXfXfXjXjXjXdXdXjX[.B H.Z.A.A.A.A.A.A.A.A.A.A.A.A.A.S.f.F R _ ~ ) R R 0 @ / R ] b [.jXjXhXyXqXrXyXfXfXyXiXfXfXpXdXhXhXhXjXjXdXjXpX",
"rXiXfXjXjXjXjXsXjX{.x H.Z.A.A.G.A.A.G.G.A.H.Z.Z.k.b.N.^ ) _ R R T R ] y @ / R ~ U &XhXwXwXiXiXyXyXyXyXyXfXfXyXrXhXhXsXhXjXjXdXjXjX",
"fXfXfXhXdXjXjXdXjX#Xz Z.A.A.Z.n.u.S r.f.v.f.g.a.i.F T _ R R R R T ) ] 0 ; ] R P @.rXiXeXrXiXiXiXfXyXyXyXiXfXpXyXhXjXsXsXdXjXjXjXdX",
"rXrXrXfXhXjXjXdXjX:XN k.A.A.z.F U q + 7 K [ ` T _ _ T T R ) R R T ) ] 9 9 ' { 8 9.jXqXwXwXiXwXwXyXyXhXyXyXyXrXpXfXjXfXsXsXdXjXjXjX",
"rXrXiXfXjXjXgXdXjX6XN j.A.D.c.^ ` / 9 . $ = J / _ ~ R ~ R R R R ) R ] 5 @ v : # *XhXwXqXwXqXwXwXyXyXyXyXyXrXyXpXhXhXfXjXsXjXjXjXjX",
"iXiXhXsXjXjXjXjXjXjXX.j.G.A.f.R ) ] 8 a >XE.a n R ~ _ R R R R R R R T 4 g 5.9.@XhXyXwXqXeXwXqXwXqXqXwXwXrXrXyXpXhXjXsXdXdXjXjXdXjX",
"sXiXhXhXgXgXjXdXdXjX,.w.G.A.f.T ) ) 8 g jXjXfX@.P ~ R R R R R R ) R R @ :XjXjXhXqXwXwXwXwXwXqXqXwXqXqXwXrXrXsXfXjXjXhXsXsXhXdXhXdX",
"sXsXdXjXgXjXjXjXdXjX5.Z L.D.N.T ) { 8 #.jXkXjX,.P ` _ R R R ) ~ R ` T # ;XiXqXwXuXeXqXqXqXqXqXwXeXqXeXwXwXrXsXfXsXgXsXhXsXsXdXjXjX",
"fXsXhXjXjXjXjXjXaXjXR.x K.z.M.] T { 8 6.jXwXjXP.v ` ) R R R ) R ) R P & 3XiXwXrXwXwXwXqXtXqXqXtXqXeXeXqXwXfXfXsXhXjXdXjXdXdXjXaXdX",
"hXiXhXhXdXjXdXjXjXjX{.< b.r.) T E { 8 Y.jXkXjX`.7 ) R R R R R R R R P a qXrXqXwXwXwXtXuXiXuXiXuXeXwXqXwXwXfXhXhXhXjXjXjXjXjXhXhXjX",
"rXiXhXhXjXjXjXjXjXjX>X; E ^ ) R R { 8 /.jXwXjX$X5 ] ~ T ) R R ) R ~ b f yXwXqXwXwXyXtXuXeXuXuXiXeXqXqXrXrXpXhXjXjXjXhXsXjXjXjXjXjX",
"rXiXiXiXhXjXjXjXjXjXpXs b ) ) R R { 0 |.jXwXhX:X$ L R R R R R R T ` b g iXwXqXwXqXyXyXuXiXuXuXuXrXeXqXwXrXsXaXjXaXhXjXjXdXaXjXjXjX",
"qXuXyXiXiXfXhXjXjXjXjX;.7 ] ) T R R I :XiXwXhXqXa J ~ R R R R R R ] 8 4.hXwXiXwXqXwXtXiXuXiXuXiXeXqXtXyXfXjXjXjXjXsXdXjXjXaXdXdXhX",
"uXiXeXyXiXiXfXhXjXjXjX~.+ } ` ] ` R ..qXyXyXyXhX%.8 ] R T R R R ~ { - R.jXqXqXwXwXeXuXqXuXuXuXuXuXqXyXfXhXjXhXjXjXjXjXjXsXjXdXjXpX",
"uXuXuXuXiXrXwXiXfXdXjX>X$ = 8 v b 1 :.hXyXiXqXjX7.8 { ~ { { R R E b O $XhXtXyXqXqXyXyXuXyXqXtXtXiXyXyXpXjXhXjXhXdXjXjXsXsXjXsXjXjX",
"uXqXtXtXiXiXtXuXiXhXjXjX&X9.2.;.;.&.}.hXqXiXqXhX/.= q 8 v 8 8 1 s &.~.yXyXyXqXyXqXtXyXyXtXqXtXyXuXqXwXyXfXjXjXjXjXjXjXjXjXjXdXjXjX",
"yXtXqXtXuXuXuXqXwXyXrXyXjXjXjXjXhXhXiXuXuXiXtXyXqX|./.^.^.^._.}.3XjXjXyXyXiXiXyXwXyXyXwXwXwXqXqXqXqXwXwXyXfXjXhXjXjXjXjXgXgXjXgXjX",
"uXuXtXuXuXuXqXqXqXeXwXrXfXrXwXiXqXwXiXuXuXuXiXwXtXhXjXjXjXjXjXjXgXyXyXyXyXyXiXiXyXwXwXwXwXqXwXqXwXwXqXwXyXyXfXfXjXjXjXjXgXgXjXjXjX",
"iXyXuXtXyXqXtXqXuXeXeXrXfXfXiXyXwXrXiXqXuXtXuXqXqXqXwXwXwXwXwXwXyXyXyXyXiXyXyXiXwXwXyXwXwXqXwXqXqXwXwXqXwXyXyXyXrXhXgXgXgXjXjXhXfX",
"iXiXqXyXtXeXeXuXiXeXqXiXfXhXyXpXrXyXtXqXuXuXtXtXqXwXwXrXiXiXyXyXyXyXyXyXiXiXyXyXyXwXwXyXwXqXqXwXqXqXqXqXqXwXtXtXyXpXjXjXjXjXjXjXjX",
"iXiXwXwXyXuXeXeXuXiXiXfXjXjXsXjXhXrXwXyXiXuXwXqXqXwXwXqXiXyXyXfXyXyXfXyXyXyXiXyXyXyXyXyXyXwXiXqXwXwXqXwXqXtXtXyXyXyXfXhXhXjXjXjXjX",
"iXiXrXiXyXyXuXtXeXiXhXjXjXjXjXjXhXaXfXyXqXqXwXeXqXwXwXwXyXyXyXyXyXyXyXfXyXyXyXyXfXyXyXyXrXwXqXwXwXqXqXiXyXtXwXyXiXyXiXiXhXhXhXfXjX",
"fXiXiXiXyXyXiXiXuXfXhXjXjXhXpXpXhXjXjXfXyXwXeXqXqXwXyXyXyXyXyXyXyXyXyXyXyXfXfXyXfXfXyXyXyXwXqXwXwXqXuXtXyXqXtXyXyXyXuXiXiXfXfXhXjX",
"rXiXiXiXyXyXiXiXiXhXjXjXgXgXgXgXjXjXjXjXhXyXiXqXwXwXyXyXyXyXyXhXyXyXyXyXfXyXfXfXfXfXyXyXyXyXwXqXqXtXwXwXwXwXtXtXtXuXuXuXiXiXiXfXhX",
"iXiXiXiXfXiXiXiXiXfXjXjXjXgXjXgXgXjXjXjXjXhXfXiXeXiXyXiXyXyXyXyXiXyXfXyXyXhXyXfXfXyXiXyXyXtXtXtXtXtXyXtXtXtXyXqXqXtXtXtXtXyXyXpXfX"
};
