/* XPM */
static char *___1__resized[] = {
/* columns rows colors chars-per-pixel */
"40 40 193 2 ",
"   c #1B0607",
".  c #1E040C",
"X  c #1B1718",
"o  c #28080C",
"O  c #330505",
"+  c #380509",
"@  c #260512",
"#  c #250C13",
"$  c #2C0813",
"%  c #340613",
"&  c #350913",
"*  c #380618",
"=  c #3C0B1B",
"-  c #241413",
";  c #291819",
":  c #37171C",
">  c #2C1F20",
",  c #292525",
"<  c #382827",
"1  c #3C302F",
"2  c #3F2931",
"3  c #353534",
"4  c #530608",
"5  c #5B080C",
"6  c #470912",
"7  c #4D0B13",
"8  c #43091D",
"9  c #4B0B1D",
"0  c #451319",
"q  c #52151A",
"w  c #5D1E1F",
"e  c #6A070B",
"r  c #720304",
"t  c #7D060A",
"y  c #7B0D0F",
"u  c #650816",
"i  c #6E0C1C",
"p  c #79091B",
"a  c #6D1313",
"s  c #6A1518",
"d  c #7A1616",
"f  c #4A0822",
"g  c #4D0D23",
"h  c #540C24",
"j  c #5C0B26",
"k  c #5C0D29",
"l  c #4B1326",
"z  c #55152A",
"x  c #5C112B",
"c  c #620C25",
"v  c #640C2B",
"b  c #6B0C2D",
"n  c #760B25",
"m  c #7B0924",
"M  c #720B2B",
"N  c #7B0928",
"B  c #62102D",
"V  c #6B0C31",
"C  c #710A32",
"Z  c #651030",
"A  c #432020",
"S  c #49222F",
"D  c #4C2C2C",
"F  c #5A2628",
"G  c #442B32",
"H  c #572A3A",
"J  c #46373A",
"K  c #49393D",
"L  c #55353D",
"P  c #622628",
"I  c #6E302A",
"U  c #773233",
"Y  c #4E3A40",
"T  c #553942",
"R  c #643B43",
"E  c #484746",
"W  c #564648",
"Q  c #594F51",
"!  c #525250",
"~  c #555958",
"^  c #754647",
"/  c #73504A",
"(  c #665C5D",
")  c #775E5E",
"_  c #69625B",
"`  c #775C65",
"'  c #5D6160",
"]  c #666365",
"[  c #696163",
"{  c #716469",
"}  c #726A6D",
"|  c #7A6C6D",
" . c #6F716A",
".. c #79706E",
"X. c #6F7472",
"o. c #767876",
"O. c #7B7B7A",
"+. c #850405",
"@. c #890306",
"#. c #87060A",
"$. c #950305",
"%. c #9B0407",
"&. c #93050A",
"*. c #9A050A",
"=. c #87071A",
"-. c #8B061C",
";. c #920514",
":. c #920A14",
">. c #950817",
",. c #93071A",
"<. c #9C061B",
"1. c #A60404",
"2. c #A10509",
"3. c #AC0408",
"4. c #B10305",
"5. c #BC0406",
"6. c #B4050C",
"7. c #BB0409",
"8. c #AA0613",
"9. c #B00613",
"0. c #850723",
"q. c #830922",
"w. c #C50305",
"e. c #CB0102",
"r. c #C20309",
"t. c #D00104",
"y. c #86656F",
"u. c #857B7D",
"i. c #897979",
"p. c #7B817E",
"a. c #888A7A",
"s. c #847E81",
"d. c #7D8383",
"f. c #868284",
"g. c #898886",
"h. c #848A8A",
"j. c #8D8C8E",
"k. c #97868C",
"l. c #938F92",
"z. c #8F9595",
"x. c #969697",
"c. c #9A9696",
"v. c #9A9A9C",
"b. c #A2A089",
"n. c #A8AC92",
"m. c #B6B79B",
"M. c #A69BA0",
"N. c #9DA3A3",
"B. c #A4A4A4",
"V. c #ABABAB",
"C. c #ACB1AC",
"Z. c #AFAFB2",
"A. c #ADB3B3",
"S. c #B4B5B5",
"D. c #B9B7B6",
"F. c #B4BABA",
"G. c #BCBCBB",
"H. c #C0BEBE",
"J. c #C2C5A5",
"K. c #CCCEAC",
"L. c #D7D8B3",
"P. c #E0E0BA",
"I. c #BCC8C8",
"U. c #C2C3C2",
"Y. c #CBCDCD",
"T. c #CECFD0",
"R. c #CDD3D4",
"E. c #D4D4D4",
"W. c #D3DBDB",
"Q. c #DEDFDE",
"!. c #F4F4C6",
"~. c #DBDFE0",
"^. c #D6E2E3",
"/. c #DBE4E4",
"(. c #DBE8E7",
"). c #DEEBEC",
"_. c #E3E4E4",
"`. c #E0E6E8",
"'. c #E4EAEA",
"]. c #EBEDED",
"[. c #E9F0EF",
"{. c #E5EFF0",
"}. c #E8EEF0",
"|. c #E6F5F5",
" X c #EAF6F6",
".X c #EEF8F7",
"XX c #EDF7F8",
"oX c #ECF8F9",
"OX c #F1F5F6",
"+X c #F3F8F7",
"@X c #F1F7F8",
"#X c #F4F9FA",
"$X c #FAFAFB",
/* pixels */
"#X#XXXoX#X#X#X#X@XXXXXXXXXXXXX@X@X+X$X$X$X$X_.p.U.].+X$X$X$X#X$X$X+X@XXXXXXXXX#X",
"#X#XXXXX#X#X$X#X@X@XXXXX XXXXX@X@X$X$XOXT.C...  , K [ O.B.E..X$X+X+XXXXXXXXXXX#X",
"XX#XXX#X#X$X$X#X#X#XOXOXXXXXXXoX#X].D.u.a.J./ +.r r r e e P ) S.|.+XOX.XXXXXXX#X",
"#X#X#X#X#X$X$X$X$X$X$XOX@XXX@X`.N. .a.K.!.P.I 5.w.e.t.e.w.5.*.s ) Y.#XXXXXXX@X@X",
"+X#X#X#X$X$X$X$X$X$X$X$X$X#X@XF.O.a.n.K.P.m.a w.e.e.e.e.e.e.e.w.&.P Z.#X.X#XXX#X",
"#X$X$X+X#X#X$X$X$X+X$X$X$X$X#XoX+X`.G.f._ W +.e.e.e.e.e.e.e.e.e.e.%.q B.#X@X@X.X",
"#X#XOX.X.X#X#X#X$X$X$X$X$X$X#XoXXX+X$XOX .  %.e.e.e.e.e.e.e.e.e.e.e.2.P D.#X#X#X",
"$X+X.X.X.X.XXX#X$X$X$X$X$X#XoXoXoXXX'.d.! A 1.e.e.e.e.e.e.e.e.e.e.e.e.2.L /.#X$X",
"$X+XOX.XXXXXXX+X#X#X#X#XoXoXoXoX X^.X.p.W.^ 4.e.e.e.e.e.e.e.e.e.e.e.e.7.i k.$X#X",
"+X+X@XOXXXXXXXXXXXXX#X#XoXoXoXoX).X.~ W.|./ 1.e.e.e.e.e.e.e.e.e.e.e.e.r.=.R `.$X",
"$X#X@X@X+XXX X.X.XXXXX#XoXoXoXoX{.I.N.X.z.W 1.e.e.e.e.e.e.e.e.e.e.e.e.r.0.z I.$X",
"#X+X$X#X+XOX X.XXXoX.X XoXoX|.|.oXoX X^.a.; 2.e.e.e.e.e.e.e.e.e.e.e.e.7.q.f c.#X",
"@X#X$X$X$X+XOX.XXXXXoXoX|. X|.|.oX|.oX^.h.< %.e.e.e.e.e.e.e.e.e.e.e.e.3.N 9 g.$X",
"$X$X$X$X$X$X+XOX#XXXoXXXoXoX|.|.|.oX).d.F.} $.e.e.e.e.e.e.e.e.e.e.e.w.>.M 9 f.$X",
"$X$X$X$X$X$X+X$X XN.d.h.N.I.^.(.|.|.|.d.p._ @.w.e.e.e.e.e.e.e.e.t.e.6.p b 8 u.#X",
"+X$X$X$X+X$X$X$XOXD.d.~ , X , E X.I.).|.d.  e w.e.e.e.e.e.w.e.e.w.6.-.b b # z.#X",
"$X$X$X$X}.R.+X$X$X+XOX XR.d.3 # # : Q v.z.3 7 7.w.e.e.e.e.e.e.w.6.0.V b k # D.#X",
"+X$X$X$XB.! K.$X$XD.o.OX#XXXW.N.! 0 O o - E - %.e.e.e.e.w.t.w.8.0.b V Z % E '.#X",
"+X$X$XH.a.J.o.Q.$Xc.] C.$X+XI.(.{.z.; : e 4   4 w.t.e.e.w.7.>.n b b k * < I.$X#X",
"oX$XT.! b.L.n.h.E.o.`.B.V.v.] ' F.h.p.V.F &.4 o &.w.7.8.,.q.C Z k 8 : ( Y.$X$XOX",
"XX+X| 6 0 A D < J 1 i.| , ; | 1 X ; _ u.J + + % u p i c z f f * : } G.OX$X$X$XXX",
"$X`.L p ,.;.&.&.@.@.+.+.#.#.+.@.@.@.@.@.@.t y i & @ . . o @ & & K '.$X$X$X$X+XXX",
"$XY.w 3.r.r.r.e.w.w.e.e.e.e.t.e.w.e.t.w.6.:.5 + # = 9 h k v m c L _.$X$X$X$X+X+X",
"$XU.s e.e.e.e.t.e.e.e.e.e.e.e.e.e.e.e.7.=.B # 8 k B b N q.,.,.7 W OX$X$X$X$X$X$X",
"$XG.y w.e.e.e.e.w.e.e.e.e.e.e.e.e.e.7.-.b v $ h M v 7 0.,.u 7 G v.$X#X$X$X$X#X$X",
"$XD.y e.e.e.e.e.e.e.e.e.e.e.e.e.e.8.q.V V v % h b b % 0 D ( v.E.XXXXoX#X$X$X#X$X",
"#XH.d e.e.e.e.e.e.e.e.e.e.e.e.r.<.p V V V v $ g b b H N.W..XXXoX+XXXXXXXXX$X#X#X",
"#XY.d e.e.e.e.w.e.t.e.e.r.5.9.,.M Z b V b v # g b c y.#XXXXXXXXXXXXX@X+XXXXX+X#X",
"$XE.d w.e.w.3.&.#.:.<.<.;.=.m b b b b b V B $ h b x M.XXoXoXoX XXXXXXXXX#XXXXXoX",
"$X(.U 5.e.6.m j + @ = k V V V b b b b V V k $ j j S Y.XX XoX XoXoXoXXXXX.X.X#XoX",
"$X[.^ 4.e.8.M V g > [ G f Z V V b b b b b k # G K g.|. X X|.|.oX XoX X.X.X.X#XoX",
"@X@Xy.1.t.8.b b f Y `.W.` c b b b V b b V h Q W.(.|.oX X|.oX|.|.|. X X X.XOX#XXX",
".X#Xi.$.t.<.b b h W }.#XM.k V V V b b V b f ] oXoXoX|. X|.oX|.|.|.|.oXoXXX#X#X#X",
"XX$Xc.t 7.0.b b h { oXoXZ.l b V v V b b V 9 o.oXoXoXoX|.oX|.|.oXoX|.|.oX+X#X#XXX",
"#X$XD.q m M b b h s.oX#XY.S v b b b b b M f h.XX|. X X XoX|.|.oX|.oX|.oX#X#X#XoX",
"$X$XE.l c b b b h M.#XoX^.G c b b b b b b 8 z.XXoX X|.oX|.|.oX|.|.|.oXoX#X$X#XoX",
"$X$X[.W h b V b z F.oXoX}.Q h b V v V b v f A.oX X|. X|.|.oXoX|.|.oXoX#X#X$X#XoX",
"$X$X$Xu.* h j c H R.oXoXoX{ f b V V b b j 2 R.XXoX X X XoX|.|.oX|.oX#X#X#X$X#XoX",
"#X#X$XE.} W T L } {.oXoXoXl.f g k h h l L p.{.XX X X XoX|.oXoXoX|.oXoXoX$X$X#XoX",
"#X.X.X#XOX`.^.^.). XoXoXoXW.x.f.s.s.j.Z.~.}.XX X X X X XoX|.|.oXoX|.oXoX#X$X$X#X"
};
