/* XPM */
static char *Design_sem_nome_resized[] = {
/* columns rows colors chars-per-pixel */
"64 64 203 2 ",
"   c #040202",
".  c #0A0502",
"X  c #05090D",
"o  c #0B0908",
"O  c #100700",
"+  c #130A02",
"@  c #1C0E01",
"#  c #1D1003",
"$  c #1B120A",
"%  c #070F14",
"&  c #0C1418",
"*  c #171514",
"=  c #1B1C1D",
"-  c #241403",
";  c #291603",
":  c #2D1903",
">  c #251A0D",
",  c #2C1D0D",
"<  c #331C04",
"1  c #391F02",
"2  c #321E08",
"3  c #291E12",
"4  c #3B2104",
"5  c #382108",
"6  c #26211B",
"7  c #28221B",
"8  c #0E1D24",
"9  c #101D24",
"0  c #0F212A",
"q  c #152228",
"w  c #142A35",
"e  c #18333E",
"r  c #222323",
"t  c #292726",
"y  c #2C2B2B",
"u  c #302F2E",
"i  c #343434",
"p  c #383A3B",
"a  c #442503",
"s  c #4C2A04",
"d  c #532D03",
"f  c #5B3205",
"g  c #5D3F1C",
"h  c #613503",
"j  c #673904",
"k  c #6B3B04",
"l  c #6A3A08",
"z  c #713E05",
"x  c #744005",
"c  c #7C4404",
"v  c #7D4608",
"b  c #69461E",
"n  c #774A14",
"m  c #744E1D",
"M  c #1C3946",
"N  c #1F4252",
"B  c #304148",
"V  c #244958",
"C  c #254F61",
"Z  c #285161",
"A  c #28566A",
"S  c #434446",
"D  c #494A4C",
"F  c #4E4F50",
"G  c #4D5152",
"H  c #535455",
"J  c #55595B",
"K  c #5B5C5E",
"L  c #5E5F60",
"P  c #5E6465",
"I  c #636465",
"U  c #676A6B",
"Y  c #686E71",
"T  c #6C7173",
"R  c #727575",
"E  c #75787B",
"W  c #7B7C7D",
"Q  c #844905",
"!  c #864B07",
"~  c #8D4E06",
"^  c #914F05",
"/  c #8F5007",
"(  c #945206",
")  c #9C5606",
"_  c #955409",
"`  c #AB5F07",
"'  c #A55C08",
"]  c #AD6006",
"[  c #B46307",
"{  c #B96707",
"}  c #BD6907",
"|  c #B1640A",
" . c #BD6A09",
".. c #C36C07",
"X. c #C96F07",
"o. c #C36D08",
"O. c #CD7207",
"+. c #CB720A",
"@. c #D37507",
"#. c #D4770A",
"$. c #DB7B09",
"%. c #D8790A",
"&. c #CE7812",
"*. c #E27E09",
"=. c #C47E27",
"-. c #E68109",
";. c #EC840A",
":. c #F1870A",
">. c #F5890A",
",. c #F98C0B",
"<. c #E88612",
"1. c #F98F11",
"2. c #FA9013",
"3. c #F79118",
"4. c #FA941A",
"5. c #D98520",
"6. c #E78E24",
"7. c #FC9924",
"8. c #F4982D",
"9. c #FC9B29",
"0. c #FEA02F",
"q. c #FDA134",
"w. c #FDA53B",
"e. c #D19042",
"r. c #FCA741",
"t. c #FEAA45",
"y. c #FEAD4B",
"u. c #346C82",
"i. c #39768E",
"p. c #3C7B94",
"a. c #7A7E80",
"s. c #3F829D",
"d. c #7C8081",
"f. c #4289A6",
"g. c #428CA8",
"h. c #4D97B3",
"j. c #4896B5",
"k. c #4A9BBC",
"l. c #4C9FC1",
"z. c #4EA2C5",
"x. c #4FA5C9",
"c. c #52A8CB",
"v. c #53AED5",
"b. c #54B0D7",
"n. c #55B2D9",
"m. c #58B6DC",
"M. c #5AB8DE",
"N. c #5EBDE1",
"B. c #63C4E8",
"V. c #66C8EA",
"C. c #66C9EC",
"Z. c #6ACEF0",
"A. c #6ED3F5",
"S. c #6FD7F9",
"D. c #70D7F8",
"F. c #71D8F9",
"G. c #828789",
"H. c #838A8C",
"J. c #8F8F90",
"K. c #8C9192",
"L. c #929494",
"P. c #969C9D",
"I. c #989EA1",
"U. c #9BA3A5",
"Y. c #ABAFB1",
"T. c #ACB3B3",
"R. c #AFB6B8",
"E. c #B4BCBC",
"W. c #B8BBBB",
"Q. c #BBC6C6",
"!. c #85DDF9",
"~. c #93E3FB",
"^. c #A3E6FA",
"/. c #ABE9FA",
"(. c #B1EBFA",
"). c #C4C9CA",
"_. c #CACBCB",
"`. c #CFCFD1",
"'. c #C7D2D3",
"]. c #D3D5D5",
"[. c #D4DBDB",
"{. c #D8D8D9",
"}. c #E0DEE1",
"|. c #DDE5E7",
" X c #D0F5FB",
".X c #E4E4E5",
"XX c #E4ECED",
"oX c #EAEBEB",
"OX c #E5EFF0",
"+X c #E7F7F7",
"@X c #EAF7F7",
"#X c #E6F8F6",
"$X c #ECF8F7",
"%X c #E7F7F8",
"&X c #EDF7F8",
"*X c #E7F8F8",
"=X c #EDF8F9",
"-X c #F3F6F6",
";X c #F1F8F7",
":X c #F1F7F9",
">X c #FAF7FB",
",X c #F4F9FA",
"<X c #F9FAFA",
/* pixels */
"<X:X,X,X,X,X,X,X,X,X=X,X,X,X,X,X<X,X:X*X:X,X:X<X=X@X%X<X:X*X:X<X:X<X<X<X,X=X$X:X<X:X=X=X=X=X<X,X:X:X,X,X<X<X=X:X=X<X,X,X=X<X<X,X",
":X=X,X,X,X=X,X,X,X,X,X,X,X,X,X,X,X:X:X=X,X<X<X:X:X=X@X:X<X$X:X:X=X:X<X:X:X:X=X<X<X:X:X<X:X:X,X<X:X$X,X<X<X<X<X<X,X:X,X$X$X,X<X;X",
",X,X,X,X=X=X,X,X<X,X,X,X<X,X,X,X=X,X-X@X,X,X:X&X:X%X=X<X<X$X@X-X<X<X,X<X<X<X,X,X:X=X:X<X<X=X:X,X=X=X=X,X$X$X,X<X:X,X<X,X$X,X<X,X",
",X,X,X,X=X,X,X,X,X,X,X,X,X,X,X=X=X-X&X-X<X<X<X<X,X-X<X<X<X;X;X,X<X<X,X<X<X<X,X,X,X-X<X<X:X<X<X:X,X=X,X$X=X,X<X:X;X,X<X:X:X,X<X<X",
",X,X,X,X,X,X,X,X,X,X=X,X<X<X,X,X@X@X@X-X>X>X-X<X<X<X<X<X<X<X<X,X<X<X<X<X<X,X,X,X<X<X<X>X<X<X,X,X=X=X=X$X$X<X,X:X$X<X,X,X<X<X<X,X",
",X<X<X,X<X,X,X,X=X,X,X<X<X,X=X=X@X@X@X@X&X>X<X<X<X<X:X<X<X<X<X<X<X<X<X<X,X,X,X,X<X<X<X<X<X,X=X,X=X=X$X:X&X&X<X:X@X=X,X=X<X<X<X,X",
",X<X,X,X,X,X<X,X,X,X:X:X,X:X=X*X@X+X@X$X$X<X<X:X<X<X<X<X`.K.I K E Y.oX<X<X:X=X$X:X<X<X<X<X:X=X=X$X=X=X=X%X=X<X:X=X:X,X,X<X<X,X:X",
"<X<X<X,X,X,X,X,X,X,X=X=X=X=X*X*X#X#X@X$X&X-X<X:X<X<X.Xa.= . + # O o S W.;X:X=X=X=X<X<X,X,X:X-X=X$X=X:X<X-X:X,X<X:X=X:X,X<X,X,X<X",
",X<X,X=X=X=X=X<X,X,X=X*X$X#X@X#X%X%X@X&X&X-X<X>X<X.XK . s ' &.%. .v - = U.$X:X*X$X,X,X,X,X=X=X=X=X=X,X<X,X,X:X<X<X=X:X<X:X:X=X<X",
",X,X<X,X,X,X,X<X,X=X*X@X@X#X#X*X%X&X&X&X:X-X>X,XoXP + ~ <.q.y.7.,.,.+.a = R.,X=X;X,X,X=X=X=X=X&X=X,X,X<X,X$X;X<X=X=X=X<X=X&X&X<X",
"<X<X<X,X,X,X,X,X,X=X=X@X#X#X#X%X&X&X&X&X:X:X-X<XK.+ _ 4.r.y.w.4.,.,.,.$.4 p [.,X,X,X<X,X=X=X=X:X;X,X<X<X,X;X=X<X<X<X:X:X=X:X:X<X",
",X,X,X=X,X<X:X-X,X=X=X=X#X@X@X&X&X&X:X&X&X-X,X].y l 2.t.y.9.1.,.,.,.,.1. .# d.:X,X,X<X,X,X=X,X,X<X,X<X<X,X$X=X<X<X<X:X=X=X*X,X<X",
",X=X=X,X<X<X&X:X<X,X,X-X@X@X@X&X:X=X=X=X-X$X,Xd.+ _ =.e.5.-.-.>.,.,.,.,.>.z r {.<X,X<X<X,X,X<X<X<X<X<X<X<X<X,X<X<X,X<X:X@X%X:X<X",
",X,X,X,X,X=X=X<X<X:X:X&X$X$X&X&X=X=X:X:X-X<X_.y   . o + # ; 5 j +.,.,.,.,.o.# L.<X<X<X<X,X<X<X<X<X<X<X<X,X,X;X,X<X<X:X:X=X=X*X:X",
"<X<X,X,X&X:X,X<X,X:X&X-X&X&X&X:X-X&X:X,X,XW.t % M Z V M e w 0 X ; | ,.,.,.-.d H <X>X<X,X,X,X<X<X<X<X<X<X:X;X@X,X<X:X:X:X:X*X&X<X",
",X,X,X,X%X=X<X<X,X%X:X>X&X:X&X:X&X=X<X<X].y 0 h.B.C.C.V.N.n.z.p.0 : #.1.,.:.( t {.<X<X,X,X,X<X<X<X<X<X>X$X=X,X,X<X,X:X=X<X:X&X<X",
",X<X<X&X:X:X<X<X,X:X<X<X:X:X&X&X:X,X,X>XT 8 h.!.~./.^.!.F.S.B.n.g.& x >.,.:.[ $ B P P.oX=X:X<X<X<X<X<X<X:X=X=X,X<X:X=X,X<X<X,X,X",
",X<X,X,X<X<X<X<X<X,X<X,X=X:X:X:X:X,X<X].r u.!. X=X=X=X(.F.F.A.n.v.C : $.,.>.o.: O O o Y XX=X-X<X>X<X<X<X<X<X<X<X<X=X:X:X,X<X=X=X",
"<X,X,X<X<X<X<X:X=X=X,X,X=X:X&X&X:X>X<XL.9 c.~. X(.^.^.!.S.F.S.N.b.p.* [ ,.,.@.4 d ' f + K.;X<X<X>X<X<X<X<X<X<X:X:X=X=X:X<X,X:X:X",
",X,X<X<X<X<X=X=X=X,X>X:X=X=X=X&X:X>X<XU M N.F.F.D.D.D.S.F.F.S.M.b.f.8 ( ,.,.#.a f $.$.d i |.<X<X<X<X<X<X<X:X:X:X<X,X#X*X<X<X<X=X",
"$X;X<X<X<X-X&X:X:X<X,X,X:X&X:X&X-X<X-XH A M.A.F.D.D.F.S.D.D.V.n.v.f.0 ! ,.,.$.d s $.>.' $ R.>X>X<X<X<X<X<X$X=X<X<X:X$X:X,X<X<X,X",
",X<X,X<X$X&X=X:X>X<X,X,X&X&X=X=X-X>X-XH A m.N.A.A.A.A.A.Z.B.m.b.x.s.8 / ,.,.*.h 4 @.>...; G.<X>X<X<X<X<X;X;X=X<X<X<X:X<X<X<X<X<X",
"<X<X:X<X:X<X<X:X,X:X=X:X&X:X=X=X$X,X>XI V v.b.m.M.m.m.n.b.b.b.b.k.i.& ' ,.,.*.k < ..:.%.1 T <X<X<X<X<X<X;X;X:X<X<X,X,X<X<X<X,X,X",
"<X<X<X<X<X<X<X:X:X&X=X:X&X&X:X=X-X,X>XJ.8 k.n.v.b.b.b.b.n.b.b.x.g.A $ o.,.,.*.Q ; { ;.*.s H <X<X<X<X<X<X;X@X:X:X,X:X<X<X<X<X,X=X",
"$X$X,X<X<X:X:X,X<X$X@X=X=X&X-X:X;X<X<X].r V j.k.l.l.z.z.x.x.k.g.p.0 s *.,.,.;.^ - [ *.;.d D -X<X<X<X<X<X:X@X=X$X,X=X,X<X<X<X;X$X",
"$X;X<X<X:X:X,X<X,X@X$X:X:X&X-X,X<X<X<X<Xa.X N u.i.p.p.f.f.f.f.i.M + ) :.,.,.;.) # ' $.:.h p oX<X<X<X,X<X:X=X:X=X:X$X,X<X<X,X$X;X",
"=X<X<X*X@X<X<X<X;X,X,X,X$X=X,X,X<X<X<X<X`.*   X % & 9 q w M M &   z $.,.,.,.;.` # ) $.:.k i oX<X,X<X<X<X<X:X:X=X,X,X<X<X<X,X:X<X",
"<X<X:X:X=X<X<X:X=X<X<X<X;X;X<X,X<X<X<X<XW.> n g a < ; # @ O O ; v X.;.,.,.,.:.[ - ( $.-.z u .X<X<X<X<X<X<X,X$X#X@X,X<X<X,X:X<X,X",
"<X:X&X<X-X<X<X;X<X<X<X<X<X:X<X<X<X<X<X<XY.2 6.r.<.+.+.o.[ ] ' ..%.;.,.,.,.,.:.{ ; Q @.O.z y .X<X-X<X<X<X<X<X:X,X,X<X<X,X,X:X<X<X",
"<X$X#X<X:X,X&X<X<X<X<X<X,X<X<X<X<X<X<X<XJ.a 8.w.1.,.,.,.,.,.,.:.>.,.,.,.,.,.:...: c O.o.k u .X<X<X<X<X<X<X<X=X,X=X$X,X$X$X<X<X<X",
"<X=X@X&X=X=X=X<X<X<X<X:X<X<X<X<X<X<X<X<XW s 8.w.,.,.,.,.,.,.,.,.,.,.,.,.,.,.>.o.< z O...j u .X<X<X<X<X-X<X=X=X*X:X,X:X@X=X,X<X<X",
"*X*X=X&X:X=X<X<X<X<X=X:X<X<X<X<X<X<X<X<XU h q.w.,.,.,.,.,.,.,.,.,.,.,.,.,.,.>.X.1 k O...h i oX<X-X<X<X<X<X:X<X,X,X,X:X*X@X,X<X<X",
",X,X:X:X:X:X<X<X<X,X-X-X<X<X-X<X<X<X<X<XK z 0.w.,.>.,.,.,.,.,.,.,.,.,.,.,.,.:.X.1 j O.} d S oX<X<X<X<X<X<X<X,X,X,X:X=X*X*X<X<X<X",
"=X:X*X:X<X<X<X<X;X,X,X<X<X<X<X<X<X<X<X-XF c q.q.,.,.,.,.>.,.,.,.,.,.,.,.,.,.>.X.5 j O.[ s D <X<X<X<X<X<X<X<X<X<X:X=X*X*X=X<X<X<X",
"=X*X*X:X<X<X<X<X<X<X<X<X<X<X<X<X<X<X>X-XD Q q.w.,.,.,.,.,.,.,.,.,.,.,.>.,.,.>.X.4 j O.] 4 K <X<X<X<X<X<X,X,X,X<X,X=X=X*X#X;X<X<X",
",X,X=X<X<X:X:X:X<X<X<X<X<X<X<X<X<X<X>X-XD Q 0.w.,.,.,.,.,.,.,.,.,.,.,.,.,.,.>.X.4 k X.) : E <X>X>X>X<X<X,X,X,X,X:X=X<X:X=X<X<X<X",
"=X:X=X=X:X*X=X=X<X<X,X,X<X<X<X<X<X<X<X-XJ c 9.r.,.,.,.,.,.,.,.,.,.>.,.,.,.,.:.X.1 j ' ^ ; L.<X<X>X<X<X<X,X,X,X,X,X:X<X,X$X<X<X<X",
":X:X,X=X*X*X=X<X<X;X;X,X<X<X<X<X<X<X<X,XI j 7.t.3.,.,.,.,.,.>.,.,.,.,.,.,.,.:.o.< d ) v $ R.<X<X<X<X<X<X,X<X,X<X<X,X,X=X@X:X<X<X",
",X,X,X=X,X,X,X,X,X*X@X:X,X<X<X<X<X,X;X,XE d 3.t.3.,.,.,.,.,.,.,.,.,.,.,.,.,.:...< d ( s t {.<X<X<X<X>X<X<X<X<X<X<X<X:X@X:X<X<X<X",
",X-X&X=X:X,X<X<X=X,X:X<X<X<X<X,X,X;X=X,XL.5 <.r.9.,.,.,.,.,.,.,.,.,.,.,.,.,.;...: < 4 . W <X<X<X<X<X<X:X<X<X<X<X<X<X<X,X<X<X<X<X",
"=X=X%X&X-X<X<X,X<X-X,X,X<X>X<X,X,X;X:X,XR.3 %.q.9.,.,.,.,.,.,.>.,.,.,.,.,.,.:.} ;   * I .X<X<X<X<X<X,X=X<X<X<X<X<X<X<X<X<X,X<X<X",
"=X%X%X=X,X<X<X=X%X<X,X,X>X<X,X;X<X<X:X:X'.6  .1.1.,.>.,.,.,.,.,.>.,.,.,.,.,.;.{ ; E ).@X<X<X<X<X<X,X$X=X<X<X<X<X<X,X<X,X,X,X,X,X",
"=X%X%X:X:X<X<X&X%X:X=X<X<X<X<X;X;X;X$X=X|.i ( ,.,.,.,.,.,.,.,.,.,.,.>.,.,.,.-.[ > W.<X>X<X<X<X<X<X<X=X=X<X<X<X<X,X,X<X,X,X,X,X=X",
"&X%X%X-X-X<X<X%X%X=X*X:X<X<X<X<X,X;X;X$X@XG x ,.,.,.,.1.,.,.,.,.,.7.,.,.,.,.*.` 3 _.<X>X<X<X<X<X<X<X,X=X<X<X<X<X,X,X<X,X,X<X<X,X",
"=X<X%X=X,X,X%X%X=X=X:X<X:X<X-X$X<X:X;X*X@XT f >.,.,.$.$.$.-.-.>.4.t.3.,.,.,.*.` 7 `.<X<X<X<X<X<X<X<X;X;X,X<X<X<X,X,X<X,X<X<X<X<X",
",X&X%X:X,X,X=X,X:X@X=X:X<X<X<X<X<X<X:X=X*XH.a :.,.>.f 2 k ~ ) | 5.t.3.,.,.,.*.) 7 ].<X<X<X<X<X<X<X<X<X;X<X<X<X<X,X,X,X,X,X<X<X<X",
"%X%X-X,X<X>X,X,X=X:X<X:X<X<X<X<X<X:X,X*X=XU.5 -.,.,._ -     . . b t.1.,.,.,.$.^ y }.<X<X<X<X<X<X<X<X:X,X<X<X<X=X=X=X=X,X,X<X<X<X",
"&X:X,X<X<X,X=X=X@X=X:X;X<X<X<X<X<X<X,X=X*XT., -.,.,.1.#.Q # % o m t.1.,.,.,.$.Q u .X<X>X<X<X<X<X<X,X,X$X<X,X,X*X=X=X=X,X<X<X<X<X",
"=X,X,X,X<X<X=X*X*X*X,X<X<X<X<X<X<X-X,X:X=XQ.7 @.,.,.,.>.o.: H.D m t.2.,.,.>.$.c p oX<X<X>X>X<X<X<X,X=X$X<X,X=X=X=X*X=X,X<X<X<X<X",
":X,X,X>X<X<X=X:X:X<X<X<X<X<X<X<X<X<X,X,X=XQ.7 +.,.,.,.:.o.: U.J m t.,.,.,.>.@.k D @X<X<X>X<X<X<X,X=X=X*X<X,X=X=X=X=X,X<X<X<X<X<X",
"<X,X<X>X>X<X,X,X,X,X,X,X<X;X>X<X<X<X<X<X=X'.t  .,.,.,.;. .2 I.J n t.2.,.,.>.@.h G @X:X<X>X<X<X:X=X=X@X*X,X<X=X=X*X=X,X<X,X,X<X<X",
"=X%X,X<X,X=X*X:X=X&X=X=X<X>X<X<X<X<X<X,X,X[.t | ,.,.,.-.{ : U.J n w.,.,.,.>.O.d P %X:X,X<X<X<X*X@X=X*X*X,X<X,X=X=X=X,X,X,X,X<X<X",
"=X&X<X,X*X*X*X:X:X:X*X=X,X<X<X<X<X<X<X:X%X|.p Q >.:.;.@.[ , T.J x 1.>.,.,.;.+.a T =X*X:X,X:X=X%X*X*X%X=X<X<X,X,X=X,X,X<X,X,X,X<X",
",X,X<X:X,X,X,X,X,X<X$X:X<X<X>X<X<X<X:X&X%X%XI < } @.O.+.( * ).Y s :.,.>.-.@.} : H.=X*X=X-X@X*X%X@X*X%X*X<X:X,X=X=X,X,X<X<X<X<X<X",
"&X,X>X<X<X,X,X:X,X=X:X<X<X<X>X<X:X=X&X@X%X=XE.* a c v c < S XXU.# ] $.@.O.O.~ * E.,X=X:X&X@X%X%X*X*X*X*X<X<X*X*X=X=X,X<X<X,X<X<X",
",X>X>X<X,X,X:X=X&X%X%X&X<X<X<X>X>X&X%X@X@X%X+XK.= . .   r R.,X|.p < ( ] ] ~ - G OX=X:X:X<X%X*X*X*X@X@X=X<X<X<X@X=X=X,X,X,X,X,X,X",
"<X>X<X<X<X,X:X=X&X%X%X<X<X<X,X,X&X&X+X@X+X+X+XOX).I.I.I.).=X=X,XT.q . + + . y Q.=X,X,X,X,X,X*X%X*X*X=X=X<X<X,X,X=X*X=X,X,X,X=X=X",
"<X<X>X<X<X-X:X=X=X%X%X,X<X:X,X*X&X&X+X%X@X+X@X+X=X=X,X,X,X=X=X=X$XQ.R P L a.'.=X,X,X<X<X<X,X=X%X*X=X=X=X,X<X<X=X=X=X=X=X=X=X=X=X",
"<X<X<X<X<X:X:X&X@X#X-X,X,X:X=X%X%X&X&X&X+X+X+X+X&X=X:X:X=X:X=X=X$X=X=X&X*X=X*X-X<X<X<X<X<X,X,X*X=X=X=X=X<X<X,X=X=X=X=X,X,X=X*X=X",
"<X<X<X<X,X:X&X&X%X%X,X,X<X&X=X%X%X&X%X%X@X%X@X&X&X=X:X:X:X=X=X=X-X&X=X=X%X*X,X,X<X<X<X<X<X<X=X&X=X:X=X=X,X<X=X=X*X=X,X,X=X=X=X=X",
"<X<X<X<X:X<X=X%X&X%X&X=X<X:X%X%X&X%X%X=X*X*X:X:X:X-X|.&X=X=X,X,X,X,X,X,X,X=X,X,X,X,X,X=X,X=X=X=X=X=X,X,X<X,X=X=X=X=X,X,X,X,X=X=X",
"<X<X<X<X,X<X=X:X,X%X%X,X<X&X%X%X-X=X=X<X:X=X<X<X,X&XOX%X=X,X<X<X<X,X,X<X,X,X,X,X,X=X=X=X=X*X=X*X=X,X,X,X,X,X,X=X=X=X=X,X,X=X=X=X",
"<X<X,X:X:X:X:X<X:X%X=X,X:X-X$X=X,X%X*X,X*X<X<X,X&X&X=X=X,X<X<X<X,X,X,X,X,X,X=X,X,X,X=X=X=X*X=X=X=X,X,X,X,X,X,X,X=X=X,X<X,X=X=X=X",
"&X=X=X=X%X=X=X&X%X%X:X,X,X,X,X<X,X%X,X=X:X<X>X&X&X=X=X=X,X<X<X<X,X,X=X,X,X=X=X=X=X,X,X=X=X=X=X=X=X,X,X<X,X,X<X<X,X,X<X<X,X=X=X*X"
};
