/* XPM */
static char *xpm__51613948677hahlv2s1z5_removebg_preview_resized[] = {
/* columns rows colors chars-per-pixel */
"65 65 126 2 ",
"   c #000000",
".  c #050508",
"X  c #080709",
"o  c #0B0B0D",
"O  c #0D0E11",
"+  c #0F1012",
"@  c #131214",
"#  c #171618",
"$  c #1D1D1E",
"%  c #1E1E20",
"&  c #222223",
"*  c #242529",
"=  c #27282A",
"-  c #292A2D",
";  c #2A2E32",
":  c #313236",
">  c #34363A",
",  c #38373C",
"<  c #37383A",
"1  c #39393B",
"2  c #3F3F43",
"3  c #3F4348",
"4  c #424446",
"5  c #42454A",
"6  c #44484D",
"7  c #494A4B",
"8  c #4E5052",
"9  c #505052",
"0  c #515359",
"q  c #56585B",
"w  c #59595B",
"e  c #575B60",
"r  c #5B5F60",
"t  c #5E6266",
"y  c #5F6368",
"u  c #606367",
"i  c #62656A",
"p  c #666A6E",
"a  c #686B6E",
"s  c #666A70",
"d  c #6A6E73",
"f  c #6D7175",
"g  c #6F7378",
"h  c #71757A",
"j  c #74797D",
"k  c #7B7C7E",
"l  c #757A80",
"z  c #797E84",
"x  c #7D8185",
"c  c #7E838A",
"v  c #848587",
"b  c #83878C",
"n  c #82888F",
"m  c #8A8C8C",
"M  c #868C93",
"N  c #8C8F93",
"B  c #8D9294",
"V  c #8C939A",
"C  c #929395",
"Z  c #939699",
"A  c #94989C",
"S  c #99989A",
"D  c #959CA3",
"F  c #99A0A6",
"G  c #9CA4AC",
"H  c #A2A6A8",
"J  c #ACAEAF",
"K  c #A5AEB5",
"L  c #ABAEB0",
"P  c #A6AFB8",
"I  c #A7B0B7",
"U  c #ACB3B7",
"Y  c #A7B1B8",
"T  c #AAB3BB",
"R  c #AEB8BF",
"E  c #B4B4B5",
"W  c #B4B9BB",
"Q  c #BBBCBC",
"!  c #ACB6C0",
"~  c #AFB8C2",
"^  c #B2BCC4",
"/  c #B5BFC9",
"(  c #B6C0C7",
")  c #B6C0CB",
"_  c #B8C2CD",
"`  c #BCC7D3",
"'  c #BDC8D0",
"]  c #C2C3C5",
"[  c #CACACA",
"{  c #C0CBD7",
"}  c #C2CEDB",
"|  c #C9D5D6",
" . c #C5D1DE",
".. c #D3D3D3",
"X. c #D8D9D9",
"o. c #C7D3E1",
"O. c #C9D5E4",
"+. c #CCD8E7",
"@. c #CEDAEA",
"#. c #D1DEEE",
"$. c #D2DFF0",
"%. c #DCE5E6",
"&. c #D3E0EF",
"*. c #D4E1F2",
"=. c #D9E7F7",
"-. c #DCEAFA",
";. c #E6E5E5",
":. c #E5E7E8",
">. c #E4EEEF",
",. c #ECEEEE",
"<. c #ECEFF0",
"1. c #E6F6F6",
"2. c #EBF6F6",
"3. c #E6F8F7",
"4. c #EBF8F7",
"5. c #E3F1FF",
"6. c #EDF7F9",
"7. c #E7F8F8",
"8. c #EDF8F9",
"9. c #F4F6F6",
"0. c #F5F8F7",
"q. c #F8F8F7",
"w. c #F1F7F9",
"e. c #FAF7FB",
"r. c #F5FAFA",
"t. c #FBFBFB",
/* pixels */
"4.4.4.4.2.7.7.1.1.4.1.2.w.w.9.w.6.e.w.w.t.t.t.9.0.t.t.t.0.0.t.0.t.t.e.t.t.e.6.w.w.8.8.8.6.6.9.w.t.t.t.t.r.w.w.8.8.8.6.8.8.6.w.w.0.",
"4.4.2.4.7.4.7.1.1.1.1.6.2.w.w.w.e.t.0.0.t.t.t.0.t.t.q.t.0.9.t.0.t.t.t.t.t.e.2.9.9.8.6.8.6.6.4.0.0.0.0.8.w.w.w.w.8.8.8.8.8.w.r.r.t.",
"4.7.1.1.1.7.7.7.4.2.2.2.2.6.w.w.t.r.r.t.9.t.t.t.e.t.t.t.t.t.t.t.t.q.t.t.0.0.9.6.6.w.w.8.6.6.4.0.8.r.r.8.8.8.8.8.8.6.6.w.6.w.r.r.t.",
"3.3.3.1.1.7.7.7.1.4.2.6.w.w.w.w.0.t.w.0.0.0.t.t.9.q.t.0.e.t.q.t.t.t.t.0.w.9.2.4.2.6.2.w.6.8.w.w.t.t.r.8.w.8.w.8.6.w.6.6.w.r.r.t.q.",
"1.3.1.1.1.4.4.7.4.6.8.8.2.4.2.2.0.e.2.9.9.t.9.t.9.9.t.9.9.9.0.t.q.t.0.0.2.9.4.2.4.1.1.2.4.8.4.8.w.w.0.8.2.8.r.8.8.w.w.w.r.t.r.t.t.",
"1.1.1.1.4.6.6.6.6.6.6.8.t.t.t.t.t.t.t.t.t.t.t.t.t.t.t.t.t.t.t.t.t.t.t.t.t.t.t.t.t.t.t.t.t.t.t.t.t.t.t.t.t.w.8.8.8.w.w.0.w.t.r.t.t.",
"4.1.1.2.4.2.6.w.6.6.8.r.U B Z C B C C S S S S S S S S S S S S S S S S S A Z A A V C C Z S Z Z C S Z C C H 2.t.w.0.t.t.q.t.q.t.t.q.",
"1.4.4.2.2.6.6.6.6.w.r.u                                                                                   1 ,.t.0.t.t.q.t.t.t.t.t.",
"%.w.1.4.6.6.6.8.2.t.F   o 5 5 5 5 5 5 5 5 5 5 5 6 6 6 5 5 6 5 5 5 5 5 5 3 5 5 3 5 3 5 5 5 5 5 5 5 5 5 5 $   a t.q.t.e.t.t.t.t.t.t.",
">.w.6.6.6.6.w.6.6.t.r   N 5.=.-.-.-.-.=.-.-.-.=.=.=.=.=.=.=.-.=.-.-.-.-.-.-.-.-.-.-.-.-.-.-.-.=.-.-.=.5.!   - e.t.t.t.0.e.0.q.t.t.",
"6.4.w.6.6.w.w.w.9.t.w   ~ -.@.#.#.#.#.#.#.#.#.#.#.#.#.#.#.#.#.#.@.#.@.#.@.*.#.@.$.@.@.*.@.&.#.#.#.#.#.*.@.+ $ q.t.t.t.e.0.q.t.t.q.",
"2.6.w.6.w.6.6.6.2.t.w   ! -.@.*.&.&.#.&.*.*.$.*.$.$.*.*.*.*.*.*.*.*.*.*.*.*.*.*.*.*.*.*.*.&.#.&.$.$.$.*.O.O $ 9.t.t.t.t.t.t.t.q.t.",
"w.w.w.6.w.6.6.w.w.t.q   ! -.#.$.&.#.*.#.+.+.+.+.#.#.O.#.@.@.+.@.@.@.@.@.+.@.@.@.@.@.+.+.+.&.*.&.$.$.$.*.O.O % <.t.t.t.t.t.t.t.q.t.",
"w.w.w.6.w.6.w.w.w.t.q   ! -.#.$.#.=.O.Y Y Y U I P P P P Y P Y Y Y Y Y Y Y I Y Y Y Y I I I R @.*.$.$.*.*.O.O % 2.t.e.t.t.t.t.t.t.t.",
"w.6.w.6.6.6.8.w.0.t.q   ! -.#.#.*. .Y K Y Y K I K K P K K K P P K I K I K I K K P P P K I K T @.*.#.#.*.O.O $ 2.t.r.e.e.q.t.t.q.t.",
"6.6.6.6.8.8.w.w.0.t.q   ! -.#.*.} K K K K K K K K K K K L K K K K K K K K K K K P K K K K K K I @.*.*.*.O.O $ 2.0.t.e.e.t.t.t.e.q.",
"6.6.w.6.w.6.6.w.e.t.w   ! -.$.o.! ! ! ! ~ R ! ^ ! ! ^ ~ R ~ ^ R ~ ~ ~ ~ ~ ~ ~ ! ~ ~ ~ ~ ~ ~ ! R ^ @.*.*.O.O % 2.q.q.q.t.q.t.t.q.t.",
"6.w.6.6.6.6.6.6.0.t.w   ! -.$.$.$.$.*.#.#.&.#.#.$.$.#.#.#.#.#.$.#.#.#.$.#.$.$.$.#.#.#.#.#.$.#.*.#.#.*.*.O.O $ 2.t.e.t.t.t.t.t.t.t.",
"6.6.6.6.6.6.w.w.2.t.w   ! -.$.$.*.$.$.$.&.&.#.&.$.$.$.$.#.$.$.$.#.$.$.$.#.#.$.$.#.$.*.$.#.#.$.$.*.$.$.*.O.O $ 9.t.e.0.t.t.t.t.q.t.",
"6.6.6.6.6.6.6.w.9.t.q   ! =.@.*.$.$.*.*.*.*.*.*.*.*.*.$.*.*.*.*.*.*.*.*.*.*.*.$.*.*.*.*.*.*.$.$.#.*.*.*.O.O $ q.t.e.t.t.q.q.t.t.q.",
"6.6.w.6.6.6.6.w.9.t.w   ! -.#.#.#.$.#./ ^ ^ ^ ^ ^ ^ ^ ^ ^ ^ ^ ^ / ^ ^ ^ ^ ^ ^ ^ / ^ ^ ^ ^ ` $.$.$.*.$.*.O.+ % 9.t.q.t.q.e.0.t.t.t.",
"6.6.6.6.6.w.6.w.w.t.w   ! -.#.#.*.#.^ L K K K K L K K K K K K K K K K K K J K K L K K P K K _ *.*.#.*.*.O.O $ 9.t.q.t.t.e.w.t.t.t.",
"6.w.6.w.6.w.w.w.w.t.q   ! =.#.$.#.^ K P Y P P P Y I Y P P P Y P P P P P U P P P P P P P P L K ) *.*.$.*.@.O % 9.t.t.t.t.t.t.t.t.q.",
"6.6.6.6.w.w.e.0.0.t.w   ! =.#.#.T K P K P K K K K K K K K P K K K K P K K K K P P K K K K K K K / @.$.*.o.+ % 9.t.e.0.t.t.0.e.0.t.",
"6.6.6.w.w.w.t.0.0.t.w   ! =.#.@.o.O.O.O.O.O.O.O.O.O.O.o.O.O.O.O.O. .O. .O.O.O.O.O.O.O.O.O.O.O.O. .#.*.*.O.O $ q.t.0.t.0.t.t.9.t.t.",
"w.6.6.w.w.t.t.r.0.t.w   ! -.#.$.*.*.*.$.*.*.*.*.*.*.*.*.*.*.*.*.*.*.*.*.*.*.*.*.*.*.*.*.*.&.*.*.*.*.*.*.O.o % 9.t.t.t.0.t.t.q.t.t.",
"w.8.w.w.t.0.q.t.t.t.w   ! -.@.$.#.$.$.*.*.*.*.*.*.*.*.*.*.*.*.*.=.*.*.*.*.=.*.*.*.*.*.*.*.&.#.&.#.*.#.*.O.@ % q.t.0.t.t.t.t.t.t.0.",
"r.0.w.r.0.t.t.t.t.t.w   ! -.$.$.$.$.*.O. . . .}  . . . . . . .}  . . . . . . . . . . .}  .+.*.&.*.#.*.*.O.O % 9.t.t.9.0.t.0.e.t.q.",
"t.0.0.t.t.0.t.q.9.t.w   ! -.$.$.$.=.{ K L K K J K K K K K K K K K K K K J K K L K K K K K Y o.*.#.$.#.*.O.O % q.t.t.0.9.0.w.t.t.t.",
"t.t.t.t.t.t.t.q.t.t.w   ! -.$.$.*.{ P P P P P P Y Y P K K K Y K K K K P P P P K K K K P Y K Y  .*.*.*.*.O.O % 9.t.t.t.t.t.q.t.t.t.",
"0.0.t.t.t.t.t.t.q.t.w   ! -.@.$.` K K K K K K K K K L K K K K K H P K K L K K K K K K K K K K K } *.#.*.O.@ % 9.t.t.t.t.t.t.q.e.q.",
"t.0.t.t.t.0.t.t.q.t.w   ! -.$.+./ _ / / ) _ / _ ) _ / _ ) _ / _ _ _ _ _ / _ _ / _ _ / _ _ / _ _ _ #.*.*.O.o & q.t.0.0.t.0.0.t.w.t.",
"t.t.t.t.0.q.t.t.t.t.w   ! -.$.$.*.*.*.*.*.*.*.=.*.*.*.*.*.*.*.*.*.*.*.*.*.*.*.*.*.*.=.*.*.*.*.*.=.#.$.*.+.O % 9.t.0.r.e.e.e.t.t.q.",
"q.t.q.t.0.t.t.q.t.t.w   ! =.@.@.#.#.$.#.$.@.$.@.#.#.#.#.$.$.$.@.#.@.#.@.#.#.#.#.@.@.$.#.$.@.@.@.#.#.#.$.O.O % e.t.t.t.e.t.t.t.0.t.",
"t.t.t.q.t.t.t.t.9.t.w   ! 5.=.-.-.-.-.-.-.-.=.-.-.-.-.-.-.-.-.-.-.-.-.-.=.=.-.-.=.-.-.-.-.-.-.=.-.=.=.-.@.X & t.t.q.t.q.t.t.t.t.t.",
"q.t.t.t.t.t.0.t.t.t.j   3 P P K P P G P P P K P P P G P P P K P P P P P P P P P P P P P P P P P P P P ! p   4 t.t.t.t.t.t.q.t.t.t.",
"t.t.t.t.t.t.w.t.t.t.X.@                                                                                     U t.e.e.t.e.q.t.t.e.t.",
"t.q.t.q.t.0.0.t.t.9.t.Q . . . . . . . . . . . . . . . . . . . . . . . . . . . . . . . . . . . . . . . X   v t.t.0.t.t.e.e.t.t.t.t.",
"q.t.t.t.t.t.t.t.0.t.Q =                                                                                   # N t.0.t.e.t.t.q.e.t.t.",
"t.t.t.q.0.t.t.t.t.q.*   @ ; ; ; ; ; ; ; ; ; ; ; ; ; ; ; ; ; ; ; ; ; ; ; ; ; ; ; ; ; ; ; ; ; ; ; ; ; ; * @     ..t.e.e.q.t.t.t.t.t.",
"0.t.t.q.t.t.t.0.t.[   # d K ~ T R T R T R T T R U T R U T T U T R T T R U T R T T T T R T T R T R T ~ n d :   C t.t.t.t.t.q.e.t.0.",
"9.t.t.t.0.0.0.9.t.M   , d V Y K K K K K K K K K K K I K I I K K K K K K K K I K I I K K K K I K K K K g g d   w t.t.t.t.t.q.w.w.w.",
"t.q.t.q.t.w.w.0.t.8   p s b Y K K K I K K K K K K K I K I I I I I K K K K I K I K I I I I K K I K P K d g D . $ 9.t.t.t.t.r.0.w.6.",
"t.t.t.t.t.t.w.t.<.$ X V a j Y P K K K I I I K I I I K K I I I I I K I K I K I K I I K K K K I K K Y F p j Y -   [ t.t.t.t.r.w.8.6.",
"t.t.t.t.w.0.9.t.]   : Y d f G Y K K I I I I I K K I K I K I K I I K I K I I K I I K I K I I K I K Y A u c / 0   C t.q.t.r.w.w.8.w.",
"q.q.t.q.w.0.9.t.v   q / h p F T K I K K K I K I I K I K I I I K K I I K I K I K I I K I I K I I K R M y N / z   9 t.q.t.r.w.6.6.6.",
"t.t.t.t.0.t.w.t.6   c ^ n y B T K I I I I K I I I I I K K I I I I I I I I I I I K I K I I I I I K Y z i D ! F . $ 9.t.t.t.w.6.6.6.",
"0.e.q.t.t.9.t.2.# o G R A u x U K I I K I I I K K K I I K I I K K I K I I K K I I I I K K I K K Y K h s H P R ;   ] t.0.t.w.r.8.8.",
"t.w.t.0.w.2.t.]   > R K G a h K I I I I I I I K I K I K I I I I K K I I K I K K I K K K I I I I Y G d g K K ^ w   m t.t.t.t.w.w.6.",
"t.e.t.0.9.9.t.v   y ^ K K g p G I I I I I I K I I I I I I I I K I Y P K I I I I I I I I I K I K Y D i x P K R z   7 t.t.t.t.t.w.w.",
"t.w.0.t.t.q.t.4   n ^ K T z u D T I K P I I K I K I K I I I I I I Y I I I I I I I K I I K I K K Y V y M R K Y G X # ,.t.0.t.w.w.w.",
"t.w.e.t.t.t.,.@ o G Y K T N u M Y K I I K I I I I I K I K I K I K K K I I K K I I I K K K I P K T b i V T K K T :   ] t.0.t.r.0.w.",
"t.q.q.q.q.t.Q   < R K K T D u z Y P P P I I I I I I I I K I I I I I I I I K I I I I K L P P Y Y Y l p F Y K P ^ y   m t.0.t.r.4.4.",
"t.t.t.t.t.t.k   p R K K Y K d d K Y P P I K K K I K I K I K I I K I I K I K K I K I P Y K K K Y K d d K Y P P ~ b   4 t.0.0.4.4.4.",
"t.q.t.0.t.t.1   M T K K K Y l p F T K K K I K K I I I K K K K I K K K I P Y K K K K K Y K K I Y D p j Y P K P T G X O :.r.6.8.7.4.",
"0.t.t.9.t.;.o @ G P K K K P c y V Y H K K K K K G I K K K K K G K K K K K H K K K K K K K K K Y V y c P K K K G T >   W t.4.4.4.7.",
"0.q.q.9.t.E   2 _ ^ ^ ^ ^ / F a M ( ^ ^ W ^ ^ ^ ^ ^ ^ ^ ^ ^ ^ ^ ~ ^ ^ ^ ^ W ~ ^ ^ ^ ^ ^ W ^ ~ ( V p D ( R ^ ^ R ' d   x t.1.4.4.7.",
"t.t.0.9.t.J   & y u y u y i e , 5 y y y y y y y y y y y y y y y y y y y y y y y y y y y y y y i 6 , q i y y y y u :   j t.4.7.7.7.",
"t.q.t.t.t.0.1                                                                                                       O | r.1.7.1.7.",
"t.0.t.t.t.t.,.z 7 4 4 4 5 4 4 4 3 3 4 3 4 4 5 4 4 4 4 4 4 5 5 6 4 4 5 4 5 5 5 4 4 4 5 5 4 5 4 4 3 4 4 4 4 4 3 3 5 p | r.3.7.7.7.4.",
"t.0.t.t.e.r.t.t.t.t.t.t.r.r.r.r.w.r.8.r.r.r.r.t.r.r.r.r.r.t.r.r.t.t.r.t.t.r.r.r.r.r.r.8.r.8.r.r.r.r.r.t.t.t.r.r.r.r.8.1.7.7.7.7.7.",
"0.t.t.e.e.e.t.e.0.8.6.2.1.1.3.3.1.1.7.1.7.1.4.1.4.4.8.8.4.4.8.8.8.6.4.2.4.4.4.7.1.1.7.3.3.3.7.2.1.1.4.8.2.4.7.3.3.3.7.7.7.7.4.4.4.",
"0.t.t.t.t.e.t.r.8.8.4.4.4.4.1.1.1.2.2.1.7.4.2.6.4.4.8.8.8.8.6.6.8.6.6.4.2.2.4.4.1.7.7.7.7.7.4.4.6.6.8.w.w.8.3.7.7.3.1.4.4.1.7.4.6.",
"t.q.t.t.t.t.r.w.8.4.1.4.1.1.1.7.1.1.4.4.4.4.2.2.4.4.8.8.8.6.6.6.6.8.6.4.4.4.4.4.1.1.7.7.7.7.4.4.w.0.w.r.0.8.7.7.7.3.5.4.1.1.7.6.8.",
"t.0.t.t.w.w.8.4.8.8.4.7.4.7.7.2.1.1.4.4.2.2.6.6.6.6.2.6.6.w.w.6.6.6.w.6.4.1.1.4.1.4.1.1.6.5.4.6.t.q.0.t.t.w.6.4.7.1.7.4.4.4.4.4.6."
};
