/* XPM */
static char *USC_Among_Us_1024x994_removebg_preview_resized[] = {
/* columns rows colors chars-per-pixel */
"64 64 202 2 ",
"   c #000000",
".  c #0B0100",
"X  c #00000A",
"o  c #050B0B",
"O  c #080B0A",
"+  c #150102",
"@  c #1A0102",
"#  c #130A01",
"$  c #190E00",
"%  c #1E020A",
"&  c #140B0B",
"*  c #0C100F",
"=  c #1C1300",
"-  c #171003",
";  c #0F1614",
":  c #0B141F",
">  c #131415",
",  c #191D1D",
"<  c #230207",
"1  c #24050B",
"2  c #28080C",
"3  c #241700",
"4  c #291600",
"5  c #271C07",
"6  c #390C12",
"7  c #3D2D0C",
"8  c #342203",
"9  c #1C2423",
"0  c #1E282A",
"q  c #182633",
"w  c #1F323E",
"e  c #232827",
"r  c #24292A",
"t  c #252829",
"y  c #2C3436",
"u  c #2A3536",
"i  c #363B3A",
"p  c #393A3A",
"a  c #333539",
"s  c #460C19",
"d  c #461118",
"f  c #4B1119",
"g  c #52121C",
"h  c #58141E",
"j  c #4C3708",
"k  c #543D08",
"l  c #703F14",
"z  c #591A24",
"x  c #580D23",
"c  c #621621",
"v  c #691426",
"b  c #621823",
"n  c #76182B",
"m  c #7D1430",
"M  c #594212",
"N  c #715307",
"B  c #755711",
"V  c #263944",
"C  c #3B4241",
"Z  c #3B4D50",
"A  c #3E5257",
"S  c #4B4E4E",
"D  c #444949",
"F  c #52514F",
"G  c #41565A",
"H  c #485558",
"J  c #525355",
"K  c #565C5B",
"L  c #5D5E5D",
"P  c #605F5F",
"I  c #455E66",
"U  c #485F66",
"Y  c #466169",
"T  c #4A646D",
"R  c #586569",
"E  c #4C6771",
"W  c #506C76",
"Q  c #636665",
"!  c #666B69",
"~  c #696A69",
"^  c #6A706E",
"/  c #6C7472",
"(  c #757978",
")  c #841D2D",
"_  c #8A1E2F",
"`  c #841B30",
"'  c #961936",
"]  c #991C36",
"[  c #9D173A",
"{  c #9E1C39",
"}  c #951737",
"|  c #A51F3A",
" . c #8A202D",
".. c #842030",
"X. c #8B2132",
"o. c #932234",
"O. c #9C2235",
"+. c #9F2539",
"@. c #A32F2F",
"#. c #A6332E",
"$. c #A9352E",
"%. c #B33C2D",
"&. c #A22337",
"*. c #A52339",
"=. c #AB243A",
"-. c #A62834",
";. c #AC3036",
":. c #835E16",
">. c #8F640B",
",. c #906B08",
"<. c #886514",
"1. c #997210",
"2. c #9D7308",
"3. c #BF7C11",
"4. c #B5482C",
"5. c #C8661E",
"6. c #D9751C",
"7. c #C15727",
"8. c #CE6521",
"9. c #D26822",
"0. c #DE7A24",
"q. c #7D807F",
"w. c #BF8C17",
"e. c #C39008",
"r. c #DB8617",
"t. c #CD9616",
"y. c #CB9518",
"u. c #C58F18",
"i. c #EA8D14",
"p. c #E28715",
"a. c #E49317",
"s. c #F19C13",
"d. c #EFA20C",
"f. c #FCB603",
"g. c #FFBA01",
"h. c #FEB90C",
"j. c #F5B20A",
"k. c #E9A917",
"l. c #F6B116",
"z. c #FCB515",
"x. c #FFBC14",
"c. c #F5B219",
"v. c #FCB918",
"b. c #F4A908",
"n. c #FFC202",
"m. c #FFC50E",
"M. c #FFC314",
"N. c #FFC916",
"B. c #FFC21C",
"V. c #FFDF12",
"C. c #5D7D89",
"Z. c #67828F",
"A. c #658693",
"S. c #678996",
"D. c #7D8484",
"F. c #7398A9",
"G. c #8A8E8E",
"H. c #838989",
"J. c #90928F",
"K. c #969C99",
"L. c #98A09F",
"P. c #9CA5A5",
"I. c #A5A8A8",
"U. c #B1B0AE",
"Y. c #AFB1B2",
"T. c #8AB4C7",
"R. c #93C2DA",
"E. c #98C5DB",
"W. c #AAC6D3",
"Q. c #96C8E1",
"!. c #9BCBE2",
"~. c #95C7E0",
"^. c #A1D1E8",
"/. c #B8D7E3",
"(. c #C0C4C3",
"). c #CBD6D6",
"_. c #DADCDD",
"`. c #D1DBDB",
"'. c #CDE1EA",
"]. c #DCE3E3",
"[. c #DDECED",
"{. c #DFE7E8",
"}. c #D3EBF4",
"|. c #DBEAF0",
" X c #C9E6F3",
".X c #E4ECED",
"XX c #E7E8E9",
"oX c #E6EFF1",
"OX c #E6F6F6",
"+X c #EAF6F6",
"@X c #E5F8F7",
"#X c #EDF8F7",
"$X c #E6F6F8",
"%X c #EDF7F9",
"&X c #E6F8F8",
"*X c #EDF8F9",
"=X c #F2F6F7",
"-X c #F2F8F7",
";X c #F2F6F9",
":X c #F5FAFA",
">X c #FAFAFA",
",X c #F9F7F8",
/* pixels */
">X>X:X:X:X*X#X+X+X+XOX+X=X,X,X,X>X>X,X,X,X>X,X>X>X>X>X>X,X>X>X>X>X>X>X>X,X>X>X,X>X:X:X:X:X:X>X>X,X>X>X>X>X>X:X:X*X#X#X#X%X%X%X;X",
">X>X:X*X#X#X+X+X$XOXOX+X+X=X>X,X>X>X,X,X,X>X>X>X>X,X>X,X>X>X>X,X>X,X>X>X>X>X>X,X:X:X*X#X=X:X>X>X>X>X>X>X>X:X;X;X+X#X%X#X%X%X*X%X",
":X:X*X*X+XOX&X$XOXOXOXOX+X=X:X>X>X>X,X,X,X>X>X>X>X>X>X>X>X>X>X,X>X>X>X>X>X>X:X:X:X*X#X#X+X:X,X,X>X>X>X>X:X;X=X#X#X#X#X#X%X%X;X:X",
"+X+X+X+X+X&XOXOXOXOXOXOX+X;X;X,X,X,X,X>X>X>X,X>X,X>X,X>X,X>X>X>X>X>X>X>X>X:X:X-X*X;X*X%X+X=X=X:X>X>X:X;X;X;X#X#X;X#X#X%X#X%X:X:X",
"+X+X+X$X&X$XOXOXOXOX+X%X+X=X;X;X,X,X-X,X>X,X>X>X>X>X>X>X,X>X>X>X>X>X>X,X>X=X=X#X#X%X%X%X%X%X;X;X:X;X#X;X;X*X*X#X*X#X*X#X*X:X:X>X",
"OXOXOX&X@X&X&X&XOX+X+XoX+X+X;X;X,X,X,X>X>X>X>X>X,X>X>X,X>X>X,X>X>X>X>X:X=X=X=X$X#X#X%X#X#X#X#X:X,X;X#X:X;X*X*X#X#X*X#X#X:X:X:X>X",
"OX&XOXOX@X@X$X&X+X+X%X%X%X%X;X;X,X,X,X,X>X>X>X>X>X>X,X>X,X>X>X>X>X>X>X:X;X%X+X+X+X;X:X+X#X%X#X:X:X:X:X*X*X*X*X*X*X-X*X-X:X>X>X>X",
"&XOXOX&XOX+X+X+X#X#X%X%X%X%X=X=X-X-X-X,X>X,X>X>X>X>X>X>X>X>X,X>X>X>X,X:X%X#X#X+X+X+X+X*X;X;X:X>X:X>X:X*X*X*X;X;X-X-X:X:X:X:X>X>X",
"OX+X+X+X+X%X%X%X%X%X%X%X%X%X;X;X-X-X,X,X>X,X>X>X>X>X>X>X>X>X>X>X>X>X>X:X%X*X:X%X$X*X-X:X:X:X:X:X>X>X>X;X%X%X;X:X:X,X>X>X>X>X:X>X",
"OX$X+X+X+X%X%X%X%X%X%X%X*X;X#X;X-X,X,X>X>X>X>X>X>X>X>X>X>X>X>X>X>X>X,X:X*X;X%X%X;X;X-X:X>X>X>X>X>X>X>X:X:X:X:X:X>X,X>X>X>X>X>X>X",
"+X+X+X+X+X%X%X%X%X%X%X#X%X%X;X;X,X,X>X>X>X>X>X>X>X,X>X>X>X>X>X>X>X>X,X:X;X;X;X;X-X:X>X,X>X>X>X>X>X>X,X,X:X,X>X:X>X,X>X>X>X>X>X>X",
"%X+X%X%X%X%X%X;X;X%X:X:X,X,X:X,X>X>X>X>X,X>X>X>X>X>X>X>X>X>X,X>X>X>X,X:X;X;X;X:X,X>X>X>X>X>X>X>X>X,X:X:X:X>X>X>X>X>X>X>X>X>X>X>X",
"+X+X%X%X%X;X;X%X#X-X:X:X;X:X>X>X,X,X,X,X,X>X,X>X>X>X>X>X>X>X>X>X>X>X,X;X;X;X:X>X>X>X>X>X>X>X,X>X>X:X;X;X:X:X>X>X>X>X>X>X>X>X>X>X",
"%X;X%X;X;X;X;X;X-X:X:X:X:X>X>X,X,X,X,X,X>X>X>X>X>X,X>X,X>X>X>X>X>X,X=X;X%X%X;X>X>X>X>X>X>X>X>X:X:X,X;X%X#X-X:X,X>X>X,X>X>X>X>X>X",
";X;X;X;X;X;X;X#X-X:X:X:X:X,X,X>X,X,X,X,X>X,X>X>X>X>X>X>X,X>X>X,X,X>X;X=X+XoX;X,X>X>X:X>X>X>X:X:X-X-X+X+X#X#X-X>X>X>X,X>X>X,X,X>X",
"%X%X%X%X#X#X#X-X:X,X>X>X,X:X>X>X,X,X,X,X,X,X>X>X,X>X>X>X,X,X:X:X%XoXoX+X$X$X%X;X>X>X,X>X>X:X:X*X#X+X+X+X#X#X#X:X>X>X>X>X>X>X:X>X",
"%X%X*X:X%X%X%X:X>X>X>X>X,X>X,X>X>X>X>X>X,X,X,X,X>X>X>X>X>X>X>X>X>X>X>X>X$X$X$X#X:X:X:X-X-X:X#X:X#X;X#X*X#X%X;X,X,X>X>X>X>X>X>X>X",
"%X%X*X*X*X%X#X*X-X>X>X>X:X>X>X:X,X>X>X>X,X,X,X>X>X>X>X>XK.~ ! Q ! ! R P.&X>X+X$X#X:X:X:X#X#X#X#X#X#X#X#X%X#X;X,X,X>X>X>X>X>X>X>X",
";X%X%X*X*X%X%X;X-X>X-X>X>X>X>X>X>X>X>X>X>X>X>X>X>X>X,XJ                 0 L.:X*X+X#X:X#X*X*X#X+X%X#X#X#X#X#X,X,X,X>X>X>X>X>X>X>X",
"%X%X;X*X:X%X#X#X-X,X>X>X,X>X,X>X>X>X>X>X>X>X>X>X>X>XJ   j w.t.t.t.t.y.B #   D .X#X+X*X*X*X#X*X+X+X#X#X;X;X;X,X,X>X>X>X>X>X,X>X>X",
"*X*X%X%X%X*X%X;X-X,X,X,X>X>X>X>X:X>X>X>X>X>X>X,X>XJ.  M x.M.x.x.x.B.M.N.l.B   i +X+X+X+X*X*X+X#X%X%X;X:X,X>X>X>X>X>X>X>X>X>X>X>X",
"%X;X%X%X%X%X#X*X-X-X,X>X>X>X>X>X>X>X>X>X>X>X-X:X.X> = c.x.z.x.N.M.x.c.k.c.B.<.  D.>X@X+X+X#X*X*X;X;X:X>X>X,X>X>X>X>X>X>X>X>X,X>X",
"*X:X;X%X%X%X#X;X-X,X>X>X>X>X>X>X>X>X>X>X>X:X+X>XI.  >.m.l.M.k.B k 8 = # . # 8   r &X*XOX+X+X*X*X;X:X,X>X>X>X>X>X>X>X>X>X>X>X>X>X",
"*X%X%X%X;X#X;X,X:X,X>X>X>X>X>X>X>X>X>X:X*X+XOX>X^   3.n.z.j.5   X : q V V w q o   u `.:XOX*X:X:X:X,X>X>X>X>X>X>X>X>X,X>X>X>X>X>X",
"*X*X%X;X#X;X,X>X>X:X>X>X>X>X>X>X>X:X:X%X&XOXOX*Xi   r.n.n.,.  a T.E.!. X$X}.}.W.W   > `.:X,X>X>X,X>X>X>X>X>X>X>X,X>X>X>X>X>X>X,X",
"%X%X%X%X,X:X,X,X>X>X>X>X:X>X>X:X:X:X%X+X&X:X>X@X; % i.g.n.k X Y R.E.R..X>X>X>X>X>XA.  S >X=X>X>X,X>X>X,X>X,X>X,X>X>X>X>X>X>X>X>X",
"#X#X%X;X:X>X>X>X>X>X>X>X>X>X:X:X%X%X$X%X[.K.R p   s i.n.n.j X G F.^.R.E./.'.oXOX'.^.9 * =X>X>X>X,X,X,X,X>X>X>X>X>X>X>X,X>X>X>X>X",
":X;X:X:X>X>X>X>X>X>X>X>X>X,X:X;X+X+X*X).e         x i.n.n.j X G W T.E.!.Q.Q.Q.Q.R.T.0 . _.>X>X>X>X>X,X>X>X,X>X>X>X>X>X>X,X>X>X,X",
">X:X>X>X>X>X>X>X>X>X>X>X>X>X:X#X+X$X>X^   M u.:.  v p.g.n.N   G E T C.A.S.A.S.A.C.T o * XX>X>X>X>X,X>X-X>X,X>X,X>X>X>X>X>X,X>X>X",
",X,X:X>X>X>X>X>X>X>X>X>X>X>X:X;X+X$X>XD . x.N.1.  n 6.n.g.e.  0 W E Y I I I Y Y I u   L >X:X>X>X,X,X>X>X>X>X>X>X>X>X>X,X>X>X,X>X",
">X:X>X>X>X>X>X>X>X>X>X>X,X>X>X:X+X+X:Xy = a.0.B   m 5.n.f.n.k   9 Z U T T U A u *   p =X>X>X>X:X>X>X:X>X>X,X>X>X>X>X>X>X>X>X>X>X",
">X>X>X>X>X>X>X:X>X>X>X,X>X>X:X:X+X+X$Xe @ +.{ s   m 7.g.f.g.j.7     X o o X     .   G.>X>X>X:X:X:X:X:X:X>X,X>X>X>X,X>X,X>X>X>X>X",
",X>X,X>X>X>X:X>X>X>X>X,X>X:X>X>X>X*X.X, @ +.=.f   m %.g.g.f.g.f.2.j 5 # - 5 j <.y.. J >X,X>X=X=X=X=X=X-X:X>X>X>X>X>X>X>X>X>X,X>X",
">X>X>X>X>X>X>X>X>X>X>X>X>X>X>X>X>X>X.X; < &.*.f   ) @.b.g.g.g.g.n.n.f.c.c.x.m.N.m.3 a >X:X:X=X=X=X-X-X-X:X>X>X>X>X>X,X>X>X>X>X>X",
">X>X,X>X>X:X>X>X>X>X>X>X>X>X>X>X:X:X].O 2 &.*.f   ) [ p.n.f.g.g.g.f.g.h.x.g.f.f.f.4 r >X=X=X=X=X=X=X#X-X:X>X>X:X>X>X>X>X>X>X>X>X",
",X>X>X>X>X>X>X:X>X>X>X>X>X>X>X:X*X:X_.o 1 &.=.d    .[ 5.n.g.g.f.g.g.g.f.z.g.g.g.s.% e :X-X+X=X#X+X=X#X=X:X:X>X>X>X>X>X>X>X>X>X>X",
">X>X>X,X>X>X>X>X>X:X>X>X>X:X:X;X#X>X_.o 1 +.*.f   _ { $.f.g.g.g.g.g.g.g.x.h.h.g.9.< 9 =X-X+X#X+X+X=X=X=X=X,X>X>X>X,X>X>X>X>X>X>X",
">X>X>X>X:X>X>X>X>X>X:X>X:X:X%X;X#X:X_.o % O.*.d   _ &.' r.n.f.f.f.f.g.g.h.z.x.l.;.< e *X#X#X+X#X#X=X=X=X=X,X>X>X>X>X>X>X,X>X,X>X",
">X>X>X,X>X>X>X>X>X>X>X:X:X%X%X%X$X:X{.; + O.=.f   ) &.] $.f.n.n.g.g.g.g.h.M.M.7.{ @ y :X+X#X-X+X#X=X+X=X,X>X>X>X>X>X>X>X>X,X>X,X",
">X>X>X>X>X:X:X>X:X:X*X*X;X%X;X%X#X#X#Xe . o.=.g   ) &.O.] $.5.a.b.f.f.f.d.r.4.] &.. C :X+X#X+X-X=X-X,X:X:X>X>X>X>X,X>X>X>X>X>X,X",
">X>X>X,X,X,X,X,X=X:X#X#X;X;X%X%X%X%X>XS   X.=.h   n *.O.O.] ' ' O.#.#.@.O.' ' O.O.  K >XoX-X-X-X-X,X,X>X>X>X:X>X>X>X,X>X>X:X;X#X",
">X>X,X,X,X,X,X,X;X*X*X*X#X#X;X%X%X+X>XD.  z =.b   v *.O.O.O.+.&.*.*.| | *.*.O.&.X.  D.>X+X-X-X-X-X-X>X-X>X>X>X>X>X>X>X,X:X:X#X#X",
">X>X>X,X,X,X,X,X;X;X:X#X#X;X%X%X%X+X:X].>   + .   c *.o.O.O.&.v 6 d f c b n O.*.b   Y.>X=X-X:X,X,X,X,X>X:X>X>X>X>X>X>X,X;X;X#X#X",
">X>X>X,X,X,X,X,X;X#X#X#X%X%X%X%X+X$XOX:X).S r e   g *.O.O.O.O.@         . c +.+.2 * XX>X+X:X:X>X,X,X,X>X>X>X>X:X>X,X,X,X:X#X+X#X",
">X>X>X,X,X,X,X,X=X-X+X+X#X+X#X#X#XOX+XOX*X>X*X[.* 6 =.O.] +.o.. a _.P   _ =.O.O.. a >X:X>X>X:X,X,X>X>X>X>X>X>X>X,X>X>X>X:X#X#X#X",
">X,X>X,X,X,X,X,X:X=X=X#X+XOX#XOXOXOXOXOX&XOX+XOX, 2 *.O.O.&.X.  F >X~   ..O.O.O.  S >X=X:X:X>X>X>X>X>X>X>X>X>X>X>X>X>X>X:X#X#X#X",
",X>X>X,X,X,X,X,X:X:X=X+X+X+XOXOXOXOX+X&XOX&XOX*Xi + +.O.] O...  L >X~   X.=.=.o.  K >X+X:X>X:X>X>X>X>X>X>X>X>X,X>X>X>X>X:X-X#X+X",
">X>X,X,X,X,X,X,X:X:X-X+XOXOXOXOX@XOX&XOX&X&X@X>XK   +.&.&.=...  ~ >XI.  2 f d 2   I.>X#X*X>X>X>X>X>X>X>X>X>X>X>X>X>X,X>X>X:X:X;X",
">X>X>X,X,X>X:X,X-X>X:X+X+XOX$X&X@X@XOXOX&XOXOX>XG.  z o.o.n 1   Y.>X>X/     o o J *X%X%X*X,X>X>X>X>X>X>X>X>X>X>X>X>X>X>X>X,X:X;X",
",X>X>X>X>X>X>X>X-X:X:X*X+X+X$X@X@XOX$X$X$X+X$X*X`.9           ~ >X:X>X>X].)._.[.:X:X%X;X#X;X,X>X>X>X>X>X>X>X>X>X>X>X>X,X:X:X:X;X",
">X,X>X,X>X>X-X>X>X:X:X-X+X$X@X@X&X&X$X$XOX+XOXOX*X[.P./ ! D.(.>X>X:X*X+X:X:X:X:X*X*X%X%X#X#X;X,X>X>X>X>X>X>X>X>X>X>X>X,X:X:X$X#X",
">X>X>X>X>X>X>X>X>X>X>X-X+X$XOX@X&X&X$X$X+X$X$X+X&X&X>X>X>X>X>X;X:X*X*X*X+X+X#X$X*X*X%X#X#X#X#X:X,X>X>X,X>X>X>X>X>X>X:X:X#X*X$X$X",
">X>X,X>X>X>X>X>X>X>X>X>X:X;X$X$X&X$X&XOXOXOX+XOX+X&X+XoXOX.X+X%X*X*X&X#X#X*X#X:X*X*X*X%X$X+X+X#X,X,X>X>X>X>X>X>X>X:X#X*X+X&X&X+X",
">X,X>X>X,X>X,X>X>X>X>X>X,X;X+XOX$X$XOXOX$X+XOXOX+X+X$X$X+X+X#X#X*X*X&X*X*X*X%X%X*X*X%X*X*X$X+X+X:X:X>X>X>X>X>X:X:X#X#X+X+X&X&X&X",
">X>X>X>X,X,X,X>X>X>X>X>X:X;X+XOXOX&X$X$X+X+XOX+X&X+X$X$X+X*X*X;X:X*X#X*X*X*X*X#X#X*X$X*X$X$X+XOX+X:X>X>X>X>X>X*X%X$X+X+X+X+X&X&X",
">X,X>X,X>X,X>X>X>X>X>X,X:X#X+XOX&X+XOXOX+X$X+XOX+X$X#X#X*X*X*X;X+X*X*X*X*X*X*X*X$X$X$X*X$X$X$XOXOX*X:X>X>X:X*X*X+X$XOX&X&X&X&X&X",
">X>X>X>X,X>X>X>X:X>X:X;X+X+XOXOXOXOXOXOX#XOX#X&X+X*X+X&X*X*X*X%X*X*X;X%X*X#X#X$X&X+X&X&XOX$XOXOXOX#X#X-X=X+X+X&X+XOX@XOXOXOXOX+X",
">X>X>X>X>X>X>X,X:X:X;X#X+XOXOXOXOX#XOXOXOXOX&X+X+X+X+X*X*X*X*X%X*X*X%X#X$X#X#X$XOXOX@X@X$X+X+X+XOX#X#X-XoXOX&X&XOX$X@X&X&X$X+X&X",
">X>X>X>X>X>X,X,X:X;X$X+X+XOXOXOXOX&X&X&X#X+XOX+X+X*X*X*X*X*X*X%X:X*X%X#X+X+X$X+XOX&X@X&X$X$X#X+X+X+X-X-X=X+X&X&X@X@X$X$X+X&X+X&X",
">X>X,X>X>X,X,X;X$X$X#X$XOX+XOXOXOXOX+X&XOX+X+X+X+X+X*X*X*X*X*X%X#X%X%X$X+X+XOX+X&XOX@X$X$X$X+X+X+X=X:X:X#X+X&X&X@X@X@X$X*X+X+X+X",
">X>X>X>X:X;X;X+X%X$X+X$XOXOX&X+XOXOX$X+X$X%X%X%X*X*X*X*X%X:X%X*X%X#X*X+X+X+XOXOXOX+XOX$X$X$X$X:X,X,X>X>X:X*X*X&X&X$X$X$X*X+X+X*X",
":X>X:X:X;X#X%X+X%X$X+XOX&XOXOXOXOXOX+X+X#X%X;X%X*X*X*X*X*X*X*X%X*X:X*X+X+XOX+XOX$X+XOXOX#X:X:X>X,X,X,X:X>X:X*X&X&X$X%X%X$X+X+X*X",
">X:X:X+X#X$X+X+X+X+XOX$XOXOX&X&XOXOX+X+X%X%X%X;X;X%X;X%X%X*X%X:X*X*X*X*X*X+X+XOX$X$X$X%X:X,X>X>X:X>X>X,X>X:X:X%X*X$X%X%X*X+X*X*X",
">X:X+X+X$X$X$X$XOXOX+X$X+XOXOX#X+X$X$X+X%X%X;X%X;X;X;X;X*X*X*X*X%X*X*X*X+X+X$XOX+X$X#X;X>X>X>X>X,X,X>X>X>X>X:X%X%X$X$X%X%X*X*X*X"
};
