/* XPM */
static char *___1__resized[] = {
/* columns rows colors chars-per-pixel */
"40 40 200 2 ",
"   c #0F0E0F",
".  c #160807",
"X  c #1E040B",
"o  c #1A1A18",
"O  c #240204",
"+  c #2C0605",
"@  c #2A060C",
"#  c #230E0E",
"$  c #38060A",
"%  c #33090C",
"&  c #270411",
"*  c #2A0A14",
"=  c #330914",
"-  c #390817",
";  c #360B1A",
":  c #3C0A1A",
">  c #271318",
",  c #29181B",
"<  c #36151D",
"1  c #361A1A",
"2  c #3E0D22",
"3  c #3A1D25",
"4  c #2A2424",
"5  c #352222",
"6  c #3D272F",
"7  c #3E292B",
"8  c #303129",
"9  c #3F2C32",
"0  c #3D3636",
"q  c #400F11",
"w  c #4A0B11",
"e  c #420A1C",
"r  c #4A0A1E",
"t  c #530B18",
"y  c #4B1113",
"u  c #69070A",
"i  c #7D0507",
"p  c #7B0B0C",
"a  c #670A16",
"s  c #760917",
"d  c #661818",
"f  c #761616",
"g  c #44201F",
"h  c #440C21",
"j  c #4E0A20",
"k  c #550C24",
"l  c #5B0B25",
"z  c #5E0C2A",
"x  c #481828",
"c  c #55152B",
"v  c #670A22",
"b  c #650C2A",
"n  c #6B0C2D",
"m  c #7B0A23",
"M  c #720B2A",
"N  c #670C32",
"B  c #6B0C31",
"V  c #730932",
"C  c #4C232A",
"Z  c #452A2D",
"A  c #462D32",
"S  c #4B2C35",
"D  c #5E2735",
"F  c #49373A",
"G  c #583537",
"H  c #762F2F",
"J  c #6C473C",
"K  c #553A41",
"L  c #6A3143",
"P  c #3E4142",
"I  c #484646",
"U  c #544344",
"Y  c #54494B",
"T  c #5B4C4D",
"R  c #4D514E",
"E  c #52524E",
"W  c #5C4D52",
"Q  c #5B5456",
"!  c #585859",
"~  c #664848",
"^  c #6B5454",
"/  c #66585D",
"(  c #645D60",
")  c #6A5B62",
"_  c #7D5E69",
"`  c #5E6463",
"'  c #646564",
"]  c #696968",
"[  c #6D6D6C",
"{  c #756363",
"}  c #7A6769",
"|  c #77786C",
" . c #7C6C71",
".. c #757876",
"X. c #7C7C7D",
"o. c #860507",
"O. c #8E0304",
"+. c #830409",
"@. c #8C060A",
"#. c #86080A",
"$. c #930305",
"%. c #970406",
"&. c #9C040A",
"*. c #8C071D",
"=. c #86091B",
"-. c #8B0918",
";. c #940616",
":. c #9C0514",
">. c #95061A",
",. c #9D061A",
"<. c #97081A",
"1. c #A40505",
"2. c #AA0509",
"3. c #B20205",
"4. c #BC0304",
"5. c #B3050C",
"6. c #BB0409",
"7. c #A50513",
"8. c #AB0513",
"9. c #B20511",
"0. c #8A0621",
"q. c #810A22",
"w. c #940720",
"e. c #C50304",
"r. c #CB0102",
"t. c #C40308",
"y. c #D10103",
"u. c #805A5B",
"i. c #927D6A",
"p. c #887979",
"a. c #8E907B",
"s. c #96957E",
"d. c #817D80",
"f. c #7E8687",
"g. c #858587",
"h. c #888183",
"j. c #878F8D",
"k. c #8D8C8B",
"l. c #968A8D",
"z. c #8E9389",
"x. c #929583",
"c. c #8D9492",
"v. c #929596",
"b. c #939898",
"n. c #9D9B9B",
"m. c #A0A185",
"M. c #A4A796",
"N. c #BFBD9B",
"B. c #9EA8A7",
"V. c #A1A4A4",
"C. c #AAA7AA",
"Z. c #A9AAA9",
"A. c #B1ADAE",
"S. c #ABB1AE",
"D. c #A8AFB0",
"F. c #ADB4B4",
"G. c #ACB9B8",
"H. c #B4B3B2",
"J. c #B9B9B6",
"K. c #B5B9BA",
"L. c #BCBDBD",
"P. c #C6C7A5",
"I. c #D7DCB7",
"U. c #B8BFC1",
"Y. c #BAC4C5",
"T. c #C1C4C6",
"R. c #C5C6C6",
"E. c #C5CBCC",
"W. c #CBCBCC",
"Q. c #D0D0CF",
"!. c #C7D3D4",
"~. c #CAD3D3",
"^. c #CEDBDC",
"/. c #D1D4D4",
"(. c #D2D8D7",
"). c #D4DADB",
"_. c #DBDEDF",
"`. c #E7E9C6",
"'. c #F0EFC3",
"]. c #FFFFCF",
"[. c #DBDEE0",
"{. c #D7E2E2",
"}. c #DCE3E3",
"|. c #DDEAEA",
" X c #E2E3E3",
".X c #E4E7E8",
"XX c #E3ECEC",
"oX c #EAECEC",
"OX c #E8F0EF",
"+X c #EAEFF0",
"@X c #E7F5F5",
"#X c #EAF6F6",
"$X c #E7F8F7",
"%X c #ECF8F7",
"&X c #EDF7F8",
"*X c #ECF8F9",
"=X c #F2F6F6",
"-X c #F1F7F8",
";X c #F4F9FA",
":X c #FAFAFB",
/* pixels */
"%X#X&X&X-X-X-X:X:X;X:XoX XW.Z.! I (.=X:X:X:X:X=X%X#X&X#X&X&X%X-X;X:X-X%X%X-X%X:X",
"-X&X&X&X&X-X-X;XoXL.h.T A 1 # @ % | z.C._.:X:X=X%X-X&X&X&X-X;X-X;X:X:X-X*X;X*X:X",
"%X&X&X&X&X;X+XA.^ d o.%.1.1.1.2.%.i.I.m.| z.~.&X-X%X%X%X%X:X;X;X:X:X:X;X;X;X;X:X",
";X&X;X&X;X[.u.d &.t.r.r.y.y.r.r.2.J '.].`.M.! X.).-X;X;X:X:X:X:X:X:X:X;X:X;X;X:X",
"-X%X=X=XR.K o.t.r.r.r.r.r.r.r.r.6.d N.N.s.x.M.F./.=X:X:X:X:X:X:X:X:X;X:X;X:X:X;X",
"%X=X:XW.G +.t.r.r.r.r.r.r.r.r.r.e.u 8 ] L.oX;X;X-X=X:X:X;X:X:X:X:X:X-X%X=X;X;X;X",
"-X;X}.~ o.t.y.r.r.r.r.r.r.r.r.e.e.i   g.=X:X=X%X&X-X:X:X:X:X:X:X:X-X=X%X%X=X-X-X",
";X;Xp.s t.r.r.r.r.r.r.r.r.r.r.e.y.O.T ] [ }.*X$X*X-X=X:X:X:X;X:X;X%X%X%X%X=X-X;X",
";X/.D :.r.r.r.r.r.r.r.r.r.r.r.r.r.O.p.@Xc.` ^.$X*X*X-X;X;X;X;X&X&X&X&X&X&X-X-X-X",
";Xl.v 8.r.r.r.r.r.r.r.r.r.r.r.r.r.o.p.XXD.R f.@X$X#X&X&X;X-X&X&X=X&X&X-X-X=X-X%X",
"#X) b 7.e.r.r.r.r.r.r.r.r.r.r.r.r.o.Q ..j.!.|.$X$X#X#X&X-X&X&X&X&X&X&X-X=X-X-X-X",
"}.G b ;.e.r.r.r.r.r.r.r.r.r.r.r.r.#.4 F.$X$X$X$X$X$X#X#X%X&X&X&X&X&X=X-X;X:X:X;X",
").S b 0.6.r.r.r.r.r.r.r.r.r.r.r.r.p R z.{.$X$X$X$X$X$X$X*X*X*X%X=X=X=X:X:X:X;X&X",
"(.Z v m 8.r.r.r.r.r.r.r.r.r.r.r.r.p B.B.f.$X$X$X*X*X*X$X*X#X%X%X;X;X;X:X:X:X;X;X",
").7 k n -.4.r.y.r.r.e.r.r.r.r.r.e.u ' ` G.$X$X|.!.Y.B...` ' b.=X:X;X:X:X:X:X;X;X",
"}.F r n M <.6.r.r.r.r.r.r.r.r.r.4.w o G.$X^.b.I 4     P X.V./.;X;X:X:X:X:X:X;X-X",
"=X' @ n n V *.5.r.r.r.r.r.r.r.y.&.1 R z.[ Z $ % , Q D..X;XoX=X:X:X=XJ.oX:X:X;X;X",
":XK.> r B n n *.9.r.y.r.r.r.r.e.u o 0 @ O = C ..Y.@X;X:X.X! L.:X:XH.E n.:X:X;X&X",
":X=Xk.> e b n n M ,.6.e.r.r.y.2.+ + u a 5 4 U.*X~.G.-X=Xn...n.:XQ.| I.a.S.:X;X&X",
":X:X=XH.Y < r z B M q.<.8.5.4.u . p p ~ E.[ b.v.Q [ v.v.J. X[ /...M.P.s.I P.;X;X",
";X:X:X:XoXH./ & ; h h k t a M t $ $ + U } U > . F / # 5 { { 5 7 1 g q y w ) ;X;X",
":X:X:X:X:X:XA.< e = # X X # & - =.o.o.%.$.%.%.%.$.O.$.$.$.O.$.$.&.:.>.>.=.G  X:X",
":X:X:X:X:X:XC.h m m b z c r : @ $ t :.6.r.r.r.y.r.r.r.r.r.r.r.r.t.r.t.t.6.d E.;X",
"=X:X:X:X:X:XT., a ,.w.m m n b z = ; n -.4.r.r.r.r.r.r.r.r.e.r.r.r.y.r.r.t.a P.:X",
"=X:X:X:X;X:XXX] x t s >.a r n n e : B M >.6.r.r.r.r.r.r.r.r.r.r.r.r.r.r.r.p J.:X",
":X=X;X:X;X%X#X@XY.k.T C = r n n : - B B M =.5.r.r.r.e.r.r.r.r.r.r.e.r.r.r.p H.:X",
"-X:X*X;X-X&X-X&X%X;X@X~.h.c V n : : N n B B m 8.t.r.y.r.r.r.r.e.r.r.r.r.e.p L.:X",
"=X-X-X%X&X&X-X&X&X&X#X;X[.L n n : ; n b B B B M <.5.t.e.r.r.r.r.r.r.r.r.e.f R.:X",
"-X-X-X-X-X&X-X&X&X&X&X$X+X_ l n : ; N n n n n n n m -.;.,.7.>.#.@.5.e.r.t.f /.:X",
";X-X&X-X&X&X&X$X$X$X#X#X&Xn.e b j ; N n n n B b n B N N z : @ = b q.6.r.4.H  X;X",
";X=X&X#X&X$X&X#X#X@X#X#X%X[.( F 3 * b n B n n n n V b j S ! , j B M 8.r.3.J XX%X",
";X;X=X#X$X#X@X#X@X#X@X$X$X$X|.[.Y.6 b B n n n n n n l p.).{.9 k B M 8.y.2.u.;X*X",
"-X;X=X#X#X$X@X@X#X@X@X$X#X@X*X%X|.0 z B B n n n n V k C.;X.XK k N n ,.y.%.p.=X;X",
"-X;X-X-X#X$X$X$X$X$X$X@X#X#X*X*X|.K z N B n n n n n c Y.-X+XQ z B n 0.6.+.l.:X-X",
"-X;X;X=X#X@X$X$X$X$X$X$X$X#X$X#XOXQ k n n n n n n b K ^.&X&X .z n B M =.y H.:X;X",
"-X:X;X-X%X@X$X$X*X$X$X*X$X#X#X#X@X/ k n n n B n n l Y XX&X&Xk.k n n B b x /.:X:X",
"-X:X:X;X%X$X@X$X$X$X$X$X$X#X#X#X*XX.j B n n n n n j ( *X&X&XC.c n n N k K .X:X;X",
"=X:X:X:X;X%X@X$X*X$X$X$X$X$X#X#X$XV.: b B n n n n j d.-X&X;XE.c b b z -  .:X;X&X",
"-X:X:X:X;X=X$X*X$X$X$X#X$X#X#X$X&X[.T c k k l l k 2 V.&X*X*X{.W C C A W E.:X;X-X",
";X:X;X-X#X#X#X#X#X#X#X&X&X#X#X&X&X&X[.U.d.) ) ) ) X.).$X*X$X$X^.E.!.(.+X;X=X-X:X"
};
