/* XPM */
static char *p_resized[] = {
/* columns rows colors chars-per-pixel */
"65 65 226 2 ",
"   c #010000",
".  c #0C0203",
"X  c #060809",
"o  c #130103",
"O  c #1D0102",
"+  c #1B030A",
"@  c #170A0C",
"#  c #1C0B12",
"$  c #151413",
"%  c #1B1413",
"&  c #1A1A1A",
"*  c #230002",
"=  c #2C0103",
"-  c #24040C",
";  c #2C010B",
":  c #24090C",
">  c #2F080F",
",  c #340307",
"<  c #3C0103",
"1  c #3B020C",
"2  c #35050A",
"3  c #30110F",
"4  c #250513",
"5  c #2C0A13",
"6  c #280713",
"7  c #330313",
"8  c #3C0214",
"9  c #340B14",
"0  c #3B0B1C",
"q  c #35091A",
"w  c #22181B",
"e  c #35151A",
"r  c #29221F",
"t  c #211D20",
"y  c #3D1524",
"u  c #1E2D27",
"i  c #2A2826",
"p  c #34292A",
"a  c #29332D",
"s  c #32312F",
"d  c #373737",
"f  c #460006",
"g  c #4B0002",
"h  c #43010A",
"j  c #4D0009",
"k  c #530202",
"l  c #5B0000",
"z  c #5B0009",
"x  c #430014",
"c  c #4C041B",
"v  c #4A091D",
"b  c #430A1A",
"n  c #550918",
"m  c #4F1111",
"M  c #531718",
"N  c #660000",
"B  c #6B0002",
"V  c #63090D",
"C  c #740001",
"Z  c #7B0101",
"A  c #7B0609",
"S  c #7A0709",
"D  c #7B091B",
"F  c #690813",
"G  c #4B0D24",
"H  c #450F24",
"J  c #5D0A25",
"K  c #5F0E2A",
"L  c #590724",
"P  c #461425",
"I  c #581128",
"U  c #580C33",
"Y  c #660D2C",
"T  c #6B0C2D",
"R  c #680A26",
"E  c #730925",
"W  c #7B0A24",
"Q  c #730B2D",
"!  c #780724",
"~  c #64122D",
"^  c #651127",
"/  c #6C0D31",
"(  c #680C35",
")  c #720C32",
"_  c #7D0F36",
"`  c #6C1132",
"'  c #681435",
"]  c #731233",
"[  c #711837",
"{  c #791326",
"}  c #423B3C",
"|  c #54333A",
" . c #402D26",
".. c #3E423B",
"X. c #424339",
"o. c #5A3743",
"O. c #434241",
"+. c #464B4A",
"@. c #4A4B4A",
"#. c #4B4847",
"$. c #54494C",
"%. c #4B504A",
"&. c #57564B",
"*. c #555453",
"=. c #5B5353",
"-. c #5B5E5C",
";. c #5A5958",
":. c #4D5251",
">. c #64575A",
",. c #5E605D",
"<. c #60634F",
"1. c #67675C",
"2. c #70725B",
"3. c #5C6060",
"4. c #646463",
"5. c #646B69",
"6. c #6B6C6B",
"7. c #6A6A66",
"8. c #756D6E",
"9. c #717372",
"0. c #7A7B7A",
"q. c #757967",
"w. c #830102",
"e. c #8D0203",
"r. c #8C0609",
"t. c #8A0A0D",
"y. c #85090C",
"u. c #95040C",
"i. c #930509",
"p. c #8C081C",
"a. c #890819",
"s. c #990614",
"d. c #9B0A13",
"f. c #91091E",
"g. c #970818",
"h. c #AD090D",
"j. c #AC0409",
"k. c #BC0606",
"l. c #B5050C",
"z. c #BB040A",
"x. c #B1090C",
"c. c #A30513",
"v. c #A2071C",
"b. c #AD0718",
"n. c #BB0915",
"m. c #A31013",
"M. c #840525",
"N. c #970B21",
"B. c #861320",
"V. c #AD0E2C",
"C. c #C50302",
"Z. c #CB0102",
"A. c #C4040A",
"S. c #CB0509",
"D. c #C6090B",
"F. c #D30304",
"G. c #D3060A",
"H. c #D4090A",
"J. c #DC0407",
"K. c #E10507",
"L. c #817C7F",
"P. c #878673",
"I. c #94977F",
"U. c #7F7B80",
"Y. c #7C8381",
"T. c #898C8C",
"R. c #868686",
"E. c #95968A",
"W. c #8D9593",
"Q. c #8D9A97",
"!. c #909292",
"~. c #959B9B",
"^. c #9A9A9B",
"/. c #939799",
"(. c #ADB296",
"). c #9DA4A3",
"_. c #9BA3A4",
"`. c #A4A8A6",
"'. c #A4ABAB",
"]. c #A8A8A9",
"[. c #ABB3B3",
"{. c #ACB7BA",
"}. c #B4BCBB",
"|. c #B4B7B7",
" X c #C2CBB2",
".X c #D8D8B6",
"XX c #E4E5BF",
"oX c #BBBFC0",
"OX c #C2BFC0",
"+X c #B7C3C2",
"@X c #BCC3C3",
"#X c #BEC8C9",
"$X c #CBCBCC",
"%X c #C2C6C6",
"&X c #CAD6D5",
"*X c #D2D5D5",
"=X c #D3DBDB",
"-X c #D7DADB",
";X c #DCE0C2",
":X c #FFFFC9",
">X c #FFFFD8",
",X c #F2EDC4",
"<X c #DCE4E4",
"1X c #DAE7E7",
"2X c #E2E5E4",
"3X c #E3ECEC",
"4X c #ECEDEE",
"5X c #E6E6E8",
"6X c #F0EFEF",
"7X c #FFFFE3",
"8X c #FFFFED",
"9X c #E7F6F6",
"0X c #EAF6F6",
"qX c #E6F8F7",
"wX c #EDF8F7",
"eX c #EDF7F9",
"rX c #E7F8F8",
"tX c #ECF8F9",
"yX c #F3F6F6",
"uX c #F8F7F7",
"iX c #F3F8F7",
"pX c #F1F7F9",
"aX c #FAF7FB",
"sX c #F4F9FA",
"dX c #FAFAFB",
"fX c #E9EFF0",
/* pixels */
"dXdXdXdXdXiXtXtXeXwX0X0XpXaXaXaXaXdXdXiXdXdXdXuXdXdXaXaXdXuXuXsXuXuXuXdXdXuXsXdXdXdXdXsXsXdXdXdXaXaXdXaXdXdXdXsXsXsXsXtXtXiXtXtXwX",
"dXdXdXiXsXpXtX0XwX9X0XwXwXyXsXaXaXpXsXuXuXdXdXsXsXiXdXuXdXdXdXdXdXdXsXdXaXaXuXdXdXsXiXiXsXsXsXdXaXdXdXdXdXdXdXsXsXeXeXiXtXtXeXeXwX",
"sXdXsXwXpXeXwX9X9XwX9X0XwXpXsXaXdXdXsXyXsXdXuXdXsXsXsXdXsXsXdXdXdXdXsXsXdXdXdXdXsXsXpXeXiXiXsXdXaXdXdXdXdXsXsXsXpXpXtXtXtXtXtXpXiX",
"sXiXpXeX9X9X9XqX9X9X9XwX9XeXiXdXyXsXdXpXyXdXuXdXuXuXdXuXuXuXdXdXuXdXdXuXuXdXdXuXsXyXeXeXeXtXiXsXdXdXdXdXdXsXeXeXtXtXeXeXiXtXtXpXdX",
"rXrXwXwX9X9X0XqX9X9X0X0XpXeXyXpXeXsXdXyXuXsXdXdXuXdXdXuXsXdXdXsXdXaXdXdXdXsXsXiXyXeXeXeXeXeXeXiXdXdXdXsXsXtXpXeXtXiXeXeXtXeXpXsXuX",
"tXtX9XqX9X9XrXrXqX9X0X0XwXyXyXpXaXdXsXdXuXdXaXdXuXsXdXdXdXiXdXdXdXdXdXdXdXdXwXiXeXyXeXeXtXeXeXiXsXsXdXeXsXtXeXsXtXtXeXeXeXpXsXsXuX",
"rXqXqXqX0X0XrXrX0X0XeXeXeXyXpXpXdXyXsXdXiXiXdXdXdXdXdX$X6XdXdXdXuXdXdXsXyXyXwXwXwXeXwXtXtXtXiXiXsXsXiXeXtXeXeXeXtXeXeXeXeXsXsXdXdX",
"qXqXqXqXqXrXrX0X0X0XeXeXeXeXpXpXdXsXyXdXdXdXiX4X$X].R.  -.yXdXdXdXuXuXsXyXyXwXwXeXwXwXeXiXtXtXiXsXdXiXsXtXeXsXeXeXpXeXeXsXsXsXdXdX",
"9X9X9X9XtXtXeXeXeXeXeXeXeXeXpXyXiXdXdX=X~.;.i t .     = : q.7.^.5XdXdXdXtXtXeXsXrX0XeXeXeXtXsXsXsXdXdXsXtXtXtXtXeXyXpXsXyXdXdXdXdX",
"9X9XeX9X0XeXeXeXeXeXeXeXpXeXeXsXdX%X4.3 g N C w.t.t.S h.B (..X2.X.8.*XdXdX0XtXeXtXeXeXpXiXiXsXsXdXdXdXsXdXsXsXtXiXdXsXaXdXdXdXdXdX",
"0X0XeX9XtXeXeXeXpXpXeXeXpXyXdX<X4., B l.H.H.F.J.F.F.F.K.Z 1.7X>XXXP.X.-.@XdXdXtXqXyXpXsXsXdXdXdXdXdXdXsXsXsXsXdXdXdXdXdXaXdXaXdXuX",
"eXeXeXeXeXeXeXeXeXeXeXpXwXdX|.e B z.G.F.C.Z.Z.Z.Z.F.k.F.i. .,X:X7X8X;X1.& 6.=XdXyXsXdXdXdXdXdXdXdXdXdXdXsXsXsXdXdXdXdXdXuXdXdXdXdX",
"0XeXeXeXeXeXpXpXwXyXiXsXdXT.O i.H.Z.C.Z.Z.Z.Z.Z.Z.F.C.Z.k.2  X.Xq.<.7.`.-X-X<XsXaXsXdXdXuXdXaXaXdXdXsXsXiXsXdXuXdXdXdXuXsXuXdXdXdX",
"eXeXyXeXeXpXpXpXiXsXwXdXT.* u.S.C.Z.Z.Z.Z.Z.Z.Z.Z.Z.F.Z.C.k a r 8.$XdXdXdXdXdXiXdXdXdXuXdXdXaXdXsXdXsXiXiXiXiXdXdXdXdXuXsXuXdXdXdX",
"pX6XeXeXpXeXeXtXiXwXdX].= d.H.F.Z.Z.Z.Z.Z.Z.Z.Z.Z.Z.Z.C.S.S   9.dXdXdXwXrXtXpXsXdXdXdXdXdXdXuXsXsXyXiXwXwXyXiXsXuXdXdXdXdXdXdXaXdX",
"pXeXpXpXpXeXpXiXiXdX-X9 u.S.C.Z.Z.Z.Z.Z.Z.Z.Z.Z.Z.Z.C.C.F.w.$ % 4.dXdXwXtXrXeXiXaXdXdXdXdXdXdXdXiXyXwXwXwXwXiXsXdXdXdXdXaXdXdXdXdX",
"pXeXeXpXeXeXeXpXdXdX>.z n.Z.F.C.C.Z.Z.Z.Z.Z.Z.Z.Z.Z.C.C.F.w.>.2Xa a 3XtX9XrX0XeXsXsXdXsXsXdXiXiXiXtXtXeXeXwXwXyXsXdXaXaXdXdXdXaXdX",
"eXeXpXeXpXeXpXeXdXOXH f.S.Z.Z.Z.Z.Z.Z.Z.Z.Z.Z.Z.Z.Z.Z.Z.F.w.=.dXsX0.d 1XtXrXtXeXtXdXsXsXsXiXtXyXeXtXtXtXeXwXyXyXyXdXaXaXdXdXdXdXaX",
"eXeXeXeXpXeXeXeXdX8.c N.Z.Z.Z.Z.Z.Z.Z.Z.Z.Z.Z.Z.Z.Z.Z.Z.F.Z =.dXtX#X$ d 3XtXrX0XeXtXsXsXeXeXtXpXeXeXiXtXeXyXyXeXsXdXdXaXdXdXdXdXdX",
"eXeXeXpXpXeXeXpXpX| J g.C.Z.Z.Z.Z.Z.Z.Z.Z.Z.Z.Z.Z.Z.Z.Z.F.Z -.&X..*.+X&X3XtX0X0X0XeXtXiXtXtXiXwXwXeXpXtXyXyXwXpXdXdXdXdXdXdXaXdXaX",
"eXeXeXeXeXpXeXaX*Xe ~ a.k.Z.Z.Z.Z.Z.Z.Z.Z.Z.Z.Z.Z.Z.Z.C.F.A & +._.dXtXtXrXrXrXrX0XwXwXwXwXeXiXtXwXwXeXpXiXiXaXaXdXiXuXdXdXdXaXdXdX",
"eXeXeXpXeXeX0XdX@X; ` M.h.Z.Z.Z.Z.Z.Z.Z.Z.Z.Z.Z.Z.Z.Z.Z.F.S   '.dX9XqXrX9XrXrXrX0XrXwXwXtXtXtXtXwXyXiXiXsXdXdXdXdXdXdXdXiXdXaXaXdX",
"pXeXeXeXeXpXeXdX[.* ` ! c.F.Z.Z.Z.Z.Z.Z.Z.Z.Z.Z.Z.Z.Z.Z.F.N +.4._.dXqX9X9XqXrXrXrXrX9X9XrXwXyXtXwXwXpXiXdXdXdXdXdXdXdXdXdXdXuXdXuX",
"eXeXeXpXeXpXeXdX[.* / T s.A.Z.C.Z.Z.Z.Z.Z.Z.Z.Z.Z.Z.Z.Z.G.l Q.dX+.'.dX9X9X9X9XqXrXtXsXdXdXdXtXeXiXaXaXdXdXaXdXdXdXuXuXdXsXuXuXdXaX",
"eXeXeXpXyXpXyXdX[.* ~ T D h.Z.Z.Z.Z.Z.Z.Z.Z.Z.Z.Z.Z.Z.Z.H.g Q.}.a {.tXrXtXdXdXsXtX1X+X[.).'.fXdXyXsXdXdXdXdXdXdXuXsXdXdXdXdXsXuXdX",
"pXeXeXpXpXsXuXdX}.o I Q ~ a.k.Z.F.Z.Z.Z.Z.Z.Z.Z.C.Z.Z.C.D.h r & }.dXtXdX&XQ.5.3...X   X & ;.3XdXdXdXyXdXdXdXuXdXdXsXuXuXdXuXsXdXdX",
"eXeXeXpXsXsXdXdX*XX H Q T Q M.h.Z.Z.Z.Z.Z.Z.Z.Z.Z.Z.Z.Z.c.*   +XdX9X+X4.% o       +.).-XiXdXdXdXdXiXdXdXuXdXuXdXuXdXdXsXdXdXdXuXsX",
"pXpXpXsXsXdXdXdXdXs O ` / ) ) M.l.C.Z.Z.Z.Z.Z.Z.Z.Z.Z.G.C i 1.9.W.s O < h * % 3.%XdXdXdX4X4XdXdXdXdX|.*XdXuXdXdXdXuXuXdXdXdXdXdXsX",
"sXsXyXsXdXdXdXuXdX/.  G ~ ) / Y M.c.S.F.Z.Z.Z.Z.Z.Z.Z.D.f u 5.  o * m < p Y.=XsXdXpXpXdXs [.dXiXdX-X% @.dXdXdXdXdXdXsXsXuXdXuXdXdX",
"dXdXdXdXdXsXdXuXdXdX*.  v ' T Y T ! f.z.F.Z.Z.Z.Z.Z.F.t.o   * D n . @ T.1XdXdXeXdXyXdXR.& T.dXdXdXd (.E.4.dXdXdXdXdXuXsXuXdXdXdXuX",
"dXyXdXdXdXdXdXdXdXdXuX7.. ; ~ _ / K T W s.l.A.Z.Z.F.S.1 o S n.C r P.% 1XdX=X:.O.4XdXR.E.5X$.dXdX2.I.7X7X<.!.dXdXdXdXuXdXuXsXuXdXdX",
"dXsXdXdXdXdXdXaXdXdXdXdX|.X.o ; I ( / ) Q M.f.c.h.x.y.  O m.S i <XdX5.:.'.X 0.^.+.R.8.dXdXO.).`.%. XE.P.=.X |.dXuXuXsXdXdXdXdXsXdX",
"dXdXdXdXsXdXdXdXdXdXdXuXdXdX%X6.o - q H P G I K T R ^ c * O . i *.@.}       ;.>.    o.*.*.w X @ : O * , f j $.dXdXdXaXaXyXdXdXdXdX",
"dXdXdXdXuXuXdXuXdXuXdXuXdXdXdX5X: 9 4 o . . . . o 4 5 { g.y.w.e.Z Z w.i.r.r.Z Z r.t.B C Z w.i.i.u.m.f.f.N.D e 3XdXdXdXaXdXdXdXdXdX",
"uXdXuXdXuXdXdXsXdXdXdXdXdXdXdX%X6 ' W Q U G b 9 > : . 2 V g.b.D.J.G.G.Z.F.Z.G.F.F.Z.G.H.F.S.Z.C.A.z.k.l.l.d., }.dXdXdXdXdXdXdXdXdX",
"dXdXdXdXdXdXdXuXdXsXdXdXdXuXdX*X# K d.a.Q T Q Q Q ~ H 5 . 0 ! u.k.Z.Z.Z.Z.Z.Z.Z.Z.Z.C.Z.C.Z.Z.Z.Z.Z.F.Z.F.H.g `.dXdXdXdXdXdXaXdXdX",
"dXdXdXdXdXdXsXdXuXdXdXuXdXsXdXiXt ; B.b.b.N.! Q T T T ` - e ( R u.Z.Z.Z.Z.Z.Z.Z.Z.Z.Z.Z.Z.C.Z.Z.Z.F.Z.C.Z.G.l ~.dXuXdXaXaXdXdXdXdX",
"8XdXdXdXdXdXuXdXdXdXdXdXsXsXiXdX~.& 7 h F v.V.n b ^ E ` ; 0 / / E s.A.Z.C.C.Z.Z.Z.Z.Z.Z.Z.Z.C.Z.Z.Z.Z.Z.Z.F.B T.dXuXaXaXdXaXdXdXdX",
"dXdXuXdXdXuXsXdXsXdXdXsXaXeXpXeXdX1X/.*.w = j O n Q T T 4 0 / ) / E p.k.F.F.Z.Z.C.Z.Z.Z.Z.Z.Z.C.Z.Z.Z.Z.Z.F.B R.dXdXaXdXdXdXuXdXdX",
"sXuXdXdXsXsXdXdXsXsXdXiXpXpXeXeXtXsXdXdX1X{.3.t K Q T Y - 0 / Q ` ) T a.l.S.Z.Z.Z.Z.Z.Z.Z.Z.Z.C.C.Z.Z.Z.Z.F.N W.dXaXaXdXdXdXiXdXdX",
"sXuXdXuXuXuXdXdXsXiXsXiXeXpXpXeXtXtX9XwXsXdXdX].c ` T ^ + 0 / T ( ) / Y ! c.A.Z.Z.Z.Z.Z.Z.Z.Z.Z.Z.Z.Z.Z.Z.F.N `.dXdXdXdXdXaXpXsXiX",
"dXdXdXdXdXsXwXdXiXpXeXtXeXeXeXpXpXtXtXtXwX0XsX$XL T T ~ + 0 T T ( Y Y ( / E p.b.z.C.C.S.F.G.F.S.Z.F.Z.Z.Z.F.l [.dXdXdXdXdXdXsXwXtX",
"dXaXdXdXdXsXiXdXyXeXpXeXpXeXeXpXpXeXtXtXtXwXrXtXo.R T T 4 e / / Y T T T T ( R ! a.a.s.s.v.g.t.S u.x.C.Z.Z.S.k }.dXdXdXdXsXiXpXeXtX",
"dXaXdXuXiXiXiXsXyXeXyXpXeXeXeXtXtXeXrXeX9X9X9XdX0.8 [ _ 9 9 ` / / T T T T T T ( ( ( ) ` H 7 O q ~ W l.Z.Z.k.M -XdXdXdXdXsXpXyXwXtX",
"dXdXdXuXsXdXsXsXiXiXeXeXeXtXtXeX0X0X0X0X9X9XwXdX#X# ; x + 5 ( T T T T T T / ) ) ( ( G - @ . 9 ~ T E c.Z.Z.j.M 4XdXdXdXdXdXiXtXtXtX",
"dXuXdXdXuXsXiXdXdXpXwXwXwXeX9X9XqXrX0X9XwX9X0X0XtX}.0.6.d 4 / T / T / T T T T T T b  .R.=Xp 0 ) / T v.S.Z.j.| uXdXyXdXdXdXyXiXtXeX",
"uXsXuXsXsXiXyXdXdXpXyXeXwXwX0X9X9X9X9X0X9X0XqX0X9XdXdXdX=X+ T T T T T T / T T ) L o.yXdXdXs 8 ] T T s.Z.F.e.>.dXaXdXdXdXdXdXsXeXtX",
"uXdXdXsXpXyXyXsXyXyXwXwXwX9X9X9X0X9X9X0X9X9X9X9XqX9XqXsX&X@ T / T / T T T T T ) c >.dX0XsXO.8 ] Y T N.S.K.C 8.dXuXdXdXdXdXdXsXiXiX",
"dXsXsXuXdXdXuXuXdXdXsXtXqX9XqXqXrXeX9XeX9XqX0XrX0XeX0XeX=X& J / T T T T T T T ) x U.dXfXdX4.8 ] T T ! z.J.l T.dXdXdXdXuXdXdXiXiXiX",
"dXdXsXdXdXuXdXdXsXiXiXiXwX9X9XwXrXrXrXrXrXrXrX0X0X0XrXeX9Xi L / T ) T T T T T ) 7 _.dX0XdXL.8 ] T ( ) y.h.< [.dXuXdXdXdXdXdXsXsXiX",
"dXdXuXdXdXsXdXuXdXdXiXiXwX9X9X9XrXrXrXrX0X0XrX0XwXeXrX0XeXd c Q T T / T T ~ T T 6 @XdX9XdX`.8 ) T T T ) R - -XdXdXdXdXuXdXsXtXrXtX",
"aXdXdXuXuXdXdXuXiXdXiXiXyXwXwX9XrXtXrXrXrXrX0X0X9X9X9X0XeX} c ) Y T T T T T Q Y # =XdX9XdX}.q ` T T T ) c p yXdXuXdXdXdXsXsXtXrXrX",
"uXuXdXsXuXdXdXsXdXdXsXdXiXtX0XrXrXtXrXtXrXrXrX0X9XwX0XfXdX4.1 ` T T T T T T T v s 9XeXeXsX=XP Y T T / / 7 $.dXdXdXdXsXsXtXtXtX0XrX",
"sXdXuXdXuXuXdXdXdXdXsXsXsXiX0X0XrXrXrXrX0X0X9X9XwX9X0X9XdXT.; [ Q T T T Y T ] 8 #.dXeX0XrX9Xo.Y ) / ` [ * !.dXyXdXsXiXeXiXrXrXrXrX",
"dXuXdXdXsXdXdXdXdXdXsXdXdXpX0X0X0XrXrXrXrXrX0XeX0X0X0X0XsX#Xo c R / / ] ] ) [ 8 9.dX0XeX9XsX>., c x 8 * # -XdXdXiXrX0XtXtXrXrX0XrX",
"uXdXsXuXdXuXdXuXdXdXaXdXsXeXeX0XrXrXtX0XrXtX0X0XeXeX0X9XtXtX!.$.y 7 1 1 x 8 8 O ~.dX9X0XrXsX[.:.=.;.>.0.$XdXdXsXtXrX0X0XtXrX0XrXrX",
"dXyXdXdXaXdXdXsXdXdXaXpXtX0X0X0X9X9X0X9X9XeXeX0XtXtXrXeXeXeXdXdX1X{._.~.~.~.^.}.9X9XeX0XrX0XeXsXsXdXdXdXdXpXeX0X0X0X0XrX0XrXrXrXtX",
"sXdXaXaXaXdXdXaXsXiXpXeX0X0X9XqX0X9X9X0X9X0XeX0XeXeXeXtXeXeXrXeXdXdXdXdXdXdXdXdX0X9X0XrXrXrXrX0XqX9XtXeXeXtX9X9XrXrX9XqXrXrXrXrXtX",
"sXdXdXdXdXaXaXaXiXtXrXeX0X9X9X9X0X9X0X9X0X9XwXeXeXeXeXtXeXeXeXpXtXeX0X0X0X0XqX9X9X9XrX0XrXrX0XeXrXtXeXpXiXtXqXrXrXqXqXqXtX0X0X0XeX",
"dXdXdXdXdXsXaXpXtX0XrXeX9X0X9X0X9X9X0X9X9XeXeXeXeX0XeXtXtXeXeXeXtXtX9XeX0XeX9XqXqXrXrX0XrXrX0X0XwXpXpXsXsXeX0XrXrXrXrXrXrX0X0XrXtX",
"dXdXdXdXaXsXtXtXeXeXrX9X0X0XqX9X9X0X0X0X0XtXeXeXeXeXwXeXeXeXpXeXeXeXpXeX0X0X0X0X9X9X9X0XrX0X9XwXdXaXpXdXdXsXeXrXrXrXrXrXrX0X0XeXtX",
"dXsXiXsXpXeXtXtXeX9XeXeXtX0X0X9X9XeX9XeXeXeXtXeXeXtXeXeXeXpXeXeXpXeXeXeX0XeX0X9XqXqX9X9X0XeXpXpXdXaXdXdXdXsXpXtXrXrXrXeXeXeXrXeXeX",
"dXsXsXtXeXeXrXtXeXeXrXrX0XrX0X0X9X9X9XeXeXeXpXpXpXpXpXpXpXeXpXeXeXeXeXeXeXeX0X0XrXrX0X0XeXyXdXdXdXyXaXiXdXdXsXsX0XrXeXeXeXtXtXtXeX",
"dXiXeXtXrXrXrXtX9X9X0XrX0X0X0XrXeX9X9XeXeXeXeXpXpXyXeXpXeXeXeXeXeXeXeXeXeXeXwX0X0X0XrXtXsXdXdXdXdXaXdXaXdXdXdXsXtXrXeXeXeXtXsXtXtX",
"pXpXpX0X0XrXrXrXqX9X9X0X0XrX0XrXrXrXrX0X0XeX0XeXpXsXpXeXeXeXeXpXeXeXeXeXeXeXeXeXtXrXeXdXdXdXdXdXdXaXdXaXaXdXsXsXtXtXtXeXeXeXeXeXeX"
};
