/* XPM */
static char *Design_sem_nome__3__resized[] = {
/* columns rows colors chars-per-pixel */
"64 64 190 2 ",
"   c #020202",
".  c #0B0504",
"X  c #0D0806",
"o  c #060708",
"O  c #070809",
"+  c #0A0C0C",
"@  c #110704",
"#  c #150A06",
"$  c #1A0D07",
"%  c #1D0D08",
"&  c #0B100E",
"*  c #1D1108",
"=  c #0B0F10",
"-  c #0F1313",
";  c #111414",
":  c #161817",
">  c #111618",
",  c #171A1C",
"<  c #1A1C1D",
"1  c #210F08",
"2  c #251209",
"3  c #2A1209",
"4  c #2B1809",
"5  c #33150B",
"6  c #38170C",
"7  c #371C0B",
"8  c #391B0C",
"9  c #1A281C",
"0  c #3B200C",
"q  c #1C2122",
"w  c #1E2820",
"e  c #212424",
"r  c #242A2C",
"t  c #2A2B2C",
"y  c #2D2F30",
"u  c #2D3232",
"i  c #2D373B",
"p  c #313435",
"a  c #353B3B",
"s  c #3B3E3E",
"d  c #441C0E",
"f  c #4B1F0F",
"g  c #461E11",
"h  c #44250B",
"j  c #4E200F",
"k  c #4D290B",
"l  c #562E0D",
"z  c #5F320B",
"x  c #4E2010",
"c  c #542311",
"v  c #5B2513",
"b  c #63350E",
"n  c #6B380D",
"m  c #652B14",
"M  c #722F16",
"N  c #633510",
"B  c #7B3216",
"V  c #773118",
"C  c #3B573F",
"Z  c #7E430D",
"A  c #3C3F40",
"S  c #3C4141",
"D  c #384449",
"F  c #3B5D40",
"G  c #3C4C53",
"H  c #424646",
"J  c #454B4C",
"K  c #494D4D",
"L  c #4B5151",
"P  c #45575D",
"I  c #545656",
"U  c #555B5B",
"Y  c #4B5D63",
"T  c #4D6168",
"R  c #5B6262",
"E  c #50636A",
"W  c #566B73",
"Q  c #596F77",
"!  c #566E79",
"~  c #587077",
"^  c #597179",
"/  c #686F6F",
"(  c #676F70",
")  c #737D7C",
"_  c #787C7C",
"`  c #873A16",
"'  c #843619",
"]  c #8B391A",
"[  c #943C1A",
"{  c #9D3F1B",
"}  c #A03F1B",
"|  c #944F0E",
" . c #8C4B10",
".. c #9C401A",
"X. c #A9590F",
"o. c #A7461B",
"O. c #A4421C",
"+. c #AB441D",
"@. c #B3471D",
"#. c #B5481D",
"$. c #B94A1D",
"%. c #A65911",
"&. c #AB5911",
"*. c #B55D13",
"=. c #B46113",
"-. c #B54920",
";. c #C3531A",
":. c #CD5C18",
">. c #C26611",
",. c #C66A12",
"<. c #CC6B11",
"1. c #D46316",
"2. c #D16E11",
"3. c #DB6914",
"4. c #D47011",
"5. c #DB7411",
"6. c #EF7D0F",
"7. c #F27E0E",
"8. c #E06E13",
"9. c #E37312",
"0. c #E87611",
"q. c #E57A12",
"w. c #EB7A11",
"e. c #F27E11",
"r. c #78807F",
"t. c #F5800F",
"y. c #F8830F",
"u. c #F58010",
"i. c #627E87",
"p. c #64818A",
"a. c #7D8383",
"s. c #6B8791",
"d. c #6E8F9B",
"f. c #6F919D",
"g. c #7699A7",
"h. c #818586",
"j. c #848A8A",
"k. c #868F90",
"l. c #8C9494",
"z. c #92999A",
"x. c #999B9B",
"c. c #9CA4A3",
"v. c #8BABB8",
"b. c #A4ADAE",
"n. c #ACB3B4",
"m. c #AAB6B8",
"M. c #B4BABA",
"N. c #8DB9CA",
"B. c #95C3D6",
"V. c #95C6D9",
"C. c #98C7D9",
"Z. c #97C8DB",
"A. c #BAC4C4",
"S. c #BCC7C7",
"D. c #A3CCDC",
"F. c #A8CDDD",
"G. c #B5D5E1",
"H. c #C4CBCC",
"J. c #CBCBCB",
"K. c #C3D1CF",
"L. c #C6D1D3",
"P. c #CBD6D6",
"I. c #CFD6D9",
"U. c #CDD9D9",
"Y. c #D2DADB",
"T. c #D8D9D9",
"R. c #CAE1EA",
"E. c #D5E3E3",
"W. c #DAE5E5",
"Q. c #D5E7EC",
"!. c #DDEBEB",
"~. c #E3E6E6",
"^. c #E2ECEC",
"/. c #EBECEC",
"(. c #E3F0EF",
"). c #E6EFF2",
"_. c #E7F7F6",
"`. c #EAF6F7",
"'. c #E7F8F7",
"]. c #ECF8F7",
"[. c #E7F7F8",
"{. c #EDF7F8",
"}. c #E6F8F8",
"|. c #ECF8F9",
" X c #F1F7F7",
".X c #F1F8F7",
"XX c #F1F7F9",
"oX c #FBF7FB",
"OX c #F4F9FA",
"+X c #FAFAFA",
/* pixels */
"+XXXXX|.{.|.XX{.{.XX+X+X+XXX+X+X+X+X.X.X+X+X.X.X+X+X+X+X+X+X+X.X{.{.`.`.'.`.{.XX+X+XOXOXOXOXXX|.|.|.{. X XoX+XoXoX+X+XoXoX+X+X+X",
"XX|.OX|.XX{.{.{.{.XXXXoX+X+X+X+X+X+X+X+X+X+X+X+X+X+X+X+X+X+XXX].`.`.}.`.|.`.|.XXOXOX.X.X|.|.].|.XX|.{. X XOX+XoX+X+X+X+X+X+X+XXX",
"OXOX|.|.{.|.XX|.{.XXoXoX+X+X+X+X+X+X+X+X+X+X+X+X+XoX+X+X+XXX].`.`._.}._.}.`.{.|.XXXXOX{.|.|.|.|. X{. X X XOX+X+XoX+X+X+X+XXX+X+X",
"OX|.OXOXXX{.{.{.{.XXXXoX+X+X+X+X+X+X+X+X+X+X+X+X+XoXoX+X+X.X].`.`.}._.}.`.`.{.{.]. X X X|.XXXX|.{.{. X X XoX+X+X+X+X+X+X+X+X+X+X",
"OX+XOX|.|.|.{.XX X{. X+X+X+X+X+X+X+X+X+X+X+X+X+X+XoXOXXXXX`.(._.}.|.[.'.[.[.}.`.].].].]. X]. X].{. XXXXXXX+XoX+X+X+X+X+X+X+X+XOX",
"OX+XOX|.|.|.{.XX{.XX X X+X+X+X+X+X+X+X+X+X+X+X+X+XoXoXI._ U H U ( c.E.|.|.[.}.`.].].].{.].].].]. X XXX+X+X+XOX+X+X+X+X+X+X+X+X.X",
"OXOXOXOXXX|.|.{.{.XX.X+X+X+X+X+X+X+X+X+X+X+X+XOXOXXXn.t           o u j.E.|.`.`.`.{.{.].{.{.]. X X+X+X+X+X+XOX+X+X+X+X+X+X+XOXOX",
"+X+XOX|.|.XXXX{.{. X.XoXOX+X+X+X+X+X+X+X+X+XOXXX+XA.e   * 7 7 2       o S A.|.}._.`.{.]..X].]. X.X+XOX+X+X+X+X+X+XOXOX+X+X+X.XOX",
"OX+XoX|.{.{.XX|.{. XXX+X+X+X+X+X+X+X+X+X+XOX.X.X^.K o n ,.q.q.<. .k X o   r m.`._.'.`.].].]. XOXOX+X+X+X+X+X+X+X+XOX.X+X+X.X.X+X",
"OXOXXX|.|.XX{.XX XXXXX+X+X+X+X+X+X+X+X+X+X+X.X|.c.o l q.t.t.t.t.y.w.%.0     t H.`.`.`.]..X.X.X+X+X+XoX+X+X+X+X+X+X+X+X+X+X]..XOX",
"OX+XoX|.XX|.XXXXOXOXoX+X+X+X+X+X+X+X+X+XXX].`.!.J X =.t.t.t.t.t.t.t.t.5.b o   J W.`.`.].OXOX.XOX+X+X+X+X+X+X+X+X+X+X+X+X+XOX.X+X",
"OXOXXX|.|.XXXXXXoXOX+X+X+X+X+X+X+XXX+X+X|.`.|.A.& k q.6.t.t.t.t.t.y.t.y.w.b   o k.`.`..X.X+X+XOX+X+X+X+X+X+XOX+X+X+X+X+X+X|.OX+X",
"OX|.OX|.|.XXXXOX+X+X+X+X+X+X+X+X+XXXXX|.`.}.`._   | t.t.t.t.q.,.=.=.*.%.%.| 2   t U.OX+XOX+X+X+XOXOX+X+X+X+X+X+X+X+X+X+X+X|.XXOX",
"OXOXoX|.].XX+XOX+X+X+X+X+X+X+X+X+XXX|.|.`.}.W.C $ ,.t.t.t.4.l $ X X X o o o O     j.+X+X+X+X+X+X X+X+X+X+X+X+X+X+X+X+X+XOXXX|.OX",
"+XOX|.XX.XXX+X+X+X+X+X+X+X+X+X+XXX|.`.}.}.[.K., 7 q.7.t.t.Z   o O - > < q < > O   r J.+X+X+X+X+X+X+X+X+X+X+XOXOX+X+X+X+X+X|.|.XX",
"OXOX+XOXOXOXOX+X+X+X+X+X+X+X+X+X.X{.`.}.'.|.c.  k 6.t.6.6.h + ! f.g.v.L.I.L.m.s.r   H ~.+X+X+X+X+X+X+X+X+X+X+X.X+X+X+X+X+X.XXXOX",
"oXOXoX+X+X+X+XOX+X+X+X+X+X+X+X+X.X|.`.`.`.|.)   n 7.7.t.5.4 ; g.Z.Z.R.oX+X+XOXQ.g.- . x.+X+X+X+X+X+X+X.X+X+X+X+X.X+X+X+X+X+X X.X",
"OX+XOX+X+X+X+X+X+X+X+X+X+X+X+X+XXX|.`.`.[.'.R   ` 7.7.t.,.$ > p.B.V.G.).{.XXOXQ.V.G   I OX+X+X+X X+X+X+X+X+X+X+X+X+X.X+X+X+X]..X",
"+XOXOXOX+X+X+X+X+X+X+X+X+X+X+X+X+X|.|.`.!.Y.s   [ 6.7.7.>.@ ; W N.B.C.D.D.F.G.D.C.i.  t ~.+X+X+XOX+X+X+X+X+X+X+X+X+X+X+XOX+X.X.X",
"OXOX+X+X+X+X+X+X+X+X+X+X+X+X+X+X+XXX_.l.s t + . { e.7.7.>.# & T d.N.B.C.B.B.N.v.d.T X < T.+XXX+XOX+X+X+X+X+X+X+X+X.X+X+X+X+X+X{.",
"].].+X+X+X+X+X+X+X+X+X+X+X+X+X+X+X+Xc.+       # { 0.7.7.2.% O P ~ p.f.f.d.s.i.^ ^ E + e T.OXXX.X X+X+X+X+X+X+X+X+X+X+X+X+X+X+XOX",
"+X+X+X+X+X+X+X+X+X+X+X+X+X+X+X+X+X/.H . h k X $ O.8.7.7.9.7 O P ^ ~ ~ ~ ^ Q ~ ^ ^ P o A /..XXX.X X X+X+X+X+X+X+XoX+X+X+X+X+X+X+X",
"+X+X+X+X+X+X+X+X+X+X+X+X+X+X+X+X+XJ.: k q.<.$ % O.3.7.7.6.z o G ^ ^ ^ ^ ^ ^ ^ Q Q i   _ +X.X X X X X+X+X+X+X+X+X+X+X+X+X+X+XOXOX",
"+X+X+X+X+X+X+X+X+X+X+XOX+X+X+X+X+XM.O z u.<.$ 2 +.1.7.t.t.|   e Y W Q ^ Q Q Q W D X : H.XX X X X X X X+X+X+X+X+X+X+X+X+X+X+XOX].",
"`.].+X+X+X+X+X+X+X+X+X+X+X+X+X+X+XM.o n e.*.% 3 +.:.e.e.7.3.4   = < q r r r r q o   y ~.].{. X XXXXXOXOX+X+X+X+X+X+X+X+X+X+XXX|.",
"`..XOX+X+X+X+X+X+X+X+X+X+X+X+X+X+Xn.o m ;.} # 3 } ;.0.e.7.7.| @                     e T.XX X{..X.XXXXXOX+X+X+XoXoX+XoX+X+X+X].XX",
"].+XOX+X+X+X+X+X+X+X+X+X+X+XOXXX+Xx.  v -.} # 3 @.;.0.e.7.7.6.{ 2           X k 8   - H.OX|.XX.X.X XOX+X+X+X+X+XoX+XoX+X+XOXXXXX",
"+X+XOX+X+X+X+X+X+X+X.X+X+X+XOX+XOXc.o v -.} # 2 } } 8.e.7.7.7.7.<. .N N N Z *.w. .  o n..X|.].]. X XOXOX+X+X+XoX+X+XoX+X+XOX+X+X",
"+XXXXX+X+X+X+X+X+X+X+X+XOXOXXX|..Xn.X v $.O.% 2 @.$.:.e.e.e.7.e.7.t.e.e.w.u.u.u. .    z..X].{. X X.X+X+X+X+X+X+X+X+X+X+X+X+X+X+X",
"+X].'.+X+X+XOX+X.X+XOXOXOX.XXX|..Xn.O v $...# 1 +.$.;.0.e.e.7.e.7.e.7.7.e.e.e.u.|     h..X X{. X XXXoXOX+X+X+X+X+X+X+X+X+XOX+X+X",
"XX`.].+X+X+XOX+XOX+XOX.XOX|.XXXXOXm.O v $.O.# % +.#.$.3.e.7.7.7.7.e.7.e.7.e.e.y.X..   a..X.X X XXXoXoX+X+X+X+X+X+X+XOXOX.X+X+X+X",
"|.|.XX+X+X+X+XOX.XOX.X.X|.|.|.XXOXm.O c $.O.1 % O.#.#.:.e.7.7.7.7.7.7.7.7.7.7.e.&.o   a.OXOX XOX+XOX+X+X+X+X+X+X+X+XOX.X.X.X+X+X",
"OXOX X+X+X+X+XoX X+X X X{. X X].OXn.O f #.O.1 # { $.$.$.0.7.7.6.7.7.7.6.7.7.7.0.O.@   r.+X+X.XOX+XOXOX+X+X+X+X+X+X+X+X|.|.XX+X+X",
" X]. X+X+X+X+XOX XOXOX{. X{. X{.OXn.O d #.} 1 @ [ $.#.#.2.7.7.7.6.7.6.6.7.7.6.1.{ $   r.OX.XOXOXOX+X+X+X+X+X+X+X+XOXXXXX|.+X+X+X",
"`.`.].+X+X+X+X X X+XOX X{. X].{.OXm.O 6 @.O.1 . [ $.#.#.;.0.6.6.7.6.6.7.7.7.5.$.O.$   a.OXOX+XOX+X+X+X+X+X+X+X+X+XOX.X].].+X+X+X",
"|.+X+X+X+X+XOXOX X+XOX X{.{.]. X|.n.O 3 @.O.2 o ` $.#.#.#.3.7.7.6.7.7.6.7.6.;.#.O.1   h.+XOX+X+X+X+X+X+X+X+X+X+X+X+X|.|.`.+X+X+X",
"{.|.XX+X+X+X+X+X.X+X.X X`. X`.`.|.n.O % O.+.3 X ` $.@.#.@.;.6.7.7.7.7.7.7.2.$.#.O.2   h.OX+X+X+X+X+X+X+X+X+X+X+X+XOX.X|.].OX+X+X",
" XXX+X+X.X+X+X X X+X+X.X X`.`.`.|.m.O # { @.6   ' #.@.#.#.#.1.4.5.9.9.6.8.$.#.$.+.2   l.+X+XoXoX+X+X+X+X+X+X+X+X+X+XOX|.].OX+X+X",
"+XXX+X+X.X+X.X.X.X+X+X.X X`.`.`.`.n.O # [ $.f   B #.#.#.#.#.#.#.$.$.$.$.$.#.#.#.O.1   c.+X+XoX+X+X+X+X+X+X+X+X+X+X+XOX.X].+X+X+X",
"|.{.{.+X+X+X+X.X.X+XOX.X X X`._.|.A.; X [ $.j   m $.#.#.#.#.#.#.#.#.#.#.#.#.#.#.O.1 o M.+X+X+X+X+X+X+X+X+X+X+X+X+X+X+X.X.X+X+X+X",
"{.{.{.+X+X+X+X+X+X+X+X.X.X.X_._.'.P.9 . [ $.j   v #.#.#.#.#.#.#.#.#.#.#.-.-.-.#.O.$ + A.+X+X+X+X+X+X+X+X+X+X+X+X+X+X+XOX.XOXOX+X",
"{.{.{.+XXX+X+X+X+X+X.X.X.X.X_._.'.Q.p   ' $.c   j #.#.#.#.#.#.@.#.#.+.o.o.+.-.#...# ; H.+XoX+X+X+X+X+X+X+X+X+X+X+X+XOXOX.XOXOXOX",
"{.`.|.+X+XOX+XOX+X+X+X.X.X X_._.]._.L   6 c 2   d @.#.#.#.#.M j j d 7 3 3 V @.$.{ @ q T.+XXX+XoX+X+X+X+X+X+X+X+X+X+XOX.X|.OXOX|.",
"`.`.|.+X+X+X+XOX.X+X+X+X+X.X`._._.'.z.o         8 +.#.@.#.+.5         $ m o.#.#.[ . t E. X XOXoX+X+X+X+X+X+X+X+X+X+XOX|.|.OX+X.X",
" X X].+X+X+X+X+X+X+X.X+XOX.X{.}.[.}.!.R =       5 @.@.#.@.+.3         M $.$.#.$.] . t W.XXXXoXoX+XoXoX+X+X+X+X+X+X+X|.|.|.OX+X+X",
"XX].].+X+XOXOX+X+XOX+X+XOX+X|.|.[.}.}.(.n.k.U   5 @.#.#.#.+.3   - 9 X B $.#.@.#.]   a ^.{.{.OXOX+X+XoX+X+X+X+X+XXX|.|.[.|.XX+X+X",
"`.}.].+X+X+X+X+X+XOX+X+X+XOXXX|.[.[.}.|.|.|.c.o 5 +.#.#.#.O.1   9 C + M $.@.#.$.'   L `.`.`.{.OX+X+XoX+X+X+X+X+X|.|.|.|.|.OX+X+X",
"`.XX+X X+XOX+X+X+X+X+X+X+X+XXX|.|.[.}.}.|.|.m.+ 5 +.#.#.#.O.$   9 C X m $.@.#.$.B   _ XX`.`.{.OX+X+X+X+X+X+XXX|.|.|.'.|.|.OX+X+X",
"{.OX+X+XOX+XOX+X+X+X+X+X+X+XOXXX`.`.}.}.`.|.L., 3 @.@.@.#.} %   < F + c $.-.-.-.V o z.|.'.`.`. X+X+X+X+X+XXX`.`.|.[.}.}.}.+X+X+X",
"OXOX+X+X+X+X+X+X+X+X+X+XOXOXXX{.`.`.}.`.}.|.Y.e 5 +.@.@.-.' .   w F = g -.-.-.-.c O b.|.`._.`.{.XX+X+X+X+X].`.|.[.|.`.}.`.XX+X+X",
"+XXXXX+X+X+X+X+X+X+X+X+XoXOX|.{.`._._.`.}.|.!.p 5 } -.-.-.m     e a ; # B { ] c X - S.|.'.'.`.{.XXXXXXXX{.`.`.}.[.`.}.}.|.|.+X+X",
"{.`.{.+X+X+XoX+X+X+X+X+XOX{.`.`.).`._._.`.E.z.r . g v x 8 #   O y a q   . % @     : a.U.|.`.`.`.].XXXX`.`.}._.}.}.'.}.}.`.|.+X+X",
"|.{.OX+X+X+XoXoX+X+X+XXX{.`.`.}._._.`.`.P.R A t .           - r a a a < = o o ; e i a U H.|.`.`.|.XX{.`.`.}.}.}.}.}.|.[.[.|.+X+X",
"XX+X+XOX+X+X+X+XoXOX|.`.{.{.`.`.`._._._.a.a i a r > + O ; e p a a a a a p t y i a a a p / _.{.{.|.XX{.}.}.'.'.'.`.}.}.[.|.XX+XoX",
"`.+X+XOX+X+X+X+XoXOX{.`.`._._._.`._._.}.a.a a a a a a a a s a a a a a a C a a a a a a a / ).{. XOXXXXX`.`.`.'.'.}.}.`.|.|.OX+X+X",
"+X+X+X+X+X+X+XOXoX|.{.`.`.`._._._._.`.}.K.R i A a a a a a a a a a a a A a a a a a a a K M.{. XOXOX+X+X`.'.'.'.'.}.`.|.|.|.|.OXOX",
"+X+X+X+XOXOXoXXX|.|.{.{.`.`._._._.`._.`.`.Y.k.L A i a a a a a a a a a a a a a a C D i.H.{. XOXoXOX+XOXOX|.}.}.}.`.`.{.|.|.XXXX|.",
"+X+X+X+XOXOXOXXX|.|.{.[.`.[.[.`._.`._.`.`.{.{.I.n.a.R J J D A A a A D H J J U ) b.P. XoX XOX+X+X+X+X+XOX|.}.}.|.`.{.{.{.|.|.|.|.",
"+X+X+XOXOXOX|.|.[.[.{.{._._.`._._._._.`.`.{.{.XXOXXX).Y.I.H.A.b.c.n.A.H.I.I.W._.|.|.|.OX+X+X+XOX+XOX+XOXOX|.}.|.{.{.{.|.|.|.|.|.",
"+X+X+XOXOX|.|.`.}.[.[.{.`.`.`.`.`._._.`.{.{.{.XXXXXX|.OXOX|.OXOX|.|.|.|.{.{.`.}.|.|.|.+X+X+X+XoX+X+X+XOXOX|.|.|.{.{.|.|.|.|.|.|.",
"+X+X+XOXXX{.`.}._.}.}.`._.`.`._.}.}.}.}.`.{.`.|.XXXXXX|.|.|.|.|.XX|.|.|.{.{.{.`.|.|.OX+X+X+X+X+XoXoXoX+XOX|.|.|.|.|.|.|.|.|.|.|.",
"+X+X+XOXXXXX`.|.|.}.`.{.{.[.[.[.|.}.|.|.`.{.|.`.XXXXXX|.|.OXXXXXXX|.|.|.{.{.{.`.|.OXOXOX+XOXOXOX+XOX+X+XOX|.|.|.|.OX|.OX|.OX|.|.",
"+X+XOX.XXX|.|.oXXX[.|.XX{.|.[.{.OX|.|.|.`.oXoXOXXX|.|.|.OXOX+X+XoX|.OXOXOX|.|.OXOXOXOXOX|.|.|.|.|.OXOXOXOXOXOXOXOX|.+X+XOX|.|.|.",
"|.|.|.|.|.{.|.|._.|.|.oXXXoXoXoXOX`.XX`.OXOXoXXX{.|.|.|.+X+X+XOXXXOXOXOXOXOX|.|.|.OX|.|.|.|.|.|.|.OXOX+XOXOX+X+XOXOX+X+XOX|.|.|."
};
