/* XPM */
static char *Design_sem_nome__2__resized[] = {
/* columns rows colors chars-per-pixel */
"40 40 195 2 ",
"   c #1D0E11",
".  c #280807",
"X  c #3A0A0D",
"o  c #2D0712",
"O  c #2C0914",
"+  c #310613",
"@  c #330916",
"#  c #380817",
"$  c #390A18",
"%  c #2E1718",
"&  c #38141B",
"*  c #381923",
"=  c #362027",
"-  c #3F2626",
";  c #363634",
":  c #3C3433",
">  c #400607",
",  c #5A090B",
"<  c #490917",
"1  c #550810",
"2  c #560A1A",
"3  c #44191B",
"4  c #5E161E",
"5  c #660305",
"6  c #6E060B",
"7  c #6A080B",
"8  c #760708",
"9  c #73050C",
"0  c #640616",
"q  c #790412",
"w  c #740810",
"e  c #6D181B",
"r  c #751214",
"t  c #791113",
"y  c #701518",
"u  c #7D1D1C",
"i  c #4C0D23",
"p  c #570621",
"a  c #530A24",
"s  c #5C0B26",
"d  c #5D0D2A",
"f  c #451223",
"g  c #4B1325",
"h  c #461A28",
"j  c #551D2F",
"k  c #541D30",
"l  c #591C31",
"z  c #630923",
"x  c #6E0D25",
"c  c #640C2B",
"v  c #6B0C2D",
"b  c #760920",
"n  c #7C0A24",
"m  c #720B2A",
"M  c #6C0C31",
"N  c #5F292F",
"B  c #4B2631",
"V  c #4D2F38",
"C  c #542636",
"Z  c #4B3A37",
"A  c #4F3938",
"S  c #583538",
"D  c #6F2C32",
"F  c #783B39",
"G  c #643645",
"H  c #673846",
"J  c #454849",
"K  c #584248",
"L  c #574A4B",
"P  c #5A4E51",
"I  c #4E5252",
"U  c #545454",
"Y  c #5A5558",
"T  c #694A55",
"R  c #66505A",
"E  c #605F5F",
"W  c #776D5D",
"Q  c #6E5C62",
"!  c #745B64",
"~  c #656361",
"^  c #6A6867",
"/  c #6C6D6A",
"(  c #706165",
")  c #756A6B",
"_  c #7B7869",
"`  c #786C70",
"'  c #6C7070",
"]  c #787576",
"[  c #7E7D7F",
"{  c #820305",
"}  c #8B0406",
"|  c #8D0A0A",
" . c #940709",
".. c #99030A",
"X. c #930C0C",
"o. c #860718",
"O. c #8C071D",
"+. c #830A1E",
"@. c #8A081C",
"#. c #960815",
"$. c #93061B",
"%. c #960819",
"&. c #8A1617",
"*. c #A20305",
"=. c #AC0202",
"-. c #AE050E",
";. c #B20305",
":. c #BE0205",
">. c #B5040C",
",. c #BA040B",
"<. c #A40711",
"1. c #AA0514",
"2. c #B40410",
"3. c #850727",
"4. c #810924",
"5. c #862324",
"6. c #853637",
"7. c #C40304",
"8. c #CB0102",
"9. c #C20308",
"0. c #D00103",
"q. c #835A67",
"w. c #856465",
"e. c #856D77",
"r. c #857A7C",
"t. c #90787F",
"y. c #96957F",
"u. c #8A7880",
"i. c #7E8181",
"p. c #848B86",
"a. c #878688",
"s. c #8E8F8F",
"d. c #958C8E",
"f. c #998C8C",
"g. c #979988",
"h. c #958D93",
"j. c #899390",
"k. c #9C9397",
"l. c #909997",
"z. c #9A9798",
"x. c #959C9D",
"c. c #A2A19F",
"v. c #B7BC9F",
"b. c #A1A4A5",
"n. c #AEA5A6",
"m. c #A2ACAB",
"M. c #ABABAC",
"N. c #B0A4A4",
"B. c #B6ADAD",
"V. c #ABAFB0",
"C. c #B5AFB1",
"Z. c #ABB3B3",
"A. c #ADB8B9",
"S. c #B2B3B4",
"D. c #B6B8B6",
"F. c #B3BAB9",
"G. c #BBBDBC",
"H. c #C0B8B7",
"J. c #C1C3A6",
"K. c #D4D1AC",
"L. c #B9BFC1",
"P. c #BFC5C6",
"I. c #C3C6C7",
"U. c #CAC7C6",
"Y. c #C6CCCD",
"T. c #C9CACB",
"R. c #CBD0D1",
"E. c #CED8D8",
"W. c #D1D2D2",
"Q. c #D0D7D8",
"!. c #D4DCDD",
"~. c #DBDCDC",
"^. c #F9FACB",
"/. c #D6E3E2",
"(. c #DBE3E3",
"). c #DBEAEB",
"_. c #E2E4E5",
"`. c #E5E8E7",
"'. c #E2E7E9",
"]. c #E3EDED",
"[. c #EBEBEC",
"{. c #E6EEF0",
"}. c #E7F7F6",
"|. c #EAF6F7",
" X c #E7F8F7",
".X c #EBF8F7",
"XX c #E7F7F8",
"oX c #EDF7F8",
"OX c #E6F8F8",
"+X c #ECF8F9",
"@X c #F2F6F6",
"#X c #F1F8F7",
"$X c #F1F7F8",
"%X c #F4F9FA",
"&X c #FAFAFA",
/* pixels */
"$X$X$X%X%X%X%X$XoX$X&X&X$X+X|.$X%XoX#X%X#X&X&X%X#XoX%X&X#X%X$X+X$X&X+XoX$X&X&X&X",
"$X+X.X|..X|..X#X$X%X&X$X&X%X%X&X&X%X%X&X&X&X&X%X%X#X#X.X#X%X&X&X&X&XoX+X$X$X+X+X",
"+X|. XXXXX|.|.#X$X$X&X%X&X&X&X&X&X&X&X&X&X&X&X%X#X#XoXoX#X%X&X%X$XoX$XoX+X+X$X%X",
" X X X X|.|.oXoXoX&X&X&X&X&X&X#XT.`.&X&X&X&X%X#XoX#XoXoX.X$X%X$X%XoXoXoX+X$X&X&X",
"}.}.|.oX|.oXoXoX$X%X&X(.D.d.] L % ) G.~.&X&X$X.X.XoX+X+X$X%X&X%X$XoXoXoX@X@X&X&X",
"|.|.oXoXoXoXoX#X$X~.f.F t { { { } F v.g.g.U.|.%X$X.X$X$X&X&X&X&X%X%X&X%X&X&X&X&X",
"|.|.oXoXoXoX$X$XS.F  .9.8.8.0.8.8.u K.^.J._ i.!.$X%X%X&X&X&X&X&X%X%X&X&X&X&X&X&X",
"oXoXoX$X$X#X#Xk.e ;.8.8.8.8.8.8.8.| _ y.g.G.R.].%X&X&X&X&X&X&X%X%X&X&X&X&X&X&X&X",
"$XoX$X$X$X%Xn.y ,.8.8.8.8.8.8.8.8.*.. s.$X&X%X+X&X&X&X&X&X&X%X$XoX#X&X&X&X&X&X&X",
"oX$XoXoX&XW.D ;.8.8.8.8.8.8.8.8.8.=.A / V.oXXX|.$X&X&X&X&X$X$X.XoXoX@X&X&X&X&X&X",
"oXoX$XoX%Xt.o.8.8.8.8.8.8.8.8.8.8.=.w.(.] x.}.OXoX$X%X%X$X#X+X+X@X@X@X&X&X&X&X&X",
"oX$XoX$X(.G $.8.8.8.8.8.8.8.8.8.8.=.! A.p.j.).+XoXoX$X$X+X.X$X.X%X@X@X&X&X&X&X&X",
"oX$XoX%XI.k O.7.8.8.8.8.8.8.8.8.8.=.- l./.OXOXOX.X.X.X.X$X#X.X#X@X&X@X&X&X&X&X&X",
"oXoXoX%XF.g 4.:.8.8.8.8.8.8.8.8.8.=.A m.}.OXOX+X.X.X.X+X+X.X#X&X&X&X&X&X&X&X&X&X",
"$X$X$X&XS.i m <.8.8.8.8.8.8.8.8.8...r.j.A.OX+XOX.X]./.!.{.$X%X&X&X&X&X&X&X&X@X&X",
"oX$X$X&XF.& v 4.>.8.8.8.8.8.8.8.8.} : p.).).A.i.^ I I ' Y.&X&X&X&X&X&X&X@X&X&X&X",
"$X#X%X&XQ.* c m 3.>.8.8.8.8.8.8.8.7 ; m.s.L O   J l.Q._.@X&X&X~.&X&X&X&X%X&X&X&X",
"%X&X&X&X@X~ # v M n 1.7.8.8.8.8.;.X : % . 3 ( F.].&X_.[ `.&XD./ W.&X&X&X%X&X&X&X",
"&X&X&X&X&X~.P & s v m $.>.9.8.8.8 . w j Z i.).Z.L.[.M.a.T.~.g.K.y.~.&X&X&X&X&X&X",
"&X&X&X&X&X&X[.z.K f a c m +.%.#.> X , W b.I U Y E Y c.c.~ ~ W W A ` &X&X&X&X&X@X",
"&X&X&X&X&X&X&X&X`.L + @ o o o @ 2 6 5 r t 6 5 r w 5 r r 6 8 9 q q N ~.&X&X&X&X&X",
"&X&X&X&X&X&X&X&X#XR z b s a < $ + 1 $.>.8.8.8.8.8.8.8.7.8.7.9.:.,.y J.&X&X&X&X&X",
"&X&X%X&X&X&X&X&X&X] < o.$.4.c v p o c @.:.8.8.8.8.8.8.8.8.8.0.8.0.X.C.&X&X&X&X&X",
"&X&X&X&X%X&X&X%X$XQ.r.S 4 0 < x c @ c m @.,.8.8.8.8.8.8.8.8.8.8.0...N.&X&X&X&X&X",
"&X&X&X&X@X%X%X#XoX$XoX(.G.u.B m d @ c M M n -.8.8.8.8.8.8.8.8.8.8. .B.&X&X&X&X%X",
"&X&X&X%X%X#X#X.X#XoX+X+X+X Xq.v d O c c M M n %.>.:.8.8.7.7.8.8.8.X.H.&X&X&X%X$X",
"&X&X@X%X%X#X#X.XoXoXoX|.+X+Xk.d c @ c v v v v v n 4.@.+.w w <.7.8.&.U.&X&X&X%X$X",
"&X&X&X@X%X#XoX#XoX|.|.|. X+XY.V g O d M v v v M M d g = O d n >.8.5.~.&X&X&X$X+X",
"&X&X%X%X&X#XoXoX|.|.}.}.XXXX|.Y.Z.Y s M v M v M c G M.m.* M m 2.7.6._.&X&X&X%X+X",
"@X&X%X@X%X$XoX|.}.}.}.|.XXXX+X+X%Xa.a v v v v v z e.%XP.h c v 1.:.q.@X&X&X&X&X%X",
"&X&X&X&X&X%X#X|.XXXXXX|.|.XX|.|.oXl.i v v v v M s h.%X!.C c v @...w.%X&X&X&X&X+X",
"&X&X&X&X%X&X@X|.XXXX XXXXX|.|.oX+Xb.i v v M v M i M.%X'.H v M m 2 d.&X&X&X&X%XoX",
"&X&X&X&X&X&X$XoX}.}.XXXXXX+XXX|.oXL.f M M v v v h P.oX}.! c M v f C.&X&X&X+X+X+X",
"@X&X&X&X&X&X&X%X|.|.XXXXXXXX+X|.+XE.B z c v v c C !.oX|.u.p s a V ~.&X&X+X+XXXXX",
"@X&X&X&X&X&X&X%X|.|.XX}.|.+X|.|.+X|.z.T C l l k Q ].+X+XL.( ! ` S.&X%XXX|.XXOX}.",
"&X&X&X&X&X%XoX|.|.}.}.|.|.|.|.oXoXoXoX{.Q.Y.Y.Y./.}.+XXXXX}.+XoX%X|.|.+X}.OXOX}.",
"&X&X&X&X$XoX|.|.}.}.|.}.|.|.oXoX+XoXoXoXoX+X%X+X+X}.XX}.XX+XoXoXoX|.XXXXXXXX+X+X",
"&X&X%X%X+X|.|.}.}.|.}.|.|.oXoX|.+X+XoXoXoX+X+X|.}.}.XXXX|.oX$X&X&XoXXXXXXXXX+XXX",
"@X%X#X.XoX|.|.+X|.|.|.|.oXoXoXoX+X%X$XoX$XoXoXoX+X+X|.+X$X%X&X&X%X%X+XXX+XXX+X+X",
"oX%X#X%X$X&XoX|.oX|.&X&X$XoXoXoX%X&X&X&X%X%X$X%XoXoXoX%X$X%XXX+XXX+X+X%X&X&X&X%X"
};
