/* XPM */
static char *Design_sem_nome__2__resized[] = {
/* columns rows colors chars-per-pixel */
"64 64 199 2 ",
"   c #2A0E09",
".  c #380F07",
"X  c #330F09",
"o  c #26140E",
"O  c #341308",
"+  c #371C09",
"@  c #3B1E0A",
"#  c #3C2114",
"$  c #211D21",
"%  c #2F2F34",
"&  c #3E3230",
"*  c #47190A",
"=  c #531B0C",
"-  c #5C1C0A",
";  c #641D07",
":  c #681F06",
">  c #611E08",
",  c #681F08",
"<  c #482407",
"1  c #58270A",
"2  c #452314",
"3  c #552C15",
"4  c #49301E",
"5  c #583719",
"6  c #6A2106",
"7  c #69210A",
"8  c #76250A",
"9  c #7B2709",
"0  c #6A3508",
"q  c #783C0C",
"w  c #6D2913",
"e  c #682A1A",
"r  c #742B14",
"t  c #7C2C13",
"y  c #673915",
"u  c #7A381B",
"i  c #432C22",
"p  c #47352E",
"a  c #593C2A",
"s  c #4F3631",
"d  c #612F24",
"f  c #673326",
"g  c #783B23",
"h  c #633D33",
"j  c #7C400C",
"k  c #784315",
"l  c #54493B",
"z  c #694325",
"x  c #764825",
"c  c #694B3A",
"v  c #724D36",
"b  c #784A38",
"n  c #6A513D",
"m  c #735236",
"M  c #7A5434",
"N  c #3F4145",
"B  c #494344",
"V  c #595956",
"C  c #614943",
"Z  c #67534A",
"A  c #74584B",
"S  c #665A55",
"D  c #785E56",
"F  c #766153",
"G  c #72615D",
"H  c #7C635C",
"J  c #576E72",
"K  c #696361",
"L  c #746966",
"P  c #7A6B66",
"I  c #7B6C6B",
"U  c #706F75",
"Y  c #797779",
"T  c #8C2A06",
"R  c #83290A",
"E  c #842A09",
"W  c #8D2A08",
"Q  c #942C06",
"!  c #9B2E05",
"~  c #932E0A",
"^  c #982D0B",
"/  c #9D3104",
"(  c #9B330B",
")  c #A32D03",
"_  c #AA2E03",
"`  c #A33206",
"'  c #AA3203",
"]  c #AA3408",
"[  c #B53405",
"{  c #BC3703",
"}  c #B53A05",
"|  c #BB3801",
" . c #B9380A",
".. c #C13703",
"X. c #C03902",
"o. c #C23608",
"O. c #95490B",
"+. c #9B4C09",
"@. c #9F510B",
"#. c #934B13",
"$. c #A04F0A",
"%. c #A3520A",
"&. c #AF550A",
"*. c #B35B0B",
"=. c #B95D08",
"-. c #BE620A",
";. c #82532F",
":. c #815633",
">. c #C44305",
",. c #CC4B06",
"<. c #C24D08",
"1. c #D25405",
"2. c #DB5D07",
"3. c #D55308",
"4. c #DC5C09",
"5. c #E05F08",
"6. c #CB6407",
"7. c #C5630D",
"8. c #CB6909",
"9. c #D66707",
"0. c #D26A05",
"q. c #D56B0B",
"w. c #DB6C0A",
"e. c #DF740A",
"r. c #E56806",
"t. c #EA6C0A",
"y. c #E47302",
"u. c #EC7504",
"i. c #EE7803",
"p. c #E37309",
"a. c #ED7308",
"s. c #EA7908",
"d. c #F07704",
"f. c #F67D03",
"g. c #F97D03",
"h. c #F57B09",
"j. c #FB7C0A",
"k. c #E37011",
"l. c #857976",
"z. c #718D92",
"x. c #8C8586",
"c. c #848488",
"v. c #948D8A",
"b. c #8B8F93",
"n. c #938F92",
"m. c #899392",
"M. c #959293",
"N. c #979799",
"B. c #A29E9D",
"V. c #A39FA0",
"C. c #8AA0A1",
"Z. c #9DA5A6",
"A. c #A3A2A2",
"S. c #A9A7A8",
"D. c #A6A8AB",
"F. c #AAABAE",
"G. c #A6AFB0",
"H. c #ADB4B5",
"J. c #AEB7B8",
"K. c #B5B6B9",
"L. c #B4BBBC",
"P. c #CA9E8D",
"I. c #CEAA9E",
"U. c #D5AC9B",
"Y. c #DEB09D",
"T. c #E1B09D",
"R. c #C7ADA0",
"E. c #BCBEC0",
"W. c #BCC4C4",
"Q. c #C7CACB",
"!. c #CDCED1",
"~. c #C4D1D1",
"^. c #CAD2D3",
"/. c #D2D4D5",
"(. c #D4DCDD",
"). c #D8D8D9",
"_. c #D6DEE0",
"`. c #D9DFE1",
"'. c #D4E1E1",
"]. c #DBE2E4",
"[. c #D9E8E9",
"{. c #E2E4E6",
"}. c #E4EAEC",
"|. c #EBEBEC",
" X c #E3EFF0",
".X c #EFEFF1",
"XX c #E7F6F6",
"oX c #EAF7F7",
"OX c #E7F8F7",
"+X c #EDF8F7",
"@X c #E7F7F8",
"#X c #EDF7F8",
"$X c #EDF8F9",
"%X c #F1F6F6",
"&X c #F1F8F7",
"*X c #F1F7F9",
"=X c #F9F7FA",
"-X c #F4F9FA",
";X c #FAFAFA",
/* pixels */
";X*X$X;X;X-X-X-X-X-X$X-X;X;X$X;X*X*X-XoX-X*X*X;XoX@X#X;X-X$X*X-X-X-X;X;X;X#XoX-X;X*X$X*X$X$X-X-X;X$X*X;X;X;XoX-XoX;X-X*X*X;X;X-X",
"*X$X$X;X-X$X$X;X;X-X$X-X-X-X$X-X-X*X-XoX-X;X;X;X$X#XoX-X*X$X$X*X*X-X;X;X-X#X#X;X;X*X*X-X$X;X-X;X+X+X+X;X;X;X;X;X;X*X*X$X-X-X;X+X",
"-X-X-X;X$X$X-X;X-X;X;X;X;X-X-X-X-X-X*X-X*X;X#XoX-X@XoX;X;X*X$X-X;X;X;X-X;X*X*X;X*X$X-X;X*X$X;X;X$X$X*X*XoXoX;X-X*X*X;X$XoX*X;X;X",
"-X$X;X$X$X-X$X$X-X$X$X$X$X$X$X$X-X*X*X*X=X;X*X;X*X-X;X;X;X}.^.W.W.!.}.-X;X*X-X#X$X$X$X;X;X$X$X*X*X$X-X*X-X+X;X-X+X;X;X*X*X;X;X-X",
";X;X-X-X-X-X-X-X-X-X*X$X@X@XoX#X%X%X*X*X;X*X*X;X;X;X;X).c.B i # # i B b._.$X#XoX$X$X$X-X-X-X*X$X$X$X$X+X+X;X;X$X-X-X-X-X;X;X;X-X",
"-X;X;X;X;X-X;X-X$X*X-X-X$X$X#X#X#X#X*X*X;X*X;X;X;X.Xn.p 1 O.6.w.w.8.$.5 B G.oX#X$X$X$X*X;X;X-X$X$X*X$X*X$X$X;X*XoX*X&X+X;X;X;X-X",
"-X-X;X-X$X-X;X;X-X-X*X*X$X$X#X#X#X#X&X&X*X;X=X;X|.U 2 &.s.g.g.g.g.g.f.s.%.i M.oX$X-X$X-X;X;X;X$X$X$X-X-X@XoX*X*X$X$X-X-X;X;X-X*X",
";X;X-X-X-X-X-X$X-X-X*X$X$X*X#X#X#X&X&X&X-X=X;X.XU y w.g.f.f.g.f.f.f.f.g.j.7.4 D.-X-X;X;X;X;X;X*X-X-X-X;X-X-X;X;X*X$X*X-X;X-X-X;X",
"-X;X-X$X$X$X$X-X;X$X@X@X$X$X*X$X-X-X*X*X=X;X=XN.5 k.j.f.f.f.f.f.f.f.g.f.h.j.8.c ^.;X;X;X;X;X;X*X-X;X;X;X-X-X*X;X;X$X*X*X;X*X*X;X",
"-X-X;X;X-X;X;X;X;X$X$X$X#X#X$X*X*X*X*X*X;X;XQ.a 0.h.f.f.f.f.g.g.f.g.f.f.j.f.j.-.H |.;X;X;X;X;X;X-X;X;X;X-X+X-X;X$X$X$X;X$X@X#X;X",
";X;X;X-X$X-X*X*X$X*X$X$X-X#X*X*X;X*X*X;X;X=XL %.g.g.f.f.f.f.f.f.f.f.f.f.f.f.f.f.#.x.;X;X;X;X-X*X-X;X;X;X-X+X+X;X;X;X*X*X$X$X*X;X",
"-X-X-X$X-X;X;X*X*X$X$X*X#X-X-X-X=X*X;X;X;XE.z u.g.f.g.f.f.g.f.g.f.f.f.f.f.f.f.g.p.z !.;X-X;X-X-X-X;X;X;X-X-X+X;X;X;X*X$X@X$X-X;X",
"$X$X-X;X;X-X*X*X;X-X*X*X#X*X*X*X;X*X;X*X-Xl.=.g.f.f.f.g.f.g.f.f.f.f.f.f.g.f.f.f.h.%.l.-X-X-X+X+X-X-X;X;X;X;X-X;X;X;X;X*X#X@X*X;X",
"-X*X-X*X*X#X$X;X;X*X*X-X*X-X*X=X;X;X;X;X(.m p.j.f.f.f.f.f.g.f.f.g.f.f.f.g.f.f.f.h.w.i D.-X$XoX$X+X-X;X;X-X-X-X-X;X*X*X*X#X$X@X*X",
";X;X*X$X$X$X*X;X-X*X#X*X-X*X;X;X;X;X;X;XK.#.f.f.f.f.f.f.f.f.f.f.f.f.f.f.f.g.f.g.h.j.0 % ^.-X$X$X%X%X=X;X*X$XoX-X;X-X*X*X$X$X#X;X",
"-X-X;X-X$X$X;X;X*X#X-X*X-X-X;X;X;X;X;X;Xx.=.g.f.g.f.g.g.g.g.f.f.f.f.f.f.f.f.f.f.f.g.@.N m.$X$X$X%X%X-X;X*X*X$X-X;X-X*X$X;X*X*X*X",
"*X;X;X$X$X*X;X;X*X$X;X;X#X-X;X;X;X;X;X#XD 9.f.h.g.g.f.f.f.f.f.f.f.f.f.f.f.f.f.f.f.g.-.V m.'.$X$X-X%X;X;X-X+X+X-X;X*X$X-X;X;X*X*X",
";X;X*X*X;X;X;X;X;X;X;X;XoX-X;X;X;X;X;X{.v u.j.j.g.g.g.g.j.g.g.h.f.g.f.f.f.g.f.g.f.f.q.l C.W.-X$X+X%X;X;X-X;X;X;X*X$X$X*X;X;X$X+X",
";X;X*X;X;X;X;X*X*X$X*X&X%X&X*X;X;X;X;X^.z 7.*.+.+.+.+.+.+.%.*.6.p.f.f.f.g.f.f.f.f.j.s.z C.J.$X-X-X%X;X;X;X;X;X-X-X*X$X$X;X-X*X*X",
"*X-X;X;X;X-X*X$X#X*X;X-X-X&X*X=X;X=X).l.o < @ < 1 < < + + + O O @ k p.g.f.f.g.f.f.f.h.5 z.H.-X-X;X;X;X-X;X*X*X;X;X-XOX$X;X;X;X$X",
"+X-X;X;X;X&X-X*X-X;X;X-XoX;X*X;X%Xn.s y @.8.e.s.d.s.a.p.p.r.9.7.O.2 j h.g.f.f.f.f.f.h.k J G.-X;X;X;X=X=X%X%X$X-X;X*X+X-X-X;X;X-X",
"-X;X;X*X$X$X#X$X;X;X-X#X-X%X;X;XV.3 7.h.g.f.f.f.f.f.f.g.g.g.g.g.h.q.1 q.g.f.g.f.f.f.f.O.N G.;X;X;X;X;X;X&X&X-X-X-X;X*X;X;X;X;X;X",
";X;X*X;X*X;X;X*X;X#X#X#X&X-X;X%XS =.g.g.g.g.g.g.f.f.g.g.g.f.f.f.g.g.q %.g.f.f.f.f.f.j.%.$ W.;X;X;X;X=X;X&X-X-X-X;X*X-X;X;X;X-X-X",
";X;X;X;X;X;X;X&X-X#X#X-X=X*X;X{.v a.g.d.f.g.g.g.f.f.h.f.g.f.h.f.f.g.+.j g.f.f.f.f.f.f.*.s |.;X;X;X;X;X;X-XoX$X*X;X;X;X;X;X;X-X+X",
"+X+X-X;X-X-X-X-X-X+XoX-X;X;X;X/.x h.f.f.f.f.f.f.f.f.f.f.f.g.f.g.f.g.=.6 t.f.f.f.f.f.g.6.L -X;X;X;X;X-X;X*XOX$X$X$XoX-X;X;X-X-X+X",
"oX-X;X;X-X-X;X;X%X+XoX-X;X;X;XQ.k h.h.i.i.i.i.d.f.f.f.f.f.g.g.f.f.g.0.> ,.f.f.j.g.f.g.0.P %X%X;X;X;X;X;X*X$X$XoX$X+X;X;X;X-X&XoX",
"oX-X-XoXoX-X;X-X-X-X-X-X;X;X;XK.u 4.,.>.>.| >.>.,.3.w.a.h.h.g.g.g.h.6.- | t.f.g.f.f.g.0.F .X;X;X;X;X;X;X;X*X-X$X*X*X;X;X-X-X-X-X",
";X;X-X-X-X-X;X-XoX;X;X;X;X;X;XF.w { | | | | | | { { { >.3.4.5.9.3.1. .> ] 3.f.f.g.g.g.0.A .X;X;X;X;X;X;X;X;X$XoX+X;X;X;X-X-X;X;X",
";X-X$X;X-X*X*X-X;X;X;X;X;X;X;XS.8 | | | | | | | | { | | | | | | | | [ ; ` >.s.g.f.f.g.y.n }.;X;X;X;X;X;X;X;X-X*X$X;X;X;X-X;X;X;X",
";XoXoX;X*X;X-X;X;X;X;X;X;X;X;XB.8 { | | | | | | | | | | | | | | | X.[ ; / { r.f.f.f.g.y.c {.;X;X%X;X;X;X;X-X$X-X*X*X+XoXoX-X;X;X",
";XoXoX#X$X$XoX;X;X;X-X%X;X;X;XB.8 X.| | | | | | | | | | | | | | | | { 1 ^ { 1.f.f.g.g.y.v {.;X;X;X;X;X;X;X*X$X$X*X;X*XoXoX-X;X;X",
"oXoX#X@X*X$X;X;X;X;X&X&X;X;X;XN.9 | | | | | | | | | | | | | | | | | | - ~ { >.s.f.f.g.i.m ].-X;X;X;X;X;X-X*X;X*X*X*X+XoXoX-X;X;X",
"*X*X*X$X*X*X;X;X;X-X*X*X;X;X;XN.9 | { | | | | | | | [ | | | | | | | X.- ~  .{ t.f.f.g.d.M (.-X;X;X;X;X;X;X;X-X-X;X+X$X@X$X-X;X-X",
"*X$X$X*X;X;X;X;X;X-X-X;X;X;X;XN.E { { [ | | | | | | | | | | | | | | { ; W { { 2.f.f.f.d.;.(.-X-X;X;X;X;X;X;X;X;X-X+XoX@XoX-X;X;X",
"$X$X$X*X;X;X;X;X;X-X;X;X;X;X;XA.E ..| | | | | | | | | | | | | [ | | | , W | | ,.f.f.g.d.;.`.-X-X;X=X;X;X-X-X;X;X-X+X+X@XoX-X;X;X",
"$X*X*X*X;X*X*X$X;X;X;X;X;X;X;XA.E | | | | | | | | | | | | | | | | | { , W { { >.i.g.f.f.;.(.-X-X-X=X;X;X*X-X-X-X+X+X;X*X+X;X;X;X",
"$X-X$X$X$XoXoX$X-X;X-X-X;X;X;XA.E | | | | | | | | | | | | | | | | | | 7 T {  .{ r.g.g.d.;.`.-X-X-X;X;X;X;X-X-X-X-X-X;X&X-X;X;X;X",
"*X*X*X$XoX$X$X;X;X-X*X;X;X;X;XF.R ..| | | | [ | | | | | | | | | | | | 6 T { { | 9.f.g.d.:.(.+X-X%X;X;X;X;X;X%X=X;X-X-XoXOX-X;X;X",
";X-X-X$X-X$X-X-X-X$X$X*X;X;X;XF.t ..| | | | | | | | | | | | | | | | | 6 W | | | 1.d.f.i.:.].;X*X;X;X;X;X;X;X;X;X;X;X-XOX-X;X;X;X",
"$X$X$X$X-X-X;X-X$X*X-X-X;X;X;XL.r | | | | | | | | | | [ | | | | | | | 6 W { | | ,.h.f.i.M ].*X;X;X;X;X;X;X;X;X;X;X;X-X-X;X;X;X;X",
"$X$X#XXX$X;X;X-X*X;X*X;X-X-X;XW.r | | | | | | | | | | | | | | [ | | } 6 T | | | | a.f.u.M ].-X;X;X;X;X;X;X;X;X;X;X;X;X;X;X;X;X;X",
"$X#X#X$X-X;X;X#X@X;X-X-X-X*X*X^.f { | | | | | | | | | | | | | | | | | ; ~ | | | | 4.f.y.m }.;X;X;X;X;X;X;X;X;X;X-X;X;X;X-X+X-X-X",
"$X#XXX*X;X;X;X#X@X*X*X*X;X-X*X'.h [ [ | | | | | | | | | | | | | | | { - ~ | | | | >.a.p.n }.=X=X;X;X;X;X;X;X;X;X-X-X-X-X-X-X-X+X",
"#X#XXX@X-X;X*X@X#X@X$X$X-X*X*X.XZ _ | | | | | | | | | | | | | | | | } - ! | | | [  .>.<.n |.=X;X;X;X;X;X;X;X;X;X-X;X;X-X;X;X-X-X",
"#X-XoXoX-X-XoXOX$X$X*X;X-X-X-X+XY E { | | | | | | | | | | | | | | |  .= ]  .| | | { | _ A %X;X;X;X;X;X;X;X;X;X;X;X-X;X;X;X;X;X;X",
"*X#XOX-X-X-X#X-X*XoX*X$X-X-X-X*XJ.3  .{ | | | | | | | | | | | | { | R - [ o.| | | | | ' D %X;X;X;X;X;X;X;X;X;X;X$X$X*X;X-X-X;X;X",
"@X@X#X;X;X*X-X*X#X*X;X&X-X;X-X+X}.K 2 R Q Q Q ` ] ` ` ` ) ` ` ~ 9 = * ^ o.| | | | | | _ l.%X=X;X;X;X;X;X;X;X-X$X$X$X$X*X-X;X;X;X",
"$X*X;X;X;X-X-X#XoX#X&X-X;X-X*X+X+X'.m.&       X O . . X X X O . * 7 ( { | | | | | | X.) D =X=X;X;X;X;X;X;X;X-X$X$X$X+X-X;X;X;X;X",
"$X-X-X=X;X;X#X@X@X@X-X;X;X;X*X*XoXoX$XZ.w ] ] ` ` ` / / / / / ]  .o.X. .| | | | | | | ! l.;X;X;X;X;X;X;X;X-X$X$X$X$X$X-X;X;X;X;X",
"-X-X-X=X;X;X#X-X#X;X;X;X;X*X;X*XoXOX$XJ.t | { { [ | | | X.o.| | | |  . .| | | | | | X.W x.;X;X;X;X;X;X;X;X-X$X$XOX$X&X;X;X;X;X;X",
"-X*X;X;X;X;X*X-X*X-X*X-X;X*X*X;X$XOX$XJ.u | | { { | | | [ { { ..{ { | { } | | | | | X.W v.;X;X;X;X;X;X;X;X;X-X$X$X$X-X;X-X-X;X;X",
"$X#X*X;X-X#X@X#X-X#X$X#X;X;X;X*X$XOXOXW.u ..| | | | | { 8 = - : 6 w W { } | | | | |  .R V.;X;X;X;X;X;X;X;X-X-X$X$X$X-X-X-X-X;X;X",
"*X$X-X-X#X@X#X-X*X*X$X+X;X*X;X*X#XoX$X~.g | | | | | | | ^ * V z.c.Y a [ | | | | | {  .9 S.;X;X;X;X;X;X;X;X-X&X-X$X-X$X;X;X-X;X;X",
"-X-X;X-X-X-X-X-X;X*XoX*X=X;X;X;X;XoXOX'.b | | | | | | | | e E.;X-XoXF ` | | | | | |  .w L.;X;X;X;X;X;X;X;X-X&X+X$X$X;X;X;X-X;X;X",
"#X-X;X;X-X-X-X#X*X$X$X;X;X;X;X;X;X#X#X[.b | | | | | | | [ d ~.*X+XoXS ` | | | | | { { e W.;X;X=X;X;X;X;X;X;X&X+X$X$X;X;X;X;X;X;X",
"-X;X;X;X-X-X*X-X$X$XoX+X;X;X;X;X=X-X#X XA _ | | | | | | [ f (.$X$XoXG ` | | | | | {  .f ^.;X;X;X;X;X%X%X;X;X-X+X$X$X$X;X$X*X;X$X",
";X;X;X;X=X-X*X*X#X@X@X-X;X;X;X;X*X-XoX XH ' | | | | | | [ h '.-X*X$XP ! | | | | | X.} h _.$X*X;X;X-X$X@X;X;X;X-X$X$X$X-X-X-X$X$X",
";X;X;X;X;X*X*X#X$X@X@X;X;X;X;X*X-X#XoXXXl.) | | | | | | ) C  X-X$X$XP ! | | | | | { ] c [.#X-X*X*X$X@X$X-X;X;X$X$X@X$X$X$X$X$X$X",
";X;X;X;X;X*X$X$X@X@X#X-X;X;X;X*X#XoX@X$Xv.` X.| | | | | ^ S XX$X#X#XI ! | | | | { { ` Z  X#X-X-X$XoXOXOX;X;X-X$X$X$X-X-X-X$X@X$X",
";X;X;X;X-X*X$X$XOX@X*X;X=X*X#X-X@X@X@X$XB./ | | | | | { Q L $X*X#X#Xl.Q { | | | { X.! K XX#X#X#XoXoXOXOX-X;X$X$X@X$X$X-X$X$X$X$X",
";X;X;X;X*X-X*X@X@XXX#X*X;X-X$X@X$X$X@X$X(.R.T.T.Y.Y.P.U.R.Q.-X-X;X-X!.I.T.Y.Y.Y.Y.Y.I.W.$X$X$X$X$X$X$X-X;X-X$X$X$X$X$X-X-X-X$X$X",
";X;X;X;X=X-X$X*X-X#X@X-X;X*X@X@X$X$X$X=X*X*X;X;X-X$X@X$X$X-X-X;X;X-X;X;X;X-X-X-X-X-X-X$X@X@X$X@X$X$X-X-X;X-X$X$X$X$X$X-X-X$X$X$X",
"*X-X*X*X*X$X*X-X*X#X@X*X#X-X@X-X*X$X$X*X$X*X=X-X$X#X$X$X$X;X;X;X-X$X;X-X-X-X$X$X$X-X-X$X$X$X$X$X$X-X-X-X-X$X-X;X$X$X;X;X-X$X$X$X",
"*X#X-X#X#X$X$X$X@X@X-X-X-X;X*X;X*X$X$X$X$X;X-X#X$X#X#X$X;X;X;X;X-X-X$X-X-X$X$X$X-X$X-X$X$X@X$X$X$X-X-X;X;X$X;X;X-X-X;X;X-X$X$X@X"
};
