/* XPM */
static char *___1__resized[] = {
/* columns rows colors chars-per-pixel */
"40 40 153 2 ",
"   c #140B0E",
".  c #250605",
"X  c #2E0805",
"o  c #260908",
"O  c #29090B",
"+  c #380604",
"@  c #330905",
"#  c #3B0905",
"$  c #300C0A",
"%  c #3C0C0C",
"&  c #35100D",
"*  c #3A120F",
"=  c #3F0F11",
"-  c #2D1515",
";  c #2F191A",
":  c #371513",
">  c #371817",
",  c #391816",
"<  c #391B1B",
"1  c #301F20",
"2  c #3B1E21",
"3  c #25262B",
"4  c #362323",
"5  c #3B2424",
"6  c #342729",
"7  c #3A2B2C",
"8  c #3D3335",
"9  c #440404",
"0  c #4B0304",
"q  c #430B05",
"w  c #4B0B04",
"e  c #430D0B",
"r  c #48090C",
"t  c #530305",
"y  c #5B0304",
"u  c #540C02",
"i  c #5C0C02",
"p  c #530A0C",
"a  c #59080A",
"s  c #45100B",
"d  c #5E1004",
"f  c #431315",
"g  c #481214",
"h  c #591517",
"j  c #541A1B",
"k  c #670305",
"l  c #6A0204",
"z  c #630E02",
"x  c #690F03",
"c  c #750304",
"v  c #7B0305",
"b  c #720F04",
"n  c #7A0E04",
"m  c #631005",
"M  c #6F1104",
"N  c #711104",
"B  c #7B1003",
"V  c #422426",
"C  c #492224",
"Z  c #433435",
"A  c #4D3335",
"S  c #473739",
"D  c #46393A",
"F  c #483C3E",
"G  c #5F3637",
"H  c #463F41",
"J  c #4A3F41",
"K  c #523F41",
"L  c #4B4245",
"P  c #4C4A4E",
"I  c #544345",
"U  c #51494B",
"Y  c #445055",
"T  c #575052",
"R  c #5C5355",
"E  c #5D5B5D",
"W  c #645F61",
"Q  c #626163",
"!  c #676668",
"~  c #6A6B6D",
"^  c #6C6E70",
"/  c #6F7275",
"(  c #777778",
")  c #70797D",
"_  c #7A787A",
"`  c #820102",
"'  c #8C0102",
"]  c #850E03",
"[  c #8B0D04",
"{  c #930000",
"}  c #9E0102",
"|  c #920C03",
" . c #9B0B03",
".. c #A10102",
"X. c #AE0401",
"o. c #A30903",
"O. c #B30302",
"+. c #BC0302",
"@. c #C40201",
"#. c #CC0101",
"$. c #D10000",
"%. c #7C8082",
"&. c #7F8789",
"*. c #708A90",
"=. c #848486",
"-. c #838689",
";. c #8D8B8D",
":. c #898E90",
">. c #8D9192",
",. c #949496",
"<. c #909698",
"1. c #979A9C",
"2. c #989C9D",
"3. c #8BA1A7",
"4. c #9DA2A5",
"5. c #A1A1A2",
"6. c #A5AAAB",
"7. c #ABADAE",
"8. c #ADB2B3",
"9. c #B4B6B7",
"0. c #B3BABB",
"q. c #BBBDBD",
"w. c #B7BEC1",
"e. c #BCC2C3",
"r. c #BEC6C8",
"t. c #BDC9C9",
"y. c #C0C5C6",
"u. c #C0C6C8",
"i. c #C4C9CA",
"p. c #C6CED0",
"a. c #CDD4D5",
"s. c #CDD6D8",
"d. c #CCDADA",
"f. c #D4DADB",
"g. c #DADDDE",
"h. c #DBDFE0",
"j. c #D6E1E2",
"k. c #DCE3E4",
"l. c #DCE8EA",
"z. c #E2E5E6",
"x. c #E3E7E8",
"c. c #E2EBEC",
"v. c #EAECED",
"b. c #E5F2F2",
"n. c #EAF6F6",
"m. c #ECF8F7",
"M. c #EEF7F8",
"N. c #EDF9F9",
"B. c #F2F5F5",
"V. c #F2F7F8",
"C. c #F9F6F9",
"Z. c #F4F9FA",
"A. c #FAFBFB",
/* pixels */
"Z.Z.Z.m.M.V.V.V.C.V.Z.Z.A.A.A.v.q._ I V = % = < S ( q.l.Z.M.m.M.M.M.Z.Z.Z.Z.V.N.",
"Z.Z.M.M.m.M.V.V.Z.Z.Z.C.A.v.,.K h c { O.+.@.+.O...v h I 4.l.M.M.N.Z.Z.Z.A.Z.N.N.",
"Z.Z.M.M.M.V.V.B.B.A.A.A.9.I z ..#.$.$.$.$.$.$.$.$.$.#...a R s.Z.C.C.Z.A.A.A.A.Z.",
"Z.M.M.M.V.V.V.V.A.A.C.,.g { #.$.$.$.$.$.$.#.$.$.$.$.$.$.#.{ G q.A.A.A.A.A.A.A.Z.",
"V.Z.Z.V.V.A.C.C.A.A.:.r X.$.$.$.$.$.$.$.$.#.$.$.$.$.$.$.$.$.O.j ,.C.A.A.A.Z.Z.M.",
"Z.A.Z.Z.V.C.Z.C.A.7.f O.$.$.$.$.$.$.$.$.$.$.$.$.$.#.$.$.$.$.$.O.g 6.A.A.Z.Z.Z.M.",
"Z.Z.Z.Z.A.A.A.Z.z.K { $.$.$.$.$.$.$.$.$.$.$.$.$.$.$.$.$.$.$.$.$.} > =.v.Z.Z.M.N.",
"A.A.Z.Z.A.A.A.A.1.a #.$.$.$.$.$.$.$.$.#.$.$.#.$.$.$.#.$.$.$.$.$.#.t 3 -.B.Z.M.B.",
"Z.V.Z.C.A.A.A.B.R { $.$.$.$.$.$.$.$.$.$.$.$.$.$.#.$.$.#.$.$.$.$.$.{ P ) 9.C.Z.A.",
"C.Z.A.A.A.A.A.g.V ..O.X.................O.+.@.$.$.$.$.$.$.$.#.$.$.O.2 3.-.M.Z.A.",
"A.Z.Z.A.A.f.5.W O 0 t y i y y u t t t 0 9 9 r k O.$.$.$.$.$.$.$.$.#.r *.%.B.A.A.",
"Z.Z.Z.B.;.C c { O.+.@.#.#.#.#.#.#.#.#.@.@.O...l 9 +.$.$.#.$.$.$.$.$.k Y / Z.Z.Z.",
"B.Z.A.q.f O.$.$.$.$.$.$.$.$.$.$.$.$.$.$.$.$.$.#.9 v $.$.$.$.$.$.$.$.'   :.Z.M.M.",
"Z.A.A.=.c $.$.$.$.$.$.$.$.$.$.$.$.$.$.$.$.$.$.$.` # O.#.$.$.$.#.$.$...6 f.N.N.M.",
"A.A.C.Q ` @.+.O.O.X.X.X.O.+.@.#.#.$.$.$.$.$.$.$...o b +.$.$.$.$.$.$.O.A x.M.n.M.",
"A.Z.v.L i n N N M N N N N B B ] | o.X.O.O.O.o. .n . m ] @.$.$.$.$.#.+.V f.N.N.n.",
"A.Z.v.8 u N M M N M M M M M M M M M M N N N M M x o u M  .$.$.$.$.$.@.f i.Z.m.m.",
"Z.A.k.7 u M M M M M M M M M N M M M M M M M N M M o u M B +.$.#.$.$.@.g e.Z.M.Z.",
"V.Z.h.6 d M M M M M M M M M M M M M M M M M M M M X w N M  .$.$.$.$.#.p 0.A.A.Z.",
"N.N.h.6 d M M M M M M M M M M M M M M M M M M M M X q M M B @.$.$.#.#.p 8.A.Z.M.",
"V.Z.z.7 d M M M M M M N M M M M N M M M M M M M M @ s N M M o.#.$.$.#.a 8.A.Z.M.",
"Z.V.v.Z d M M M M M M M M M M M M M M M M M M M N @ # N M M ] #.$.$.$.a 8.A.A.A.",
"Z.A.v.F d M M M M M M M M M M M M M M M M M M M M @ # N M M N O.$.$.#.a 8.A.A.Z.",
"A.A.B.U u N M M N M M M M M M M M M N M M M M N M @ s N M N N | $.$.#.p 0.A.N.Z.",
"A.Z.N.W q N M M M M M M M M M M M M M M M M M M M @ q N M M M B @.$.#.g e.A.Z.Z.",
"C.Z.Z.>.# M M M M M M M M M M M M M M M M M M M M X s M M M M M [ +.@.g i.A.A.N.",
"B.Z.A.y.: m N M M M M M M M M M M M M M M M M M x . u M M M M M M N n < a.A.N.N.",
"N.Z.Z.b.Q + m M N M M M N N N N N N N N N N M m s . d M M M M M M b z 4 g.Z.M.N.",
"A.A.V.N.f.! 5 & @ @ # # q # # q # # q q # @ X o X d M N M M M M M M i Z c.Z.Z.Z.",
"A.A.Z.N.m.b.d.&.o w w q q w q e q q # q w u u m M N M M M N M M M N i J n.N.N.N.",
"A.Z.N.N.m.n.N.w.* N N N N N M M N M N N N N N M M M M M M N M M M M w T B.Z.Z.Z.",
"V.m.N.m.m.n.m.t., M M M M M M M M w # # * s s q p M M M M M M M M b q ^ C.Z.Z.A.",
"n.N.Z.Z.N.N.m.d.6 m M M M M M N x z @ H 6.8.8.<.4 m M M M M M M b M % :.A.Z.Z.A.",
"N.V.A.C.Z.N.m.l.D i N M M M M M M N # =.Z.Z.Z.c.D i M M M M M M M M $ 6.A.Z.Z.A.",
"Z.C.A.A.N.N.m.b.R u N M M M M M M M $ 4.Z.N.N.c.D i N M M M M M M x - u.Z.Z.A.A.",
"A.A.Z.Z.m.m.n.m.( w N N M M M M b x - w.Z.N.N.b.H i N M M M M M M i 6 h.N.Z.A.Z.",
"A.A.Z.N.n.n.n.m.2.e N M M M M M N z 1 s.Z.M.M.b.U u N N M M N M N u F l.N.N.N.N.",
"Z.A.N.n.n.n.n.n.r.: z x M M M M x 0 8 l.N.V.M.m.E 9 N N N N N N N 9 E m.N.N.N.N.",
"Z.m.n.m.n.n.n.n.b.>.Z < : : : > 2 Z <.M.N.M.m.M.6.4 q q w w w # % ; 1.A.Z.N.N.N.",
"B.Z.m.n.n.n.n.n.n.m.j.r.0.8.0.e.p.k.N.N.N.M.N.N.m.u.;.~ E Q ^ %.2.r.v.A.Z.N.N.Z."
};
