/* XPM */
static char *wateranimate2_waterfall_sprite_11562927102kdtqlgfvnz__1__removebg_preview_resized[] = {
/* columns rows colors chars-per-pixel */
"64 64 232 2 ",
"   c #6B361C",
".  c #5F3F24",
"X  c #6D3E23",
"o  c #0F5237",
"O  c #374938",
"+  c #395537",
"@  c #2B4D39",
"#  c #106F3A",
"$  c #5A422D",
"%  c #5B4A33",
"&  c #46553D",
"*  c #59523A",
"=  c #4A4931",
"-  c #69452C",
";  c #7C4A2C",
":  c #75472C",
">  c #674A34",
",  c #7B4E32",
"<  c #744D32",
"1  c #685337",
"2  c #785538",
"3  c #7D613D",
"4  c #134947",
"5  c #015445",
"6  c #01534C",
"7  c #015C40",
"8  c #175A47",
"9  c #194D54",
"0  c #0C5955",
"q  c #1B555B",
"w  c #364A4E",
"e  c #2A5343",
"r  c #385A47",
"t  c #304F52",
"y  c #0E634A",
"u  c #166958",
"i  c #126F5A",
"p  c #3E6249",
"a  c #356543",
"s  c #236957",
"d  c #356A57",
"f  c #29745B",
"g  c #39775C",
"h  c #256348",
"j  c #165A67",
"k  c #255B6C",
"l  c #28586A",
"z  c #275C74",
"x  c #2C5C73",
"c  c #2C5E79",
"v  c #31586E",
"b  c #19666C",
"n  c #166865",
"m  c #1A6B77",
"M  c #177579",
"N  c #0A6566",
"B  c #2C6D6C",
"V  c #396765",
"C  c #2D7368",
"Z  c #37756B",
"A  c #296176",
"S  c #26667A",
"D  c #296379",
"F  c #246C7D",
"G  c #2C6A7C",
"H  c #276076",
"J  c #326277",
"K  c #336478",
"L  c #3C6B7D",
"P  c #396A75",
"I  c #29757A",
"U  c #357375",
"Y  c #3C7977",
"T  c #4A5948",
"R  c #575D48",
"E  c #4C5D51",
"W  c #504F49",
"Q  c #695940",
"!  c #775C43",
"~  c #40644A",
"^  c #566957",
"/  c #527658",
"(  c #536851",
")  c #7B664B",
"_  c #7A6448",
"`  c #6A6C53",
"'  c #666749",
"]  c #4B6F61",
"[  c #447263",
"{  c #477768",
"}  c #537563",
"|  c #557A69",
" . c #447977",
".. c #406F7F",
"X. c #6C7967",
"o. c #854D2D",
"O. c #895838",
"+. c #915C3B",
"@. c #8B6343",
"#. c #846447",
"$. c #9B6B48",
"%. c #9F724E",
"&. c #A5714D",
"*. c #A16947",
"=. c #33843B",
"-. c #288149",
";. c #1D8A7A",
":. c #398478",
">. c #328272",
",. c #438669",
"<. c #4B8977",
"1. c #558A77",
"2. c #479174",
"3. c #59957D",
"4. c #518964",
"5. c #688979",
"6. c #679478",
"7. c #78937B",
"8. c #778773",
"9. c #5B9F63",
"0. c #8F8F73",
"q. c #1D7583",
"w. c #1D7A86",
"e. c #1D7D8A",
"r. c #167A81",
"t. c #266E81",
"y. c #227383",
"u. c #227A86",
"i. c #277B87",
"p. c #377985",
"a. c #3F6E80",
"s. c #426F80",
"d. c #467584",
"f. c #487684",
"g. c #447984",
"h. c #497985",
"j. c #427E89",
"k. c #4D7A8A",
"l. c #1B808D",
"z. c #1D8A94",
"x. c #1C909F",
"c. c #23848D",
"v. c #2B878B",
"b. c #3D838B",
"n. c #388888",
"m. c #238B94",
"M. c #248B96",
"N. c #23949B",
"B. c #29999D",
"V. c #279598",
"C. c #349796",
"Z. c #328F8E",
"A. c #269AA1",
"S. c #29A4A7",
"D. c #2DB0AF",
"F. c #42838B",
"G. c #498D84",
"H. c #578B82",
"J. c #599589",
"K. c #459695",
"L. c #4E9887",
"P. c #679987",
"I. c #759889",
"U. c #658880",
"Y. c #58A493",
"T. c #6FA997",
"R. c #74A494",
"E. c #7DAA9B",
"W. c #76A997",
"Q. c #7CB59D",
"!. c #75AA8E",
"~. c #79B2A3",
"^. c #89988B",
"/. c #85A899",
"(. c #87B599",
"). c #90B591",
"_. c #84AAA0",
"`. c #91ADA2",
"'. c #84B3A2",
"]. c #8CB9A7",
"[. c #92B3A6",
"{. c #98BAAB",
"}. c #9ABCB3",
"|. c #A4BEB5",
" X c #A1B9AF",
".X c #94C3B1",
"XX c #9DC7B6",
"oX c #9AC0AF",
"OX c #A7C7BA",
"+X c #B3C8BC",
"@X c #ACD1B7",
"#X c #ADCBC2",
"$X c #B3CDC3",
"%X c #B3CBC4",
"&X c #B9D4C9",
"*X c #BBDAD2",
"=X c #C5D6CE",
"-X c #C4DCD4",
";X c #C9DDD4",
":X c #CCDED8",
">X c #C4DAD4",
",X c #CCE2DA",
"<X c #C6E0D7",
"1X c #D4E1DB",
"2X c #D6E7DD",
"3X c #C7E0C9",
"4X c #CCE7E2",
"5X c #D5EAE4",
"6X c #DBEAE4",
"7X c #DBEDE9",
"8X c #D8E6E3",
"9X c #DEF1EE",
"0X c #DFF2F0",
"qX c #E2EAE5",
"wX c #E3EDEB",
"eX c #E4F1EC",
"rX c #EBF2EE",
"tX c #E2F2E4",
"yX c #E7F6F6",
"uX c #EAF6F6",
"iX c #E6F8F7",
"pX c #EAF8F7",
"aX c #E7F7F8",
"sX c #EDF7F9",
"dX c #ECF8F9",
"fX c #E7F8F8",
"gX c #F2F6F6",
"hX c #F4F8F7",
"jX c #F1F7F9",
"kX c #FAF7FB",
"lX c #F4F9FA",
"zX c #FAFAFA",
/* pixels */
"zXzXzXlXhXjXsXyXyXyXyXgXjXjXhXkXgXlXzXzXzXzXzXlXlXhXzXzXzXzXzXzXkXhXzXzXzXzXzXzXlXlXlXzXlXlXzXkXzXzXzXzXzXzXlXlXsXdXdXdXdXdXdXjX",
"lXzXlXdXsXsXpXpXuXuXuXuXsXjXkXkXzXlXhXhXzXzXzXzXlXhXlXkXgXzXzXzXkXkXhXzXzXzXzXzXlXzXdXsXlXlXzXzXzXzXzXzXzXzXdXlXdXsXdXdXdXdXsXlX",
"lXlXlXdXpXpXyXpXyXyXuXuXsXsXhXkXhXzXhXgXgXhXhXzXzXzXzXzXkXzXzXkXkXzXhXzXzXzXzXhXhXjXsXsXdXlXlXzXlXzXzXzXzXdXlXjXdXsXsXdXdXdXdXlX",
"dXsXsXpXyXpXyXyXyXuXyXuXsXjXjXjXgXkXzXhXkXkXzXhXrXzXzXhXhXkXgXrXzXkXzXzXzXgXrXgXsXsXsXpXpXsXjXlXzXzXlXzXjXjXsXsXlXsXsXsXsXsXlXzX",
"pXpXpXyXyXaXaXyXyXuXuXsXsXuXgXhXlXzX:X=XzXhXgXqX|.8XhXzXzXzX%XOXzXrX#XzXzXeX%XlXkXsXsXsXpXsXdXlXzXlXlXsXjXsXsXdXdXjXdXdXjXlXlXlX",
"aXyXiXyXaXyXaXyXyXuXsXsXsXgXjXrXgXzXOXR.zX1X{.wX|.I.1XzXqXyX5.5.zX=X] &XzXE._.7X}.eXuXpXlXdXlXlXzXdXdXdXlXdXlXsXsXdXdXdXjXzXlXzX",
"iXiXiXiXyXpXyXpXuXsXsXsXsXuXkXrX_.5XE.e 1X[.R OXI.& /.zX+XU.` 1 /.I.% E.*XO } 5.& E.}.zX=X8XlXzXdXzXlXdXpXdXsXdXgXsXsXlXlXlXzXzX",
"yXiXiXyXpXpXpXpXuXsXsXsXsX7X#X4X<.s ~ - U.8.O.R E 2 X.5X0.* #.2 r > ; ) [ * _ #.@.8 u E.} 8.4X=XwXzXyXeXlXdXsXsXgXjXlXlXzXzXzXzX",
"uXyXuXyXsXsXsXjXsXsXsXsXuXzX%X| p _ 2 : % O.o.: 2 o.) 5.#.$.o.< X > * 1 O $ $.&.O.- > @ 1 ) d [ 8XOX'.gXlXdXdXgXlXzXzXhXzXzXzXzX",
"uXuXuXuXpXsXsXsXjXsXsXsX%XR.1.Q *.&.o.R } / ] %   : ! #.&.%.< - ^ C.S.B.n.E - X - E T $ o.@.% e y f ;XzXdXzXzXzXzXzXzXzXzXzXzXzX",
"sXuXuXuXsXsXsXsXsXjXsXzX4XE % 2 ; 1 Y C.N.x.N.v.{ % 1 +.o.O.  [ N.z.i.t.q.z.U :.n.M.l.I | < ! @ = 4.6X+X<XzXlXzXzXzXzXzXzXzXzXzX",
"uXjXsXsXsXsXjXsXsXjX:X_.R.~ 2 , ] B.N.e.q.w.w.B.B.V.I T ^ ^  .B.y.S F S F e.x.D.B.u.c.B.A.] < > +.p [ '.$XdXzXzXzXkXzXhXkXzXzXzX",
"sXuXjXsXsXjXjXjXjXsXlX3.+ + . ^ D.N.m.w.w.w.w.w.q.e.A.B.D.S.z.c.q.w.y.S S S H t.c.u.q.M c.Z.. : @.#.' d 0.iXzXzXzXzXzXhXzXkXkXzX",
"gXsXjXsXjXsXsXsXlXwXT.a * $.> n.A.l.M t.A H F y.w.w.c.u.F y.S z x x x x x x x v A A z S t.M.[ o.$.&.$.* 1.,XzXlXzXzXzXzXzXkXzXzX",
"jXjXjXsXjXsXjXjXsX:X8.#.O.; R M.e.w.q.y.F F F F w.w.q.t.S c x x x x x x x x x x x x F I e.M.U O.&.&.+.* ~ 7.6XzXkXzXkXzXzXzXzXzX",
"jXsXjXjXjXsXsXgXhXuX[.( +.< Z.A.N.w.q.I S A A H x x A z c z v x x x x x x x x x x x A A c c c.} O.O.< * p /.,XhXzXzXzXzXzXzXzXzX",
"sXsXsXsXsXsXsXjXkXzX_.T $.< c.w.S S x x x x x x x x x x x x x x z x z x x x x x x x v x x x y.c.V ] - +.1 1.-XrXzXzXkXzXzXzXkXzX",
"sXsXsXsXjXsXsXjXhXjX^., @.Z z.F A A D D x J ..s.s.P c x x x x x x J J L d.d.s.d.s.d.a.x x x H q.z.S.V < * !.uXlXzXzXkXkXzXzXzXzX",
"sXjXsXjXsXsXsXjXhXhXqX_ { S.M.w.w.w.F F p.s.h.d.d.d.d.L P L L L s.d.d.d.d.d.f.f.d.d.f.K x x x x S y.z.T + :.qXzXzXzXzXzXkXzXkXkX",
"sXsXsXsXjXjXsXjXjXrXqXI.z.v.z H A H A P d.h.h.h.d.d.d.f.d.d.d.d.d.d.d.d.d.d.h.d.d.d.d...G A z y.q.i.V.n.T {.uXzXzXzXzXzXzXzXzXzX",
"sXsXsXsXsXsXsXjXzX&X .q x x x x x x L f.d.d.h.h.h.h.d.d.d.h.d.d.d.d.f.f.d.d.d.d.d.d.F.b.C.v.u.e.w.c.B.A.G.5.,XzXhXzXzXhXzXzXzXzX",
"sXsXjXjXsXsXsXjXzXzX7XG.z x x x x L d.f.s.d.h.h.h.d.d.d.h.h.h.h.d.d.f.f.d.d.d.d.d.d.j.F.j.j.G c A S u.I L.,XzXkXzXzXzXhXzXzXzXzX",
"sXsXsXsXsXsXsXjX$X{.%X<.9 x x x x L h.h.d.d.d.d.d.d.d.h.h.h.h.h.d.d.d.d.d.d.f.h.f.f.d.d.d.d.L x x x l 5 y ,.OXgXzXzXzXzXhXzXzXzX",
"sXjXsXjXjXsXjXkX:X].8 4 k A c x x L h.h.h.d.d.d.d.h.d.d.h.h.f.d.d.f.d.d.d.h.h.h.h.h.f.d.d.h.L x x x k 9 [ [.=XgXzXzXzXzXhXhXzXzX",
"sXsXsXjXhXhXlXlXzXeX/. .w.y.S x x s.f.f.h.h.d.d.d.d.d.d.f.d.d.d.d.f.f.d.f.h.h.h.h.h.h.d.d.f.L x x x v ^ [.+XzXzXhXhXzXzXzXhXkXzX",
"jXsXsXjXlXzXzXlXzXzXzXgXY.6 x x l L k.f.h.d.d.h.h.d.d.d.h.f.f.d.d.f.d.d.d.h.h.h.h.h.h.d.h.h.a.z x q o {.gXzXzXzXzXzXhXzXzXzXzXhX",
"jXsXsXkXhXhXzXzXzXzXzXrX<.N u.S S p.F.F.h.d.d.h.h.d.d.d.h.h.h.h.f.d.d.d.d.d.f.f.d.d.d.d.f.h.p.S y.M y oXzXzXzXzXzXzXzXzXzXzXzXhX",
"lXlXjXjXzXhXzXzXzXzX2XH.m e.w.e.q.p.F.F.F.f.d.d.d.d.d.h.h.h.h.h.h.d.d.f.h.d.d.d.d.f.d.d.d.d.P x x t.m e 5.;XzXzXzXhXhXzXzXzXzXzX",
"zXlXlXzXkXhXzXkXzXzX}.0 F S x x K d.d.d.f.f.h.f.h.f.d.h.h.h.f.h.h.d.d.h.h.h.d.d.d.h.h.h.h.d.x x x x t.4 o &XzXzXkXkXhXkXhXzXzXzX",
"lXzXzXzXzXzXzXzXzX[.T t c x x x K d.d.d.h.h.h.h.h.h.d.d.d.d.f.k.d.d.d.d.h.h.d.d.f.f.h.h.h.d.c x A u.G ! ` g 5XzXhXzXzXzXzXkXzXzX",
"zXlXzXzXzXkXzXzXzX&X^.* b F A x a.d.d.d.d.d.h.h.d.d.d.d.d.d.f.d.d.h.h.d.d.d.d.d.f.f.f.h.h.d.c x c D w 3 0.J.wXzXzXzXzXkXzXzXhXkX",
"zXzXzXzXkXzXzXzXzXzX*X# n e.S x d.h.h.d.d.d.d.d.d.d.d.h.h.h. .f.h.g.h.h.d.d.h.h.h.f...f.f...x x x x j 8 @XzXzXhXzXhXhXhXzXzXhXzX",
"zXzXzXzXhXzXzXzXhX1X| = W S x x h.h.h.h.h.d.d.f.d.d.h.h.h.d.d.d.d.h.h.d.d.h.h.h.h.h.h.F.j.p.u.q.y.w.e.C.G.OXrXzXzXzXkXzXzXzXzXzX",
"zXzXzXzXzXzXzXzXrXOX/ 3 > x v J g.h.h.h.h.d.h.f.d.d.d.d.d.d.d.j.h.d.d.d.d.d.h.h.h.d.h.b.F.b.t.u.e.e.z.N.;.R.6XzXzXzXkXzXzXzXzXzX",
"zXzXzXzXzXhXzXzXzXzXyX6.w A x x s.d.d.d.d.d.d.d.d.f.d.d.d.d.h.h.h.h.d.d.d.d.g.d.d.d.d.d.f.f.P x H D m J.6XzXzXkXzXzXzXzXzXzXzXzX",
"zXzXzXzXzXzXhXhXzXtX}.{ 7 k x x g.h.d.d.h.d.d.d.h.h.d.d.d.h.h.h.h.h.h.d.d.d.h.d.d.f.f.d.d.h.p.t.S t.q P.[.$XzXzXzXzXkXzXzXzXzXkX",
"kXzXzXzXzXdXzXzXwX(.h = q l x c d.f.d.d.f.h.d.d.h.h.d.d.d.h.h.h.h.h.h.d.d.d.h.d.d.f.h.d.d.f.F.p.u.q.b b 6 ,.1XgXzXzXzXzXkXzXzXzX",
"zXzXzXzXzXzXzXzX&X`.[.^ k A v x s.d.d.d.d.d.d.d.f.d.d.d.d.f.h.h.h.h.d.d.h.d.d.d.d.f.f.d.d.d.f.d.D x c B [.R.!.wXzXkXzXzXzXzXzXzX",
"zXzXzXzXzXzXzXzXzXgX/.v.m.v.t.t.L d.d.s.d.d.h.h.h.h.d.d.d.f.d.d.d.d.d.d.d.d.d.d.d.d.d.d.h.h.h.L x x x v H.,XzXzXzXkXzXzXzXkXzXkX",
"hXhXzXzXlXzXzXzXzX-X,.M u.c.w.S G F.F.j.j.d.d.d.h.h.f.d.f.f.d.d.f.h.d.d.d.h.h.h.d.d.d.d.h.d.h.K x x x j n oXzXzXzXzXzXzXzXhXkXhX",
"zXzXzXzXhXhXhXhXhX+X<.u r.w.q.w.u.n.F.b.j.d.f.d.d.h.d.d.d.d.d.d.f.h.d.d.d.f.h.h.f.d.d.f.g.d.d.K x x c q f `.gXzXzXzXzXzXkXhXlXdX",
"zXzXzXzXzXhXhXzXwXI.C l.q.S D x c a.k.s.d.f.h.h.f.h.d.d.d.f.d.g.d.d.d.d.d.g.f.f.d.d.f.f.h.h.h.K l x x x j ] 1XzXzXzXzXzXhXlXjXdX",
"zXzXzXzXzXlXhXhX&Xf M y.x z x x z L d.d.d.h.h.h.h.h.d.d.f.h.f.f.d.d.h.h.d.d.d.d.d.d.h.h.h.h.h.K x c t.F J.-XhXzXzXzXkXhXgXsXdXdX",
"zXhXzXzXgXhXzX3XQ.1.Y.Z.u.t.x x x L f.d.d.d.h.f.d.d.d.d.h.h.h.h.d.d.d.f.d.d.d.d.d.d.d.h.h.h.d.K F y.q.i @XzXhXzXzXkXzXkXgXsXsXgX",
"kXkXzXzXzXzXhXhXuXtX6.n t.F S x A L h.d.d.d.d.d.d.d.d.f.h.h.h.f.f.d.d.d.s.f.h.h.d.d.d.d.d.d.d.K x x j w 8.3XzXzXzXhXzXzXlXdXdXdX",
"zXhXkXzXlXhXhXzX].f T t c x x x x L k.h.h.h.d.d.f.h.f.d.h.h.d.d.d.d.d.d.d.k.h.h.h.h.d.d.d.d.a.x x x v %.7.6.gXzXzXzXzXzXzXdXhXdX",
"zXhXzXhXlXjXjXzX1Xf h T l c x x x L h.h.h.h.d.d.d.d.d.d.d.d.d.d.f.h.h.d.f.h.h.h.h.h.h.j.d.h.a.x x z w o >.2XzXzXzXzXzXzXzXlXdXsX",
"zXkXzXlXjXzXzXzX5Xg P.} % w l x v ..h.h.h.d.d.f.h.d.d.d.f.d.h.f.d.d.g.d.d.h.h.h.h.h.d.d.d.h.L S b n 5 g =XhXzXzXzXzXzXzXzXzXgXgX",
"zXhXhXzXzXzXzXzXtXOXQ.f a _ #.v m a.d.f.f.d.d.h.h.d.d.k.h.h.h.h.d.d.d.h.d.d.g.h.d.d.d.d.h.h.c S b u T.I.%XzXzXzXzXzXzXzXzXlXdXgX",
"zXzXhXzXzXkXzXhXzXzX3.3.2.4.0.8 q.n.d.s.d.f.f.h.f.d.U I k.h.h.h.h.h.d.h.g.d.d.d.d.k.f.f.F.b.y.q.r.0 &XzX8XzXzXzXzXzXzXzXlXzXdXlX",
"zXzXzXzXzXhXzXzXkXrX1XzXW.2.3.& B p.d.d.k.f.f.a.U k.B # C h.h.g.Y a.a.d.s U g.a.d.Y d.h.h.j.t.0 1.'.,.qXzXzXzXzXzXzXzXzXlXdXdXaX",
"zXzXzXhXzXzXkXhXhXzXzXlX#XwX&X-.h A b.B p.C.F.<.C ..-.,.2.Y g.L n I.^.U.W.;.n.n.U i Y h.g. .B C P.wX&X6XzXkXzXzXzXzXkXhXlXlXaXaX",
"kXzXzXhXzXzXzXhXkXzXlXzXzXlXOX.Xu 8 T.R.G.v.K.*XQ.1.{.tX*X@XP.5.4.(.@X@X(.-.~.~.u # s d.C { ^.$XE.}.zXzXzXzXzXzXzXzXhXhXaXsXaXaX",
"hXzXhXkXkXzXkXzXkXzXlXzXzXyX<X7XQ./.:X}..Xg [.sXXXOX5XlXyXdX%XP.).9.oXtX(.:..XXX-.=.r e 1./.OXQ.;X,XzXzXzXzXzXzXlXsXaXdXaXaXsXaX",
"zXzXhXzXhXzXzXzXzXzXlXzXlXlXpXiXyX4XfX&X.X!.7X0X.X6XyXaXfXlX5X*XpX3X,XzX2X@X].pX&X@X}.:..XXX0X4XlXlXlXzXzXzXzXdXaXsXsXaXaXaXaXaX",
"kXhXzXzXzXzXzXzXzXzXzXlXlXdXiXiXdXfXfX0X4X7XsX0X<XaXaXsXpXpXdXzXdXdXlXpXlXyX,XdXlXlXdXOX4XyXdXpXpXgXhXlXzXzXlXdXaXaXpXsXaXaXaXaX",
"zXjXzXzXzXzXzXzXzXzXlXlXaXpXpXuXyXuXyXuXsXsXuXsXdXdXdXdXjXsXsXsXdXdXsXsXsXsXlXyXyXyXuX0XaXdXuXyXpXsXsXlXgXsXaXfXpXpXaXaXaXaXaXsX",
"zXzXzXkXkXkXzXkXlXlXgXsXpXpXuXyXyXyXuXyXuXyXuXsXsXsXsXdXdXdXdXdXlXdXsXsXsXsXpXpXuXpXyXpXaXaXsXyXpXsXsXdXsXaXaXfXyXyXaXaXaXaXaXaX",
"zXzXzXzXzXkXzXlXaXsXsXsXuXuXyXuXyXuXyXuXyXuXsXrXdXsXdXdXdXdXsXjXdXsXsXsXsXpXyXuXyXpXyXyXaXaXuXsXsXsXlXlXsXyXiXiXyXyXiXaXaXsXaXsX",
"lXzXzXzXzXzXkXsXsXaXiXaXyXuXyXyXuXyXuXuXuXsXsXsXdXpXsXdXjXdXsXdXdXsXsXsXuXpXpXyXyXaXaXpXaXaXsXsXgXgXlXlXgXaXdXpXyXyXiXiXuXaXaXhX",
"zXzXzXzXlXjXsXdXdXsXuXuXyXuXyXuXyXuXsXuXsXsXsXsXsXsXsXsXsXsXsXsXsXjXsXuXuXuXuXuXyXpXyXpXfXpXpXlXkXhXzXzXzXsXiXiXiXiXaXaXsXpXsXdX",
"zXlXlXlXjXdXdXdXyXsXuXpXpXyXuXyXyXuXyXuXsXdXdXjXsXsXsXsXsXjXdXjXsXjXsXsXuXuXuXyXyXpXyXyXsXjXjXkXzXkXhXzXzXdXdXaXaXsXdXsXsXuXdXdX",
"zXzXdXdXdXdXaXsXsXsXuXuXyXyXyXyXuXyXyXuXsXsXjXjXjXjXjXjXsXjXsXsXsXsXsXsXuXuXpXuXaXpXaXpXjXzXzXzXkXkXhXkXzXlXzXaXaXdXsXsXdXdXdXdX",
"lXlXdXdXpXaXaXaXaXyXyXuXuXyXpXpXyXyXuXsXsXsXsXjXjXjXsXjXsXsXsXsXsXjXsXjXuXuXsXuXaXpXpXlXzXzXzXzXzXzXkXzXzXzXzXsXsXsXdXdXdXhXdXpX"
};
